<svg width="360" height="372" viewBox="0 0 360 372" fill="none" xmlns="http://www.w3.org/2000/svg">
<path d="M19.58 132L23.996 115.2H29.516L33.932 132H30.668L29.756 128.304H23.756L22.844 132H19.58ZM24.5 125.376H29.012L26.972 117.192H26.54L24.5 125.376ZM41.0549 132.192C40.1269 132.192 39.3109 131.984 38.6069 131.568C37.9189 131.136 37.3829 130.544 36.9989 129.792C36.6149 129.04 36.4229 128.176 36.4229 127.2V120.096H39.4469V126.96C39.4469 127.856 39.6629 128.528 40.0949 128.976C40.5429 129.424 41.1749 129.648 41.9909 129.648C42.9189 129.648 43.6389 129.344 44.1509 128.736C44.6629 128.112 44.9189 127.248 44.9189 126.144V120.096H47.9429V132H44.9669V130.44H44.5349C44.3429 130.84 43.9829 131.232 43.4549 131.616C42.9269 132 42.1269 132.192 41.0549 132.192ZM56.348 132C55.564 132 54.924 131.76 54.428 131.28C53.948 130.784 53.708 130.128 53.708 129.312V122.592H50.732V120.096H53.708V116.4H56.732V120.096H59.996V122.592H56.732V128.784C56.732 129.264 56.956 129.504 57.404 129.504H59.708V132H56.348ZM68.4554 132.336C67.2714 132.336 66.2074 132.096 65.2634 131.616C64.3194 131.136 63.5754 130.44 63.0314 129.528C62.4874 128.616 62.2154 127.52 62.2154 126.24V125.856C62.2154 124.576 62.4874 123.48 63.0314 122.568C63.5754 121.656 64.3194 120.96 65.2634 120.48C66.2074 120 67.2714 119.76 68.4554 119.76C69.6394 119.76 70.7034 120 71.6474 120.48C72.5914 120.96 73.3354 121.656 73.8794 122.568C74.4234 123.48 74.6954 124.576 74.6954 125.856V126.24C74.6954 127.52 74.4234 128.616 73.8794 129.528C73.3354 130.44 72.5914 131.136 71.6474 131.616C70.7034 132.096 69.6394 132.336 68.4554 132.336ZM68.4554 129.648C69.3834 129.648 70.1514 129.352 70.7594 128.76C71.3674 128.152 71.6714 127.288 71.6714 126.168V125.928C71.6714 124.808 71.3674 123.952 70.7594 123.36C70.1674 122.752 69.3994 122.448 68.4554 122.448C67.5274 122.448 66.7594 122.752 66.1514 123.36C65.5434 123.952 65.2394 124.808 65.2394 125.928V126.168C65.2394 127.288 65.5434 128.152 66.1514 128.76C66.7594 129.352 67.5274 129.648 68.4554 129.648ZM77.9667 132V120.096H80.9427V121.392H81.3747C81.5827 120.992 81.9267 120.648 82.4067 120.36C82.8867 120.056 83.5187 119.904 84.3027 119.904C85.1507 119.904 85.8307 120.072 86.3427 120.408C86.8547 120.728 87.2467 121.152 87.5187 121.68H87.9507C88.2227 121.168 88.6067 120.744 89.1027 120.408C89.5987 120.072 90.3027 119.904 91.2147 119.904C91.9507 119.904 92.6147 120.064 93.2067 120.384C93.8147 120.688 94.2947 121.16 94.6467 121.8C95.0147 122.424 95.1987 123.216 95.1987 124.176V132H92.1747V124.392C92.1747 123.736 92.0067 123.248 91.6707 122.928C91.3347 122.592 90.8627 122.424 90.2547 122.424C89.5667 122.424 89.0307 122.648 88.6467 123.096C88.2787 123.528 88.0947 124.152 88.0947 124.968V132H85.0707V124.392C85.0707 123.736 84.9027 123.248 84.5667 122.928C84.2307 122.592 83.7587 122.424 83.1507 122.424C82.4627 122.424 81.9267 122.648 81.5427 123.096C81.1747 123.528 80.9907 124.152 80.9907 124.968V132H77.9667ZM102.627 132.336C101.779 132.336 101.019 132.192 100.347 131.904C99.6751 131.6 99.1391 131.168 98.7391 130.608C98.3551 130.032 98.1631 129.336 98.1631 128.52C98.1631 127.704 98.3551 127.024 98.7391 126.48C99.1391 125.92 99.6831 125.504 100.371 125.232C101.075 124.944 101.875 124.8 102.771 124.8H106.035V124.128C106.035 123.568 105.859 123.112 105.507 122.76C105.155 122.392 104.595 122.208 103.827 122.208C103.075 122.208 102.515 122.384 102.147 122.736C101.779 123.072 101.539 123.512 101.427 124.056L98.6431 123.12C98.8351 122.512 99.1391 121.96 99.5551 121.464C99.9871 120.952 100.555 120.544 101.259 120.24C101.979 119.92 102.851 119.76 103.875 119.76C105.443 119.76 106.683 120.152 107.595 120.936C108.507 121.72 108.963 122.856 108.963 124.344V128.784C108.963 129.264 109.187 129.504 109.635 129.504H110.595V132H108.579C107.987 132 107.499 131.856 107.115 131.568C106.731 131.28 106.539 130.896 106.539 130.416V130.392H106.083C106.019 130.584 105.875 130.84 105.651 131.16C105.427 131.464 105.075 131.736 104.595 131.976C104.115 132.216 103.459 132.336 102.627 132.336ZM103.155 129.888C104.003 129.888 104.691 129.656 105.219 129.192C105.763 128.712 106.035 128.08 106.035 127.296V127.056H102.987C102.427 127.056 101.987 127.176 101.667 127.416C101.347 127.656 101.187 127.992 101.187 128.424C101.187 128.856 101.355 129.208 101.691 129.48C102.027 129.752 102.515 129.888 103.155 129.888ZM116.979 132C116.195 132 115.555 131.76 115.059 131.28C114.579 130.784 114.339 130.128 114.339 129.312V122.592H111.363V120.096H114.339V116.4H117.363V120.096H120.627V122.592H117.363V128.784C117.363 129.264 117.587 129.504 118.035 129.504H120.339V132H116.979ZM128.846 132.336C127.662 132.336 126.614 132.088 125.702 131.592C124.806 131.08 124.102 130.368 123.59 129.456C123.094 128.528 122.846 127.44 122.846 126.192V125.904C122.846 124.656 123.094 123.576 123.59 122.664C124.086 121.736 124.782 121.024 125.678 120.528C126.574 120.016 127.614 119.76 128.798 119.76C129.966 119.76 130.982 120.024 131.846 120.552C132.71 121.064 133.382 121.784 133.862 122.712C134.342 123.624 134.582 124.688 134.582 125.904V126.936H125.918C125.95 127.752 126.254 128.416 126.83 128.928C127.406 129.44 128.11 129.696 128.942 129.696C129.79 129.696 130.414 129.512 130.814 129.144C131.214 128.776 131.518 128.368 131.726 127.92L134.198 129.216C133.974 129.632 133.646 130.088 133.214 130.584C132.798 131.064 132.238 131.48 131.534 131.832C130.83 132.168 129.934 132.336 128.846 132.336ZM125.942 124.68H131.51C131.446 123.992 131.166 123.44 130.67 123.024C130.19 122.608 129.558 122.4 128.774 122.4C127.958 122.4 127.31 122.608 126.83 123.024C126.35 123.44 126.054 123.992 125.942 124.68ZM142.554 132.336C141.61 132.336 140.722 132.104 139.89 131.64C139.074 131.16 138.418 130.464 137.922 129.552C137.426 128.64 137.178 127.536 137.178 126.24V125.856C137.178 124.56 137.426 123.456 137.922 122.544C138.418 121.632 139.074 120.944 139.89 120.48C140.706 120 141.594 119.76 142.554 119.76C143.274 119.76 143.874 119.848 144.354 120.024C144.85 120.184 145.25 120.392 145.554 120.648C145.858 120.904 146.09 121.176 146.25 121.464H146.682V115.2H149.706V132H146.73V130.56H146.298C146.026 131.008 145.602 131.416 145.026 131.784C144.466 132.152 143.642 132.336 142.554 132.336ZM143.466 129.696C144.394 129.696 145.17 129.4 145.794 128.808C146.418 128.2 146.73 127.32 146.73 126.168V125.928C146.73 124.776 146.418 123.904 145.794 123.312C145.186 122.704 144.41 122.4 143.466 122.4C142.538 122.4 141.762 122.704 141.138 123.312C140.514 123.904 140.202 124.776 140.202 125.928V126.168C140.202 127.32 140.514 128.2 141.138 128.808C141.762 129.4 142.538 129.696 143.466 129.696ZM163.178 132V118.08H158.282V115.2H171.242V118.08H166.346V132H163.178ZM177.389 132.336C176.205 132.336 175.141 132.096 174.197 131.616C173.253 131.136 172.509 130.44 171.965 129.528C171.421 128.616 171.149 127.52 171.149 126.24V125.856C171.149 124.576 171.421 123.48 171.965 122.568C172.509 121.656 173.253 120.96 174.197 120.48C175.141 120 176.205 119.76 177.389 119.76C178.573 119.76 179.637 120 180.581 120.48C181.525 120.96 182.269 121.656 182.813 122.568C183.357 123.48 183.629 124.576 183.629 125.856V126.24C183.629 127.52 183.357 128.616 182.813 129.528C182.269 130.44 181.525 131.136 180.581 131.616C179.637 132.096 178.573 132.336 177.389 132.336ZM177.389 129.648C178.317 129.648 179.085 129.352 179.693 128.76C180.301 128.152 180.605 127.288 180.605 126.168V125.928C180.605 124.808 180.301 123.952 179.693 123.36C179.101 122.752 178.333 122.448 177.389 122.448C176.461 122.448 175.693 122.752 175.085 123.36C174.477 123.952 174.173 124.808 174.173 125.928V126.168C174.173 127.288 174.477 128.152 175.085 128.76C175.693 129.352 176.461 129.648 177.389 129.648ZM186.9 132V115.2H189.924V124.488H190.356L194.292 120.096H198.228L192.732 125.856L198.42 132H194.532L190.356 127.272H189.924V132H186.9ZM205.625 132.336C204.441 132.336 203.393 132.088 202.481 131.592C201.585 131.08 200.881 130.368 200.369 129.456C199.873 128.528 199.625 127.44 199.625 126.192V125.904C199.625 124.656 199.873 123.576 200.369 122.664C200.865 121.736 201.561 121.024 202.457 120.528C203.353 120.016 204.393 119.76 205.577 119.76C206.745 119.76 207.761 120.024 208.625 120.552C209.489 121.064 210.161 121.784 210.641 122.712C211.121 123.624 211.361 124.688 211.361 125.904V126.936H202.697C202.729 127.752 203.033 128.416 203.609 128.928C204.185 129.44 204.889 129.696 205.721 129.696C206.569 129.696 207.193 129.512 207.593 129.144C207.993 128.776 208.297 128.368 208.505 127.92L210.977 129.216C210.753 129.632 210.425 130.088 209.993 130.584C209.577 131.064 209.017 131.48 208.313 131.832C207.609 132.168 206.713 132.336 205.625 132.336ZM202.721 124.68H208.289C208.225 123.992 207.945 123.44 207.449 123.024C206.969 122.608 206.337 122.4 205.553 122.4C204.737 122.4 204.089 122.608 203.609 123.024C203.129 123.44 202.833 123.992 202.721 124.68ZM214.532 132V120.096H217.508V121.656H217.94C218.132 121.24 218.492 120.848 219.02 120.48C219.548 120.096 220.348 119.904 221.42 119.904C222.348 119.904 223.156 120.12 223.844 120.552C224.548 120.968 225.092 121.552 225.476 122.304C225.86 123.04 226.052 123.904 226.052 124.896V132H223.028V125.136C223.028 124.24 222.804 123.568 222.356 123.12C221.924 122.672 221.3 122.448 220.484 122.448C219.556 122.448 218.836 122.76 218.324 123.384C217.812 123.992 217.556 124.848 217.556 125.952V132H214.532ZM242.111 132.336C240.815 132.336 239.671 132.104 238.679 131.64C237.687 131.176 236.911 130.512 236.351 129.648C235.791 128.784 235.511 127.744 235.511 126.528V125.856H238.631V126.528C238.631 127.536 238.943 128.296 239.567 128.808C240.191 129.304 241.039 129.552 242.111 129.552C243.199 129.552 244.007 129.336 244.535 128.904C245.079 128.472 245.351 127.92 245.351 127.248C245.351 126.784 245.215 126.408 244.943 126.12C244.687 125.832 244.303 125.6 243.791 125.424C243.295 125.232 242.687 125.056 241.967 124.896L241.415 124.776C240.263 124.52 239.271 124.2 238.439 123.816C237.623 123.416 236.991 122.896 236.543 122.256C236.111 121.616 235.895 120.784 235.895 119.76C235.895 118.736 236.135 117.864 236.615 117.144C237.111 116.408 237.799 115.848 238.679 115.464C239.575 115.064 240.623 114.864 241.823 114.864C243.023 114.864 244.087 115.072 245.015 115.488C245.959 115.888 246.695 116.496 247.223 117.312C247.767 118.112 248.039 119.12 248.039 120.336V121.056H244.919V120.336C244.919 119.696 244.791 119.184 244.535 118.8C244.295 118.4 243.943 118.112 243.479 117.936C243.015 117.744 242.463 117.648 241.823 117.648C240.863 117.648 240.151 117.832 239.687 118.2C239.239 118.552 239.015 119.04 239.015 119.664C239.015 120.08 239.119 120.432 239.327 120.72C239.551 121.008 239.879 121.248 240.311 121.44C240.743 121.632 241.295 121.8 241.967 121.944L242.519 122.064C243.719 122.32 244.759 122.648 245.639 123.048C246.535 123.448 247.231 123.976 247.727 124.632C248.223 125.288 248.471 126.128 248.471 127.152C248.471 128.176 248.207 129.08 247.679 129.864C247.167 130.632 246.431 131.24 245.471 131.688C244.527 132.12 243.407 132.336 242.111 132.336ZM251.41 132V120.096H254.386V121.656H254.818C255.01 121.24 255.37 120.848 255.898 120.48C256.426 120.096 257.226 119.904 258.298 119.904C259.226 119.904 260.034 120.12 260.722 120.552C261.426 120.968 261.97 121.552 262.354 122.304C262.738 123.04 262.93 123.904 262.93 124.896V132H259.906V125.136C259.906 124.24 259.682 123.568 259.234 123.12C258.802 122.672 258.178 122.448 257.362 122.448C256.434 122.448 255.714 122.76 255.202 123.384C254.69 123.992 254.434 124.848 254.434 125.952V132H251.41ZM266.679 132V120.096H269.703V132H266.679ZM268.191 118.704C267.647 118.704 267.183 118.528 266.799 118.176C266.431 117.824 266.247 117.36 266.247 116.784C266.247 116.208 266.431 115.744 266.799 115.392C267.183 115.04 267.647 114.864 268.191 114.864C268.751 114.864 269.215 115.04 269.583 115.392C269.951 115.744 270.135 116.208 270.135 116.784C270.135 117.36 269.951 117.824 269.583 118.176C269.215 118.528 268.751 118.704 268.191 118.704ZM273.534 136.8V120.096H276.51V121.536H276.942C277.214 121.072 277.638 120.664 278.214 120.312C278.79 119.944 279.614 119.76 280.686 119.76C281.646 119.76 282.534 120 283.35 120.48C284.166 120.944 284.822 121.632 285.318 122.544C285.814 123.456 286.062 124.56 286.062 125.856V126.24C286.062 127.536 285.814 128.64 285.318 129.552C284.822 130.464 284.166 131.16 283.35 131.64C282.534 132.104 281.646 132.336 280.686 132.336C279.966 132.336 279.358 132.248 278.862 132.072C278.382 131.912 277.99 131.704 277.686 131.448C277.398 131.176 277.166 130.904 276.99 130.632H276.558V136.8H273.534ZM279.774 129.696C280.718 129.696 281.494 129.4 282.102 128.808C282.726 128.2 283.038 127.32 283.038 126.168V125.928C283.038 124.776 282.726 123.904 282.102 123.312C281.478 122.704 280.702 122.4 279.774 122.4C278.846 122.4 278.07 122.704 277.446 123.312C276.822 123.904 276.51 124.776 276.51 125.928V126.168C276.51 127.32 276.822 128.2 277.446 128.808C278.07 129.4 278.846 129.696 279.774 129.696ZM289.319 136.8V120.096H292.295V121.536H292.727C292.999 121.072 293.423 120.664 293.999 120.312C294.575 119.944 295.399 119.76 296.471 119.76C297.431 119.76 298.319 120 299.135 120.48C299.951 120.944 300.607 121.632 301.103 122.544C301.599 123.456 301.847 124.56 301.847 125.856V126.24C301.847 127.536 301.599 128.64 301.103 129.552C300.607 130.464 299.951 131.16 299.135 131.64C298.319 132.104 297.431 132.336 296.471 132.336C295.751 132.336 295.143 132.248 294.647 132.072C294.167 131.912 293.775 131.704 293.471 131.448C293.183 131.176 292.951 130.904 292.775 130.632H292.343V136.8H289.319ZM295.559 129.696C296.503 129.696 297.279 129.4 297.887 128.808C298.511 128.2 298.823 127.32 298.823 126.168V125.928C298.823 124.776 298.511 123.904 297.887 123.312C297.263 122.704 296.487 122.4 295.559 122.4C294.631 122.4 293.855 122.704 293.231 123.312C292.607 123.904 292.295 124.776 292.295 125.928V126.168C292.295 127.32 292.607 128.2 293.231 128.808C293.855 129.4 294.631 129.696 295.559 129.696ZM305.103 132V120.096H308.127V132H305.103ZM306.615 118.704C306.071 118.704 305.607 118.528 305.223 118.176C304.855 117.824 304.671 117.36 304.671 116.784C304.671 116.208 304.855 115.744 305.223 115.392C305.607 115.04 306.071 114.864 306.615 114.864C307.175 114.864 307.639 115.04 308.007 115.392C308.375 115.744 308.559 116.208 308.559 116.784C308.559 117.36 308.375 117.824 308.007 118.176C307.639 118.528 307.175 118.704 306.615 118.704ZM311.958 132V120.096H314.934V121.656H315.366C315.558 121.24 315.918 120.848 316.446 120.48C316.974 120.096 317.774 119.904 318.846 119.904C319.774 119.904 320.582 120.12 321.27 120.552C321.974 120.968 322.518 121.552 322.902 122.304C323.286 123.04 323.478 123.904 323.478 124.896V132H320.454V125.136C320.454 124.24 320.23 123.568 319.782 123.12C319.35 122.672 318.726 122.448 317.91 122.448C316.982 122.448 316.262 122.76 315.75 123.384C315.238 123.992 314.982 124.848 314.982 125.952V132H311.958ZM326.651 126.096V125.712C326.651 124.464 326.899 123.4 327.395 122.52C327.891 121.624 328.547 120.944 329.363 120.48C330.195 120 331.099 119.76 332.075 119.76C333.163 119.76 333.987 119.952 334.547 120.336C335.107 120.72 335.515 121.12 335.771 121.536H336.203V120.096H339.179V134.112C339.179 134.928 338.939 135.576 338.459 136.056C337.979 136.552 337.339 136.8 336.539 136.8H328.571V134.16H335.483C335.931 134.16 336.155 133.92 336.155 133.44V130.344H335.723C335.563 130.6 335.339 130.864 335.051 131.136C334.763 131.392 334.379 131.608 333.899 131.784C333.419 131.96 332.811 132.048 332.075 132.048C331.099 132.048 330.195 131.816 329.363 131.352C328.547 130.872 327.891 130.192 327.395 129.312C326.899 128.416 326.651 127.344 326.651 126.096ZM332.939 129.408C333.867 129.408 334.643 129.112 335.267 128.52C335.891 127.928 336.203 127.096 336.203 126.024V125.784C336.203 124.696 335.891 123.864 335.267 123.288C334.659 122.696 333.883 122.4 332.939 122.4C332.011 122.4 331.235 122.696 330.611 123.288C329.987 123.864 329.675 124.696 329.675 125.784V126.024C329.675 127.096 329.987 127.928 330.611 128.52C331.235 129.112 332.011 129.408 332.939 129.408Z" fill="white"/>
<path d="M100.726 191.224C99.8942 191.224 99.1582 191.053 98.5182 190.712C97.8889 190.36 97.3929 189.848 97.0302 189.176C96.6782 188.504 96.5022 187.672 96.5022 186.68V184.12C96.5022 182.637 96.8969 181.512 97.6862 180.744C98.4755 179.965 99.5369 179.576 100.87 179.576C102.193 179.576 103.201 179.939 103.894 180.664C104.588 181.389 104.934 182.36 104.934 183.576V183.656H103.606V183.544C103.606 183.011 103.51 182.536 103.318 182.12C103.126 181.704 102.828 181.379 102.422 181.144C102.017 180.899 101.5 180.776 100.87 180.776C99.9209 180.776 99.1795 181.069 98.6462 181.656C98.1129 182.232 97.8462 183.043 97.8462 184.088V186.712C97.8462 187.757 98.1129 188.573 98.6462 189.16C99.1795 189.736 99.9262 190.024 100.886 190.024C101.825 190.024 102.513 189.757 102.95 189.224C103.398 188.691 103.622 187.981 103.622 187.096V186.824H100.23V185.672H104.934V191H103.718V189.784H103.494C103.377 190.019 103.212 190.248 102.998 190.472C102.785 190.696 102.497 190.877 102.134 191.016C101.772 191.155 101.302 191.224 100.726 191.224ZM111.337 191.224C110.547 191.224 109.854 191.059 109.257 190.728C108.659 190.387 108.195 189.912 107.865 189.304C107.534 188.696 107.369 187.992 107.369 187.192V187C107.369 186.189 107.534 185.48 107.865 184.872C108.195 184.264 108.654 183.795 109.241 183.464C109.827 183.123 110.499 182.952 111.257 182.952C111.993 182.952 112.643 183.112 113.209 183.432C113.774 183.741 114.217 184.189 114.537 184.776C114.857 185.363 115.017 186.051 115.017 186.84V187.416H108.633C108.665 188.259 108.937 188.92 109.449 189.4C109.961 189.869 110.601 190.104 111.369 190.104C112.041 190.104 112.558 189.949 112.921 189.64C113.283 189.331 113.561 188.963 113.753 188.536L114.841 189.064C114.681 189.395 114.457 189.725 114.169 190.056C113.891 190.387 113.523 190.664 113.065 190.888C112.617 191.112 112.041 191.224 111.337 191.224ZM108.649 186.376H113.737C113.694 185.651 113.443 185.085 112.985 184.68C112.537 184.275 111.961 184.072 111.257 184.072C110.542 184.072 109.955 184.275 109.497 184.68C109.038 185.085 108.755 185.651 108.649 186.376ZM117.541 191V183.176H118.773V184.504H118.997C119.168 184.131 119.456 183.795 119.861 183.496C120.277 183.187 120.885 183.032 121.685 183.032C122.272 183.032 122.795 183.155 123.253 183.4C123.723 183.645 124.096 184.008 124.373 184.488C124.651 184.968 124.789 185.56 124.789 186.264V191H123.525V186.36C123.525 185.581 123.328 185.016 122.933 184.664C122.549 184.312 122.027 184.136 121.365 184.136C120.608 184.136 119.989 184.381 119.509 184.872C119.04 185.363 118.805 186.093 118.805 187.064V191H117.541ZM131.258 191.224C130.469 191.224 129.775 191.059 129.178 190.728C128.581 190.387 128.117 189.912 127.786 189.304C127.455 188.696 127.29 187.992 127.29 187.192V187C127.29 186.189 127.455 185.48 127.786 184.872C128.117 184.264 128.575 183.795 129.162 183.464C129.749 183.123 130.421 182.952 131.178 182.952C131.914 182.952 132.565 183.112 133.13 183.432C133.695 183.741 134.138 184.189 134.458 184.776C134.778 185.363 134.938 186.051 134.938 186.84V187.416H128.554C128.586 188.259 128.858 188.92 129.37 189.4C129.882 189.869 130.522 190.104 131.29 190.104C131.962 190.104 132.479 189.949 132.842 189.64C133.205 189.331 133.482 188.963 133.674 188.536L134.762 189.064C134.602 189.395 134.378 189.725 134.09 190.056C133.813 190.387 133.445 190.664 132.986 190.888C132.538 191.112 131.962 191.224 131.258 191.224ZM128.57 186.376H133.658C133.615 185.651 133.365 185.085 132.906 184.68C132.458 184.275 131.882 184.072 131.178 184.072C130.463 184.072 129.877 184.275 129.418 184.68C128.959 185.085 128.677 185.651 128.57 186.376ZM137.463 191V183.176H138.695V184.136H138.919C139.057 183.795 139.271 183.544 139.559 183.384C139.847 183.224 140.225 183.144 140.695 183.144H141.623V184.296H140.615C140.049 184.296 139.591 184.456 139.239 184.776C138.897 185.085 138.727 185.571 138.727 186.232V191H137.463ZM145.948 191.224C145.404 191.224 144.908 191.128 144.46 190.936C144.012 190.744 143.66 190.467 143.404 190.104C143.148 189.741 143.02 189.299 143.02 188.776C143.02 188.243 143.148 187.805 143.404 187.464C143.66 187.112 144.012 186.851 144.46 186.68C144.908 186.499 145.41 186.408 145.964 186.408H148.604V185.832C148.604 185.277 148.439 184.84 148.108 184.52C147.788 184.2 147.308 184.04 146.668 184.04C146.039 184.04 145.548 184.195 145.196 184.504C144.844 184.803 144.604 185.208 144.476 185.72L143.292 185.336C143.42 184.899 143.623 184.504 143.9 184.152C144.178 183.789 144.546 183.501 145.004 183.288C145.474 183.064 146.034 182.952 146.684 182.952C147.687 182.952 148.466 183.213 149.02 183.736C149.575 184.248 149.852 184.973 149.852 185.912V189.448C149.852 189.768 150.002 189.928 150.3 189.928H151.02V191H149.916C149.564 191 149.282 190.904 149.068 190.712C148.855 190.509 148.748 190.243 148.748 189.912V189.832H148.556C148.439 190.035 148.279 190.248 148.076 190.472C147.884 190.685 147.618 190.861 147.276 191C146.935 191.149 146.492 191.224 145.948 191.224ZM146.092 190.136C146.839 190.136 147.442 189.917 147.9 189.48C148.37 189.032 148.604 188.408 148.604 187.608V187.432H146.012C145.511 187.432 145.095 187.544 144.764 187.768C144.444 187.981 144.284 188.307 144.284 188.744C144.284 189.181 144.45 189.523 144.78 189.768C145.122 190.013 145.559 190.136 146.092 190.136ZM155.436 191C154.988 191 154.641 190.877 154.396 190.632C154.161 190.387 154.044 190.051 154.044 189.624V184.28H151.692V183.176H154.044V180.392H155.308V183.176H157.868V184.28H155.308V189.432C155.308 189.752 155.462 189.912 155.772 189.912H157.516V191H155.436ZM163.538 191.224C162.749 191.224 162.055 191.059 161.458 190.728C160.861 190.387 160.397 189.912 160.066 189.304C159.735 188.696 159.57 187.992 159.57 187.192V187C159.57 186.189 159.735 185.48 160.066 184.872C160.397 184.264 160.855 183.795 161.442 183.464C162.029 183.123 162.701 182.952 163.458 182.952C164.194 182.952 164.845 183.112 165.41 183.432C165.975 183.741 166.418 184.189 166.738 184.776C167.058 185.363 167.218 186.051 167.218 186.84V187.416H160.834C160.866 188.259 161.138 188.92 161.65 189.4C162.162 189.869 162.802 190.104 163.57 190.104C164.242 190.104 164.759 189.949 165.122 189.64C165.485 189.331 165.762 188.963 165.954 188.536L167.042 189.064C166.882 189.395 166.658 189.725 166.37 190.056C166.093 190.387 165.725 190.664 165.266 190.888C164.818 191.112 164.242 191.224 163.538 191.224ZM160.85 186.376H165.938C165.895 185.651 165.645 185.085 165.186 184.68C164.738 184.275 164.162 184.072 163.458 184.072C162.743 184.072 162.157 184.275 161.698 184.68C161.239 185.085 160.957 185.651 160.85 186.376ZM175.26 191L173.692 183.176H174.972L176.268 190.152H176.492L178.204 183.176H180.3L182.012 190.152H182.236L183.532 183.176H184.812L183.244 191H181.084L179.356 184.024H179.148L177.42 191H175.26ZM189.58 191.224C189.036 191.224 188.54 191.128 188.092 190.936C187.644 190.744 187.292 190.467 187.036 190.104C186.78 189.741 186.652 189.299 186.652 188.776C186.652 188.243 186.78 187.805 187.036 187.464C187.292 187.112 187.644 186.851 188.092 186.68C188.54 186.499 189.041 186.408 189.596 186.408H192.236V185.832C192.236 185.277 192.07 184.84 191.74 184.52C191.42 184.2 190.94 184.04 190.3 184.04C189.67 184.04 189.18 184.195 188.828 184.504C188.476 184.803 188.236 185.208 188.108 185.72L186.924 185.336C187.052 184.899 187.254 184.504 187.532 184.152C187.809 183.789 188.177 183.501 188.636 183.288C189.105 183.064 189.665 182.952 190.316 182.952C191.318 182.952 192.097 183.213 192.652 183.736C193.206 184.248 193.484 184.973 193.484 185.912V189.448C193.484 189.768 193.633 189.928 193.932 189.928H194.652V191H193.548C193.196 191 192.913 190.904 192.7 190.712C192.486 190.509 192.38 190.243 192.38 189.912V189.832H192.188C192.07 190.035 191.91 190.248 191.708 190.472C191.516 190.685 191.249 190.861 190.908 191C190.566 191.149 190.124 191.224 189.58 191.224ZM189.724 190.136C190.47 190.136 191.073 189.917 191.532 189.48C192.001 189.032 192.236 188.408 192.236 187.608V187.432H189.644C189.142 187.432 188.726 187.544 188.396 187.768C188.076 187.981 187.916 188.307 187.916 188.744C187.916 189.181 188.081 189.523 188.412 189.768C188.753 190.013 189.19 190.136 189.724 190.136ZM196.703 191V179.8H197.967V191H196.703ZM200.945 191V179.8H202.209V191H200.945ZM208.77 191.224C207.981 191.224 207.288 191.059 206.69 190.728C206.093 190.387 205.629 189.912 205.298 189.304C204.968 188.696 204.802 187.992 204.802 187.192V187C204.802 186.189 204.968 185.48 205.298 184.872C205.629 184.264 206.088 183.795 206.674 183.464C207.261 183.123 207.933 182.952 208.69 182.952C209.426 182.952 210.077 183.112 210.642 183.432C211.208 183.741 211.65 184.189 211.97 184.776C212.29 185.363 212.45 186.051 212.45 186.84V187.416H206.066C206.098 188.259 206.37 188.92 206.882 189.4C207.394 189.869 208.034 190.104 208.802 190.104C209.474 190.104 209.992 189.949 210.354 189.64C210.717 189.331 210.994 188.963 211.186 188.536L212.274 189.064C212.114 189.395 211.89 189.725 211.602 190.056C211.325 190.387 210.957 190.664 210.498 190.888C210.05 191.112 209.474 191.224 208.77 191.224ZM206.082 186.376H211.17C211.128 185.651 210.877 185.085 210.418 184.68C209.97 184.275 209.394 184.072 208.69 184.072C207.976 184.072 207.389 184.275 206.93 184.68C206.472 185.085 206.189 185.651 206.082 186.376ZM217.527 191C217.079 191 216.732 190.877 216.487 190.632C216.252 190.387 216.135 190.051 216.135 189.624V184.28H213.783V183.176H216.135V180.392H217.399V183.176H219.959V184.28H217.399V189.432C217.399 189.752 217.554 189.912 217.863 189.912H219.607V191H217.527ZM225.478 191.224C224.508 191.224 223.686 191 223.014 190.552C222.353 190.104 221.953 189.395 221.814 188.424L223.014 188.152C223.1 188.664 223.26 189.069 223.494 189.368C223.729 189.656 224.017 189.864 224.358 189.992C224.71 190.109 225.084 190.168 225.478 190.168C226.065 190.168 226.529 190.051 226.87 189.816C227.212 189.581 227.382 189.267 227.382 188.872C227.382 188.467 227.217 188.184 226.886 188.024C226.566 187.853 226.124 187.715 225.558 187.608L224.902 187.496C224.401 187.411 223.942 187.277 223.526 187.096C223.11 186.915 222.78 186.669 222.534 186.36C222.289 186.051 222.166 185.661 222.166 185.192C222.166 184.488 222.438 183.939 222.982 183.544C223.526 183.149 224.246 182.952 225.142 182.952C226.028 182.952 226.742 183.155 227.286 183.56C227.841 183.955 228.198 184.515 228.358 185.24L227.174 185.544C227.078 184.979 226.849 184.584 226.486 184.36C226.124 184.125 225.676 184.008 225.142 184.008C224.609 184.008 224.188 184.109 223.878 184.312C223.569 184.504 223.414 184.792 223.414 185.176C223.414 185.549 223.558 185.827 223.846 186.008C224.145 186.179 224.54 186.307 225.03 186.392L225.686 186.504C226.241 186.6 226.737 186.733 227.174 186.904C227.622 187.064 227.974 187.299 228.23 187.608C228.497 187.917 228.63 188.323 228.63 188.824C228.63 189.592 228.342 190.184 227.766 190.6C227.201 191.016 226.438 191.224 225.478 191.224ZM237.913 191.224C237.369 191.224 236.873 191.128 236.425 190.936C235.977 190.744 235.625 190.467 235.369 190.104C235.113 189.741 234.985 189.299 234.985 188.776C234.985 188.243 235.113 187.805 235.369 187.464C235.625 187.112 235.977 186.851 236.425 186.68C236.873 186.499 237.375 186.408 237.929 186.408H240.569V185.832C240.569 185.277 240.404 184.84 240.073 184.52C239.753 184.2 239.273 184.04 238.633 184.04C238.004 184.04 237.513 184.195 237.161 184.504C236.809 184.803 236.569 185.208 236.441 185.72L235.257 185.336C235.385 184.899 235.588 184.504 235.865 184.152C236.143 183.789 236.511 183.501 236.969 183.288C237.439 183.064 237.999 182.952 238.649 182.952C239.652 182.952 240.431 183.213 240.985 183.736C241.54 184.248 241.817 184.973 241.817 185.912V189.448C241.817 189.768 241.967 189.928 242.265 189.928H242.985V191H241.881C241.529 191 241.247 190.904 241.033 190.712C240.82 190.509 240.713 190.243 240.713 189.912V189.832H240.521C240.404 190.035 240.244 190.248 240.041 190.472C239.849 190.685 239.583 190.861 239.241 191C238.9 191.149 238.457 191.224 237.913 191.224ZM238.057 190.136C238.804 190.136 239.407 189.917 239.865 189.48C240.335 189.032 240.569 188.408 240.569 187.608V187.432H237.977C237.476 187.432 237.06 187.544 236.729 187.768C236.409 187.981 236.249 188.307 236.249 188.744C236.249 189.181 236.415 189.523 236.745 189.768C237.087 190.013 237.524 190.136 238.057 190.136ZM245.036 191V183.176H246.268V184.504H246.492C246.663 184.131 246.951 183.795 247.356 183.496C247.772 183.187 248.38 183.032 249.18 183.032C249.767 183.032 250.29 183.155 250.748 183.4C251.218 183.645 251.591 184.008 251.868 184.488C252.146 184.968 252.284 185.56 252.284 186.264V191H251.02V186.36C251.02 185.581 250.823 185.016 250.428 184.664C250.044 184.312 249.522 184.136 248.86 184.136C248.103 184.136 247.484 184.381 247.004 184.872C246.535 185.363 246.3 186.093 246.3 187.064V191H245.036ZM258.481 191.224C257.809 191.224 257.19 191.064 256.625 190.744C256.06 190.424 255.612 189.96 255.281 189.352C254.95 188.744 254.785 188.024 254.785 187.192V186.984C254.785 186.152 254.95 185.437 255.281 184.84C255.612 184.232 256.054 183.768 256.609 183.448C257.174 183.117 257.798 182.952 258.481 182.952C259.025 182.952 259.484 183.027 259.857 183.176C260.241 183.315 260.55 183.496 260.785 183.72C261.02 183.933 261.201 184.163 261.329 184.408H261.553V179.8H262.817V191H261.585V189.704H261.361C261.148 190.099 260.817 190.451 260.369 190.76C259.921 191.069 259.292 191.224 258.481 191.224ZM258.817 190.104C259.628 190.104 260.284 189.848 260.785 189.336C261.297 188.813 261.553 188.088 261.553 187.16V187.016C261.553 186.088 261.297 185.368 260.785 184.856C260.284 184.333 259.628 184.072 258.817 184.072C258.017 184.072 257.356 184.333 256.833 184.856C256.321 185.368 256.065 186.088 256.065 187.016V187.16C256.065 188.088 256.321 188.813 256.833 189.336C257.356 189.848 258.017 190.104 258.817 190.104ZM43.8974 223.224C43.3534 223.224 42.8574 223.128 42.4094 222.936C41.9614 222.744 41.6094 222.467 41.3534 222.104C41.0974 221.741 40.9694 221.299 40.9694 220.776C40.9694 220.243 41.0974 219.805 41.3534 219.464C41.6094 219.112 41.9614 218.851 42.4094 218.68C42.8574 218.499 43.3587 218.408 43.9134 218.408H46.5534V217.832C46.5534 217.277 46.388 216.84 46.0574 216.52C45.7374 216.2 45.2574 216.04 44.6174 216.04C43.988 216.04 43.4974 216.195 43.1454 216.504C42.7934 216.803 42.5534 217.208 42.4254 217.72L41.2414 217.336C41.3694 216.899 41.572 216.504 41.8494 216.152C42.1267 215.789 42.4947 215.501 42.9534 215.288C43.4227 215.064 43.9827 214.952 44.6334 214.952C45.636 214.952 46.4147 215.213 46.9694 215.736C47.524 216.248 47.8014 216.973 47.8014 217.912V221.448C47.8014 221.768 47.9507 221.928 48.2494 221.928H48.9694V223H47.8654C47.5134 223 47.2307 222.904 47.0174 222.712C46.804 222.509 46.6974 222.243 46.6974 221.912V221.832H46.5054C46.388 222.035 46.228 222.248 46.0254 222.472C45.8334 222.685 45.5667 222.861 45.2254 223C44.884 223.149 44.4414 223.224 43.8974 223.224ZM44.0414 222.136C44.788 222.136 45.3907 221.917 45.8494 221.48C46.3187 221.032 46.5534 220.408 46.5534 219.608V219.432H43.9614C43.46 219.432 43.044 219.544 42.7134 219.768C42.3934 219.981 42.2334 220.307 42.2334 220.744C42.2334 221.181 42.3987 221.523 42.7294 221.768C43.0707 222.013 43.508 222.136 44.0414 222.136ZM53.8094 223.144C53.244 223.144 52.7214 223.021 52.2414 222.776C51.772 222.531 51.3987 222.168 51.1214 221.688C50.8547 221.197 50.7214 220.605 50.7214 219.912V215.176H51.9854V219.816C51.9854 220.595 52.1774 221.16 52.5614 221.512C52.956 221.864 53.484 222.04 54.1454 222.04C54.892 222.04 55.5054 221.795 55.9854 221.304C56.4654 220.813 56.7054 220.083 56.7054 219.112V215.176H57.9694V223H56.7374V221.672H56.5134C56.3427 222.045 56.0494 222.387 55.6334 222.696C55.2174 222.995 54.6094 223.144 53.8094 223.144ZM63.8142 223C63.3662 223 63.0196 222.877 62.7742 222.632C62.5396 222.387 62.4222 222.051 62.4222 221.624V216.28H60.0702V215.176H62.4222V212.392H63.6862V215.176H66.2462V216.28H63.6862V221.432C63.6862 221.752 63.8409 221.912 64.1502 221.912H65.8942V223H63.8142ZM71.9484 223.224C71.159 223.224 70.4604 223.059 69.8524 222.728C69.255 222.397 68.7857 221.933 68.4444 221.336C68.1137 220.728 67.9484 220.013 67.9484 219.192V218.984C67.9484 218.173 68.1137 217.464 68.4444 216.856C68.7857 216.248 69.255 215.779 69.8524 215.448C70.4604 215.117 71.159 214.952 71.9484 214.952C72.7377 214.952 73.431 215.117 74.0284 215.448C74.6364 215.779 75.1057 216.248 75.4364 216.856C75.7777 217.464 75.9484 218.173 75.9484 218.984V219.192C75.9484 220.013 75.7777 220.728 75.4364 221.336C75.1057 221.933 74.6364 222.397 74.0284 222.728C73.431 223.059 72.7377 223.224 71.9484 223.224ZM71.9484 222.088C72.7804 222.088 73.4417 221.827 73.9324 221.304C74.4337 220.771 74.6844 220.056 74.6844 219.16V219.016C74.6844 218.12 74.4337 217.411 73.9324 216.888C73.4417 216.355 72.7804 216.088 71.9484 216.088C71.127 216.088 70.4657 216.355 69.9644 216.888C69.463 217.411 69.2124 218.12 69.2124 219.016V219.16C69.2124 220.056 69.463 220.771 69.9644 221.304C70.4657 221.827 71.127 222.088 71.9484 222.088ZM78.543 223V215.176H79.775V216.152H79.999C80.1483 215.875 80.3937 215.619 80.735 215.384C81.0763 215.149 81.5563 215.032 82.175 215.032C82.783 215.032 83.2737 215.165 83.647 215.432C84.031 215.699 84.3083 216.024 84.479 216.408H84.703C84.8843 216.024 85.1563 215.699 85.519 215.432C85.8923 215.165 86.4097 215.032 87.071 215.032C87.5937 215.032 88.0523 215.139 88.447 215.352C88.8417 215.565 89.151 215.875 89.375 216.28C89.6097 216.675 89.727 217.149 89.727 217.704V223H88.463V217.816C88.463 217.293 88.3083 216.883 87.999 216.584C87.7003 216.275 87.279 216.12 86.735 216.12C86.159 216.12 85.6843 216.307 85.311 216.68C84.9483 217.053 84.767 217.592 84.767 218.296V223H83.503V217.816C83.503 217.293 83.3483 216.883 83.039 216.584C82.7403 216.275 82.319 216.12 81.775 216.12C81.199 216.12 80.7243 216.307 80.351 216.68C79.9883 217.053 79.807 217.592 79.807 218.296V223H78.543ZM95.0286 223.224C94.4846 223.224 93.9886 223.128 93.5406 222.936C93.0926 222.744 92.7406 222.467 92.4846 222.104C92.2286 221.741 92.1006 221.299 92.1006 220.776C92.1006 220.243 92.2286 219.805 92.4846 219.464C92.7406 219.112 93.0926 218.851 93.5406 218.68C93.9886 218.499 94.49 218.408 95.0446 218.408H97.6846V217.832C97.6846 217.277 97.5193 216.84 97.1886 216.52C96.8686 216.2 96.3886 216.04 95.7486 216.04C95.1193 216.04 94.6286 216.195 94.2766 216.504C93.9246 216.803 93.6846 217.208 93.5566 217.72L92.3726 217.336C92.5006 216.899 92.7033 216.504 92.9806 216.152C93.258 215.789 93.626 215.501 94.0846 215.288C94.554 215.064 95.114 214.952 95.7646 214.952C96.7673 214.952 97.546 215.213 98.1006 215.736C98.6553 216.248 98.9326 216.973 98.9326 217.912V221.448C98.9326 221.768 99.082 221.928 99.3806 221.928H100.101V223H98.9966C98.6446 223 98.362 222.904 98.1486 222.712C97.9353 222.509 97.8286 222.243 97.8286 221.912V221.832H97.6366C97.5193 222.035 97.3593 222.248 97.1566 222.472C96.9646 222.685 96.698 222.861 96.3566 223C96.0153 223.149 95.5726 223.224 95.0286 223.224ZM95.1726 222.136C95.9193 222.136 96.522 221.917 96.9806 221.48C97.45 221.032 97.6846 220.408 97.6846 219.608V219.432H95.0926C94.5913 219.432 94.1753 219.544 93.8446 219.768C93.5246 219.981 93.3646 220.307 93.3646 220.744C93.3646 221.181 93.53 221.523 93.8606 221.768C94.202 222.013 94.6393 222.136 95.1726 222.136ZM104.516 223C104.068 223 103.721 222.877 103.476 222.632C103.241 222.387 103.124 222.051 103.124 221.624V216.28H100.772V215.176H103.124V212.392H104.388V215.176H106.948V216.28H104.388V221.432C104.388 221.752 104.543 221.912 104.852 221.912H106.596V223H104.516ZM109.315 223V215.176H110.579V223H109.315ZM109.955 213.96C109.678 213.96 109.443 213.869 109.251 213.688C109.07 213.507 108.979 213.277 108.979 213C108.979 212.712 109.07 212.477 109.251 212.296C109.443 212.115 109.678 212.024 109.955 212.024C110.233 212.024 110.462 212.115 110.643 212.296C110.825 212.477 110.915 212.712 110.915 213C110.915 213.277 110.825 213.507 110.643 213.688C110.462 213.869 110.233 213.96 109.955 213.96ZM117.157 223.224C116.4 223.224 115.717 223.064 115.109 222.744C114.512 222.413 114.037 221.944 113.685 221.336C113.344 220.728 113.173 220.008 113.173 219.176V219C113.173 218.157 113.344 217.437 113.685 216.84C114.037 216.232 114.512 215.768 115.109 215.448C115.717 215.117 116.4 214.952 117.157 214.952C117.904 214.952 118.539 215.091 119.061 215.368C119.595 215.645 120.011 216.013 120.309 216.472C120.619 216.931 120.816 217.421 120.901 217.944L119.669 218.2C119.616 217.816 119.488 217.464 119.285 217.144C119.093 216.824 118.821 216.568 118.469 216.376C118.117 216.184 117.685 216.088 117.173 216.088C116.651 216.088 116.181 216.205 115.765 216.44C115.36 216.675 115.035 217.011 114.789 217.448C114.555 217.885 114.437 218.408 114.437 219.016V219.16C114.437 219.768 114.555 220.291 114.789 220.728C115.035 221.165 115.36 221.501 115.765 221.736C116.181 221.971 116.651 222.088 117.173 222.088C117.952 222.088 118.544 221.885 118.949 221.48C119.365 221.075 119.621 220.573 119.717 219.976L120.965 220.248C120.848 220.76 120.635 221.245 120.325 221.704C120.016 222.163 119.595 222.531 119.061 222.808C118.539 223.085 117.904 223.224 117.157 223.224ZM125.84 223.224C125.296 223.224 124.8 223.128 124.352 222.936C123.904 222.744 123.552 222.467 123.296 222.104C123.04 221.741 122.912 221.299 122.912 220.776C122.912 220.243 123.04 219.805 123.296 219.464C123.552 219.112 123.904 218.851 124.352 218.68C124.8 218.499 125.301 218.408 125.856 218.408H128.496V217.832C128.496 217.277 128.331 216.84 128 216.52C127.68 216.2 127.2 216.04 126.56 216.04C125.931 216.04 125.44 216.195 125.088 216.504C124.736 216.803 124.496 217.208 124.368 217.72L123.184 217.336C123.312 216.899 123.515 216.504 123.792 216.152C124.069 215.789 124.437 215.501 124.896 215.288C125.365 215.064 125.925 214.952 126.576 214.952C127.579 214.952 128.357 215.213 128.912 215.736C129.467 216.248 129.744 216.973 129.744 217.912V221.448C129.744 221.768 129.893 221.928 130.192 221.928H130.912V223H129.808C129.456 223 129.173 222.904 128.96 222.712C128.747 222.509 128.64 222.243 128.64 221.912V221.832H128.448C128.331 222.035 128.171 222.248 127.968 222.472C127.776 222.685 127.509 222.861 127.168 223C126.827 223.149 126.384 223.224 125.84 223.224ZM125.984 222.136C126.731 222.136 127.333 221.917 127.792 221.48C128.261 221.032 128.496 220.408 128.496 219.608V219.432H125.904C125.403 219.432 124.987 219.544 124.656 219.768C124.336 219.981 124.176 220.307 124.176 220.744C124.176 221.181 124.341 221.523 124.672 221.768C125.013 222.013 125.451 222.136 125.984 222.136ZM132.963 223V211.8H134.227V223H132.963ZM137.205 223V211.8H138.469V223H137.205ZM142.391 226.2V225.08H146.871C147.18 225.08 147.335 224.92 147.335 224.6V221.752H147.111C147.004 221.976 146.839 222.2 146.615 222.424C146.401 222.637 146.119 222.813 145.767 222.952C145.415 223.08 144.972 223.144 144.439 223.144C143.873 223.144 143.351 223.021 142.871 222.776C142.401 222.531 142.028 222.168 141.751 221.688C141.484 221.208 141.351 220.621 141.351 219.928V215.176H142.615V219.832C142.615 220.6 142.807 221.16 143.191 221.512C143.585 221.864 144.113 222.04 144.775 222.04C145.521 222.04 146.135 221.795 146.615 221.304C147.095 220.813 147.335 220.083 147.335 219.112V215.176H148.599V224.824C148.599 225.251 148.476 225.587 148.231 225.832C147.996 226.077 147.649 226.2 147.191 226.2H142.391ZM157.529 223V216.28H155.129V215.176H157.529V213.176C157.529 212.749 157.646 212.413 157.881 212.168C158.126 211.923 158.473 211.8 158.921 211.8H160.889V212.888H159.273C158.953 212.888 158.793 213.048 158.793 213.368V215.176H161.257V216.28H158.793V223H157.529ZM165.651 223.224C165.107 223.224 164.611 223.128 164.163 222.936C163.715 222.744 163.363 222.467 163.107 222.104C162.851 221.741 162.723 221.299 162.723 220.776C162.723 220.243 162.851 219.805 163.107 219.464C163.363 219.112 163.715 218.851 164.163 218.68C164.611 218.499 165.112 218.408 165.667 218.408H168.307V217.832C168.307 217.277 168.141 216.84 167.811 216.52C167.491 216.2 167.011 216.04 166.371 216.04C165.741 216.04 165.251 216.195 164.899 216.504C164.547 216.803 164.307 217.208 164.179 217.72L162.995 217.336C163.123 216.899 163.325 216.504 163.603 216.152C163.88 215.789 164.248 215.501 164.707 215.288C165.176 215.064 165.736 214.952 166.387 214.952C167.389 214.952 168.168 215.213 168.723 215.736C169.277 216.248 169.555 216.973 169.555 217.912V221.448C169.555 221.768 169.704 221.928 170.003 221.928H170.723V223H169.619C169.267 223 168.984 222.904 168.771 222.712C168.557 222.509 168.451 222.243 168.451 221.912V221.832H168.259C168.141 222.035 167.981 222.248 167.779 222.472C167.587 222.685 167.32 222.861 166.979 223C166.637 223.149 166.195 223.224 165.651 223.224ZM165.795 222.136C166.541 222.136 167.144 221.917 167.603 221.48C168.072 221.032 168.307 220.408 168.307 219.608V219.432H165.715C165.213 219.432 164.797 219.544 164.467 219.768C164.147 219.981 163.987 220.307 163.987 220.744C163.987 221.181 164.152 221.523 164.483 221.768C164.824 222.013 165.261 222.136 165.795 222.136ZM172.774 223V215.176H174.006V216.136H174.23C174.368 215.795 174.582 215.544 174.87 215.384C175.158 215.224 175.536 215.144 176.006 215.144H176.934V216.296H175.926C175.36 216.296 174.902 216.456 174.55 216.776C174.208 217.085 174.038 217.571 174.038 218.232V223H172.774ZM179.125 223V215.176H180.357V216.152H180.581C180.73 215.875 180.976 215.619 181.317 215.384C181.658 215.149 182.138 215.032 182.757 215.032C183.365 215.032 183.856 215.165 184.229 215.432C184.613 215.699 184.89 216.024 185.061 216.408H185.285C185.466 216.024 185.738 215.699 186.101 215.432C186.474 215.165 186.992 215.032 187.653 215.032C188.176 215.032 188.634 215.139 189.029 215.352C189.424 215.565 189.733 215.875 189.957 216.28C190.192 216.675 190.309 217.149 190.309 217.704V223H189.045V217.816C189.045 217.293 188.89 216.883 188.581 216.584C188.282 216.275 187.861 216.12 187.317 216.12C186.741 216.12 186.266 216.307 185.893 216.68C185.53 217.053 185.349 217.592 185.349 218.296V223H184.085V217.816C184.085 217.293 183.93 216.883 183.621 216.584C183.322 216.275 182.901 216.12 182.357 216.12C181.781 216.12 181.306 216.307 180.933 216.68C180.57 217.053 180.389 217.592 180.389 218.296V223H179.125ZM200.04 223.224C199.496 223.224 199 223.128 198.552 222.936C198.104 222.744 197.752 222.467 197.496 222.104C197.24 221.741 197.112 221.299 197.112 220.776C197.112 220.243 197.24 219.805 197.496 219.464C197.752 219.112 198.104 218.851 198.552 218.68C199 218.499 199.501 218.408 200.056 218.408H202.696V217.832C202.696 217.277 202.531 216.84 202.2 216.52C201.88 216.2 201.4 216.04 200.76 216.04C200.131 216.04 199.64 216.195 199.288 216.504C198.936 216.803 198.696 217.208 198.568 217.72L197.384 217.336C197.512 216.899 197.715 216.504 197.992 216.152C198.269 215.789 198.637 215.501 199.096 215.288C199.565 215.064 200.125 214.952 200.776 214.952C201.779 214.952 202.557 215.213 203.112 215.736C203.667 216.248 203.944 216.973 203.944 217.912V221.448C203.944 221.768 204.093 221.928 204.392 221.928H205.112V223H204.008C203.656 223 203.373 222.904 203.16 222.712C202.947 222.509 202.84 222.243 202.84 221.912V221.832H202.648C202.531 222.035 202.371 222.248 202.168 222.472C201.976 222.685 201.709 222.861 201.368 223C201.027 223.149 200.584 223.224 200.04 223.224ZM200.184 222.136C200.931 222.136 201.533 221.917 201.992 221.48C202.461 221.032 202.696 220.408 202.696 219.608V219.432H200.104C199.603 219.432 199.187 219.544 198.856 219.768C198.536 219.981 198.376 220.307 198.376 220.744C198.376 221.181 198.541 221.523 198.872 221.768C199.213 222.013 199.651 222.136 200.184 222.136ZM207.163 223V215.176H208.427V223H207.163ZM207.803 213.96C207.526 213.96 207.291 213.869 207.099 213.688C206.918 213.507 206.827 213.277 206.827 213C206.827 212.712 206.918 212.477 207.099 212.296C207.291 212.115 207.526 212.024 207.803 212.024C208.08 212.024 208.31 212.115 208.491 212.296C208.672 212.477 208.763 212.712 208.763 213C208.763 213.277 208.672 213.507 208.491 213.688C208.31 213.869 208.08 213.96 207.803 213.96ZM211.405 223V215.176H212.637V216.136H212.861C213 215.795 213.213 215.544 213.501 215.384C213.789 215.224 214.168 215.144 214.637 215.144H215.565V216.296H214.557C213.992 216.296 213.533 216.456 213.181 216.776C212.84 217.085 212.669 217.571 212.669 218.232V223H211.405ZM220.787 223.224C220.115 223.224 219.496 223.064 218.931 222.744C218.366 222.424 217.918 221.96 217.587 221.352C217.256 220.744 217.091 220.024 217.091 219.192V218.984C217.091 218.152 217.256 217.437 217.587 216.84C217.918 216.232 218.36 215.768 218.915 215.448C219.48 215.117 220.104 214.952 220.787 214.952C221.331 214.952 221.79 215.027 222.163 215.176C222.547 215.315 222.856 215.496 223.091 215.72C223.326 215.933 223.507 216.163 223.635 216.408H223.859V211.8H225.123V223H223.891V221.704H223.667C223.454 222.099 223.123 222.451 222.675 222.76C222.227 223.069 221.598 223.224 220.787 223.224ZM221.123 222.104C221.934 222.104 222.59 221.848 223.091 221.336C223.603 220.813 223.859 220.088 223.859 219.16V219.016C223.859 218.088 223.603 217.368 223.091 216.856C222.59 216.333 221.934 216.072 221.123 216.072C220.323 216.072 219.662 216.333 219.139 216.856C218.627 217.368 218.371 218.088 218.371 219.016V219.16C218.371 220.088 218.627 220.813 219.139 221.336C219.662 221.848 220.323 222.104 221.123 222.104ZM228.092 223V215.176H229.324V216.136H229.548C229.686 215.795 229.9 215.544 230.188 215.384C230.476 215.224 230.854 215.144 231.324 215.144H232.252V216.296H231.244C230.678 216.296 230.22 216.456 229.868 216.776C229.526 217.085 229.356 217.571 229.356 218.232V223H228.092ZM237.778 223.224C236.988 223.224 236.29 223.059 235.682 222.728C235.084 222.397 234.615 221.933 234.274 221.336C233.943 220.728 233.778 220.013 233.778 219.192V218.984C233.778 218.173 233.943 217.464 234.274 216.856C234.615 216.248 235.084 215.779 235.682 215.448C236.29 215.117 236.988 214.952 237.778 214.952C238.567 214.952 239.26 215.117 239.858 215.448C240.466 215.779 240.935 216.248 241.266 216.856C241.607 217.464 241.778 218.173 241.778 218.984V219.192C241.778 220.013 241.607 220.728 241.266 221.336C240.935 221.933 240.466 222.397 239.858 222.728C239.26 223.059 238.567 223.224 237.778 223.224ZM237.778 222.088C238.61 222.088 239.271 221.827 239.762 221.304C240.263 220.771 240.514 220.056 240.514 219.16V219.016C240.514 218.12 240.263 217.411 239.762 216.888C239.271 216.355 238.61 216.088 237.778 216.088C236.956 216.088 236.295 216.355 235.794 216.888C235.292 217.411 235.042 218.12 235.042 219.016V219.16C235.042 220.056 235.292 220.771 235.794 221.304C236.295 221.827 236.956 222.088 237.778 222.088ZM244.372 226.2V215.176H245.604V216.472H245.828C246.031 216.077 246.356 215.725 246.804 215.416C247.263 215.107 247.898 214.952 248.708 214.952C249.38 214.952 249.994 215.117 250.548 215.448C251.114 215.768 251.562 216.227 251.892 216.824C252.234 217.421 252.404 218.141 252.404 218.984V219.192C252.404 220.024 252.239 220.744 251.908 221.352C251.578 221.96 251.13 222.424 250.564 222.744C250.01 223.064 249.391 223.224 248.708 223.224C248.164 223.224 247.7 223.149 247.316 223C246.943 222.861 246.639 222.68 246.404 222.456C246.17 222.232 245.988 222.003 245.86 221.768H245.636V226.2H244.372ZM248.372 222.104C249.183 222.104 249.839 221.848 250.34 221.336C250.852 220.813 251.108 220.088 251.108 219.16V219.016C251.108 218.088 250.852 217.368 250.34 216.856C249.839 216.333 249.183 216.072 248.372 216.072C247.572 216.072 246.911 216.333 246.388 216.856C245.876 217.368 245.62 218.088 245.62 219.016V219.16C245.62 220.088 245.876 220.813 246.388 221.336C246.911 221.848 247.572 222.104 248.372 222.104ZM258.141 223.224C257.171 223.224 256.349 223 255.677 222.552C255.016 222.104 254.616 221.395 254.477 220.424L255.677 220.152C255.763 220.664 255.923 221.069 256.157 221.368C256.392 221.656 256.68 221.864 257.021 221.992C257.373 222.109 257.747 222.168 258.141 222.168C258.728 222.168 259.192 222.051 259.533 221.816C259.875 221.581 260.045 221.267 260.045 220.872C260.045 220.467 259.88 220.184 259.549 220.024C259.229 219.853 258.787 219.715 258.221 219.608L257.565 219.496C257.064 219.411 256.605 219.277 256.189 219.096C255.773 218.915 255.443 218.669 255.197 218.36C254.952 218.051 254.829 217.661 254.829 217.192C254.829 216.488 255.101 215.939 255.645 215.544C256.189 215.149 256.909 214.952 257.805 214.952C258.691 214.952 259.405 215.155 259.949 215.56C260.504 215.955 260.861 216.515 261.021 217.24L259.837 217.544C259.741 216.979 259.512 216.584 259.149 216.36C258.787 216.125 258.339 216.008 257.805 216.008C257.272 216.008 256.851 216.109 256.541 216.312C256.232 216.504 256.077 216.792 256.077 217.176C256.077 217.549 256.221 217.827 256.509 218.008C256.808 218.179 257.203 218.307 257.693 218.392L258.349 218.504C258.904 218.6 259.4 218.733 259.837 218.904C260.285 219.064 260.637 219.299 260.893 219.608C261.16 219.917 261.293 220.323 261.293 220.824C261.293 221.592 261.005 222.184 260.429 222.6C259.864 223.016 259.101 223.224 258.141 223.224ZM270.576 223.224C270.032 223.224 269.536 223.128 269.088 222.936C268.64 222.744 268.288 222.467 268.032 222.104C267.776 221.741 267.648 221.299 267.648 220.776C267.648 220.243 267.776 219.805 268.032 219.464C268.288 219.112 268.64 218.851 269.088 218.68C269.536 218.499 270.037 218.408 270.592 218.408H273.232V217.832C273.232 217.277 273.067 216.84 272.736 216.52C272.416 216.2 271.936 216.04 271.296 216.04C270.667 216.04 270.176 216.195 269.824 216.504C269.472 216.803 269.232 217.208 269.104 217.72L267.92 217.336C268.048 216.899 268.251 216.504 268.528 216.152C268.805 215.789 269.173 215.501 269.632 215.288C270.101 215.064 270.661 214.952 271.312 214.952C272.315 214.952 273.093 215.213 273.648 215.736C274.203 216.248 274.48 216.973 274.48 217.912V221.448C274.48 221.768 274.629 221.928 274.928 221.928H275.648V223H274.544C274.192 223 273.909 222.904 273.696 222.712C273.483 222.509 273.376 222.243 273.376 221.912V221.832H273.184C273.067 222.035 272.907 222.248 272.704 222.472C272.512 222.685 272.245 222.861 271.904 223C271.563 223.149 271.12 223.224 270.576 223.224ZM270.72 222.136C271.467 222.136 272.069 221.917 272.528 221.48C272.997 221.032 273.232 220.408 273.232 219.608V219.432H270.64C270.139 219.432 269.723 219.544 269.392 219.768C269.072 219.981 268.912 220.307 268.912 220.744C268.912 221.181 269.077 221.523 269.408 221.768C269.749 222.013 270.187 222.136 270.72 222.136ZM281.08 223.224C280.323 223.224 279.64 223.064 279.032 222.744C278.435 222.413 277.96 221.944 277.608 221.336C277.267 220.728 277.096 220.008 277.096 219.176V219C277.096 218.157 277.267 217.437 277.608 216.84C277.96 216.232 278.435 215.768 279.032 215.448C279.64 215.117 280.323 214.952 281.08 214.952C281.827 214.952 282.462 215.091 282.984 215.368C283.518 215.645 283.934 216.013 284.232 216.472C284.542 216.931 284.739 217.421 284.824 217.944L283.592 218.2C283.539 217.816 283.411 217.464 283.208 217.144C283.016 216.824 282.744 216.568 282.392 216.376C282.04 216.184 281.608 216.088 281.096 216.088C280.574 216.088 280.104 216.205 279.688 216.44C279.283 216.675 278.958 217.011 278.712 217.448C278.478 217.885 278.36 218.408 278.36 219.016V219.16C278.36 219.768 278.478 220.291 278.712 220.728C278.958 221.165 279.283 221.501 279.688 221.736C280.104 221.971 280.574 222.088 281.096 222.088C281.875 222.088 282.467 221.885 282.872 221.48C283.288 221.075 283.544 220.573 283.64 219.976L284.888 220.248C284.771 220.76 284.558 221.245 284.248 221.704C283.939 222.163 283.518 222.531 282.984 222.808C282.462 223.085 281.827 223.224 281.08 223.224ZM287.363 223V215.176H288.595V216.136H288.819C288.958 215.795 289.171 215.544 289.459 215.384C289.747 215.224 290.126 215.144 290.595 215.144H291.523V216.296H290.515C289.95 216.296 289.491 216.456 289.139 216.776C288.798 217.085 288.627 217.571 288.627 218.232V223H287.363ZM297.049 223.224C296.26 223.224 295.561 223.059 294.953 222.728C294.356 222.397 293.886 221.933 293.545 221.336C293.214 220.728 293.049 220.013 293.049 219.192V218.984C293.049 218.173 293.214 217.464 293.545 216.856C293.886 216.248 294.356 215.779 294.953 215.448C295.561 215.117 296.26 214.952 297.049 214.952C297.838 214.952 298.532 215.117 299.129 215.448C299.737 215.779 300.206 216.248 300.537 216.856C300.878 217.464 301.049 218.173 301.049 218.984V219.192C301.049 220.013 300.878 220.728 300.537 221.336C300.206 221.933 299.737 222.397 299.129 222.728C298.532 223.059 297.838 223.224 297.049 223.224ZM297.049 222.088C297.881 222.088 298.542 221.827 299.033 221.304C299.534 220.771 299.785 220.056 299.785 219.16V219.016C299.785 218.12 299.534 217.411 299.033 216.888C298.542 216.355 297.881 216.088 297.049 216.088C296.228 216.088 295.566 216.355 295.065 216.888C294.564 217.411 294.313 218.12 294.313 219.016V219.16C294.313 220.056 294.564 220.771 295.065 221.304C295.566 221.827 296.228 222.088 297.049 222.088ZM306.796 223.224C305.825 223.224 305.004 223 304.332 222.552C303.67 222.104 303.27 221.395 303.132 220.424L304.332 220.152C304.417 220.664 304.577 221.069 304.812 221.368C305.046 221.656 305.334 221.864 305.676 221.992C306.028 222.109 306.401 222.168 306.796 222.168C307.382 222.168 307.846 222.051 308.188 221.816C308.529 221.581 308.7 221.267 308.7 220.872C308.7 220.467 308.534 220.184 308.204 220.024C307.884 219.853 307.441 219.715 306.876 219.608L306.22 219.496C305.718 219.411 305.26 219.277 304.844 219.096C304.428 218.915 304.097 218.669 303.852 218.36C303.606 218.051 303.484 217.661 303.484 217.192C303.484 216.488 303.756 215.939 304.3 215.544C304.844 215.149 305.564 214.952 306.46 214.952C307.345 214.952 308.06 215.155 308.604 215.56C309.158 215.955 309.516 216.515 309.676 217.24L308.492 217.544C308.396 216.979 308.166 216.584 307.804 216.36C307.441 216.125 306.993 216.008 306.46 216.008C305.926 216.008 305.505 216.109 305.196 216.312C304.886 216.504 304.732 216.792 304.732 217.176C304.732 217.549 304.876 217.827 305.164 218.008C305.462 218.179 305.857 218.307 306.348 218.392L307.004 218.504C307.558 218.6 308.054 218.733 308.492 218.904C308.94 219.064 309.292 219.299 309.548 219.608C309.814 219.917 309.948 220.323 309.948 220.824C309.948 221.592 309.66 222.184 309.084 222.6C308.518 223.016 307.756 223.224 306.796 223.224ZM315.553 223.224C314.582 223.224 313.761 223 313.089 222.552C312.428 222.104 312.028 221.395 311.889 220.424L313.089 220.152C313.174 220.664 313.334 221.069 313.569 221.368C313.804 221.656 314.092 221.864 314.433 221.992C314.785 222.109 315.158 222.168 315.553 222.168C316.14 222.168 316.604 222.051 316.945 221.816C317.286 221.581 317.457 221.267 317.457 220.872C317.457 220.467 317.292 220.184 316.961 220.024C316.641 219.853 316.198 219.715 315.633 219.608L314.977 219.496C314.476 219.411 314.017 219.277 313.601 219.096C313.185 218.915 312.854 218.669 312.609 218.36C312.364 218.051 312.241 217.661 312.241 217.192C312.241 216.488 312.513 215.939 313.057 215.544C313.601 215.149 314.321 214.952 315.217 214.952C316.102 214.952 316.817 215.155 317.361 215.56C317.916 215.955 318.273 216.515 318.433 217.24L317.249 217.544C317.153 216.979 316.924 216.584 316.561 216.36C316.198 216.125 315.75 216.008 315.217 216.008C314.684 216.008 314.262 216.109 313.953 216.312C313.644 216.504 313.489 216.792 313.489 217.176C313.489 217.549 313.633 217.827 313.921 218.008C314.22 218.179 314.614 218.307 315.105 218.392L315.761 218.504C316.316 218.6 316.812 218.733 317.249 218.904C317.697 219.064 318.049 219.299 318.305 219.608C318.572 219.917 318.705 220.323 318.705 220.824C318.705 221.592 318.417 222.184 317.841 222.6C317.276 223.016 316.513 223.224 315.553 223.224ZM50.2467 255V247.176H51.4787V248.152H51.7027C51.8521 247.875 52.0974 247.619 52.4387 247.384C52.7801 247.149 53.2601 247.032 53.8787 247.032C54.4867 247.032 54.9774 247.165 55.3507 247.432C55.7347 247.699 56.0121 248.024 56.1827 248.408H56.4067C56.5881 248.024 56.8601 247.699 57.2227 247.432C57.5961 247.165 58.1134 247.032 58.7747 247.032C59.2974 247.032 59.7561 247.139 60.1507 247.352C60.5454 247.565 60.8547 247.875 61.0787 248.28C61.3134 248.675 61.4307 249.149 61.4307 249.704V255H60.1667V249.816C60.1667 249.293 60.0121 248.883 59.7027 248.584C59.4041 248.275 58.9827 248.12 58.4387 248.12C57.8627 248.12 57.3881 248.307 57.0147 248.68C56.6521 249.053 56.4707 249.592 56.4707 250.296V255H55.2067V249.816C55.2067 249.293 55.0521 248.883 54.7427 248.584C54.4441 248.275 54.0227 248.12 53.4787 248.12C52.9027 248.12 52.4281 248.307 52.0547 248.68C51.6921 249.053 51.5107 249.592 51.5107 250.296V255H50.2467ZM67.1994 255.144C66.634 255.144 66.1114 255.021 65.6314 254.776C65.162 254.531 64.7887 254.168 64.5114 253.688C64.2447 253.197 64.1114 252.605 64.1114 251.912V247.176H65.3754V251.816C65.3754 252.595 65.5674 253.16 65.9514 253.512C66.346 253.864 66.874 254.04 67.5354 254.04C68.282 254.04 68.8954 253.795 69.3754 253.304C69.8554 252.813 70.0954 252.083 70.0954 251.112V247.176H71.3594V255H70.1274V253.672H69.9034C69.7327 254.045 69.4394 254.387 69.0234 254.696C68.6074 254.995 67.9994 255.144 67.1994 255.144ZM74.3242 255V243.8H75.5882V255H74.3242ZM81.4461 255C80.9981 255 80.6515 254.877 80.4061 254.632C80.1715 254.387 80.0541 254.051 80.0541 253.624V248.28H77.7021V247.176H80.0541V244.392H81.3181V247.176H83.8781V248.28H81.3181V253.432C81.3181 253.752 81.4728 253.912 81.7821 253.912H83.5261V255H81.4461ZM86.2455 255V247.176H87.5095V255H86.2455ZM86.8855 245.96C86.6082 245.96 86.3735 245.869 86.1815 245.688C86.0002 245.507 85.9095 245.277 85.9095 245C85.9095 244.712 86.0002 244.477 86.1815 244.296C86.3735 244.115 86.6082 244.024 86.8855 244.024C87.1628 244.024 87.3922 244.115 87.5735 244.296C87.7548 244.477 87.8455 244.712 87.8455 245C87.8455 245.277 87.7548 245.507 87.5735 245.688C87.3922 245.869 87.1628 245.96 86.8855 245.96ZM90.4874 258.2V247.176H91.7194V248.472H91.9434C92.146 248.077 92.4714 247.725 92.9194 247.416C93.378 247.107 94.0127 246.952 94.8234 246.952C95.4954 246.952 96.1087 247.117 96.6634 247.448C97.2287 247.768 97.6767 248.227 98.0074 248.824C98.3487 249.421 98.5194 250.141 98.5194 250.984V251.192C98.5194 252.024 98.354 252.744 98.0234 253.352C97.6927 253.96 97.2447 254.424 96.6794 254.744C96.1247 255.064 95.506 255.224 94.8234 255.224C94.2794 255.224 93.8154 255.149 93.4314 255C93.058 254.861 92.754 254.68 92.5194 254.456C92.2847 254.232 92.1034 254.003 91.9754 253.768H91.7514V258.2H90.4874ZM94.4874 254.104C95.298 254.104 95.954 253.848 96.4554 253.336C96.9674 252.813 97.2234 252.088 97.2234 251.16V251.016C97.2234 250.088 96.9674 249.368 96.4554 248.856C95.954 248.333 95.298 248.072 94.4874 248.072C93.6874 248.072 93.026 248.333 92.5034 248.856C91.9914 249.368 91.7354 250.088 91.7354 251.016V251.16C91.7354 252.088 91.9914 252.813 92.5034 253.336C93.026 253.848 93.6874 254.104 94.4874 254.104ZM101.104 255V243.8H102.368V255H101.104ZM108.93 255.224C108.141 255.224 107.447 255.059 106.85 254.728C106.253 254.387 105.789 253.912 105.458 253.304C105.127 252.696 104.962 251.992 104.962 251.192V251C104.962 250.189 105.127 249.48 105.458 248.872C105.789 248.264 106.247 247.795 106.834 247.464C107.421 247.123 108.093 246.952 108.85 246.952C109.586 246.952 110.237 247.112 110.802 247.432C111.367 247.741 111.81 248.189 112.13 248.776C112.45 249.363 112.61 250.051 112.61 250.84V251.416H106.226C106.258 252.259 106.53 252.92 107.042 253.4C107.554 253.869 108.194 254.104 108.962 254.104C109.634 254.104 110.151 253.949 110.514 253.64C110.877 253.331 111.154 252.963 111.346 252.536L112.434 253.064C112.274 253.395 112.05 253.725 111.762 254.056C111.485 254.387 111.117 254.664 110.658 254.888C110.21 255.112 109.634 255.224 108.93 255.224ZM106.242 250.376H111.33C111.287 249.651 111.037 249.085 110.578 248.68C110.13 248.275 109.554 248.072 108.85 248.072C108.135 248.072 107.549 248.275 107.09 248.68C106.631 249.085 106.349 249.651 106.242 250.376ZM119.516 255V243.8H126.412V245.016H120.86V248.76H125.964V249.976H120.86V253.784H126.492V255H119.516ZM131.348 255L127.972 243.8H129.364L132.42 254.184H132.628L135.684 243.8H137.076L133.7 255H131.348ZM139.078 255V243.8H141.638L144.614 254.152H144.822L147.798 243.8H150.358V255H149.062V244.68H148.838L145.878 255H143.558L140.598 244.68H140.374V255H139.078ZM153.226 251.464V250.296H157.962V251.464H153.226ZM164.491 255.224C163.734 255.224 163.051 255.064 162.443 254.744C161.846 254.413 161.371 253.944 161.019 253.336C160.678 252.728 160.507 252.008 160.507 251.176V251C160.507 250.157 160.678 249.437 161.019 248.84C161.371 248.232 161.846 247.768 162.443 247.448C163.051 247.117 163.734 246.952 164.491 246.952C165.238 246.952 165.872 247.091 166.395 247.368C166.928 247.645 167.344 248.013 167.643 248.472C167.952 248.931 168.15 249.421 168.235 249.944L167.003 250.2C166.95 249.816 166.822 249.464 166.619 249.144C166.427 248.824 166.155 248.568 165.803 248.376C165.451 248.184 165.019 248.088 164.507 248.088C163.984 248.088 163.515 248.205 163.099 248.44C162.694 248.675 162.368 249.011 162.123 249.448C161.888 249.885 161.771 250.408 161.771 251.016V251.16C161.771 251.768 161.888 252.291 162.123 252.728C162.368 253.165 162.694 253.501 163.099 253.736C163.515 253.971 163.984 254.088 164.507 254.088C165.286 254.088 165.878 253.885 166.283 253.48C166.699 253.075 166.955 252.573 167.051 251.976L168.299 252.248C168.182 252.76 167.968 253.245 167.659 253.704C167.35 254.163 166.928 254.531 166.395 254.808C165.872 255.085 165.238 255.224 164.491 255.224ZM174.39 255.224C173.6 255.224 172.902 255.059 172.294 254.728C171.696 254.397 171.227 253.933 170.886 253.336C170.555 252.728 170.39 252.013 170.39 251.192V250.984C170.39 250.173 170.555 249.464 170.886 248.856C171.227 248.248 171.696 247.779 172.294 247.448C172.902 247.117 173.6 246.952 174.39 246.952C175.179 246.952 175.872 247.117 176.47 247.448C177.078 247.779 177.547 248.248 177.878 248.856C178.219 249.464 178.39 250.173 178.39 250.984V251.192C178.39 252.013 178.219 252.728 177.878 253.336C177.547 253.933 177.078 254.397 176.47 254.728C175.872 255.059 175.179 255.224 174.39 255.224ZM174.39 254.088C175.222 254.088 175.883 253.827 176.374 253.304C176.875 252.771 177.126 252.056 177.126 251.16V251.016C177.126 250.12 176.875 249.411 176.374 248.888C175.883 248.355 175.222 248.088 174.39 248.088C173.568 248.088 172.907 248.355 172.406 248.888C171.904 249.411 171.654 250.12 171.654 251.016V251.16C171.654 252.056 171.904 252.771 172.406 253.304C172.907 253.827 173.568 254.088 174.39 254.088ZM180.984 255V247.176H182.216V248.152H182.44C182.59 247.875 182.835 247.619 183.176 247.384C183.518 247.149 183.998 247.032 184.616 247.032C185.224 247.032 185.715 247.165 186.088 247.432C186.472 247.699 186.75 248.024 186.92 248.408H187.144C187.326 248.024 187.598 247.699 187.96 247.432C188.334 247.165 188.851 247.032 189.512 247.032C190.035 247.032 190.494 247.139 190.888 247.352C191.283 247.565 191.592 247.875 191.816 248.28C192.051 248.675 192.168 249.149 192.168 249.704V255H190.904V249.816C190.904 249.293 190.75 248.883 190.44 248.584C190.142 248.275 189.72 248.12 189.176 248.12C188.6 248.12 188.126 248.307 187.752 248.68C187.39 249.053 187.208 249.592 187.208 250.296V255H185.944V249.816C185.944 249.293 185.79 248.883 185.48 248.584C185.182 248.275 184.76 248.12 184.216 248.12C183.64 248.12 183.166 248.307 182.792 248.68C182.43 249.053 182.248 249.592 182.248 250.296V255H180.984ZM195.07 258.2V247.176H196.302V248.472H196.526C196.729 248.077 197.054 247.725 197.502 247.416C197.961 247.107 198.595 246.952 199.406 246.952C200.078 246.952 200.691 247.117 201.246 247.448C201.811 247.768 202.259 248.227 202.59 248.824C202.931 249.421 203.102 250.141 203.102 250.984V251.192C203.102 252.024 202.937 252.744 202.606 253.352C202.275 253.96 201.827 254.424 201.262 254.744C200.707 255.064 200.089 255.224 199.406 255.224C198.862 255.224 198.398 255.149 198.014 255C197.641 254.861 197.337 254.68 197.102 254.456C196.867 254.232 196.686 254.003 196.558 253.768H196.334V258.2H195.07ZM199.07 254.104C199.881 254.104 200.537 253.848 201.038 253.336C201.55 252.813 201.806 252.088 201.806 251.16V251.016C201.806 250.088 201.55 249.368 201.038 248.856C200.537 248.333 199.881 248.072 199.07 248.072C198.27 248.072 197.609 248.333 197.086 248.856C196.574 249.368 196.318 250.088 196.318 251.016V251.16C196.318 252.088 196.574 252.813 197.086 253.336C197.609 253.848 198.27 254.104 199.07 254.104ZM208.087 255.224C207.543 255.224 207.047 255.128 206.599 254.936C206.151 254.744 205.799 254.467 205.543 254.104C205.287 253.741 205.159 253.299 205.159 252.776C205.159 252.243 205.287 251.805 205.543 251.464C205.799 251.112 206.151 250.851 206.599 250.68C207.047 250.499 207.548 250.408 208.103 250.408H210.743V249.832C210.743 249.277 210.577 248.84 210.247 248.52C209.927 248.2 209.447 248.04 208.807 248.04C208.177 248.04 207.687 248.195 207.335 248.504C206.983 248.803 206.743 249.208 206.615 249.72L205.431 249.336C205.559 248.899 205.761 248.504 206.039 248.152C206.316 247.789 206.684 247.501 207.143 247.288C207.612 247.064 208.172 246.952 208.823 246.952C209.825 246.952 210.604 247.213 211.159 247.736C211.713 248.248 211.991 248.973 211.991 249.912V253.448C211.991 253.768 212.14 253.928 212.439 253.928H213.159V255H212.055C211.703 255 211.42 254.904 211.207 254.712C210.993 254.509 210.887 254.243 210.887 253.912V253.832H210.695C210.577 254.035 210.417 254.248 210.215 254.472C210.023 254.685 209.756 254.861 209.415 255C209.073 255.149 208.631 255.224 208.087 255.224ZM208.231 254.136C208.977 254.136 209.58 253.917 210.039 253.48C210.508 253.032 210.743 252.408 210.743 251.608V251.432H208.151C207.649 251.432 207.233 251.544 206.903 251.768C206.583 251.981 206.423 252.307 206.423 252.744C206.423 253.181 206.588 253.523 206.919 253.768C207.26 254.013 207.697 254.136 208.231 254.136ZM217.574 255C217.126 255 216.78 254.877 216.534 254.632C216.3 254.387 216.182 254.051 216.182 253.624V248.28H213.83V247.176H216.182V244.392H217.446V247.176H220.006V248.28H217.446V253.432C217.446 253.752 217.601 253.912 217.91 253.912H219.654V255H217.574ZM222.374 255V247.176H223.638V255H222.374ZM223.014 245.96C222.736 245.96 222.502 245.869 222.31 245.688C222.128 245.507 222.038 245.277 222.038 245C222.038 244.712 222.128 244.477 222.31 244.296C222.502 244.115 222.736 244.024 223.014 244.024C223.291 244.024 223.52 244.115 223.702 244.296C223.883 244.477 223.974 244.712 223.974 245C223.974 245.277 223.883 245.507 223.702 245.688C223.52 245.869 223.291 245.96 223.014 245.96ZM230.951 255.224C230.141 255.224 229.506 255.069 229.047 254.76C228.599 254.451 228.274 254.099 228.071 253.704H227.847V255H226.615V243.8H227.879V248.408H228.103C228.231 248.163 228.413 247.933 228.647 247.72C228.882 247.496 229.186 247.315 229.559 247.176C229.943 247.027 230.407 246.952 230.951 246.952C231.634 246.952 232.253 247.117 232.807 247.448C233.373 247.768 233.821 248.232 234.151 248.84C234.482 249.437 234.647 250.152 234.647 250.984V251.192C234.647 252.024 234.477 252.744 234.135 253.352C233.805 253.96 233.357 254.424 232.791 254.744C232.237 255.064 231.623 255.224 230.951 255.224ZM230.615 254.104C231.426 254.104 232.082 253.848 232.583 253.336C233.095 252.813 233.351 252.088 233.351 251.16V251.016C233.351 250.088 233.095 249.368 232.583 248.856C232.082 248.333 231.426 248.072 230.615 248.072C229.815 248.072 229.154 248.333 228.631 248.856C228.119 249.368 227.863 250.088 227.863 251.016V251.16C227.863 252.088 228.119 252.813 228.631 253.336C229.154 253.848 229.815 254.104 230.615 254.104ZM237.232 255V243.8H238.496V255H237.232ZM245.058 255.224C244.269 255.224 243.576 255.059 242.978 254.728C242.381 254.387 241.917 253.912 241.586 253.304C241.256 252.696 241.09 251.992 241.09 251.192V251C241.09 250.189 241.256 249.48 241.586 248.872C241.917 248.264 242.376 247.795 242.962 247.464C243.549 247.123 244.221 246.952 244.978 246.952C245.714 246.952 246.365 247.112 246.93 247.432C247.496 247.741 247.938 248.189 248.258 248.776C248.578 249.363 248.738 250.051 248.738 250.84V251.416H242.354C242.386 252.259 242.658 252.92 243.17 253.4C243.682 253.869 244.322 254.104 245.09 254.104C245.762 254.104 246.28 253.949 246.642 253.64C247.005 253.331 247.282 252.963 247.474 252.536L248.562 253.064C248.402 253.395 248.178 253.725 247.89 254.056C247.613 254.387 247.245 254.664 246.786 254.888C246.338 255.112 245.762 255.224 245.058 255.224ZM242.37 250.376H247.458C247.416 249.651 247.165 249.085 246.706 248.68C246.258 248.275 245.682 248.072 244.978 248.072C244.264 248.072 243.677 248.275 243.218 248.68C242.76 249.085 242.477 249.651 242.37 250.376ZM259.292 255.224C258.535 255.224 257.852 255.064 257.244 254.744C256.647 254.413 256.172 253.944 255.82 253.336C255.479 252.728 255.308 252.008 255.308 251.176V251C255.308 250.157 255.479 249.437 255.82 248.84C256.172 248.232 256.647 247.768 257.244 247.448C257.852 247.117 258.535 246.952 259.292 246.952C260.039 246.952 260.674 247.091 261.196 247.368C261.73 247.645 262.146 248.013 262.444 248.472C262.754 248.931 262.951 249.421 263.036 249.944L261.804 250.2C261.751 249.816 261.623 249.464 261.42 249.144C261.228 248.824 260.956 248.568 260.604 248.376C260.252 248.184 259.82 248.088 259.308 248.088C258.786 248.088 258.316 248.205 257.9 248.44C257.495 248.675 257.17 249.011 256.924 249.448C256.69 249.885 256.572 250.408 256.572 251.016V251.16C256.572 251.768 256.69 252.291 256.924 252.728C257.17 253.165 257.495 253.501 257.9 253.736C258.316 253.971 258.786 254.088 259.308 254.088C260.087 254.088 260.679 253.885 261.084 253.48C261.5 253.075 261.756 252.573 261.852 251.976L263.1 252.248C262.983 252.76 262.77 253.245 262.46 253.704C262.151 254.163 261.73 254.531 261.196 254.808C260.674 255.085 260.039 255.224 259.292 255.224ZM265.575 255V243.8H266.839V248.424H267.063C267.17 248.189 267.33 247.971 267.543 247.768C267.767 247.555 268.05 247.379 268.391 247.24C268.743 247.101 269.186 247.032 269.719 247.032C270.306 247.032 270.828 247.16 271.287 247.416C271.756 247.661 272.13 248.024 272.407 248.504C272.684 248.973 272.823 249.56 272.823 250.264V255H271.559V250.36C271.559 249.581 271.362 249.016 270.967 248.664C270.583 248.312 270.06 248.136 269.399 248.136C268.642 248.136 268.023 248.381 267.543 248.872C267.074 249.363 266.839 250.093 266.839 251.064V255H265.575ZM278.107 255.224C277.563 255.224 277.067 255.128 276.619 254.936C276.171 254.744 275.819 254.467 275.563 254.104C275.307 253.741 275.179 253.299 275.179 252.776C275.179 252.243 275.307 251.805 275.563 251.464C275.819 251.112 276.171 250.851 276.619 250.68C277.067 250.499 277.569 250.408 278.123 250.408H280.763V249.832C280.763 249.277 280.598 248.84 280.267 248.52C279.947 248.2 279.467 248.04 278.827 248.04C278.198 248.04 277.707 248.195 277.355 248.504C277.003 248.803 276.763 249.208 276.635 249.72L275.451 249.336C275.579 248.899 275.782 248.504 276.059 248.152C276.337 247.789 276.705 247.501 277.163 247.288C277.633 247.064 278.193 246.952 278.843 246.952C279.846 246.952 280.625 247.213 281.179 247.736C281.734 248.248 282.011 248.973 282.011 249.912V253.448C282.011 253.768 282.161 253.928 282.459 253.928H283.179V255H282.075C281.723 255 281.441 254.904 281.227 254.712C281.014 254.509 280.907 254.243 280.907 253.912V253.832H280.715C280.598 254.035 280.438 254.248 280.235 254.472C280.043 254.685 279.777 254.861 279.435 255C279.094 255.149 278.651 255.224 278.107 255.224ZM278.251 254.136C278.998 254.136 279.601 253.917 280.059 253.48C280.529 253.032 280.763 252.408 280.763 251.608V251.432H278.171C277.67 251.432 277.254 251.544 276.923 251.768C276.603 251.981 276.443 252.307 276.443 252.744C276.443 253.181 276.609 253.523 276.939 253.768C277.281 254.013 277.718 254.136 278.251 254.136ZM285.23 255V247.176H286.494V255H285.23ZM285.87 245.96C285.593 245.96 285.358 245.869 285.166 245.688C284.985 245.507 284.894 245.277 284.894 245C284.894 244.712 284.985 244.477 285.166 244.296C285.358 244.115 285.593 244.024 285.87 244.024C286.148 244.024 286.377 244.115 286.558 244.296C286.74 244.477 286.83 244.712 286.83 245C286.83 245.277 286.74 245.507 286.558 245.688C286.377 245.869 286.148 245.96 285.87 245.96ZM289.472 255V247.176H290.704V248.504H290.928C291.099 248.131 291.387 247.795 291.792 247.496C292.208 247.187 292.816 247.032 293.616 247.032C294.203 247.032 294.726 247.155 295.184 247.4C295.654 247.645 296.027 248.008 296.304 248.488C296.582 248.968 296.72 249.56 296.72 250.264V255H295.456V250.36C295.456 249.581 295.259 249.016 294.864 248.664C294.48 248.312 293.958 248.136 293.296 248.136C292.539 248.136 291.92 248.381 291.44 248.872C290.971 249.363 290.736 250.093 290.736 251.064V255H289.472ZM302.757 255.224C301.786 255.224 300.965 255 300.293 254.552C299.632 254.104 299.232 253.395 299.093 252.424L300.293 252.152C300.378 252.664 300.538 253.069 300.773 253.368C301.008 253.656 301.296 253.864 301.637 253.992C301.989 254.109 302.362 254.168 302.757 254.168C303.344 254.168 303.808 254.051 304.149 253.816C304.49 253.581 304.661 253.267 304.661 252.872C304.661 252.467 304.496 252.184 304.165 252.024C303.845 251.853 303.402 251.715 302.837 251.608L302.181 251.496C301.68 251.411 301.221 251.277 300.805 251.096C300.389 250.915 300.058 250.669 299.813 250.36C299.568 250.051 299.445 249.661 299.445 249.192C299.445 248.488 299.717 247.939 300.261 247.544C300.805 247.149 301.525 246.952 302.421 246.952C303.306 246.952 304.021 247.155 304.565 247.56C305.12 247.955 305.477 248.515 305.637 249.24L304.453 249.544C304.357 248.979 304.128 248.584 303.765 248.36C303.402 248.125 302.954 248.008 302.421 248.008C301.888 248.008 301.466 248.109 301.157 248.312C300.848 248.504 300.693 248.792 300.693 249.176C300.693 249.549 300.837 249.827 301.125 250.008C301.424 250.179 301.818 250.307 302.309 250.392L302.965 250.504C303.52 250.6 304.016 250.733 304.453 250.904C304.901 251.064 305.253 251.299 305.509 251.608C305.776 251.917 305.909 252.323 305.909 252.824C305.909 253.592 305.621 254.184 305.045 254.6C304.48 255.016 303.717 255.224 302.757 255.224ZM309.05 255.224C308.741 255.224 308.48 255.123 308.266 254.92C308.064 254.717 307.962 254.456 307.962 254.136C307.962 253.816 308.064 253.555 308.266 253.352C308.48 253.149 308.741 253.048 309.05 253.048C309.37 253.048 309.632 253.149 309.834 253.352C310.037 253.555 310.138 253.816 310.138 254.136C310.138 254.456 310.037 254.717 309.834 254.92C309.632 255.123 309.37 255.224 309.05 255.224Z" fill="white"/>
<rect x="0.5" y="0.5" width="359" height="371" rx="19.5" stroke="white"/>
</svg>
