<svg width="360" height="372" viewBox="0 0 360 372" fill="none" xmlns="http://www.w3.org/2000/svg">
<path d="M126.778 116L131.194 99.2H136.714L141.13 116H137.866L136.954 112.304H130.954L130.042 116H126.778ZM131.698 109.376H136.21L134.17 101.192H133.738L131.698 109.376ZM148.253 116.192C147.325 116.192 146.509 115.984 145.805 115.568C145.117 115.136 144.581 114.544 144.197 113.792C143.813 113.04 143.621 112.176 143.621 111.2V104.096H146.645V110.96C146.645 111.856 146.861 112.528 147.293 112.976C147.741 113.424 148.373 113.648 149.189 113.648C150.117 113.648 150.837 113.344 151.349 112.736C151.861 112.112 152.117 111.248 152.117 110.144V104.096H155.141V116H152.165V114.44H151.733C151.541 114.84 151.181 115.232 150.653 115.616C150.125 116 149.325 116.192 148.253 116.192ZM163.546 116C162.762 116 162.122 115.76 161.626 115.28C161.146 114.784 160.906 114.128 160.906 113.312V106.592H157.93V104.096H160.906V100.4H163.93V104.096H167.194V106.592H163.93V112.784C163.93 113.264 164.154 113.504 164.602 113.504H166.906V116H163.546ZM175.653 116.336C174.469 116.336 173.405 116.096 172.461 115.616C171.517 115.136 170.773 114.44 170.229 113.528C169.685 112.616 169.413 111.52 169.413 110.24V109.856C169.413 108.576 169.685 107.48 170.229 106.568C170.773 105.656 171.517 104.96 172.461 104.48C173.405 104 174.469 103.76 175.653 103.76C176.837 103.76 177.901 104 178.845 104.48C179.789 104.96 180.533 105.656 181.077 106.568C181.621 107.48 181.893 108.576 181.893 109.856V110.24C181.893 111.52 181.621 112.616 181.077 113.528C180.533 114.44 179.789 115.136 178.845 115.616C177.901 116.096 176.837 116.336 175.653 116.336ZM175.653 113.648C176.581 113.648 177.349 113.352 177.957 112.76C178.565 112.152 178.869 111.288 178.869 110.168V109.928C178.869 108.808 178.565 107.952 177.957 107.36C177.365 106.752 176.597 106.448 175.653 106.448C174.725 106.448 173.957 106.752 173.349 107.36C172.741 107.952 172.437 108.808 172.437 109.928V110.168C172.437 111.288 172.741 112.152 173.349 112.76C173.957 113.352 174.725 113.648 175.653 113.648ZM197.474 116.336C196.178 116.336 195.034 116.104 194.042 115.64C193.05 115.176 192.274 114.512 191.714 113.648C191.154 112.784 190.874 111.744 190.874 110.528V109.856H193.994V110.528C193.994 111.536 194.306 112.296 194.93 112.808C195.554 113.304 196.402 113.552 197.474 113.552C198.562 113.552 199.37 113.336 199.898 112.904C200.442 112.472 200.714 111.92 200.714 111.248C200.714 110.784 200.578 110.408 200.306 110.12C200.05 109.832 199.666 109.6 199.154 109.424C198.658 109.232 198.05 109.056 197.33 108.896L196.778 108.776C195.626 108.52 194.634 108.2 193.802 107.816C192.986 107.416 192.354 106.896 191.906 106.256C191.474 105.616 191.258 104.784 191.258 103.76C191.258 102.736 191.498 101.864 191.978 101.144C192.474 100.408 193.162 99.848 194.042 99.464C194.938 99.064 195.986 98.864 197.186 98.864C198.386 98.864 199.45 99.072 200.378 99.488C201.322 99.888 202.058 100.496 202.586 101.312C203.13 102.112 203.402 103.12 203.402 104.336V105.056H200.282V104.336C200.282 103.696 200.154 103.184 199.898 102.8C199.658 102.4 199.306 102.112 198.842 101.936C198.378 101.744 197.826 101.648 197.186 101.648C196.226 101.648 195.514 101.832 195.05 102.2C194.602 102.552 194.378 103.04 194.378 103.664C194.378 104.08 194.482 104.432 194.69 104.72C194.914 105.008 195.242 105.248 195.674 105.44C196.106 105.632 196.658 105.8 197.33 105.944L197.882 106.064C199.082 106.32 200.122 106.648 201.002 107.048C201.898 107.448 202.594 107.976 203.09 108.632C203.586 109.288 203.834 110.128 203.834 111.152C203.834 112.176 203.57 113.08 203.042 113.864C202.53 114.632 201.794 115.24 200.834 115.688C199.89 116.12 198.77 116.336 197.474 116.336ZM212.197 116.336C211.013 116.336 209.965 116.088 209.053 115.592C208.157 115.08 207.453 114.368 206.941 113.456C206.445 112.528 206.197 111.44 206.197 110.192V109.904C206.197 108.656 206.445 107.576 206.941 106.664C207.437 105.736 208.133 105.024 209.029 104.528C209.925 104.016 210.965 103.76 212.149 103.76C213.317 103.76 214.333 104.024 215.197 104.552C216.061 105.064 216.733 105.784 217.213 106.712C217.693 107.624 217.933 108.688 217.933 109.904V110.936H209.269C209.301 111.752 209.605 112.416 210.181 112.928C210.757 113.44 211.461 113.696 212.293 113.696C213.141 113.696 213.765 113.512 214.165 113.144C214.565 112.776 214.869 112.368 215.077 111.92L217.549 113.216C217.325 113.632 216.997 114.088 216.565 114.584C216.149 115.064 215.589 115.48 214.885 115.832C214.181 116.168 213.285 116.336 212.197 116.336ZM209.293 108.68H214.861C214.797 107.992 214.517 107.44 214.021 107.024C213.541 106.608 212.909 106.4 212.125 106.4C211.309 106.4 210.661 106.608 210.181 107.024C209.701 107.44 209.405 107.992 209.293 108.68ZM221.104 116V99.2H224.128V116H221.104ZM227.959 116V99.2H230.983V116H227.959Z" fill="white"/>
<path d="M70.905 175V163.8H73.513L77.417 174.152H77.625V163.8H78.953V175H76.345L72.457 164.632H72.233V175H70.905ZM85.482 175.224C84.6927 175.224 83.9993 175.059 83.402 174.728C82.8047 174.387 82.3407 173.912 82.01 173.304C81.6793 172.696 81.514 171.992 81.514 171.192V171C81.514 170.189 81.6793 169.48 82.01 168.872C82.3407 168.264 82.7993 167.795 83.386 167.464C83.9727 167.123 84.6447 166.952 85.402 166.952C86.138 166.952 86.7887 167.112 87.354 167.432C87.9193 167.741 88.362 168.189 88.682 168.776C89.002 169.363 89.162 170.051 89.162 170.84V171.416H82.778C82.81 172.259 83.082 172.92 83.594 173.4C84.106 173.869 84.746 174.104 85.514 174.104C86.186 174.104 86.7033 173.949 87.066 173.64C87.4287 173.331 87.706 172.963 87.898 172.536L88.986 173.064C88.826 173.395 88.602 173.725 88.314 174.056C88.0367 174.387 87.6687 174.664 87.21 174.888C86.762 175.112 86.186 175.224 85.482 175.224ZM82.794 170.376H87.882C87.8393 169.651 87.5887 169.085 87.13 168.68C86.682 168.275 86.106 168.072 85.402 168.072C84.6873 168.072 84.1007 168.275 83.642 168.68C83.1833 169.085 82.9007 169.651 82.794 170.376ZM93.3426 175L90.5426 167.176H91.8866L94.2386 174.056H94.4626L96.8146 167.176H98.1586L95.3586 175H93.3426ZM103.559 175.224C102.77 175.224 102.077 175.059 101.479 174.728C100.882 174.387 100.418 173.912 100.087 173.304C99.7568 172.696 99.5915 171.992 99.5915 171.192V171C99.5915 170.189 99.7568 169.48 100.087 168.872C100.418 168.264 100.877 167.795 101.463 167.464C102.05 167.123 102.722 166.952 103.479 166.952C104.215 166.952 104.866 167.112 105.431 167.432C105.997 167.741 106.439 168.189 106.759 168.776C107.079 169.363 107.239 170.051 107.239 170.84V171.416H100.855C100.887 172.259 101.159 172.92 101.671 173.4C102.183 173.869 102.823 174.104 103.591 174.104C104.263 174.104 104.781 173.949 105.143 173.64C105.506 173.331 105.783 172.963 105.975 172.536L107.063 173.064C106.903 173.395 106.679 173.725 106.391 174.056C106.114 174.387 105.746 174.664 105.287 174.888C104.839 175.112 104.263 175.224 103.559 175.224ZM100.871 170.376H105.959C105.917 169.651 105.666 169.085 105.207 168.68C104.759 168.275 104.183 168.072 103.479 168.072C102.765 168.072 102.178 168.275 101.719 168.68C101.261 169.085 100.978 169.651 100.871 170.376ZM109.764 175V167.176H110.996V168.136H111.22C111.359 167.795 111.572 167.544 111.86 167.384C112.148 167.224 112.527 167.144 112.996 167.144H113.924V168.296H112.916C112.351 168.296 111.892 168.456 111.54 168.776C111.199 169.085 111.028 169.571 111.028 170.232V175H109.764ZM121.633 175L120.065 167.176H121.345L122.641 174.152H122.865L124.577 167.176H126.673L128.385 174.152H128.609L129.905 167.176H131.185L129.617 175H127.457L125.729 168.024H125.521L123.793 175H121.633ZM137.137 175.224C136.348 175.224 135.649 175.059 135.041 174.728C134.444 174.397 133.974 173.933 133.633 173.336C133.302 172.728 133.137 172.013 133.137 171.192V170.984C133.137 170.173 133.302 169.464 133.633 168.856C133.974 168.248 134.444 167.779 135.041 167.448C135.649 167.117 136.348 166.952 137.137 166.952C137.926 166.952 138.62 167.117 139.217 167.448C139.825 167.779 140.294 168.248 140.625 168.856C140.966 169.464 141.137 170.173 141.137 170.984V171.192C141.137 172.013 140.966 172.728 140.625 173.336C140.294 173.933 139.825 174.397 139.217 174.728C138.62 175.059 137.926 175.224 137.137 175.224ZM137.137 174.088C137.969 174.088 138.63 173.827 139.121 173.304C139.622 172.771 139.873 172.056 139.873 171.16V171.016C139.873 170.12 139.622 169.411 139.121 168.888C138.63 168.355 137.969 168.088 137.137 168.088C136.316 168.088 135.654 168.355 135.153 168.888C134.652 169.411 134.401 170.12 134.401 171.016V171.16C134.401 172.056 134.652 172.771 135.153 173.304C135.654 173.827 136.316 174.088 137.137 174.088ZM143.732 175V167.176H144.964V168.136H145.188C145.326 167.795 145.54 167.544 145.828 167.384C146.116 167.224 146.494 167.144 146.964 167.144H147.892V168.296H146.884C146.318 168.296 145.86 168.456 145.508 168.776C145.166 169.085 144.996 169.571 144.996 170.232V175H143.732ZM150.083 175V167.176H151.315V168.136H151.539C151.678 167.795 151.891 167.544 152.179 167.384C152.467 167.224 152.846 167.144 153.315 167.144H154.243V168.296H153.235C152.67 168.296 152.211 168.456 151.859 168.776C151.518 169.085 151.347 169.571 151.347 170.232V175H150.083ZM157.378 178.2V177.08H161.858C162.168 177.08 162.322 176.92 162.322 176.6V173.752H162.098C161.992 173.976 161.826 174.2 161.602 174.424C161.389 174.637 161.106 174.813 160.754 174.952C160.402 175.08 159.96 175.144 159.426 175.144C158.861 175.144 158.338 175.021 157.858 174.776C157.389 174.531 157.016 174.168 156.738 173.688C156.472 173.208 156.338 172.621 156.338 171.928V167.176H157.602V171.832C157.602 172.6 157.794 173.16 158.178 173.512C158.573 173.864 159.101 174.04 159.762 174.04C160.509 174.04 161.122 173.795 161.602 173.304C162.082 172.813 162.322 172.083 162.322 171.112V167.176H163.586V176.824C163.586 177.251 163.464 177.587 163.218 177.832C162.984 178.077 162.637 178.2 162.178 178.2H157.378ZM173.38 175.224C172.836 175.224 172.34 175.128 171.892 174.936C171.444 174.744 171.092 174.467 170.836 174.104C170.58 173.741 170.452 173.299 170.452 172.776C170.452 172.243 170.58 171.805 170.836 171.464C171.092 171.112 171.444 170.851 171.892 170.68C172.34 170.499 172.842 170.408 173.396 170.408H176.036V169.832C176.036 169.277 175.871 168.84 175.54 168.52C175.22 168.2 174.74 168.04 174.1 168.04C173.471 168.04 172.98 168.195 172.628 168.504C172.276 168.803 172.036 169.208 171.908 169.72L170.724 169.336C170.852 168.899 171.055 168.504 171.332 168.152C171.61 167.789 171.978 167.501 172.436 167.288C172.906 167.064 173.466 166.952 174.116 166.952C175.119 166.952 175.898 167.213 176.452 167.736C177.007 168.248 177.284 168.973 177.284 169.912V173.448C177.284 173.768 177.434 173.928 177.732 173.928H178.452V175H177.348C176.996 175 176.714 174.904 176.5 174.712C176.287 174.509 176.18 174.243 176.18 173.912V173.832H175.988C175.871 174.035 175.711 174.248 175.508 174.472C175.316 174.685 175.05 174.861 174.708 175C174.367 175.149 173.924 175.224 173.38 175.224ZM173.524 174.136C174.271 174.136 174.874 173.917 175.332 173.48C175.802 173.032 176.036 172.408 176.036 171.608V171.432H173.444C172.943 171.432 172.527 171.544 172.196 171.768C171.876 171.981 171.716 172.307 171.716 172.744C171.716 173.181 171.882 173.523 172.212 173.768C172.554 174.013 172.991 174.136 173.524 174.136ZM184.84 175.224C184.029 175.224 183.394 175.069 182.936 174.76C182.488 174.451 182.162 174.099 181.96 173.704H181.736V175H180.504V163.8H181.768V168.408H181.992C182.12 168.163 182.301 167.933 182.536 167.72C182.77 167.496 183.074 167.315 183.448 167.176C183.832 167.027 184.296 166.952 184.84 166.952C185.522 166.952 186.141 167.117 186.696 167.448C187.261 167.768 187.709 168.232 188.04 168.84C188.37 169.437 188.536 170.152 188.536 170.984V171.192C188.536 172.024 188.365 172.744 188.024 173.352C187.693 173.96 187.245 174.424 186.68 174.744C186.125 175.064 185.512 175.224 184.84 175.224ZM184.504 174.104C185.314 174.104 185.97 173.848 186.472 173.336C186.984 172.813 187.24 172.088 187.24 171.16V171.016C187.24 170.088 186.984 169.368 186.472 168.856C185.97 168.333 185.314 168.072 184.504 168.072C183.704 168.072 183.042 168.333 182.52 168.856C182.008 169.368 181.752 170.088 181.752 171.016V171.16C181.752 172.088 182.008 172.813 182.52 173.336C183.042 173.848 183.704 174.104 184.504 174.104ZM194.737 175.224C193.947 175.224 193.249 175.059 192.641 174.728C192.043 174.397 191.574 173.933 191.233 173.336C190.902 172.728 190.737 172.013 190.737 171.192V170.984C190.737 170.173 190.902 169.464 191.233 168.856C191.574 168.248 192.043 167.779 192.641 167.448C193.249 167.117 193.947 166.952 194.737 166.952C195.526 166.952 196.219 167.117 196.817 167.448C197.425 167.779 197.894 168.248 198.225 168.856C198.566 169.464 198.737 170.173 198.737 170.984V171.192C198.737 172.013 198.566 172.728 198.225 173.336C197.894 173.933 197.425 174.397 196.817 174.728C196.219 175.059 195.526 175.224 194.737 175.224ZM194.737 174.088C195.569 174.088 196.23 173.827 196.721 173.304C197.222 172.771 197.473 172.056 197.473 171.16V171.016C197.473 170.12 197.222 169.411 196.721 168.888C196.23 168.355 195.569 168.088 194.737 168.088C193.915 168.088 193.254 168.355 192.753 168.888C192.251 169.411 192.001 170.12 192.001 171.016V171.16C192.001 172.056 192.251 172.771 192.753 173.304C193.254 173.827 193.915 174.088 194.737 174.088ZM204.323 175.144C203.758 175.144 203.235 175.021 202.755 174.776C202.286 174.531 201.912 174.168 201.635 173.688C201.368 173.197 201.235 172.605 201.235 171.912V167.176H202.499V171.816C202.499 172.595 202.691 173.16 203.075 173.512C203.47 173.864 203.998 174.04 204.659 174.04C205.406 174.04 206.019 173.795 206.499 173.304C206.979 172.813 207.219 172.083 207.219 171.112V167.176H208.483V175H207.251V173.672H207.027C206.856 174.045 206.563 174.387 206.147 174.696C205.731 174.995 205.123 175.144 204.323 175.144ZM214.328 175C213.88 175 213.533 174.877 213.288 174.632C213.053 174.387 212.936 174.051 212.936 173.624V168.28H210.584V167.176H212.936V164.392H214.2V167.176H216.76V168.28H214.2V173.432C214.2 173.752 214.355 173.912 214.664 173.912H216.408V175H214.328ZM223.509 175V163.8H227.797C228.469 163.8 229.066 163.933 229.589 164.2C230.122 164.456 230.543 164.824 230.853 165.304C231.162 165.784 231.317 166.365 231.317 167.048V167.256C231.317 167.928 231.157 168.509 230.837 169C230.527 169.48 230.106 169.848 229.573 170.104C229.039 170.36 228.447 170.488 227.797 170.488H224.853V175H223.509ZM224.853 169.272H227.653C228.367 169.272 228.933 169.096 229.349 168.744C229.765 168.381 229.973 167.875 229.973 167.224V167.064C229.973 166.413 229.765 165.912 229.349 165.56C228.943 165.197 228.378 165.016 227.653 165.016H224.853V169.272ZM236.82 175.224C236.031 175.224 235.337 175.059 234.74 174.728C234.143 174.387 233.679 173.912 233.348 173.304C233.017 172.696 232.852 171.992 232.852 171.192V171C232.852 170.189 233.017 169.48 233.348 168.872C233.679 168.264 234.137 167.795 234.724 167.464C235.311 167.123 235.983 166.952 236.74 166.952C237.476 166.952 238.127 167.112 238.692 167.432C239.257 167.741 239.7 168.189 240.02 168.776C240.34 169.363 240.5 170.051 240.5 170.84V171.416H234.116C234.148 172.259 234.42 172.92 234.932 173.4C235.444 173.869 236.084 174.104 236.852 174.104C237.524 174.104 238.041 173.949 238.404 173.64C238.767 173.331 239.044 172.963 239.236 172.536L240.324 173.064C240.164 173.395 239.94 173.725 239.652 174.056C239.375 174.387 239.007 174.664 238.548 174.888C238.1 175.112 237.524 175.224 236.82 175.224ZM234.132 170.376H239.22C239.177 169.651 238.927 169.085 238.468 168.68C238.02 168.275 237.444 168.072 236.74 168.072C236.025 168.072 235.439 168.275 234.98 168.68C234.521 169.085 234.239 169.651 234.132 170.376ZM242.641 171.128V170.904C242.641 170.083 242.806 169.379 243.137 168.792C243.468 168.205 243.916 167.752 244.481 167.432C245.046 167.112 245.665 166.952 246.337 166.952C247.158 166.952 247.788 167.112 248.225 167.432C248.673 167.741 249.004 168.088 249.217 168.472H249.441V167.176H250.641V176.824C250.641 177.251 250.524 177.587 250.289 177.832C250.054 178.077 249.713 178.2 249.265 178.2H243.953V177.08H248.929C249.249 177.08 249.409 176.92 249.409 176.6V173.624H249.185C249.057 173.859 248.876 174.088 248.641 174.312C248.406 174.536 248.102 174.723 247.729 174.872C247.356 175.011 246.892 175.08 246.337 175.08C245.665 175.08 245.046 174.92 244.481 174.6C243.916 174.28 243.468 173.827 243.137 173.24C242.806 172.643 242.641 171.939 242.641 171.128ZM246.673 173.96C247.484 173.96 248.14 173.704 248.641 173.192C249.153 172.68 249.409 171.976 249.409 171.08V170.952C249.409 170.045 249.153 169.341 248.641 168.84C248.14 168.328 247.484 168.072 246.673 168.072C245.873 168.072 245.212 168.328 244.689 168.84C244.177 169.341 243.921 170.045 243.921 170.952V171.08C243.921 171.976 244.177 172.68 244.689 173.192C245.212 173.704 245.873 173.96 246.673 173.96ZM256.011 175.224C255.467 175.224 254.971 175.128 254.523 174.936C254.075 174.744 253.723 174.467 253.467 174.104C253.211 173.741 253.083 173.299 253.083 172.776C253.083 172.243 253.211 171.805 253.467 171.464C253.723 171.112 254.075 170.851 254.523 170.68C254.971 170.499 255.472 170.408 256.027 170.408H258.667V169.832C258.667 169.277 258.501 168.84 258.171 168.52C257.851 168.2 257.371 168.04 256.731 168.04C256.101 168.04 255.611 168.195 255.259 168.504C254.907 168.803 254.667 169.208 254.539 169.72L253.355 169.336C253.483 168.899 253.685 168.504 253.963 168.152C254.24 167.789 254.608 167.501 255.067 167.288C255.536 167.064 256.096 166.952 256.747 166.952C257.749 166.952 258.528 167.213 259.083 167.736C259.637 168.248 259.915 168.973 259.915 169.912V173.448C259.915 173.768 260.064 173.928 260.363 173.928H261.083V175H259.979C259.627 175 259.344 174.904 259.131 174.712C258.917 174.509 258.811 174.243 258.811 173.912V173.832H258.619C258.501 174.035 258.341 174.248 258.139 174.472C257.947 174.685 257.68 174.861 257.339 175C256.997 175.149 256.555 175.224 256.011 175.224ZM256.155 174.136C256.901 174.136 257.504 173.917 257.963 173.48C258.432 173.032 258.667 172.408 258.667 171.608V171.432H256.075C255.573 171.432 255.157 171.544 254.827 171.768C254.507 171.981 254.347 172.307 254.347 172.744C254.347 173.181 254.512 173.523 254.843 173.768C255.184 174.013 255.621 174.136 256.155 174.136ZM266.223 175.224C265.252 175.224 264.431 175 263.759 174.552C263.098 174.104 262.698 173.395 262.559 172.424L263.759 172.152C263.844 172.664 264.004 173.069 264.239 173.368C264.474 173.656 264.762 173.864 265.103 173.992C265.455 174.109 265.828 174.168 266.223 174.168C266.81 174.168 267.274 174.051 267.615 173.816C267.956 173.581 268.127 173.267 268.127 172.872C268.127 172.467 267.962 172.184 267.631 172.024C267.311 171.853 266.868 171.715 266.303 171.608L265.647 171.496C265.146 171.411 264.687 171.277 264.271 171.096C263.855 170.915 263.524 170.669 263.279 170.36C263.034 170.051 262.911 169.661 262.911 169.192C262.911 168.488 263.183 167.939 263.727 167.544C264.271 167.149 264.991 166.952 265.887 166.952C266.772 166.952 267.487 167.155 268.031 167.56C268.586 167.955 268.943 168.515 269.103 169.24L267.919 169.544C267.823 168.979 267.594 168.584 267.231 168.36C266.868 168.125 266.42 168.008 265.887 168.008C265.354 168.008 264.932 168.109 264.623 168.312C264.314 168.504 264.159 168.792 264.159 169.176C264.159 169.549 264.303 169.827 264.591 170.008C264.89 170.179 265.284 170.307 265.775 170.392L266.431 170.504C266.986 170.6 267.482 170.733 267.919 170.904C268.367 171.064 268.719 171.299 268.975 171.608C269.242 171.917 269.375 172.323 269.375 172.824C269.375 173.592 269.087 174.184 268.511 174.6C267.946 175.016 267.183 175.224 266.223 175.224ZM274.821 175.144C274.255 175.144 273.733 175.021 273.253 174.776C272.783 174.531 272.41 174.168 272.133 173.688C271.866 173.197 271.733 172.605 271.733 171.912V167.176H272.997V171.816C272.997 172.595 273.189 173.16 273.573 173.512C273.967 173.864 274.495 174.04 275.157 174.04C275.903 174.04 276.517 173.795 276.997 173.304C277.477 172.813 277.717 172.083 277.717 171.112V167.176H278.981V175H277.749V173.672H277.525C277.354 174.045 277.061 174.387 276.645 174.696C276.229 174.995 275.621 175.144 274.821 175.144ZM285.097 175.224C284.127 175.224 283.305 175 282.633 174.552C281.972 174.104 281.572 173.395 281.433 172.424L282.633 172.152C282.719 172.664 282.879 173.069 283.113 173.368C283.348 173.656 283.636 173.864 283.977 173.992C284.329 174.109 284.703 174.168 285.097 174.168C285.684 174.168 286.148 174.051 286.489 173.816C286.831 173.581 287.001 173.267 287.001 172.872C287.001 172.467 286.836 172.184 286.505 172.024C286.185 171.853 285.743 171.715 285.177 171.608L284.521 171.496C284.02 171.411 283.561 171.277 283.145 171.096C282.729 170.915 282.399 170.669 282.153 170.36C281.908 170.051 281.785 169.661 281.785 169.192C281.785 168.488 282.057 167.939 282.601 167.544C283.145 167.149 283.865 166.952 284.761 166.952C285.647 166.952 286.361 167.155 286.905 167.56C287.46 167.955 287.817 168.515 287.977 169.24L286.793 169.544C286.697 168.979 286.468 168.584 286.105 168.36C285.743 168.125 285.295 168.008 284.761 168.008C284.228 168.008 283.807 168.109 283.497 168.312C283.188 168.504 283.033 168.792 283.033 169.176C283.033 169.549 283.177 169.827 283.465 170.008C283.764 170.179 284.159 170.307 284.649 170.392L285.305 170.504C285.86 170.6 286.356 170.733 286.793 170.904C287.241 171.064 287.593 171.299 287.849 171.608C288.116 171.917 288.249 172.323 288.249 172.824C288.249 173.592 287.961 174.184 287.385 174.6C286.82 175.016 286.057 175.224 285.097 175.224ZM55.5255 207.224C54.9815 207.224 54.4855 207.128 54.0375 206.936C53.5895 206.744 53.2375 206.467 52.9815 206.104C52.7255 205.741 52.5975 205.299 52.5975 204.776C52.5975 204.243 52.7255 203.805 52.9815 203.464C53.2375 203.112 53.5895 202.851 54.0375 202.68C54.4855 202.499 54.9868 202.408 55.5415 202.408H58.1815V201.832C58.1815 201.277 58.0162 200.84 57.6855 200.52C57.3655 200.2 56.8855 200.04 56.2455 200.04C55.6162 200.04 55.1255 200.195 54.7735 200.504C54.4215 200.803 54.1815 201.208 54.0535 201.72L52.8695 201.336C52.9975 200.899 53.2002 200.504 53.4775 200.152C53.7548 199.789 54.1228 199.501 54.5815 199.288C55.0508 199.064 55.6108 198.952 56.2615 198.952C57.2642 198.952 58.0428 199.213 58.5975 199.736C59.1522 200.248 59.4295 200.973 59.4295 201.912V205.448C59.4295 205.768 59.5788 205.928 59.8775 205.928H60.5975V207H59.4935C59.1415 207 58.8588 206.904 58.6455 206.712C58.4322 206.509 58.3255 206.243 58.3255 205.912V205.832H58.1335C58.0162 206.035 57.8562 206.248 57.6535 206.472C57.4615 206.685 57.1948 206.861 56.8535 207C56.5122 207.149 56.0695 207.224 55.5255 207.224ZM55.6695 206.136C56.4162 206.136 57.0188 205.917 57.4775 205.48C57.9468 205.032 58.1815 204.408 58.1815 203.608V203.432H55.5895C55.0882 203.432 54.6722 203.544 54.3415 203.768C54.0215 203.981 53.8615 204.307 53.8615 204.744C53.8615 205.181 54.0268 205.523 54.3575 205.768C54.6988 206.013 55.1362 206.136 55.6695 206.136ZM65.4375 207.144C64.8722 207.144 64.3495 207.021 63.8695 206.776C63.4002 206.531 63.0268 206.168 62.7495 205.688C62.4828 205.197 62.3495 204.605 62.3495 203.912V199.176H63.6135V203.816C63.6135 204.595 63.8055 205.16 64.1895 205.512C64.5842 205.864 65.1122 206.04 65.7735 206.04C66.5202 206.04 67.1335 205.795 67.6135 205.304C68.0935 204.813 68.3335 204.083 68.3335 203.112V199.176H69.5975V207H68.3655V205.672H68.1415C67.9708 206.045 67.6775 206.387 67.2615 206.696C66.8455 206.995 66.2375 207.144 65.4375 207.144ZM75.4424 207C74.9944 207 74.6477 206.877 74.4024 206.632C74.1677 206.387 74.0504 206.051 74.0504 205.624V200.28H71.6984V199.176H74.0504V196.392H75.3144V199.176H77.8744V200.28H75.3144V205.432C75.3144 205.752 75.469 205.912 75.7784 205.912H77.5224V207H75.4424ZM83.5765 207.224C82.7872 207.224 82.0885 207.059 81.4805 206.728C80.8832 206.397 80.4138 205.933 80.0725 205.336C79.7418 204.728 79.5765 204.013 79.5765 203.192V202.984C79.5765 202.173 79.7418 201.464 80.0725 200.856C80.4138 200.248 80.8832 199.779 81.4805 199.448C82.0885 199.117 82.7872 198.952 83.5765 198.952C84.3658 198.952 85.0592 199.117 85.6565 199.448C86.2645 199.779 86.7338 200.248 87.0645 200.856C87.4058 201.464 87.5765 202.173 87.5765 202.984V203.192C87.5765 204.013 87.4058 204.728 87.0645 205.336C86.7338 205.933 86.2645 206.397 85.6565 206.728C85.0592 207.059 84.3658 207.224 83.5765 207.224ZM83.5765 206.088C84.4085 206.088 85.0698 205.827 85.5605 205.304C86.0618 204.771 86.3125 204.056 86.3125 203.16V203.016C86.3125 202.12 86.0618 201.411 85.5605 200.888C85.0698 200.355 84.4085 200.088 83.5765 200.088C82.7552 200.088 82.0938 200.355 81.5925 200.888C81.0912 201.411 80.8405 202.12 80.8405 203.016V203.16C80.8405 204.056 81.0912 204.771 81.5925 205.304C82.0938 205.827 82.7552 206.088 83.5765 206.088ZM93.3231 207.224C92.3525 207.224 91.5311 207 90.8591 206.552C90.1978 206.104 89.7978 205.395 89.6591 204.424L90.8591 204.152C90.9445 204.664 91.1045 205.069 91.3391 205.368C91.5738 205.656 91.8618 205.864 92.2031 205.992C92.5551 206.109 92.9285 206.168 93.3231 206.168C93.9098 206.168 94.3738 206.051 94.7151 205.816C95.0565 205.581 95.2271 205.267 95.2271 204.872C95.2271 204.467 95.0618 204.184 94.7311 204.024C94.4111 203.853 93.9685 203.715 93.4031 203.608L92.7471 203.496C92.2458 203.411 91.7871 203.277 91.3711 203.096C90.9551 202.915 90.6245 202.669 90.3791 202.36C90.1338 202.051 90.0111 201.661 90.0111 201.192C90.0111 200.488 90.2831 199.939 90.8271 199.544C91.3711 199.149 92.0911 198.952 92.9871 198.952C93.8725 198.952 94.5871 199.155 95.1311 199.56C95.6858 199.955 96.0431 200.515 96.2031 201.24L95.0191 201.544C94.9231 200.979 94.6938 200.584 94.3311 200.36C93.9685 200.125 93.5205 200.008 92.9871 200.008C92.4538 200.008 92.0325 200.109 91.7231 200.312C91.4138 200.504 91.2591 200.792 91.2591 201.176C91.2591 201.549 91.4031 201.827 91.6911 202.008C91.9898 202.179 92.3845 202.307 92.8751 202.392L93.5311 202.504C94.0858 202.6 94.5818 202.733 95.0191 202.904C95.4671 203.064 95.8191 203.299 96.0751 203.608C96.3418 203.917 96.4751 204.323 96.4751 204.824C96.4751 205.592 96.1871 206.184 95.6111 206.6C95.0458 207.016 94.2831 207.224 93.3231 207.224ZM98.9286 207V199.176H100.161V200.504H100.385C100.555 200.131 100.843 199.795 101.249 199.496C101.665 199.187 102.273 199.032 103.073 199.032C103.659 199.032 104.182 199.155 104.641 199.4C105.11 199.645 105.483 200.008 105.761 200.488C106.038 200.968 106.177 201.56 106.177 202.264V207H104.913V202.36C104.913 201.581 104.715 201.016 104.321 200.664C103.937 200.312 103.414 200.136 102.753 200.136C101.995 200.136 101.377 200.381 100.897 200.872C100.427 201.363 100.193 202.093 100.193 203.064V207H98.9286ZM109.061 207V199.176H110.325V207H109.061ZM109.701 197.96C109.424 197.96 109.189 197.869 108.997 197.688C108.816 197.507 108.725 197.277 108.725 197C108.725 196.712 108.816 196.477 108.997 196.296C109.189 196.115 109.424 196.024 109.701 196.024C109.978 196.024 110.208 196.115 110.389 196.296C110.57 196.477 110.661 196.712 110.661 197C110.661 197.277 110.57 197.507 110.389 197.688C110.208 197.869 109.978 197.96 109.701 197.96ZM113.303 210.2V199.176H114.535V200.472H114.759C114.962 200.077 115.287 199.725 115.735 199.416C116.194 199.107 116.828 198.952 117.639 198.952C118.311 198.952 118.924 199.117 119.479 199.448C120.044 199.768 120.492 200.227 120.823 200.824C121.164 201.421 121.335 202.141 121.335 202.984V203.192C121.335 204.024 121.17 204.744 120.839 205.352C120.508 205.96 120.06 206.424 119.495 206.744C118.94 207.064 118.322 207.224 117.639 207.224C117.095 207.224 116.631 207.149 116.247 207C115.874 206.861 115.57 206.68 115.335 206.456C115.1 206.232 114.919 206.003 114.791 205.768H114.567V210.2H113.303ZM117.303 206.104C118.114 206.104 118.77 205.848 119.271 205.336C119.783 204.813 120.039 204.088 120.039 203.16V203.016C120.039 202.088 119.783 201.368 119.271 200.856C118.77 200.333 118.114 200.072 117.303 200.072C116.503 200.072 115.842 200.333 115.319 200.856C114.807 201.368 114.551 202.088 114.551 203.016V203.16C114.551 204.088 114.807 204.813 115.319 205.336C115.842 205.848 116.503 206.104 117.303 206.104ZM123.92 210.2V199.176H125.152V200.472H125.376C125.579 200.077 125.904 199.725 126.352 199.416C126.811 199.107 127.445 198.952 128.256 198.952C128.928 198.952 129.541 199.117 130.096 199.448C130.661 199.768 131.109 200.227 131.44 200.824C131.781 201.421 131.952 202.141 131.952 202.984V203.192C131.952 204.024 131.787 204.744 131.456 205.352C131.125 205.96 130.677 206.424 130.112 206.744C129.557 207.064 128.939 207.224 128.256 207.224C127.712 207.224 127.248 207.149 126.864 207C126.491 206.861 126.187 206.68 125.952 206.456C125.717 206.232 125.536 206.003 125.408 205.768H125.184V210.2H123.92ZM127.92 206.104C128.731 206.104 129.387 205.848 129.888 205.336C130.4 204.813 130.656 204.088 130.656 203.16V203.016C130.656 202.088 130.4 201.368 129.888 200.856C129.387 200.333 128.731 200.072 127.92 200.072C127.12 200.072 126.459 200.333 125.936 200.856C125.424 201.368 125.168 202.088 125.168 203.016V203.16C125.168 204.088 125.424 204.813 125.936 205.336C126.459 205.848 127.12 206.104 127.92 206.104ZM134.537 207V199.176H135.801V207H134.537ZM135.177 197.96C134.899 197.96 134.665 197.869 134.473 197.688C134.291 197.507 134.201 197.277 134.201 197C134.201 196.712 134.291 196.477 134.473 196.296C134.665 196.115 134.899 196.024 135.177 196.024C135.454 196.024 135.683 196.115 135.865 196.296C136.046 196.477 136.137 196.712 136.137 197C136.137 197.277 136.046 197.507 135.865 197.688C135.683 197.869 135.454 197.96 135.177 197.96ZM138.779 207V199.176H140.011V200.504H140.235C140.405 200.131 140.693 199.795 141.099 199.496C141.515 199.187 142.123 199.032 142.923 199.032C143.509 199.032 144.032 199.155 144.491 199.4C144.96 199.645 145.333 200.008 145.611 200.488C145.888 200.968 146.027 201.56 146.027 202.264V207H144.763V202.36C144.763 201.581 144.565 201.016 144.171 200.664C143.787 200.312 143.264 200.136 142.603 200.136C141.845 200.136 141.227 200.381 140.747 200.872C140.277 201.363 140.043 202.093 140.043 203.064V207H138.779ZM148.527 203.128V202.904C148.527 202.083 148.692 201.379 149.023 200.792C149.354 200.205 149.802 199.752 150.367 199.432C150.932 199.112 151.551 198.952 152.223 198.952C153.044 198.952 153.674 199.112 154.111 199.432C154.559 199.741 154.89 200.088 155.103 200.472H155.327V199.176H156.527V208.824C156.527 209.251 156.41 209.587 156.175 209.832C155.94 210.077 155.599 210.2 155.151 210.2H149.839V209.08H154.815C155.135 209.08 155.295 208.92 155.295 208.6V205.624H155.071C154.943 205.859 154.762 206.088 154.527 206.312C154.292 206.536 153.988 206.723 153.615 206.872C153.242 207.011 152.778 207.08 152.223 207.08C151.551 207.08 150.932 206.92 150.367 206.6C149.802 206.28 149.354 205.827 149.023 205.24C148.692 204.643 148.527 203.939 148.527 203.128ZM152.559 205.96C153.37 205.96 154.026 205.704 154.527 205.192C155.039 204.68 155.295 203.976 155.295 203.08V202.952C155.295 202.045 155.039 201.341 154.527 200.84C154.026 200.328 153.37 200.072 152.559 200.072C151.759 200.072 151.098 200.328 150.575 200.84C150.063 201.341 149.807 202.045 149.807 202.952V203.08C149.807 203.976 150.063 204.68 150.575 205.192C151.098 205.704 151.759 205.96 152.559 205.96ZM166.326 207.224C165.782 207.224 165.286 207.128 164.838 206.936C164.39 206.744 164.038 206.467 163.782 206.104C163.526 205.741 163.398 205.299 163.398 204.776C163.398 204.243 163.526 203.805 163.782 203.464C164.038 203.112 164.39 202.851 164.838 202.68C165.286 202.499 165.787 202.408 166.342 202.408H168.982V201.832C168.982 201.277 168.817 200.84 168.486 200.52C168.166 200.2 167.686 200.04 167.046 200.04C166.417 200.04 165.926 200.195 165.574 200.504C165.222 200.803 164.982 201.208 164.854 201.72L163.67 201.336C163.798 200.899 164.001 200.504 164.278 200.152C164.555 199.789 164.923 199.501 165.382 199.288C165.851 199.064 166.411 198.952 167.062 198.952C168.065 198.952 168.843 199.213 169.398 199.736C169.953 200.248 170.23 200.973 170.23 201.912V205.448C170.23 205.768 170.379 205.928 170.678 205.928H171.398V207H170.294C169.942 207 169.659 206.904 169.446 206.712C169.233 206.509 169.126 206.243 169.126 205.912V205.832H168.934C168.817 206.035 168.657 206.248 168.454 206.472C168.262 206.685 167.995 206.861 167.654 207C167.313 207.149 166.87 207.224 166.326 207.224ZM166.47 206.136C167.217 206.136 167.819 205.917 168.278 205.48C168.747 205.032 168.982 204.408 168.982 203.608V203.432H166.39C165.889 203.432 165.473 203.544 165.142 203.768C164.822 203.981 164.662 204.307 164.662 204.744C164.662 205.181 164.827 205.523 165.158 205.768C165.499 206.013 165.937 206.136 166.47 206.136ZM181.031 207.224C180.06 207.224 179.239 207 178.567 206.552C177.905 206.104 177.505 205.395 177.367 204.424L178.567 204.152C178.652 204.664 178.812 205.069 179.047 205.368C179.281 205.656 179.569 205.864 179.911 205.992C180.263 206.109 180.636 206.168 181.031 206.168C181.617 206.168 182.081 206.051 182.423 205.816C182.764 205.581 182.935 205.267 182.935 204.872C182.935 204.467 182.769 204.184 182.439 204.024C182.119 203.853 181.676 203.715 181.111 203.608L180.455 203.496C179.953 203.411 179.495 203.277 179.079 203.096C178.663 202.915 178.332 202.669 178.087 202.36C177.841 202.051 177.719 201.661 177.719 201.192C177.719 200.488 177.991 199.939 178.535 199.544C179.079 199.149 179.799 198.952 180.695 198.952C181.58 198.952 182.295 199.155 182.839 199.56C183.393 199.955 183.751 200.515 183.911 201.24L182.727 201.544C182.631 200.979 182.401 200.584 182.039 200.36C181.676 200.125 181.228 200.008 180.695 200.008C180.161 200.008 179.74 200.109 179.431 200.312C179.121 200.504 178.967 200.792 178.967 201.176C178.967 201.549 179.111 201.827 179.399 202.008C179.697 202.179 180.092 202.307 180.583 202.392L181.239 202.504C181.793 202.6 182.289 202.733 182.727 202.904C183.175 203.064 183.527 203.299 183.783 203.608C184.049 203.917 184.183 204.323 184.183 204.824C184.183 205.592 183.895 206.184 183.319 206.6C182.753 207.016 181.991 207.224 181.031 207.224ZM186.636 207V195.8H187.9V200.424H188.124C188.231 200.189 188.391 199.971 188.604 199.768C188.828 199.555 189.111 199.379 189.452 199.24C189.804 199.101 190.247 199.032 190.78 199.032C191.367 199.032 191.889 199.16 192.348 199.416C192.817 199.661 193.191 200.024 193.468 200.504C193.745 200.973 193.884 201.56 193.884 202.264V207H192.62V202.36C192.62 201.581 192.423 201.016 192.028 200.664C191.644 200.312 191.121 200.136 190.46 200.136C189.703 200.136 189.084 200.381 188.604 200.872C188.135 201.363 187.9 202.093 187.9 203.064V207H186.636ZM196.769 207V199.176H198.033V207H196.769ZM197.409 197.96C197.131 197.96 196.897 197.869 196.705 197.688C196.523 197.507 196.433 197.277 196.433 197C196.433 196.712 196.523 196.477 196.705 196.296C196.897 196.115 197.131 196.024 197.409 196.024C197.686 196.024 197.915 196.115 198.097 196.296C198.278 196.477 198.369 196.712 198.369 197C198.369 197.277 198.278 197.507 198.097 197.688C197.915 197.869 197.686 197.96 197.409 197.96ZM203.89 207C203.442 207 203.096 206.877 202.85 206.632C202.616 206.387 202.498 206.051 202.498 205.624V200.28H200.146V199.176H202.498V196.392H203.762V199.176H205.81V200.28H203.762V205.432C203.762 205.752 203.917 205.912 204.226 205.912H205.97V207H203.89ZM209.042 207C208.594 207 208.248 206.877 208.002 206.632C207.757 206.387 207.634 206.051 207.634 205.624V200.28H205.81V199.176H207.634V196.392H208.898V199.176H211.474V200.28H208.898V205.432C208.898 205.752 209.058 205.912 209.378 205.912H211.122V207H209.042ZM214.79 210.2V209.08H219.27C219.579 209.08 219.734 208.92 219.734 208.6V205.752H219.51C219.403 205.976 219.238 206.2 219.014 206.424C218.801 206.637 218.518 206.813 218.166 206.952C217.814 207.08 217.371 207.144 216.838 207.144C216.273 207.144 215.75 207.021 215.27 206.776C214.801 206.531 214.427 206.168 214.15 205.688C213.883 205.208 213.75 204.621 213.75 203.928V199.176H215.014V203.832C215.014 204.6 215.206 205.16 215.59 205.512C215.985 205.864 216.513 206.04 217.174 206.04C217.921 206.04 218.534 205.795 219.014 205.304C219.494 204.813 219.734 204.083 219.734 203.112V199.176H220.998V208.824C220.998 209.251 220.875 209.587 220.63 209.832C220.395 210.077 220.049 210.2 219.59 210.2H214.79ZM228.392 210.2V199.176H229.624V200.472H229.848C230.051 200.077 230.376 199.725 230.824 199.416C231.283 199.107 231.918 198.952 232.728 198.952C233.4 198.952 234.014 199.117 234.568 199.448C235.134 199.768 235.582 200.227 235.912 200.824C236.254 201.421 236.424 202.141 236.424 202.984V203.192C236.424 204.024 236.259 204.744 235.928 205.352C235.598 205.96 235.15 206.424 234.584 206.744C234.03 207.064 233.411 207.224 232.728 207.224C232.184 207.224 231.72 207.149 231.336 207C230.963 206.861 230.659 206.68 230.424 206.456C230.19 206.232 230.008 206.003 229.88 205.768H229.656V210.2H228.392ZM232.392 206.104C233.203 206.104 233.859 205.848 234.36 205.336C234.872 204.813 235.128 204.088 235.128 203.16V203.016C235.128 202.088 234.872 201.368 234.36 200.856C233.859 200.333 233.203 200.072 232.392 200.072C231.592 200.072 230.931 200.333 230.408 200.856C229.896 201.368 229.64 202.088 229.64 203.016V203.16C229.64 204.088 229.896 204.813 230.408 205.336C230.931 205.848 231.592 206.104 232.392 206.104ZM242.001 207.144C241.436 207.144 240.913 207.021 240.433 206.776C239.964 206.531 239.591 206.168 239.313 205.688C239.047 205.197 238.913 204.605 238.913 203.912V199.176H240.177V203.816C240.177 204.595 240.369 205.16 240.753 205.512C241.148 205.864 241.676 206.04 242.337 206.04C243.084 206.04 243.697 205.795 244.177 205.304C244.657 204.813 244.897 204.083 244.897 203.112V199.176H246.161V207H244.929V205.672H244.705C244.535 206.045 244.241 206.387 243.825 206.696C243.409 206.995 242.801 207.144 242.001 207.144ZM249.126 207V199.176H250.358V200.152H250.582C250.731 199.875 250.977 199.619 251.318 199.384C251.659 199.149 252.139 199.032 252.758 199.032C253.366 199.032 253.857 199.165 254.23 199.432C254.614 199.699 254.891 200.024 255.062 200.408H255.286C255.467 200.024 255.739 199.699 256.102 199.432C256.475 199.165 256.993 199.032 257.654 199.032C258.177 199.032 258.635 199.139 259.03 199.352C259.425 199.565 259.734 199.875 259.958 200.28C260.193 200.675 260.31 201.149 260.31 201.704V207H259.046V201.816C259.046 201.293 258.891 200.883 258.582 200.584C258.283 200.275 257.862 200.12 257.318 200.12C256.742 200.12 256.267 200.307 255.894 200.68C255.531 201.053 255.35 201.592 255.35 202.296V207H254.086V201.816C254.086 201.293 253.931 200.883 253.622 200.584C253.323 200.275 252.902 200.12 252.358 200.12C251.782 200.12 251.307 200.307 250.934 200.68C250.571 201.053 250.39 201.592 250.39 202.296V207H249.126ZM263.212 210.2V199.176H264.444V200.472H264.668C264.87 200.077 265.196 199.725 265.644 199.416C266.102 199.107 266.737 198.952 267.548 198.952C268.22 198.952 268.833 199.117 269.388 199.448C269.953 199.768 270.401 200.227 270.732 200.824C271.073 201.421 271.244 202.141 271.244 202.984V203.192C271.244 204.024 271.078 204.744 270.748 205.352C270.417 205.96 269.969 206.424 269.404 206.744C268.849 207.064 268.23 207.224 267.548 207.224C267.004 207.224 266.54 207.149 266.156 207C265.782 206.861 265.478 206.68 265.244 206.456C265.009 206.232 264.828 206.003 264.7 205.768H264.476V210.2H263.212ZM267.212 206.104C268.022 206.104 268.678 205.848 269.18 205.336C269.692 204.813 269.948 204.088 269.948 203.16V203.016C269.948 202.088 269.692 201.368 269.18 200.856C268.678 200.333 268.022 200.072 267.212 200.072C266.412 200.072 265.75 200.333 265.228 200.856C264.716 201.368 264.46 202.088 264.46 203.016V203.16C264.46 204.088 264.716 204.813 265.228 205.336C265.75 205.848 266.412 206.104 267.212 206.104ZM280.658 207.224C280.114 207.224 279.618 207.128 279.17 206.936C278.722 206.744 278.37 206.467 278.114 206.104C277.858 205.741 277.73 205.299 277.73 204.776C277.73 204.243 277.858 203.805 278.114 203.464C278.37 203.112 278.722 202.851 279.17 202.68C279.618 202.499 280.119 202.408 280.674 202.408H283.314V201.832C283.314 201.277 283.149 200.84 282.818 200.52C282.498 200.2 282.018 200.04 281.378 200.04C280.749 200.04 280.258 200.195 279.906 200.504C279.554 200.803 279.314 201.208 279.186 201.72L278.002 201.336C278.13 200.899 278.333 200.504 278.61 200.152C278.887 199.789 279.255 199.501 279.714 199.288C280.183 199.064 280.743 198.952 281.394 198.952C282.397 198.952 283.175 199.213 283.73 199.736C284.285 200.248 284.562 200.973 284.562 201.912V205.448C284.562 205.768 284.711 205.928 285.01 205.928H285.73V207H284.626C284.274 207 283.991 206.904 283.778 206.712C283.565 206.509 283.458 206.243 283.458 205.912V205.832H283.266C283.149 206.035 282.989 206.248 282.786 206.472C282.594 206.685 282.327 206.861 281.986 207C281.645 207.149 281.202 207.224 280.658 207.224ZM280.802 206.136C281.549 206.136 282.151 205.917 282.61 205.48C283.079 205.032 283.314 204.408 283.314 203.608V203.432H280.722C280.221 203.432 279.805 203.544 279.474 203.768C279.154 203.981 278.994 204.307 278.994 204.744C278.994 205.181 279.159 205.523 279.49 205.768C279.831 206.013 280.269 206.136 280.802 206.136ZM287.781 207V199.176H289.013V200.504H289.237C289.408 200.131 289.696 199.795 290.101 199.496C290.517 199.187 291.125 199.032 291.925 199.032C292.512 199.032 293.034 199.155 293.493 199.4C293.962 199.645 294.336 200.008 294.613 200.488C294.89 200.968 295.029 201.56 295.029 202.264V207H293.765V202.36C293.765 201.581 293.568 201.016 293.173 200.664C292.789 200.312 292.266 200.136 291.605 200.136C290.848 200.136 290.229 200.381 289.749 200.872C289.28 201.363 289.045 202.093 289.045 203.064V207H287.781ZM301.226 207.224C300.554 207.224 299.935 207.064 299.37 206.744C298.804 206.424 298.356 205.96 298.026 205.352C297.695 204.744 297.53 204.024 297.53 203.192V202.984C297.53 202.152 297.695 201.437 298.026 200.84C298.356 200.232 298.799 199.768 299.354 199.448C299.919 199.117 300.543 198.952 301.226 198.952C301.77 198.952 302.228 199.027 302.602 199.176C302.986 199.315 303.295 199.496 303.53 199.72C303.764 199.933 303.946 200.163 304.074 200.408H304.298V195.8H305.562V207H304.33V205.704H304.106C303.892 206.099 303.562 206.451 303.114 206.76C302.666 207.069 302.036 207.224 301.226 207.224ZM301.562 206.104C302.372 206.104 303.028 205.848 303.53 205.336C304.042 204.813 304.298 204.088 304.298 203.16V203.016C304.298 202.088 304.042 201.368 303.53 200.856C303.028 200.333 302.372 200.072 301.562 200.072C300.762 200.072 300.1 200.333 299.578 200.856C299.066 201.368 298.81 202.088 298.81 203.016V203.16C298.81 204.088 299.066 204.813 299.578 205.336C300.1 205.848 300.762 206.104 301.562 206.104ZM53.4966 239.224C52.8246 239.224 52.2059 239.064 51.6406 238.744C51.0752 238.424 50.6272 237.96 50.2966 237.352C49.9659 236.744 49.8006 236.024 49.8006 235.192V234.984C49.8006 234.152 49.9659 233.437 50.2966 232.84C50.6272 232.232 51.0699 231.768 51.6246 231.448C52.1899 231.117 52.8139 230.952 53.4966 230.952C54.0406 230.952 54.4992 231.027 54.8726 231.176C55.2566 231.315 55.5659 231.496 55.8006 231.72C56.0352 231.933 56.2166 232.163 56.3446 232.408H56.5686V227.8H57.8326V239H56.6006V237.704H56.3766C56.1632 238.099 55.8326 238.451 55.3846 238.76C54.9366 239.069 54.3072 239.224 53.4966 239.224ZM53.8326 238.104C54.6432 238.104 55.2992 237.848 55.8006 237.336C56.3126 236.813 56.5686 236.088 56.5686 235.16V235.016C56.5686 234.088 56.3126 233.368 55.8006 232.856C55.2992 232.333 54.6432 232.072 53.8326 232.072C53.0326 232.072 52.3712 232.333 51.8486 232.856C51.3366 233.368 51.0806 234.088 51.0806 235.016V235.16C51.0806 236.088 51.3366 236.813 51.8486 237.336C52.3712 237.848 53.0326 238.104 53.8326 238.104ZM63.7934 239.144C63.2281 239.144 62.7054 239.021 62.2254 238.776C61.7561 238.531 61.3828 238.168 61.1054 237.688C60.8388 237.197 60.7054 236.605 60.7054 235.912V231.176H61.9694V235.816C61.9694 236.595 62.1614 237.16 62.5454 237.512C62.9401 237.864 63.4681 238.04 64.1294 238.04C64.8761 238.04 65.4894 237.795 65.9694 237.304C66.4494 236.813 66.6894 236.083 66.6894 235.112V231.176H67.9534V239H66.7214V237.672H66.4974C66.3268 238.045 66.0334 238.387 65.6174 238.696C65.2014 238.995 64.5934 239.144 63.7934 239.144ZM70.9183 239V231.176H72.1503V232.152H72.3743C72.5237 231.875 72.769 231.619 73.1103 231.384C73.4517 231.149 73.9317 231.032 74.5503 231.032C75.1583 231.032 75.649 231.165 76.0223 231.432C76.4063 231.699 76.6837 232.024 76.8543 232.408H77.0783C77.2597 232.024 77.5317 231.699 77.8943 231.432C78.2677 231.165 78.785 231.032 79.4463 231.032C79.969 231.032 80.4277 231.139 80.8223 231.352C81.217 231.565 81.5263 231.875 81.7503 232.28C81.985 232.675 82.1023 233.149 82.1023 233.704V239H80.8383V233.816C80.8383 233.293 80.6837 232.883 80.3743 232.584C80.0757 232.275 79.6543 232.12 79.1103 232.12C78.5343 232.12 78.0597 232.307 77.6863 232.68C77.3237 233.053 77.1423 233.592 77.1423 234.296V239H75.8783V233.816C75.8783 233.293 75.7237 232.883 75.4143 232.584C75.1157 232.275 74.6943 232.12 74.1503 232.12C73.5743 232.12 73.0997 232.307 72.7263 232.68C72.3637 233.053 72.1823 233.592 72.1823 234.296V239H70.9183ZM85.0039 242.2V231.176H86.2359V232.472H86.4599C86.6626 232.077 86.9879 231.725 87.4359 231.416C87.8946 231.107 88.5293 230.952 89.3399 230.952C90.0119 230.952 90.6253 231.117 91.1799 231.448C91.7453 231.768 92.1933 232.227 92.5239 232.824C92.8653 233.421 93.0359 234.141 93.0359 234.984V235.192C93.0359 236.024 92.8706 236.744 92.5399 237.352C92.2093 237.96 91.7613 238.424 91.1959 238.744C90.6413 239.064 90.0226 239.224 89.3399 239.224C88.7959 239.224 88.3319 239.149 87.9479 239C87.5746 238.861 87.2706 238.68 87.0359 238.456C86.8013 238.232 86.6199 238.003 86.4919 237.768H86.2679V242.2H85.0039ZM89.0039 238.104C89.8146 238.104 90.4706 237.848 90.9719 237.336C91.4839 236.813 91.7399 236.088 91.7399 235.16V235.016C91.7399 234.088 91.4839 233.368 90.9719 232.856C90.4706 232.333 89.8146 232.072 89.0039 232.072C88.2039 232.072 87.5426 232.333 87.0199 232.856C86.5079 233.368 86.2519 234.088 86.2519 235.016V235.16C86.2519 236.088 86.5079 236.813 87.0199 237.336C87.5426 237.848 88.2039 238.104 89.0039 238.104ZM101.138 239L99.5702 231.176H100.85L102.146 238.152H102.37L104.082 231.176H106.178L107.89 238.152H108.114L109.41 231.176H110.69L109.122 239H106.962L105.234 232.024H105.026L103.298 239H101.138ZM113.183 239V231.176H114.447V239H113.183ZM113.823 229.96C113.545 229.96 113.311 229.869 113.119 229.688C112.937 229.507 112.847 229.277 112.847 229C112.847 228.712 112.937 228.477 113.119 228.296C113.311 228.115 113.545 228.024 113.823 228.024C114.1 228.024 114.329 228.115 114.511 228.296C114.692 228.477 114.783 228.712 114.783 229C114.783 229.277 114.692 229.507 114.511 229.688C114.329 229.869 114.1 229.96 113.823 229.96ZM120.305 239C119.857 239 119.51 238.877 119.265 238.632C119.03 238.387 118.913 238.051 118.913 237.624V232.28H116.561V231.176H118.913V228.392H120.177V231.176H122.737V232.28H120.177V237.432C120.177 237.752 120.331 237.912 120.641 237.912H122.385V239H120.305ZM125.104 239V227.8H126.368V232.424H126.592C126.699 232.189 126.859 231.971 127.072 231.768C127.296 231.555 127.579 231.379 127.92 231.24C128.272 231.101 128.715 231.032 129.248 231.032C129.835 231.032 130.357 231.16 130.816 231.416C131.285 231.661 131.659 232.024 131.936 232.504C132.213 232.973 132.352 233.56 132.352 234.264V239H131.088V234.36C131.088 233.581 130.891 233.016 130.496 232.664C130.112 232.312 129.589 232.136 128.928 232.136C128.171 232.136 127.552 232.381 127.072 232.872C126.603 233.363 126.368 234.093 126.368 235.064V239H125.104ZM138.103 239.144C137.538 239.144 137.015 239.021 136.535 238.776C136.066 238.531 135.693 238.168 135.415 237.688C135.149 237.197 135.015 236.605 135.015 235.912V231.176H136.279V235.816C136.279 236.595 136.471 237.16 136.855 237.512C137.25 237.864 137.778 238.04 138.439 238.04C139.186 238.04 139.799 237.795 140.279 237.304C140.759 236.813 140.999 236.083 140.999 235.112V231.176H142.263V239H141.031V237.672H140.807C140.637 238.045 140.343 238.387 139.927 238.696C139.511 238.995 138.903 239.144 138.103 239.144ZM148.108 239C147.66 239 147.314 238.877 147.068 238.632C146.834 238.387 146.716 238.051 146.716 237.624V232.28H144.364V231.176H146.716V228.392H147.98V231.176H150.54V232.28H147.98V237.432C147.98 237.752 148.135 237.912 148.444 237.912H150.188V239H148.108ZM160.489 239.224C159.518 239.224 158.697 239 158.025 238.552C157.364 238.104 156.964 237.395 156.825 236.424L158.025 236.152C158.11 236.664 158.27 237.069 158.505 237.368C158.74 237.656 159.028 237.864 159.369 237.992C159.721 238.109 160.094 238.168 160.489 238.168C161.076 238.168 161.54 238.051 161.881 237.816C162.222 237.581 162.393 237.267 162.393 236.872C162.393 236.467 162.228 236.184 161.897 236.024C161.577 235.853 161.134 235.715 160.569 235.608L159.913 235.496C159.412 235.411 158.953 235.277 158.537 235.096C158.121 234.915 157.79 234.669 157.545 234.36C157.3 234.051 157.177 233.661 157.177 233.192C157.177 232.488 157.449 231.939 157.993 231.544C158.537 231.149 159.257 230.952 160.153 230.952C161.038 230.952 161.753 231.155 162.297 231.56C162.852 231.955 163.209 232.515 163.369 233.24L162.185 233.544C162.089 232.979 161.86 232.584 161.497 232.36C161.134 232.125 160.686 232.008 160.153 232.008C159.62 232.008 159.198 232.109 158.889 232.312C158.58 232.504 158.425 232.792 158.425 233.176C158.425 233.549 158.569 233.827 158.857 234.008C159.156 234.179 159.55 234.307 160.041 234.392L160.697 234.504C161.252 234.6 161.748 234.733 162.185 234.904C162.633 235.064 162.985 235.299 163.241 235.608C163.508 235.917 163.641 236.323 163.641 236.824C163.641 237.592 163.353 238.184 162.777 238.6C162.212 239.016 161.449 239.224 160.489 239.224ZM169.679 239.224C168.889 239.224 168.196 239.059 167.599 238.728C167.001 238.387 166.537 237.912 166.207 237.304C165.876 236.696 165.711 235.992 165.711 235.192V235C165.711 234.189 165.876 233.48 166.207 232.872C166.537 232.264 166.996 231.795 167.583 231.464C168.169 231.123 168.841 230.952 169.599 230.952C170.335 230.952 170.985 231.112 171.551 231.432C172.116 231.741 172.559 232.189 172.879 232.776C173.199 233.363 173.359 234.051 173.359 234.84V235.416H166.975C167.007 236.259 167.279 236.92 167.791 237.4C168.303 237.869 168.943 238.104 169.711 238.104C170.383 238.104 170.9 237.949 171.263 237.64C171.625 237.331 171.903 236.963 172.095 236.536L173.183 237.064C173.023 237.395 172.799 237.725 172.511 238.056C172.233 238.387 171.865 238.664 171.407 238.888C170.959 239.112 170.383 239.224 169.679 239.224ZM166.991 234.376H172.079C172.036 233.651 171.785 233.085 171.327 232.68C170.879 232.275 170.303 232.072 169.599 232.072C168.884 232.072 168.297 232.275 167.839 232.68C167.38 233.085 167.097 233.651 166.991 234.376ZM175.883 239V227.8H177.147V239H175.883ZM180.125 239V227.8H181.389V239H180.125ZM184.367 239V231.176H185.631V239H184.367ZM185.007 229.96C184.73 229.96 184.495 229.869 184.303 229.688C184.122 229.507 184.031 229.277 184.031 229C184.031 228.712 184.122 228.477 184.303 228.296C184.495 228.115 184.73 228.024 185.007 228.024C185.284 228.024 185.514 228.115 185.695 228.296C185.876 228.477 185.967 228.712 185.967 229C185.967 229.277 185.876 229.507 185.695 229.688C185.514 229.869 185.284 229.96 185.007 229.96ZM188.609 239V231.176H189.841V232.504H190.065C190.236 232.131 190.524 231.795 190.929 231.496C191.345 231.187 191.953 231.032 192.753 231.032C193.34 231.032 193.862 231.155 194.321 231.4C194.79 231.645 195.164 232.008 195.441 232.488C195.718 232.968 195.857 233.56 195.857 234.264V239H194.593V234.36C194.593 233.581 194.396 233.016 194.001 232.664C193.617 232.312 193.094 232.136 192.433 232.136C191.676 232.136 191.057 232.381 190.577 232.872C190.108 233.363 189.873 234.093 189.873 235.064V239H188.609ZM198.357 235.128V234.904C198.357 234.083 198.523 233.379 198.853 232.792C199.184 232.205 199.632 231.752 200.197 231.432C200.763 231.112 201.381 230.952 202.053 230.952C202.875 230.952 203.504 231.112 203.941 231.432C204.389 231.741 204.72 232.088 204.933 232.472H205.157V231.176H206.357V240.824C206.357 241.251 206.24 241.587 206.005 241.832C205.771 242.077 205.429 242.2 204.981 242.2H199.669V241.08H204.645C204.965 241.08 205.125 240.92 205.125 240.6V237.624H204.901C204.773 237.859 204.592 238.088 204.357 238.312C204.123 238.536 203.819 238.723 203.445 238.872C203.072 239.011 202.608 239.08 202.053 239.08C201.381 239.08 200.763 238.92 200.197 238.6C199.632 238.28 199.184 237.827 198.853 237.24C198.523 236.643 198.357 235.939 198.357 235.128ZM202.389 237.96C203.2 237.96 203.856 237.704 204.357 237.192C204.869 236.68 205.125 235.976 205.125 235.08V234.952C205.125 234.045 204.869 233.341 204.357 232.84C203.856 232.328 203.2 232.072 202.389 232.072C201.589 232.072 200.928 232.328 200.405 232.84C199.893 233.341 199.637 234.045 199.637 234.952V235.08C199.637 235.976 199.893 236.68 200.405 237.192C200.928 237.704 201.589 237.96 202.389 237.96ZM218.092 239.224C217.282 239.224 216.647 239.069 216.188 238.76C215.74 238.451 215.415 238.099 215.212 237.704H214.988V239H213.756V227.8H215.02V232.408H215.244C215.372 232.163 215.554 231.933 215.788 231.72C216.023 231.496 216.327 231.315 216.7 231.176C217.084 231.027 217.548 230.952 218.092 230.952C218.775 230.952 219.394 231.117 219.948 231.448C220.514 231.768 220.962 232.232 221.292 232.84C221.623 233.437 221.788 234.152 221.788 234.984V235.192C221.788 236.024 221.618 236.744 221.276 237.352C220.946 237.96 220.498 238.424 219.932 238.744C219.378 239.064 218.764 239.224 218.092 239.224ZM217.756 238.104C218.567 238.104 219.223 237.848 219.724 237.336C220.236 236.813 220.492 236.088 220.492 235.16V235.016C220.492 234.088 220.236 233.368 219.724 232.856C219.223 232.333 218.567 232.072 217.756 232.072C216.956 232.072 216.295 232.333 215.772 232.856C215.26 233.368 215.004 234.088 215.004 235.016V235.16C215.004 236.088 215.26 236.813 215.772 237.336C216.295 237.848 216.956 238.104 217.756 238.104ZM227.957 239.224C227.168 239.224 226.475 239.059 225.877 238.728C225.28 238.387 224.816 237.912 224.485 237.304C224.155 236.696 223.989 235.992 223.989 235.192V235C223.989 234.189 224.155 233.48 224.485 232.872C224.816 232.264 225.275 231.795 225.861 231.464C226.448 231.123 227.12 230.952 227.877 230.952C228.613 230.952 229.264 231.112 229.829 231.432C230.395 231.741 230.837 232.189 231.157 232.776C231.477 233.363 231.637 234.051 231.637 234.84V235.416H225.253C225.285 236.259 225.557 236.92 226.069 237.4C226.581 237.869 227.221 238.104 227.989 238.104C228.661 238.104 229.179 237.949 229.541 237.64C229.904 237.331 230.181 236.963 230.373 236.536L231.461 237.064C231.301 237.395 231.077 237.725 230.789 238.056C230.512 238.387 230.144 238.664 229.685 238.888C229.237 239.112 228.661 239.224 227.957 239.224ZM225.269 234.376H230.357C230.315 233.651 230.064 233.085 229.605 232.68C229.157 232.275 228.581 232.072 227.877 232.072C227.163 232.072 226.576 232.275 226.117 232.68C225.659 233.085 225.376 233.651 225.269 234.376ZM237.762 239.224C237.005 239.224 236.322 239.064 235.714 238.744C235.117 238.413 234.642 237.944 234.29 237.336C233.949 236.728 233.778 236.008 233.778 235.176V235C233.778 234.157 233.949 233.437 234.29 232.84C234.642 232.232 235.117 231.768 235.714 231.448C236.322 231.117 237.005 230.952 237.762 230.952C238.509 230.952 239.143 231.091 239.666 231.368C240.199 231.645 240.615 232.013 240.914 232.472C241.223 232.931 241.421 233.421 241.506 233.944L240.274 234.2C240.221 233.816 240.093 233.464 239.89 233.144C239.698 232.824 239.426 232.568 239.074 232.376C238.722 232.184 238.29 232.088 237.778 232.088C237.255 232.088 236.786 232.205 236.37 232.44C235.965 232.675 235.639 233.011 235.394 233.448C235.159 233.885 235.042 234.408 235.042 235.016V235.16C235.042 235.768 235.159 236.291 235.394 236.728C235.639 237.165 235.965 237.501 236.37 237.736C236.786 237.971 237.255 238.088 237.778 238.088C238.557 238.088 239.149 237.885 239.554 237.48C239.97 237.075 240.226 236.573 240.322 235.976L241.57 236.248C241.453 236.76 241.239 237.245 240.93 237.704C240.621 238.163 240.199 238.531 239.666 238.808C239.143 239.085 238.509 239.224 237.762 239.224ZM246.445 239.224C245.901 239.224 245.405 239.128 244.957 238.936C244.509 238.744 244.157 238.467 243.901 238.104C243.645 237.741 243.517 237.299 243.517 236.776C243.517 236.243 243.645 235.805 243.901 235.464C244.157 235.112 244.509 234.851 244.957 234.68C245.405 234.499 245.906 234.408 246.461 234.408H249.101V233.832C249.101 233.277 248.935 232.84 248.605 232.52C248.285 232.2 247.805 232.04 247.165 232.04C246.535 232.04 246.045 232.195 245.693 232.504C245.341 232.803 245.101 233.208 244.973 233.72L243.789 233.336C243.917 232.899 244.119 232.504 244.397 232.152C244.674 231.789 245.042 231.501 245.501 231.288C245.97 231.064 246.53 230.952 247.181 230.952C248.183 230.952 248.962 231.213 249.517 231.736C250.071 232.248 250.349 232.973 250.349 233.912V237.448C250.349 237.768 250.498 237.928 250.797 237.928H251.517V239H250.413C250.061 239 249.778 238.904 249.565 238.712C249.351 238.509 249.245 238.243 249.245 237.912V237.832H249.053C248.935 238.035 248.775 238.248 248.573 238.472C248.381 238.685 248.114 238.861 247.773 239C247.431 239.149 246.989 239.224 246.445 239.224ZM246.589 238.136C247.335 238.136 247.938 237.917 248.397 237.48C248.866 237.032 249.101 236.408 249.101 235.608V235.432H246.509C246.007 235.432 245.591 235.544 245.261 235.768C244.941 235.981 244.781 236.307 244.781 236.744C244.781 237.181 244.946 237.523 245.277 237.768C245.618 238.013 246.055 238.136 246.589 238.136ZM256.357 239.144C255.791 239.144 255.269 239.021 254.789 238.776C254.319 238.531 253.946 238.168 253.669 237.688C253.402 237.197 253.269 236.605 253.269 235.912V231.176H254.533V235.816C254.533 236.595 254.725 237.16 255.109 237.512C255.503 237.864 256.031 238.04 256.693 238.04C257.439 238.04 258.053 237.795 258.533 237.304C259.013 236.813 259.253 236.083 259.253 235.112V231.176H260.517V239H259.285V237.672H259.061C258.89 238.045 258.597 238.387 258.181 238.696C257.765 238.995 257.157 239.144 256.357 239.144ZM266.633 239.224C265.663 239.224 264.841 239 264.169 238.552C263.508 238.104 263.108 237.395 262.969 236.424L264.169 236.152C264.255 236.664 264.415 237.069 264.649 237.368C264.884 237.656 265.172 237.864 265.513 237.992C265.865 238.109 266.239 238.168 266.633 238.168C267.22 238.168 267.684 238.051 268.025 237.816C268.367 237.581 268.537 237.267 268.537 236.872C268.537 236.467 268.372 236.184 268.041 236.024C267.721 235.853 267.279 235.715 266.713 235.608L266.057 235.496C265.556 235.411 265.097 235.277 264.681 235.096C264.265 234.915 263.935 234.669 263.689 234.36C263.444 234.051 263.321 233.661 263.321 233.192C263.321 232.488 263.593 231.939 264.137 231.544C264.681 231.149 265.401 230.952 266.297 230.952C267.183 230.952 267.897 231.155 268.441 231.56C268.996 231.955 269.353 232.515 269.513 233.24L268.329 233.544C268.233 232.979 268.004 232.584 267.641 232.36C267.279 232.125 266.831 232.008 266.297 232.008C265.764 232.008 265.343 232.109 265.033 232.312C264.724 232.504 264.569 232.792 264.569 233.176C264.569 233.549 264.713 233.827 265.001 234.008C265.3 234.179 265.695 234.307 266.185 234.392L266.841 234.504C267.396 234.6 267.892 234.733 268.329 234.904C268.777 235.064 269.129 235.299 269.385 235.608C269.652 235.917 269.785 236.323 269.785 236.824C269.785 237.592 269.497 238.184 268.921 238.6C268.356 239.016 267.593 239.224 266.633 239.224ZM275.823 239.224C275.034 239.224 274.34 239.059 273.743 238.728C273.146 238.387 272.682 237.912 272.351 237.304C272.02 236.696 271.855 235.992 271.855 235.192V235C271.855 234.189 272.02 233.48 272.351 232.872C272.682 232.264 273.14 231.795 273.727 231.464C274.314 231.123 274.986 230.952 275.743 230.952C276.479 230.952 277.13 231.112 277.695 231.432C278.26 231.741 278.703 232.189 279.023 232.776C279.343 233.363 279.503 234.051 279.503 234.84V235.416H273.119C273.151 236.259 273.423 236.92 273.935 237.4C274.447 237.869 275.087 238.104 275.855 238.104C276.527 238.104 277.044 237.949 277.407 237.64C277.77 237.331 278.047 236.963 278.239 236.536L279.327 237.064C279.167 237.395 278.943 237.725 278.655 238.056C278.378 238.387 278.01 238.664 277.551 238.888C277.103 239.112 276.527 239.224 275.823 239.224ZM273.135 234.376H278.223C278.18 233.651 277.93 233.085 277.471 232.68C277.023 232.275 276.447 232.072 275.743 232.072C275.028 232.072 274.442 232.275 273.983 232.68C273.524 233.085 273.242 233.651 273.135 234.376ZM286.457 239V231.176H287.721V239H286.457ZM287.097 229.96C286.82 229.96 286.585 229.869 286.393 229.688C286.212 229.507 286.121 229.277 286.121 229C286.121 228.712 286.212 228.477 286.393 228.296C286.585 228.115 286.82 228.024 287.097 228.024C287.374 228.024 287.604 228.115 287.785 228.296C287.966 228.477 288.057 228.712 288.057 229C288.057 229.277 287.966 229.507 287.785 229.688C287.604 229.869 287.374 229.96 287.097 229.96ZM293.579 239C293.131 239 292.784 238.877 292.539 238.632C292.304 238.387 292.187 238.051 292.187 237.624V232.28H289.835V231.176H292.187V228.392H293.451V231.176H296.011V232.28H293.451V237.432C293.451 237.752 293.606 237.912 293.915 237.912H295.659V239H293.579ZM298.313 231.512V230.712H298.777C299.161 230.712 299.353 230.52 299.353 230.136V229.624H299.129C298.819 229.624 298.558 229.528 298.345 229.336C298.142 229.144 298.041 228.904 298.041 228.616C298.041 228.307 298.142 228.056 298.345 227.864C298.558 227.672 298.819 227.576 299.129 227.576C299.438 227.576 299.694 227.677 299.897 227.88C300.099 228.083 300.201 228.339 300.201 228.648V230.136C300.201 231.053 299.742 231.512 298.825 231.512H298.313ZM305.866 239.224C304.895 239.224 304.074 239 303.402 238.552C302.741 238.104 302.341 237.395 302.202 236.424L303.402 236.152C303.487 236.664 303.647 237.069 303.882 237.368C304.117 237.656 304.405 237.864 304.746 237.992C305.098 238.109 305.471 238.168 305.866 238.168C306.453 238.168 306.917 238.051 307.258 237.816C307.599 237.581 307.77 237.267 307.77 236.872C307.77 236.467 307.605 236.184 307.274 236.024C306.954 235.853 306.511 235.715 305.946 235.608L305.29 235.496C304.789 235.411 304.33 235.277 303.914 235.096C303.498 234.915 303.167 234.669 302.922 234.36C302.677 234.051 302.554 233.661 302.554 233.192C302.554 232.488 302.826 231.939 303.37 231.544C303.914 231.149 304.634 230.952 305.53 230.952C306.415 230.952 307.13 231.155 307.674 231.56C308.229 231.955 308.586 232.515 308.746 233.24L307.562 233.544C307.466 232.979 307.237 232.584 306.874 232.36C306.511 232.125 306.063 232.008 305.53 232.008C304.997 232.008 304.575 232.109 304.266 232.312C303.957 232.504 303.802 232.792 303.802 233.176C303.802 233.549 303.946 233.827 304.234 234.008C304.533 234.179 304.927 234.307 305.418 234.392L306.074 234.504C306.629 234.6 307.125 234.733 307.562 234.904C308.01 235.064 308.362 235.299 308.618 235.608C308.885 235.917 309.018 236.323 309.018 236.824C309.018 237.592 308.73 238.184 308.154 238.6C307.589 239.016 306.826 239.224 305.866 239.224ZM139.417 271.224C138.873 271.224 138.377 271.128 137.929 270.936C137.481 270.744 137.129 270.467 136.873 270.104C136.617 269.741 136.489 269.299 136.489 268.776C136.489 268.243 136.617 267.805 136.873 267.464C137.129 267.112 137.481 266.851 137.929 266.68C138.377 266.499 138.878 266.408 139.433 266.408H142.073V265.832C142.073 265.277 141.907 264.84 141.577 264.52C141.257 264.2 140.777 264.04 140.137 264.04C139.507 264.04 139.017 264.195 138.665 264.504C138.313 264.803 138.073 265.208 137.945 265.72L136.761 265.336C136.889 264.899 137.091 264.504 137.369 264.152C137.646 263.789 138.014 263.501 138.473 263.288C138.942 263.064 139.502 262.952 140.153 262.952C141.155 262.952 141.934 263.213 142.489 263.736C143.043 264.248 143.321 264.973 143.321 265.912V269.448C143.321 269.768 143.47 269.928 143.769 269.928H144.489V271H143.385C143.033 271 142.75 270.904 142.537 270.712C142.323 270.509 142.217 270.243 142.217 269.912V269.832H142.025C141.907 270.035 141.747 270.248 141.545 270.472C141.353 270.685 141.086 270.861 140.745 271C140.403 271.149 139.961 271.224 139.417 271.224ZM139.561 270.136C140.307 270.136 140.91 269.917 141.369 269.48C141.838 269.032 142.073 268.408 142.073 267.608V267.432H139.481C138.979 267.432 138.563 267.544 138.233 267.768C137.913 267.981 137.753 268.307 137.753 268.744C137.753 269.181 137.918 269.523 138.249 269.768C138.59 270.013 139.027 270.136 139.561 270.136ZM149.329 271.144C148.763 271.144 148.241 271.021 147.761 270.776C147.291 270.531 146.918 270.168 146.641 269.688C146.374 269.197 146.241 268.605 146.241 267.912V263.176H147.505V267.816C147.505 268.595 147.697 269.16 148.081 269.512C148.475 269.864 149.003 270.04 149.665 270.04C150.411 270.04 151.025 269.795 151.505 269.304C151.985 268.813 152.225 268.083 152.225 267.112V263.176H153.489V271H152.257V269.672H152.033C151.862 270.045 151.569 270.387 151.153 270.696C150.737 270.995 150.129 271.144 149.329 271.144ZM159.334 271C158.886 271 158.539 270.877 158.294 270.632C158.059 270.387 157.942 270.051 157.942 269.624V264.28H155.59V263.176H157.942V260.392H159.206V263.176H161.766V264.28H159.206V269.432C159.206 269.752 159.36 269.912 159.67 269.912H161.414V271H159.334ZM167.468 271.224C166.678 271.224 165.98 271.059 165.372 270.728C164.774 270.397 164.305 269.933 163.964 269.336C163.633 268.728 163.468 268.013 163.468 267.192V266.984C163.468 266.173 163.633 265.464 163.964 264.856C164.305 264.248 164.774 263.779 165.372 263.448C165.98 263.117 166.678 262.952 167.468 262.952C168.257 262.952 168.95 263.117 169.548 263.448C170.156 263.779 170.625 264.248 170.956 264.856C171.297 265.464 171.468 266.173 171.468 266.984V267.192C171.468 268.013 171.297 268.728 170.956 269.336C170.625 269.933 170.156 270.397 169.548 270.728C168.95 271.059 168.257 271.224 167.468 271.224ZM167.468 270.088C168.3 270.088 168.961 269.827 169.452 269.304C169.953 268.771 170.204 268.056 170.204 267.16V267.016C170.204 266.12 169.953 265.411 169.452 264.888C168.961 264.355 168.3 264.088 167.468 264.088C166.646 264.088 165.985 264.355 165.484 264.888C164.982 265.411 164.732 266.12 164.732 267.016V267.16C164.732 268.056 164.982 268.771 165.484 269.304C165.985 269.827 166.646 270.088 167.468 270.088ZM174.062 271V263.176H175.294V264.152H175.518C175.668 263.875 175.913 263.619 176.254 263.384C176.596 263.149 177.076 263.032 177.694 263.032C178.302 263.032 178.793 263.165 179.166 263.432C179.55 263.699 179.828 264.024 179.998 264.408H180.222C180.404 264.024 180.676 263.699 181.038 263.432C181.412 263.165 181.929 263.032 182.59 263.032C183.113 263.032 183.572 263.139 183.966 263.352C184.361 263.565 184.67 263.875 184.894 264.28C185.129 264.675 185.246 265.149 185.246 265.704V271H183.982V265.816C183.982 265.293 183.828 264.883 183.518 264.584C183.22 264.275 182.798 264.12 182.254 264.12C181.678 264.12 181.204 264.307 180.83 264.68C180.468 265.053 180.286 265.592 180.286 266.296V271H179.022V265.816C179.022 265.293 178.868 264.883 178.558 264.584C178.26 264.275 177.838 264.12 177.294 264.12C176.718 264.12 176.244 264.307 175.87 264.68C175.508 265.053 175.326 265.592 175.326 266.296V271H174.062ZM190.548 271.224C190.004 271.224 189.508 271.128 189.06 270.936C188.612 270.744 188.26 270.467 188.004 270.104C187.748 269.741 187.62 269.299 187.62 268.776C187.62 268.243 187.748 267.805 188.004 267.464C188.26 267.112 188.612 266.851 189.06 266.68C189.508 266.499 190.009 266.408 190.564 266.408H193.204V265.832C193.204 265.277 193.039 264.84 192.708 264.52C192.388 264.2 191.908 264.04 191.268 264.04C190.639 264.04 190.148 264.195 189.796 264.504C189.444 264.803 189.204 265.208 189.076 265.72L187.892 265.336C188.02 264.899 188.223 264.504 188.5 264.152C188.777 263.789 189.145 263.501 189.604 263.288C190.073 263.064 190.633 262.952 191.284 262.952C192.287 262.952 193.065 263.213 193.62 263.736C194.175 264.248 194.452 264.973 194.452 265.912V269.448C194.452 269.768 194.601 269.928 194.9 269.928H195.62V271H194.516C194.164 271 193.881 270.904 193.668 270.712C193.455 270.509 193.348 270.243 193.348 269.912V269.832H193.156C193.039 270.035 192.879 270.248 192.676 270.472C192.484 270.685 192.217 270.861 191.876 271C191.535 271.149 191.092 271.224 190.548 271.224ZM190.692 270.136C191.439 270.136 192.041 269.917 192.5 269.48C192.969 269.032 193.204 268.408 193.204 267.608V267.432H190.612C190.111 267.432 189.695 267.544 189.364 267.768C189.044 267.981 188.884 268.307 188.884 268.744C188.884 269.181 189.049 269.523 189.38 269.768C189.721 270.013 190.159 270.136 190.692 270.136ZM200.035 271C199.587 271 199.241 270.877 198.995 270.632C198.761 270.387 198.643 270.051 198.643 269.624V264.28H196.291V263.176H198.643V260.392H199.907V263.176H202.467V264.28H199.907V269.432C199.907 269.752 200.062 269.912 200.371 269.912H202.115V271H200.035ZM208.138 271.224C207.348 271.224 206.655 271.059 206.058 270.728C205.46 270.387 204.996 269.912 204.666 269.304C204.335 268.696 204.17 267.992 204.17 267.192V267C204.17 266.189 204.335 265.48 204.666 264.872C204.996 264.264 205.455 263.795 206.042 263.464C206.628 263.123 207.3 262.952 208.058 262.952C208.794 262.952 209.444 263.112 210.01 263.432C210.575 263.741 211.018 264.189 211.338 264.776C211.658 265.363 211.818 266.051 211.818 266.84V267.416H205.434C205.466 268.259 205.738 268.92 206.25 269.4C206.762 269.869 207.402 270.104 208.17 270.104C208.842 270.104 209.359 269.949 209.722 269.64C210.084 269.331 210.362 268.963 210.554 268.536L211.642 269.064C211.482 269.395 211.258 269.725 210.97 270.056C210.692 270.387 210.324 270.664 209.866 270.888C209.418 271.112 208.842 271.224 208.138 271.224ZM205.45 266.376H210.538C210.495 265.651 210.244 265.085 209.786 264.68C209.338 264.275 208.762 264.072 208.058 264.072C207.343 264.072 206.756 264.275 206.298 264.68C205.839 265.085 205.556 265.651 205.45 266.376ZM217.654 271.224C216.982 271.224 216.364 271.064 215.798 270.744C215.233 270.424 214.785 269.96 214.454 269.352C214.124 268.744 213.958 268.024 213.958 267.192V266.984C213.958 266.152 214.124 265.437 214.454 264.84C214.785 264.232 215.228 263.768 215.782 263.448C216.348 263.117 216.972 262.952 217.654 262.952C218.198 262.952 218.657 263.027 219.03 263.176C219.414 263.315 219.724 263.496 219.958 263.72C220.193 263.933 220.374 264.163 220.502 264.408H220.726V259.8H221.99V271H220.758V269.704H220.534C220.321 270.099 219.99 270.451 219.542 270.76C219.094 271.069 218.465 271.224 217.654 271.224ZM217.99 270.104C218.801 270.104 219.457 269.848 219.958 269.336C220.47 268.813 220.726 268.088 220.726 267.16V267.016C220.726 266.088 220.47 265.368 219.958 264.856C219.457 264.333 218.801 264.072 217.99 264.072C217.19 264.072 216.529 264.333 216.006 264.856C215.494 265.368 215.238 266.088 215.238 267.016V267.16C215.238 268.088 215.494 268.813 216.006 269.336C216.529 269.848 217.19 270.104 217.99 270.104Z" fill="white"/>
<rect x="0.5" y="0.5" width="359" height="371" rx="19.5" stroke="white"/>
</svg>
