<svg width="360" height="372" viewBox="0 0 360 372" fill="none" xmlns="http://www.w3.org/2000/svg">
<path d="M27.4723 132L31.8883 115.2H37.4083L41.8243 132H38.5603L37.6483 128.304H31.6483L30.7363 132H27.4723ZM32.3923 125.376H36.9043L34.8643 117.192H34.4323L32.3923 125.376ZM48.9473 132.192C48.0193 132.192 47.2033 131.984 46.4993 131.568C45.8113 131.136 45.2753 130.544 44.8913 129.792C44.5073 129.04 44.3153 128.176 44.3153 127.2V120.096H47.3393V126.96C47.3393 127.856 47.5553 128.528 47.9873 128.976C48.4353 129.424 49.0673 129.648 49.8833 129.648C50.8113 129.648 51.5313 129.344 52.0433 128.736C52.5553 128.112 52.8113 127.248 52.8113 126.144V120.096H55.8353V132H52.8593V130.44H52.4273C52.2353 130.84 51.8753 131.232 51.3473 131.616C50.8193 132 50.0193 132.192 48.9473 132.192ZM64.2403 132C63.4563 132 62.8163 131.76 62.3203 131.28C61.8403 130.784 61.6003 130.128 61.6003 129.312V122.592H58.6243V120.096H61.6003V116.4H64.6243V120.096H67.8883V122.592H64.6243V128.784C64.6243 129.264 64.8483 129.504 65.2963 129.504H67.6003V132H64.2403ZM76.3478 132.336C75.1638 132.336 74.0998 132.096 73.1558 131.616C72.2118 131.136 71.4678 130.44 70.9237 129.528C70.3797 128.616 70.1077 127.52 70.1077 126.24V125.856C70.1077 124.576 70.3797 123.48 70.9237 122.568C71.4678 121.656 72.2118 120.96 73.1558 120.48C74.0998 120 75.1638 119.76 76.3478 119.76C77.5318 119.76 78.5958 120 79.5398 120.48C80.4838 120.96 81.2278 121.656 81.7717 122.568C82.3158 123.48 82.5878 124.576 82.5878 125.856V126.24C82.5878 127.52 82.3158 128.616 81.7717 129.528C81.2278 130.44 80.4838 131.136 79.5398 131.616C78.5958 132.096 77.5318 132.336 76.3478 132.336ZM76.3478 129.648C77.2758 129.648 78.0438 129.352 78.6518 128.76C79.2598 128.152 79.5638 127.288 79.5638 126.168V125.928C79.5638 124.808 79.2598 123.952 78.6518 123.36C78.0598 122.752 77.2918 122.448 76.3478 122.448C75.4198 122.448 74.6518 122.752 74.0438 123.36C73.4358 123.952 73.1317 124.808 73.1317 125.928V126.168C73.1317 127.288 73.4358 128.152 74.0438 128.76C74.6518 129.352 75.4198 129.648 76.3478 129.648ZM85.8591 132V120.096H88.8351V121.392H89.2671C89.4751 120.992 89.8191 120.648 90.2991 120.36C90.7791 120.056 91.4111 119.904 92.1951 119.904C93.0431 119.904 93.7231 120.072 94.2351 120.408C94.7471 120.728 95.1391 121.152 95.4111 121.68H95.8431C96.1151 121.168 96.4991 120.744 96.9951 120.408C97.4911 120.072 98.1951 119.904 99.1071 119.904C99.8431 119.904 100.507 120.064 101.099 120.384C101.707 120.688 102.187 121.16 102.539 121.8C102.907 122.424 103.091 123.216 103.091 124.176V132H100.067V124.392C100.067 123.736 99.8991 123.248 99.5631 122.928C99.2271 122.592 98.7551 122.424 98.1471 122.424C97.4591 122.424 96.9231 122.648 96.5391 123.096C96.1711 123.528 95.9871 124.152 95.9871 124.968V132H92.9631V124.392C92.9631 123.736 92.7951 123.248 92.4591 122.928C92.1231 122.592 91.6511 122.424 91.0431 122.424C90.3551 122.424 89.8191 122.648 89.4351 123.096C89.0671 123.528 88.8831 124.152 88.8831 124.968V132H85.8591ZM110.519 132.336C109.671 132.336 108.911 132.192 108.239 131.904C107.567 131.6 107.031 131.168 106.631 130.608C106.247 130.032 106.055 129.336 106.055 128.52C106.055 127.704 106.247 127.024 106.631 126.48C107.031 125.92 107.575 125.504 108.263 125.232C108.967 124.944 109.767 124.8 110.663 124.8H113.927V124.128C113.927 123.568 113.751 123.112 113.399 122.76C113.047 122.392 112.487 122.208 111.719 122.208C110.967 122.208 110.407 122.384 110.039 122.736C109.671 123.072 109.431 123.512 109.319 124.056L106.535 123.12C106.727 122.512 107.031 121.96 107.447 121.464C107.879 120.952 108.447 120.544 109.151 120.24C109.871 119.92 110.743 119.76 111.767 119.76C113.335 119.76 114.575 120.152 115.487 120.936C116.399 121.72 116.855 122.856 116.855 124.344V128.784C116.855 129.264 117.079 129.504 117.527 129.504H118.487V132H116.471C115.879 132 115.391 131.856 115.007 131.568C114.623 131.28 114.431 130.896 114.431 130.416V130.392H113.975C113.911 130.584 113.767 130.84 113.543 131.16C113.319 131.464 112.967 131.736 112.487 131.976C112.007 132.216 111.351 132.336 110.519 132.336ZM111.047 129.888C111.895 129.888 112.583 129.656 113.111 129.192C113.655 128.712 113.927 128.08 113.927 127.296V127.056H110.879C110.319 127.056 109.879 127.176 109.559 127.416C109.239 127.656 109.079 127.992 109.079 128.424C109.079 128.856 109.247 129.208 109.583 129.48C109.919 129.752 110.407 129.888 111.047 129.888ZM124.871 132C124.087 132 123.447 131.76 122.951 131.28C122.471 130.784 122.231 130.128 122.231 129.312V122.592H119.255V120.096H122.231V116.4H125.255V120.096H128.519V122.592H125.255V128.784C125.255 129.264 125.479 129.504 125.927 129.504H128.231V132H124.871ZM136.739 132.336C135.555 132.336 134.507 132.088 133.595 131.592C132.699 131.08 131.995 130.368 131.483 129.456C130.987 128.528 130.739 127.44 130.739 126.192V125.904C130.739 124.656 130.987 123.576 131.483 122.664C131.979 121.736 132.675 121.024 133.571 120.528C134.467 120.016 135.507 119.76 136.691 119.76C137.859 119.76 138.875 120.024 139.739 120.552C140.603 121.064 141.275 121.784 141.755 122.712C142.235 123.624 142.475 124.688 142.475 125.904V126.936H133.811C133.843 127.752 134.147 128.416 134.723 128.928C135.299 129.44 136.003 129.696 136.835 129.696C137.683 129.696 138.307 129.512 138.707 129.144C139.107 128.776 139.411 128.368 139.619 127.92L142.091 129.216C141.867 129.632 141.539 130.088 141.107 130.584C140.691 131.064 140.131 131.48 139.427 131.832C138.723 132.168 137.827 132.336 136.739 132.336ZM133.835 124.68H139.403C139.339 123.992 139.059 123.44 138.563 123.024C138.083 122.608 137.451 122.4 136.667 122.4C135.851 122.4 135.203 122.608 134.723 123.024C134.243 123.44 133.947 123.992 133.835 124.68ZM150.446 132.336C149.502 132.336 148.614 132.104 147.782 131.64C146.966 131.16 146.31 130.464 145.814 129.552C145.318 128.64 145.07 127.536 145.07 126.24V125.856C145.07 124.56 145.318 123.456 145.814 122.544C146.31 121.632 146.966 120.944 147.782 120.48C148.598 120 149.486 119.76 150.446 119.76C151.166 119.76 151.766 119.848 152.246 120.024C152.742 120.184 153.142 120.392 153.446 120.648C153.75 120.904 153.982 121.176 154.142 121.464H154.574V115.2H157.598V132H154.622V130.56H154.19C153.918 131.008 153.494 131.416 152.918 131.784C152.358 132.152 151.534 132.336 150.446 132.336ZM151.358 129.696C152.286 129.696 153.062 129.4 153.686 128.808C154.31 128.2 154.622 127.32 154.622 126.168V125.928C154.622 124.776 154.31 123.904 153.686 123.312C153.078 122.704 152.302 122.4 151.358 122.4C150.43 122.4 149.654 122.704 149.03 123.312C148.406 123.904 148.094 124.776 148.094 125.928V126.168C148.094 127.32 148.406 128.2 149.03 128.808C149.654 129.4 150.43 129.696 151.358 129.696ZM171.07 132V118.08H166.174V115.2H179.134V118.08H174.238V132H171.07ZM185.282 132.336C184.098 132.336 183.034 132.096 182.09 131.616C181.146 131.136 180.402 130.44 179.858 129.528C179.314 128.616 179.042 127.52 179.042 126.24V125.856C179.042 124.576 179.314 123.48 179.858 122.568C180.402 121.656 181.146 120.96 182.09 120.48C183.034 120 184.098 119.76 185.282 119.76C186.466 119.76 187.53 120 188.474 120.48C189.418 120.96 190.162 121.656 190.706 122.568C191.25 123.48 191.522 124.576 191.522 125.856V126.24C191.522 127.52 191.25 128.616 190.706 129.528C190.162 130.44 189.418 131.136 188.474 131.616C187.53 132.096 186.466 132.336 185.282 132.336ZM185.282 129.648C186.21 129.648 186.978 129.352 187.586 128.76C188.194 128.152 188.498 127.288 188.498 126.168V125.928C188.498 124.808 188.194 123.952 187.586 123.36C186.994 122.752 186.226 122.448 185.282 122.448C184.354 122.448 183.586 122.752 182.978 123.36C182.37 123.952 182.066 124.808 182.066 125.928V126.168C182.066 127.288 182.37 128.152 182.978 128.76C183.586 129.352 184.354 129.648 185.282 129.648ZM194.793 132V115.2H197.817V124.488H198.249L202.185 120.096H206.121L200.625 125.856L206.313 132H202.425L198.249 127.272H197.817V132H194.793ZM213.517 132.336C212.333 132.336 211.285 132.088 210.373 131.592C209.477 131.08 208.773 130.368 208.261 129.456C207.765 128.528 207.517 127.44 207.517 126.192V125.904C207.517 124.656 207.765 123.576 208.261 122.664C208.757 121.736 209.453 121.024 210.349 120.528C211.245 120.016 212.285 119.76 213.469 119.76C214.637 119.76 215.653 120.024 216.517 120.552C217.381 121.064 218.053 121.784 218.533 122.712C219.013 123.624 219.253 124.688 219.253 125.904V126.936H210.589C210.621 127.752 210.925 128.416 211.501 128.928C212.077 129.44 212.781 129.696 213.613 129.696C214.461 129.696 215.085 129.512 215.485 129.144C215.885 128.776 216.189 128.368 216.397 127.92L218.869 129.216C218.645 129.632 218.317 130.088 217.885 130.584C217.469 131.064 216.909 131.48 216.205 131.832C215.501 132.168 214.605 132.336 213.517 132.336ZM210.613 124.68H216.181C216.117 123.992 215.837 123.44 215.341 123.024C214.861 122.608 214.229 122.4 213.445 122.4C212.629 122.4 211.981 122.608 211.501 123.024C211.021 123.44 210.725 123.992 210.613 124.68ZM222.425 132V120.096H225.401V121.656H225.833C226.025 121.24 226.385 120.848 226.913 120.48C227.441 120.096 228.241 119.904 229.313 119.904C230.241 119.904 231.049 120.12 231.737 120.552C232.441 120.968 232.985 121.552 233.369 122.304C233.753 123.04 233.945 123.904 233.945 124.896V132H230.921V125.136C230.921 124.24 230.697 123.568 230.249 123.12C229.817 122.672 229.193 122.448 228.377 122.448C227.449 122.448 226.729 122.76 226.217 123.384C225.705 123.992 225.449 124.848 225.449 125.952V132H222.425ZM250.003 132.336C248.707 132.336 247.563 132.104 246.571 131.64C245.579 131.176 244.803 130.512 244.243 129.648C243.683 128.784 243.403 127.744 243.403 126.528V125.856H246.523V126.528C246.523 127.536 246.835 128.296 247.459 128.808C248.083 129.304 248.931 129.552 250.003 129.552C251.091 129.552 251.899 129.336 252.427 128.904C252.971 128.472 253.243 127.92 253.243 127.248C253.243 126.784 253.107 126.408 252.835 126.12C252.579 125.832 252.195 125.6 251.683 125.424C251.187 125.232 250.579 125.056 249.859 124.896L249.307 124.776C248.155 124.52 247.163 124.2 246.331 123.816C245.515 123.416 244.883 122.896 244.435 122.256C244.003 121.616 243.787 120.784 243.787 119.76C243.787 118.736 244.027 117.864 244.507 117.144C245.003 116.408 245.691 115.848 246.571 115.464C247.467 115.064 248.515 114.864 249.715 114.864C250.915 114.864 251.979 115.072 252.907 115.488C253.851 115.888 254.587 116.496 255.115 117.312C255.659 118.112 255.931 119.12 255.931 120.336V121.056H252.811V120.336C252.811 119.696 252.683 119.184 252.427 118.8C252.187 118.4 251.835 118.112 251.371 117.936C250.907 117.744 250.355 117.648 249.715 117.648C248.755 117.648 248.043 117.832 247.579 118.2C247.131 118.552 246.907 119.04 246.907 119.664C246.907 120.08 247.011 120.432 247.219 120.72C247.443 121.008 247.771 121.248 248.203 121.44C248.635 121.632 249.187 121.8 249.859 121.944L250.411 122.064C251.611 122.32 252.651 122.648 253.531 123.048C254.427 123.448 255.123 123.976 255.619 124.632C256.115 125.288 256.363 126.128 256.363 127.152C256.363 128.176 256.099 129.08 255.571 129.864C255.059 130.632 254.323 131.24 253.363 131.688C252.419 132.12 251.299 132.336 250.003 132.336ZM259.302 132V120.096H262.278V121.656H262.71C262.902 121.24 263.262 120.848 263.79 120.48C264.318 120.096 265.118 119.904 266.19 119.904C267.118 119.904 267.926 120.12 268.614 120.552C269.318 120.968 269.862 121.552 270.246 122.304C270.63 123.04 270.822 123.904 270.822 124.896V132H267.798V125.136C267.798 124.24 267.574 123.568 267.126 123.12C266.694 122.672 266.07 122.448 265.254 122.448C264.326 122.448 263.606 122.76 263.094 123.384C262.582 123.992 262.326 124.848 262.326 125.952V132H259.302ZM274.571 132V120.096H277.595V132H274.571ZM276.083 118.704C275.539 118.704 275.075 118.528 274.691 118.176C274.323 117.824 274.139 117.36 274.139 116.784C274.139 116.208 274.323 115.744 274.691 115.392C275.075 115.04 275.539 114.864 276.083 114.864C276.643 114.864 277.107 115.04 277.475 115.392C277.843 115.744 278.027 116.208 278.027 116.784C278.027 117.36 277.843 117.824 277.475 118.176C277.107 118.528 276.643 118.704 276.083 118.704ZM281.426 136.8V120.096H284.402V121.536H284.834C285.106 121.072 285.53 120.664 286.106 120.312C286.682 119.944 287.506 119.76 288.578 119.76C289.538 119.76 290.426 120 291.242 120.48C292.058 120.944 292.714 121.632 293.21 122.544C293.706 123.456 293.954 124.56 293.954 125.856V126.24C293.954 127.536 293.706 128.64 293.21 129.552C292.714 130.464 292.058 131.16 291.242 131.64C290.426 132.104 289.538 132.336 288.578 132.336C287.858 132.336 287.25 132.248 286.754 132.072C286.274 131.912 285.882 131.704 285.578 131.448C285.29 131.176 285.058 130.904 284.882 130.632H284.45V136.8H281.426ZM287.666 129.696C288.61 129.696 289.386 129.4 289.994 128.808C290.618 128.2 290.93 127.32 290.93 126.168V125.928C290.93 124.776 290.618 123.904 289.994 123.312C289.37 122.704 288.594 122.4 287.666 122.4C286.738 122.4 285.962 122.704 285.338 123.312C284.714 123.904 284.402 124.776 284.402 125.928V126.168C284.402 127.32 284.714 128.2 285.338 128.808C285.962 129.4 286.738 129.696 287.666 129.696ZM297.211 132V120.096H300.235V132H297.211ZM298.723 118.704C298.179 118.704 297.715 118.528 297.331 118.176C296.963 117.824 296.779 117.36 296.779 116.784C296.779 116.208 296.963 115.744 297.331 115.392C297.715 115.04 298.179 114.864 298.723 114.864C299.283 114.864 299.747 115.04 300.115 115.392C300.483 115.744 300.667 116.208 300.667 116.784C300.667 117.36 300.483 117.824 300.115 118.176C299.747 118.528 299.283 118.704 298.723 118.704ZM304.066 132V120.096H307.042V121.656H307.474C307.666 121.24 308.026 120.848 308.554 120.48C309.082 120.096 309.882 119.904 310.954 119.904C311.882 119.904 312.69 120.12 313.378 120.552C314.082 120.968 314.626 121.552 315.01 122.304C315.394 123.04 315.586 123.904 315.586 124.896V132H312.562V125.136C312.562 124.24 312.338 123.568 311.89 123.12C311.458 122.672 310.834 122.448 310.018 122.448C309.09 122.448 308.37 122.76 307.858 123.384C307.346 123.992 307.09 124.848 307.09 125.952V132H304.066ZM318.759 126.096V125.712C318.759 124.464 319.007 123.4 319.503 122.52C319.999 121.624 320.655 120.944 321.471 120.48C322.303 120 323.207 119.76 324.183 119.76C325.271 119.76 326.095 119.952 326.655 120.336C327.215 120.72 327.623 121.12 327.879 121.536H328.311V120.096H331.287V134.112C331.287 134.928 331.047 135.576 330.567 136.056C330.087 136.552 329.447 136.8 328.647 136.8H320.679V134.16H327.591C328.039 134.16 328.263 133.92 328.263 133.44V130.344H327.831C327.671 130.6 327.447 130.864 327.159 131.136C326.871 131.392 326.487 131.608 326.007 131.784C325.527 131.96 324.919 132.048 324.183 132.048C323.207 132.048 322.303 131.816 321.471 131.352C320.655 130.872 319.999 130.192 319.503 129.312C319.007 128.416 318.759 127.344 318.759 126.096ZM325.047 129.408C325.975 129.408 326.751 129.112 327.375 128.52C327.999 127.928 328.311 127.096 328.311 126.024V125.784C328.311 124.696 327.999 123.864 327.375 123.288C326.767 122.696 325.991 122.4 325.047 122.4C324.119 122.4 323.343 122.696 322.719 123.288C322.095 123.864 321.783 124.696 321.783 125.784V126.024C321.783 127.096 322.095 127.928 322.719 128.52C323.343 129.112 324.119 129.408 325.047 129.408Z" fill="white"/>
<path d="M100.726 191.224C99.8942 191.224 99.1582 191.053 98.5182 190.712C97.8889 190.36 97.3929 189.848 97.0302 189.176C96.6782 188.504 96.5022 187.672 96.5022 186.68V184.12C96.5022 182.637 96.8969 181.512 97.6862 180.744C98.4755 179.965 99.5369 179.576 100.87 179.576C102.193 179.576 103.201 179.939 103.894 180.664C104.588 181.389 104.934 182.36 104.934 183.576V183.656H103.606V183.544C103.606 183.011 103.51 182.536 103.318 182.12C103.126 181.704 102.828 181.379 102.422 181.144C102.017 180.899 101.5 180.776 100.87 180.776C99.9209 180.776 99.1795 181.069 98.6462 181.656C98.1129 182.232 97.8462 183.043 97.8462 184.088V186.712C97.8462 187.757 98.1129 188.573 98.6462 189.16C99.1795 189.736 99.9262 190.024 100.886 190.024C101.825 190.024 102.513 189.757 102.95 189.224C103.398 188.691 103.622 187.981 103.622 187.096V186.824H100.23V185.672H104.934V191H103.718V189.784H103.494C103.377 190.019 103.212 190.248 102.998 190.472C102.785 190.696 102.497 190.877 102.134 191.016C101.772 191.155 101.302 191.224 100.726 191.224ZM111.337 191.224C110.547 191.224 109.854 191.059 109.257 190.728C108.659 190.387 108.195 189.912 107.865 189.304C107.534 188.696 107.369 187.992 107.369 187.192V187C107.369 186.189 107.534 185.48 107.865 184.872C108.195 184.264 108.654 183.795 109.241 183.464C109.827 183.123 110.499 182.952 111.257 182.952C111.993 182.952 112.643 183.112 113.209 183.432C113.774 183.741 114.217 184.189 114.537 184.776C114.857 185.363 115.017 186.051 115.017 186.84V187.416H108.633C108.665 188.259 108.937 188.92 109.449 189.4C109.961 189.869 110.601 190.104 111.369 190.104C112.041 190.104 112.558 189.949 112.921 189.64C113.283 189.331 113.561 188.963 113.753 188.536L114.841 189.064C114.681 189.395 114.457 189.725 114.169 190.056C113.891 190.387 113.523 190.664 113.065 190.888C112.617 191.112 112.041 191.224 111.337 191.224ZM108.649 186.376H113.737C113.694 185.651 113.443 185.085 112.985 184.68C112.537 184.275 111.961 184.072 111.257 184.072C110.542 184.072 109.955 184.275 109.497 184.68C109.038 185.085 108.755 185.651 108.649 186.376ZM117.541 191V183.176H118.773V184.504H118.997C119.168 184.131 119.456 183.795 119.861 183.496C120.277 183.187 120.885 183.032 121.685 183.032C122.272 183.032 122.795 183.155 123.253 183.4C123.723 183.645 124.096 184.008 124.373 184.488C124.651 184.968 124.789 185.56 124.789 186.264V191H123.525V186.36C123.525 185.581 123.328 185.016 122.933 184.664C122.549 184.312 122.027 184.136 121.365 184.136C120.608 184.136 119.989 184.381 119.509 184.872C119.04 185.363 118.805 186.093 118.805 187.064V191H117.541ZM131.258 191.224C130.469 191.224 129.775 191.059 129.178 190.728C128.581 190.387 128.117 189.912 127.786 189.304C127.455 188.696 127.29 187.992 127.29 187.192V187C127.29 186.189 127.455 185.48 127.786 184.872C128.117 184.264 128.575 183.795 129.162 183.464C129.749 183.123 130.421 182.952 131.178 182.952C131.914 182.952 132.565 183.112 133.13 183.432C133.695 183.741 134.138 184.189 134.458 184.776C134.778 185.363 134.938 186.051 134.938 186.84V187.416H128.554C128.586 188.259 128.858 188.92 129.37 189.4C129.882 189.869 130.522 190.104 131.29 190.104C131.962 190.104 132.479 189.949 132.842 189.64C133.205 189.331 133.482 188.963 133.674 188.536L134.762 189.064C134.602 189.395 134.378 189.725 134.09 190.056C133.813 190.387 133.445 190.664 132.986 190.888C132.538 191.112 131.962 191.224 131.258 191.224ZM128.57 186.376H133.658C133.615 185.651 133.365 185.085 132.906 184.68C132.458 184.275 131.882 184.072 131.178 184.072C130.463 184.072 129.877 184.275 129.418 184.68C128.959 185.085 128.677 185.651 128.57 186.376ZM137.463 191V183.176H138.695V184.136H138.919C139.057 183.795 139.271 183.544 139.559 183.384C139.847 183.224 140.225 183.144 140.695 183.144H141.623V184.296H140.615C140.049 184.296 139.591 184.456 139.239 184.776C138.897 185.085 138.727 185.571 138.727 186.232V191H137.463ZM145.948 191.224C145.404 191.224 144.908 191.128 144.46 190.936C144.012 190.744 143.66 190.467 143.404 190.104C143.148 189.741 143.02 189.299 143.02 188.776C143.02 188.243 143.148 187.805 143.404 187.464C143.66 187.112 144.012 186.851 144.46 186.68C144.908 186.499 145.41 186.408 145.964 186.408H148.604V185.832C148.604 185.277 148.439 184.84 148.108 184.52C147.788 184.2 147.308 184.04 146.668 184.04C146.039 184.04 145.548 184.195 145.196 184.504C144.844 184.803 144.604 185.208 144.476 185.72L143.292 185.336C143.42 184.899 143.623 184.504 143.9 184.152C144.178 183.789 144.546 183.501 145.004 183.288C145.474 183.064 146.034 182.952 146.684 182.952C147.687 182.952 148.466 183.213 149.02 183.736C149.575 184.248 149.852 184.973 149.852 185.912V189.448C149.852 189.768 150.002 189.928 150.3 189.928H151.02V191H149.916C149.564 191 149.282 190.904 149.068 190.712C148.855 190.509 148.748 190.243 148.748 189.912V189.832H148.556C148.439 190.035 148.279 190.248 148.076 190.472C147.884 190.685 147.618 190.861 147.276 191C146.935 191.149 146.492 191.224 145.948 191.224ZM146.092 190.136C146.839 190.136 147.442 189.917 147.9 189.48C148.37 189.032 148.604 188.408 148.604 187.608V187.432H146.012C145.511 187.432 145.095 187.544 144.764 187.768C144.444 187.981 144.284 188.307 144.284 188.744C144.284 189.181 144.45 189.523 144.78 189.768C145.122 190.013 145.559 190.136 146.092 190.136ZM155.436 191C154.988 191 154.641 190.877 154.396 190.632C154.161 190.387 154.044 190.051 154.044 189.624V184.28H151.692V183.176H154.044V180.392H155.308V183.176H157.868V184.28H155.308V189.432C155.308 189.752 155.462 189.912 155.772 189.912H157.516V191H155.436ZM163.538 191.224C162.749 191.224 162.055 191.059 161.458 190.728C160.861 190.387 160.397 189.912 160.066 189.304C159.735 188.696 159.57 187.992 159.57 187.192V187C159.57 186.189 159.735 185.48 160.066 184.872C160.397 184.264 160.855 183.795 161.442 183.464C162.029 183.123 162.701 182.952 163.458 182.952C164.194 182.952 164.845 183.112 165.41 183.432C165.975 183.741 166.418 184.189 166.738 184.776C167.058 185.363 167.218 186.051 167.218 186.84V187.416H160.834C160.866 188.259 161.138 188.92 161.65 189.4C162.162 189.869 162.802 190.104 163.57 190.104C164.242 190.104 164.759 189.949 165.122 189.64C165.485 189.331 165.762 188.963 165.954 188.536L167.042 189.064C166.882 189.395 166.658 189.725 166.37 190.056C166.093 190.387 165.725 190.664 165.266 190.888C164.818 191.112 164.242 191.224 163.538 191.224ZM160.85 186.376H165.938C165.895 185.651 165.645 185.085 165.186 184.68C164.738 184.275 164.162 184.072 163.458 184.072C162.743 184.072 162.157 184.275 161.698 184.68C161.239 185.085 160.957 185.651 160.85 186.376ZM175.26 191L173.692 183.176H174.972L176.268 190.152H176.492L178.204 183.176H180.3L182.012 190.152H182.236L183.532 183.176H184.812L183.244 191H181.084L179.356 184.024H179.148L177.42 191H175.26ZM189.58 191.224C189.036 191.224 188.54 191.128 188.092 190.936C187.644 190.744 187.292 190.467 187.036 190.104C186.78 189.741 186.652 189.299 186.652 188.776C186.652 188.243 186.78 187.805 187.036 187.464C187.292 187.112 187.644 186.851 188.092 186.68C188.54 186.499 189.041 186.408 189.596 186.408H192.236V185.832C192.236 185.277 192.07 184.84 191.74 184.52C191.42 184.2 190.94 184.04 190.3 184.04C189.67 184.04 189.18 184.195 188.828 184.504C188.476 184.803 188.236 185.208 188.108 185.72L186.924 185.336C187.052 184.899 187.254 184.504 187.532 184.152C187.809 183.789 188.177 183.501 188.636 183.288C189.105 183.064 189.665 182.952 190.316 182.952C191.318 182.952 192.097 183.213 192.652 183.736C193.206 184.248 193.484 184.973 193.484 185.912V189.448C193.484 189.768 193.633 189.928 193.932 189.928H194.652V191H193.548C193.196 191 192.913 190.904 192.7 190.712C192.486 190.509 192.38 190.243 192.38 189.912V189.832H192.188C192.07 190.035 191.91 190.248 191.708 190.472C191.516 190.685 191.249 190.861 190.908 191C190.566 191.149 190.124 191.224 189.58 191.224ZM189.724 190.136C190.47 190.136 191.073 189.917 191.532 189.48C192.001 189.032 192.236 188.408 192.236 187.608V187.432H189.644C189.142 187.432 188.726 187.544 188.396 187.768C188.076 187.981 187.916 188.307 187.916 188.744C187.916 189.181 188.081 189.523 188.412 189.768C188.753 190.013 189.19 190.136 189.724 190.136ZM196.703 191V179.8H197.967V191H196.703ZM200.945 191V179.8H202.209V191H200.945ZM208.77 191.224C207.981 191.224 207.288 191.059 206.69 190.728C206.093 190.387 205.629 189.912 205.298 189.304C204.968 188.696 204.802 187.992 204.802 187.192V187C204.802 186.189 204.968 185.48 205.298 184.872C205.629 184.264 206.088 183.795 206.674 183.464C207.261 183.123 207.933 182.952 208.69 182.952C209.426 182.952 210.077 183.112 210.642 183.432C211.208 183.741 211.65 184.189 211.97 184.776C212.29 185.363 212.45 186.051 212.45 186.84V187.416H206.066C206.098 188.259 206.37 188.92 206.882 189.4C207.394 189.869 208.034 190.104 208.802 190.104C209.474 190.104 209.992 189.949 210.354 189.64C210.717 189.331 210.994 188.963 211.186 188.536L212.274 189.064C212.114 189.395 211.89 189.725 211.602 190.056C211.325 190.387 210.957 190.664 210.498 190.888C210.05 191.112 209.474 191.224 208.77 191.224ZM206.082 186.376H211.17C211.128 185.651 210.877 185.085 210.418 184.68C209.97 184.275 209.394 184.072 208.69 184.072C207.976 184.072 207.389 184.275 206.93 184.68C206.472 185.085 206.189 185.651 206.082 186.376ZM217.527 191C217.079 191 216.732 190.877 216.487 190.632C216.252 190.387 216.135 190.051 216.135 189.624V184.28H213.783V183.176H216.135V180.392H217.399V183.176H219.959V184.28H217.399V189.432C217.399 189.752 217.554 189.912 217.863 189.912H219.607V191H217.527ZM225.478 191.224C224.508 191.224 223.686 191 223.014 190.552C222.353 190.104 221.953 189.395 221.814 188.424L223.014 188.152C223.1 188.664 223.26 189.069 223.494 189.368C223.729 189.656 224.017 189.864 224.358 189.992C224.71 190.109 225.084 190.168 225.478 190.168C226.065 190.168 226.529 190.051 226.87 189.816C227.212 189.581 227.382 189.267 227.382 188.872C227.382 188.467 227.217 188.184 226.886 188.024C226.566 187.853 226.124 187.715 225.558 187.608L224.902 187.496C224.401 187.411 223.942 187.277 223.526 187.096C223.11 186.915 222.78 186.669 222.534 186.36C222.289 186.051 222.166 185.661 222.166 185.192C222.166 184.488 222.438 183.939 222.982 183.544C223.526 183.149 224.246 182.952 225.142 182.952C226.028 182.952 226.742 183.155 227.286 183.56C227.841 183.955 228.198 184.515 228.358 185.24L227.174 185.544C227.078 184.979 226.849 184.584 226.486 184.36C226.124 184.125 225.676 184.008 225.142 184.008C224.609 184.008 224.188 184.109 223.878 184.312C223.569 184.504 223.414 184.792 223.414 185.176C223.414 185.549 223.558 185.827 223.846 186.008C224.145 186.179 224.54 186.307 225.03 186.392L225.686 186.504C226.241 186.6 226.737 186.733 227.174 186.904C227.622 187.064 227.974 187.299 228.23 187.608C228.497 187.917 228.63 188.323 228.63 188.824C228.63 189.592 228.342 190.184 227.766 190.6C227.201 191.016 226.438 191.224 225.478 191.224ZM237.913 191.224C237.369 191.224 236.873 191.128 236.425 190.936C235.977 190.744 235.625 190.467 235.369 190.104C235.113 189.741 234.985 189.299 234.985 188.776C234.985 188.243 235.113 187.805 235.369 187.464C235.625 187.112 235.977 186.851 236.425 186.68C236.873 186.499 237.375 186.408 237.929 186.408H240.569V185.832C240.569 185.277 240.404 184.84 240.073 184.52C239.753 184.2 239.273 184.04 238.633 184.04C238.004 184.04 237.513 184.195 237.161 184.504C236.809 184.803 236.569 185.208 236.441 185.72L235.257 185.336C235.385 184.899 235.588 184.504 235.865 184.152C236.143 183.789 236.511 183.501 236.969 183.288C237.439 183.064 237.999 182.952 238.649 182.952C239.652 182.952 240.431 183.213 240.985 183.736C241.54 184.248 241.817 184.973 241.817 185.912V189.448C241.817 189.768 241.967 189.928 242.265 189.928H242.985V191H241.881C241.529 191 241.247 190.904 241.033 190.712C240.82 190.509 240.713 190.243 240.713 189.912V189.832H240.521C240.404 190.035 240.244 190.248 240.041 190.472C239.849 190.685 239.583 190.861 239.241 191C238.9 191.149 238.457 191.224 237.913 191.224ZM238.057 190.136C238.804 190.136 239.407 189.917 239.865 189.48C240.335 189.032 240.569 188.408 240.569 187.608V187.432H237.977C237.476 187.432 237.06 187.544 236.729 187.768C236.409 187.981 236.249 188.307 236.249 188.744C236.249 189.181 236.415 189.523 236.745 189.768C237.087 190.013 237.524 190.136 238.057 190.136ZM245.036 191V183.176H246.268V184.504H246.492C246.663 184.131 246.951 183.795 247.356 183.496C247.772 183.187 248.38 183.032 249.18 183.032C249.767 183.032 250.29 183.155 250.748 183.4C251.218 183.645 251.591 184.008 251.868 184.488C252.146 184.968 252.284 185.56 252.284 186.264V191H251.02V186.36C251.02 185.581 250.823 185.016 250.428 184.664C250.044 184.312 249.522 184.136 248.86 184.136C248.103 184.136 247.484 184.381 247.004 184.872C246.535 185.363 246.3 186.093 246.3 187.064V191H245.036ZM258.481 191.224C257.809 191.224 257.19 191.064 256.625 190.744C256.06 190.424 255.612 189.96 255.281 189.352C254.95 188.744 254.785 188.024 254.785 187.192V186.984C254.785 186.152 254.95 185.437 255.281 184.84C255.612 184.232 256.054 183.768 256.609 183.448C257.174 183.117 257.798 182.952 258.481 182.952C259.025 182.952 259.484 183.027 259.857 183.176C260.241 183.315 260.55 183.496 260.785 183.72C261.02 183.933 261.201 184.163 261.329 184.408H261.553V179.8H262.817V191H261.585V189.704H261.361C261.148 190.099 260.817 190.451 260.369 190.76C259.921 191.069 259.292 191.224 258.481 191.224ZM258.817 190.104C259.628 190.104 260.284 189.848 260.785 189.336C261.297 188.813 261.553 188.088 261.553 187.16V187.016C261.553 186.088 261.297 185.368 260.785 184.856C260.284 184.333 259.628 184.072 258.817 184.072C258.017 184.072 257.356 184.333 256.833 184.856C256.321 185.368 256.065 186.088 256.065 187.016V187.16C256.065 188.088 256.321 188.813 256.833 189.336C257.356 189.848 258.017 190.104 258.817 190.104ZM43.8974 223.224C43.3534 223.224 42.8574 223.128 42.4094 222.936C41.9614 222.744 41.6094 222.467 41.3534 222.104C41.0974 221.741 40.9694 221.299 40.9694 220.776C40.9694 220.243 41.0974 219.805 41.3534 219.464C41.6094 219.112 41.9614 218.851 42.4094 218.68C42.8574 218.499 43.3587 218.408 43.9134 218.408H46.5534V217.832C46.5534 217.277 46.388 216.84 46.0574 216.52C45.7374 216.2 45.2574 216.04 44.6174 216.04C43.988 216.04 43.4974 216.195 43.1454 216.504C42.7934 216.803 42.5534 217.208 42.4254 217.72L41.2414 217.336C41.3694 216.899 41.572 216.504 41.8494 216.152C42.1267 215.789 42.4947 215.501 42.9534 215.288C43.4227 215.064 43.9827 214.952 44.6334 214.952C45.636 214.952 46.4147 215.213 46.9694 215.736C47.524 216.248 47.8014 216.973 47.8014 217.912V221.448C47.8014 221.768 47.9507 221.928 48.2494 221.928H48.9694V223H47.8654C47.5134 223 47.2307 222.904 47.0174 222.712C46.804 222.509 46.6974 222.243 46.6974 221.912V221.832H46.5054C46.388 222.035 46.228 222.248 46.0254 222.472C45.8334 222.685 45.5667 222.861 45.2254 223C44.884 223.149 44.4414 223.224 43.8974 223.224ZM44.0414 222.136C44.788 222.136 45.3907 221.917 45.8494 221.48C46.3187 221.032 46.5534 220.408 46.5534 219.608V219.432H43.9614C43.46 219.432 43.044 219.544 42.7134 219.768C42.3934 219.981 42.2334 220.307 42.2334 220.744C42.2334 221.181 42.3987 221.523 42.7294 221.768C43.0707 222.013 43.508 222.136 44.0414 222.136ZM53.8094 223.144C53.244 223.144 52.7214 223.021 52.2414 222.776C51.772 222.531 51.3987 222.168 51.1214 221.688C50.8547 221.197 50.7214 220.605 50.7214 219.912V215.176H51.9854V219.816C51.9854 220.595 52.1774 221.16 52.5614 221.512C52.956 221.864 53.484 222.04 54.1454 222.04C54.892 222.04 55.5054 221.795 55.9854 221.304C56.4654 220.813 56.7054 220.083 56.7054 219.112V215.176H57.9694V223H56.7374V221.672H56.5134C56.3427 222.045 56.0494 222.387 55.6334 222.696C55.2174 222.995 54.6094 223.144 53.8094 223.144ZM63.8142 223C63.3662 223 63.0196 222.877 62.7742 222.632C62.5396 222.387 62.4222 222.051 62.4222 221.624V216.28H60.0702V215.176H62.4222V212.392H63.6862V215.176H66.2462V216.28H63.6862V221.432C63.6862 221.752 63.8409 221.912 64.1502 221.912H65.8942V223H63.8142ZM71.9484 223.224C71.159 223.224 70.4604 223.059 69.8524 222.728C69.255 222.397 68.7857 221.933 68.4444 221.336C68.1137 220.728 67.9484 220.013 67.9484 219.192V218.984C67.9484 218.173 68.1137 217.464 68.4444 216.856C68.7857 216.248 69.255 215.779 69.8524 215.448C70.4604 215.117 71.159 214.952 71.9484 214.952C72.7377 214.952 73.431 215.117 74.0284 215.448C74.6364 215.779 75.1057 216.248 75.4364 216.856C75.7777 217.464 75.9484 218.173 75.9484 218.984V219.192C75.9484 220.013 75.7777 220.728 75.4364 221.336C75.1057 221.933 74.6364 222.397 74.0284 222.728C73.431 223.059 72.7377 223.224 71.9484 223.224ZM71.9484 222.088C72.7804 222.088 73.4417 221.827 73.9324 221.304C74.4337 220.771 74.6844 220.056 74.6844 219.16V219.016C74.6844 218.12 74.4337 217.411 73.9324 216.888C73.4417 216.355 72.7804 216.088 71.9484 216.088C71.127 216.088 70.4657 216.355 69.9644 216.888C69.463 217.411 69.2124 218.12 69.2124 219.016V219.16C69.2124 220.056 69.463 220.771 69.9644 221.304C70.4657 221.827 71.127 222.088 71.9484 222.088ZM78.543 223V215.176H79.775V216.152H79.999C80.1483 215.875 80.3937 215.619 80.735 215.384C81.0763 215.149 81.5563 215.032 82.175 215.032C82.783 215.032 83.2737 215.165 83.647 215.432C84.031 215.699 84.3083 216.024 84.479 216.408H84.703C84.8843 216.024 85.1563 215.699 85.519 215.432C85.8923 215.165 86.4097 215.032 87.071 215.032C87.5937 215.032 88.0523 215.139 88.447 215.352C88.8417 215.565 89.151 215.875 89.375 216.28C89.6097 216.675 89.727 217.149 89.727 217.704V223H88.463V217.816C88.463 217.293 88.3083 216.883 87.999 216.584C87.7003 216.275 87.279 216.12 86.735 216.12C86.159 216.12 85.6843 216.307 85.311 216.68C84.9483 217.053 84.767 217.592 84.767 218.296V223H83.503V217.816C83.503 217.293 83.3483 216.883 83.039 216.584C82.7403 216.275 82.319 216.12 81.775 216.12C81.199 216.12 80.7243 216.307 80.351 216.68C79.9883 217.053 79.807 217.592 79.807 218.296V223H78.543ZM95.0286 223.224C94.4846 223.224 93.9886 223.128 93.5406 222.936C93.0926 222.744 92.7406 222.467 92.4846 222.104C92.2286 221.741 92.1006 221.299 92.1006 220.776C92.1006 220.243 92.2286 219.805 92.4846 219.464C92.7406 219.112 93.0926 218.851 93.5406 218.68C93.9886 218.499 94.49 218.408 95.0446 218.408H97.6846V217.832C97.6846 217.277 97.5193 216.84 97.1886 216.52C96.8686 216.2 96.3886 216.04 95.7486 216.04C95.1193 216.04 94.6286 216.195 94.2766 216.504C93.9246 216.803 93.6846 217.208 93.5566 217.72L92.3726 217.336C92.5006 216.899 92.7033 216.504 92.9806 216.152C93.258 215.789 93.626 215.501 94.0846 215.288C94.554 215.064 95.114 214.952 95.7646 214.952C96.7673 214.952 97.546 215.213 98.1006 215.736C98.6553 216.248 98.9326 216.973 98.9326 217.912V221.448C98.9326 221.768 99.082 221.928 99.3806 221.928H100.101V223H98.9966C98.6446 223 98.362 222.904 98.1486 222.712C97.9353 222.509 97.8286 222.243 97.8286 221.912V221.832H97.6366C97.5193 222.035 97.3593 222.248 97.1566 222.472C96.9646 222.685 96.698 222.861 96.3566 223C96.0153 223.149 95.5726 223.224 95.0286 223.224ZM95.1726 222.136C95.9193 222.136 96.522 221.917 96.9806 221.48C97.45 221.032 97.6846 220.408 97.6846 219.608V219.432H95.0926C94.5913 219.432 94.1753 219.544 93.8446 219.768C93.5246 219.981 93.3646 220.307 93.3646 220.744C93.3646 221.181 93.53 221.523 93.8606 221.768C94.202 222.013 94.6393 222.136 95.1726 222.136ZM104.516 223C104.068 223 103.721 222.877 103.476 222.632C103.241 222.387 103.124 222.051 103.124 221.624V216.28H100.772V215.176H103.124V212.392H104.388V215.176H106.948V216.28H104.388V221.432C104.388 221.752 104.543 221.912 104.852 221.912H106.596V223H104.516ZM109.315 223V215.176H110.579V223H109.315ZM109.955 213.96C109.678 213.96 109.443 213.869 109.251 213.688C109.07 213.507 108.979 213.277 108.979 213C108.979 212.712 109.07 212.477 109.251 212.296C109.443 212.115 109.678 212.024 109.955 212.024C110.233 212.024 110.462 212.115 110.643 212.296C110.825 212.477 110.915 212.712 110.915 213C110.915 213.277 110.825 213.507 110.643 213.688C110.462 213.869 110.233 213.96 109.955 213.96ZM117.157 223.224C116.4 223.224 115.717 223.064 115.109 222.744C114.512 222.413 114.037 221.944 113.685 221.336C113.344 220.728 113.173 220.008 113.173 219.176V219C113.173 218.157 113.344 217.437 113.685 216.84C114.037 216.232 114.512 215.768 115.109 215.448C115.717 215.117 116.4 214.952 117.157 214.952C117.904 214.952 118.539 215.091 119.061 215.368C119.595 215.645 120.011 216.013 120.309 216.472C120.619 216.931 120.816 217.421 120.901 217.944L119.669 218.2C119.616 217.816 119.488 217.464 119.285 217.144C119.093 216.824 118.821 216.568 118.469 216.376C118.117 216.184 117.685 216.088 117.173 216.088C116.651 216.088 116.181 216.205 115.765 216.44C115.36 216.675 115.035 217.011 114.789 217.448C114.555 217.885 114.437 218.408 114.437 219.016V219.16C114.437 219.768 114.555 220.291 114.789 220.728C115.035 221.165 115.36 221.501 115.765 221.736C116.181 221.971 116.651 222.088 117.173 222.088C117.952 222.088 118.544 221.885 118.949 221.48C119.365 221.075 119.621 220.573 119.717 219.976L120.965 220.248C120.848 220.76 120.635 221.245 120.325 221.704C120.016 222.163 119.595 222.531 119.061 222.808C118.539 223.085 117.904 223.224 117.157 223.224ZM125.84 223.224C125.296 223.224 124.8 223.128 124.352 222.936C123.904 222.744 123.552 222.467 123.296 222.104C123.04 221.741 122.912 221.299 122.912 220.776C122.912 220.243 123.04 219.805 123.296 219.464C123.552 219.112 123.904 218.851 124.352 218.68C124.8 218.499 125.301 218.408 125.856 218.408H128.496V217.832C128.496 217.277 128.331 216.84 128 216.52C127.68 216.2 127.2 216.04 126.56 216.04C125.931 216.04 125.44 216.195 125.088 216.504C124.736 216.803 124.496 217.208 124.368 217.72L123.184 217.336C123.312 216.899 123.515 216.504 123.792 216.152C124.069 215.789 124.437 215.501 124.896 215.288C125.365 215.064 125.925 214.952 126.576 214.952C127.579 214.952 128.357 215.213 128.912 215.736C129.467 216.248 129.744 216.973 129.744 217.912V221.448C129.744 221.768 129.893 221.928 130.192 221.928H130.912V223H129.808C129.456 223 129.173 222.904 128.96 222.712C128.747 222.509 128.64 222.243 128.64 221.912V221.832H128.448C128.331 222.035 128.171 222.248 127.968 222.472C127.776 222.685 127.509 222.861 127.168 223C126.827 223.149 126.384 223.224 125.84 223.224ZM125.984 222.136C126.731 222.136 127.333 221.917 127.792 221.48C128.261 221.032 128.496 220.408 128.496 219.608V219.432H125.904C125.403 219.432 124.987 219.544 124.656 219.768C124.336 219.981 124.176 220.307 124.176 220.744C124.176 221.181 124.341 221.523 124.672 221.768C125.013 222.013 125.451 222.136 125.984 222.136ZM132.963 223V211.8H134.227V223H132.963ZM137.205 223V211.8H138.469V223H137.205ZM142.391 226.2V225.08H146.871C147.18 225.08 147.335 224.92 147.335 224.6V221.752H147.111C147.004 221.976 146.839 222.2 146.615 222.424C146.401 222.637 146.119 222.813 145.767 222.952C145.415 223.08 144.972 223.144 144.439 223.144C143.873 223.144 143.351 223.021 142.871 222.776C142.401 222.531 142.028 222.168 141.751 221.688C141.484 221.208 141.351 220.621 141.351 219.928V215.176H142.615V219.832C142.615 220.6 142.807 221.16 143.191 221.512C143.585 221.864 144.113 222.04 144.775 222.04C145.521 222.04 146.135 221.795 146.615 221.304C147.095 220.813 147.335 220.083 147.335 219.112V215.176H148.599V224.824C148.599 225.251 148.476 225.587 148.231 225.832C147.996 226.077 147.649 226.2 147.191 226.2H142.391ZM157.529 223V216.28H155.129V215.176H157.529V213.176C157.529 212.749 157.646 212.413 157.881 212.168C158.126 211.923 158.473 211.8 158.921 211.8H160.889V212.888H159.273C158.953 212.888 158.793 213.048 158.793 213.368V215.176H161.257V216.28H158.793V223H157.529ZM165.651 223.224C165.107 223.224 164.611 223.128 164.163 222.936C163.715 222.744 163.363 222.467 163.107 222.104C162.851 221.741 162.723 221.299 162.723 220.776C162.723 220.243 162.851 219.805 163.107 219.464C163.363 219.112 163.715 218.851 164.163 218.68C164.611 218.499 165.112 218.408 165.667 218.408H168.307V217.832C168.307 217.277 168.141 216.84 167.811 216.52C167.491 216.2 167.011 216.04 166.371 216.04C165.741 216.04 165.251 216.195 164.899 216.504C164.547 216.803 164.307 217.208 164.179 217.72L162.995 217.336C163.123 216.899 163.325 216.504 163.603 216.152C163.88 215.789 164.248 215.501 164.707 215.288C165.176 215.064 165.736 214.952 166.387 214.952C167.389 214.952 168.168 215.213 168.723 215.736C169.277 216.248 169.555 216.973 169.555 217.912V221.448C169.555 221.768 169.704 221.928 170.003 221.928H170.723V223H169.619C169.267 223 168.984 222.904 168.771 222.712C168.557 222.509 168.451 222.243 168.451 221.912V221.832H168.259C168.141 222.035 167.981 222.248 167.779 222.472C167.587 222.685 167.32 222.861 166.979 223C166.637 223.149 166.195 223.224 165.651 223.224ZM165.795 222.136C166.541 222.136 167.144 221.917 167.603 221.48C168.072 221.032 168.307 220.408 168.307 219.608V219.432H165.715C165.213 219.432 164.797 219.544 164.467 219.768C164.147 219.981 163.987 220.307 163.987 220.744C163.987 221.181 164.152 221.523 164.483 221.768C164.824 222.013 165.261 222.136 165.795 222.136ZM172.774 223V215.176H174.006V216.136H174.23C174.368 215.795 174.582 215.544 174.87 215.384C175.158 215.224 175.536 215.144 176.006 215.144H176.934V216.296H175.926C175.36 216.296 174.902 216.456 174.55 216.776C174.208 217.085 174.038 217.571 174.038 218.232V223H172.774ZM179.125 223V215.176H180.357V216.152H180.581C180.73 215.875 180.976 215.619 181.317 215.384C181.658 215.149 182.138 215.032 182.757 215.032C183.365 215.032 183.856 215.165 184.229 215.432C184.613 215.699 184.89 216.024 185.061 216.408H185.285C185.466 216.024 185.738 215.699 186.101 215.432C186.474 215.165 186.992 215.032 187.653 215.032C188.176 215.032 188.634 215.139 189.029 215.352C189.424 215.565 189.733 215.875 189.957 216.28C190.192 216.675 190.309 217.149 190.309 217.704V223H189.045V217.816C189.045 217.293 188.89 216.883 188.581 216.584C188.282 216.275 187.861 216.12 187.317 216.12C186.741 216.12 186.266 216.307 185.893 216.68C185.53 217.053 185.349 217.592 185.349 218.296V223H184.085V217.816C184.085 217.293 183.93 216.883 183.621 216.584C183.322 216.275 182.901 216.12 182.357 216.12C181.781 216.12 181.306 216.307 180.933 216.68C180.57 217.053 180.389 217.592 180.389 218.296V223H179.125ZM200.04 223.224C199.496 223.224 199 223.128 198.552 222.936C198.104 222.744 197.752 222.467 197.496 222.104C197.24 221.741 197.112 221.299 197.112 220.776C197.112 220.243 197.24 219.805 197.496 219.464C197.752 219.112 198.104 218.851 198.552 218.68C199 218.499 199.501 218.408 200.056 218.408H202.696V217.832C202.696 217.277 202.531 216.84 202.2 216.52C201.88 216.2 201.4 216.04 200.76 216.04C200.131 216.04 199.64 216.195 199.288 216.504C198.936 216.803 198.696 217.208 198.568 217.72L197.384 217.336C197.512 216.899 197.715 216.504 197.992 216.152C198.269 215.789 198.637 215.501 199.096 215.288C199.565 215.064 200.125 214.952 200.776 214.952C201.779 214.952 202.557 215.213 203.112 215.736C203.667 216.248 203.944 216.973 203.944 217.912V221.448C203.944 221.768 204.093 221.928 204.392 221.928H205.112V223H204.008C203.656 223 203.373 222.904 203.16 222.712C202.947 222.509 202.84 222.243 202.84 221.912V221.832H202.648C202.531 222.035 202.371 222.248 202.168 222.472C201.976 222.685 201.709 222.861 201.368 223C201.027 223.149 200.584 223.224 200.04 223.224ZM200.184 222.136C200.931 222.136 201.533 221.917 201.992 221.48C202.461 221.032 202.696 220.408 202.696 219.608V219.432H200.104C199.603 219.432 199.187 219.544 198.856 219.768C198.536 219.981 198.376 220.307 198.376 220.744C198.376 221.181 198.541 221.523 198.872 221.768C199.213 222.013 199.651 222.136 200.184 222.136ZM207.163 223V215.176H208.427V223H207.163ZM207.803 213.96C207.526 213.96 207.291 213.869 207.099 213.688C206.918 213.507 206.827 213.277 206.827 213C206.827 212.712 206.918 212.477 207.099 212.296C207.291 212.115 207.526 212.024 207.803 212.024C208.08 212.024 208.31 212.115 208.491 212.296C208.672 212.477 208.763 212.712 208.763 213C208.763 213.277 208.672 213.507 208.491 213.688C208.31 213.869 208.08 213.96 207.803 213.96ZM211.405 223V215.176H212.637V216.136H212.861C213 215.795 213.213 215.544 213.501 215.384C213.789 215.224 214.168 215.144 214.637 215.144H215.565V216.296H214.557C213.992 216.296 213.533 216.456 213.181 216.776C212.84 217.085 212.669 217.571 212.669 218.232V223H211.405ZM220.787 223.224C220.115 223.224 219.496 223.064 218.931 222.744C218.366 222.424 217.918 221.96 217.587 221.352C217.256 220.744 217.091 220.024 217.091 219.192V218.984C217.091 218.152 217.256 217.437 217.587 216.84C217.918 216.232 218.36 215.768 218.915 215.448C219.48 215.117 220.104 214.952 220.787 214.952C221.331 214.952 221.79 215.027 222.163 215.176C222.547 215.315 222.856 215.496 223.091 215.72C223.326 215.933 223.507 216.163 223.635 216.408H223.859V211.8H225.123V223H223.891V221.704H223.667C223.454 222.099 223.123 222.451 222.675 222.76C222.227 223.069 221.598 223.224 220.787 223.224ZM221.123 222.104C221.934 222.104 222.59 221.848 223.091 221.336C223.603 220.813 223.859 220.088 223.859 219.16V219.016C223.859 218.088 223.603 217.368 223.091 216.856C222.59 216.333 221.934 216.072 221.123 216.072C220.323 216.072 219.662 216.333 219.139 216.856C218.627 217.368 218.371 218.088 218.371 219.016V219.16C218.371 220.088 218.627 220.813 219.139 221.336C219.662 221.848 220.323 222.104 221.123 222.104ZM228.092 223V215.176H229.324V216.136H229.548C229.686 215.795 229.9 215.544 230.188 215.384C230.476 215.224 230.854 215.144 231.324 215.144H232.252V216.296H231.244C230.678 216.296 230.22 216.456 229.868 216.776C229.526 217.085 229.356 217.571 229.356 218.232V223H228.092ZM237.778 223.224C236.988 223.224 236.29 223.059 235.682 222.728C235.084 222.397 234.615 221.933 234.274 221.336C233.943 220.728 233.778 220.013 233.778 219.192V218.984C233.778 218.173 233.943 217.464 234.274 216.856C234.615 216.248 235.084 215.779 235.682 215.448C236.29 215.117 236.988 214.952 237.778 214.952C238.567 214.952 239.26 215.117 239.858 215.448C240.466 215.779 240.935 216.248 241.266 216.856C241.607 217.464 241.778 218.173 241.778 218.984V219.192C241.778 220.013 241.607 220.728 241.266 221.336C240.935 221.933 240.466 222.397 239.858 222.728C239.26 223.059 238.567 223.224 237.778 223.224ZM237.778 222.088C238.61 222.088 239.271 221.827 239.762 221.304C240.263 220.771 240.514 220.056 240.514 219.16V219.016C240.514 218.12 240.263 217.411 239.762 216.888C239.271 216.355 238.61 216.088 237.778 216.088C236.956 216.088 236.295 216.355 235.794 216.888C235.292 217.411 235.042 218.12 235.042 219.016V219.16C235.042 220.056 235.292 220.771 235.794 221.304C236.295 221.827 236.956 222.088 237.778 222.088ZM244.372 226.2V215.176H245.604V216.472H245.828C246.031 216.077 246.356 215.725 246.804 215.416C247.263 215.107 247.898 214.952 248.708 214.952C249.38 214.952 249.994 215.117 250.548 215.448C251.114 215.768 251.562 216.227 251.892 216.824C252.234 217.421 252.404 218.141 252.404 218.984V219.192C252.404 220.024 252.239 220.744 251.908 221.352C251.578 221.96 251.13 222.424 250.564 222.744C250.01 223.064 249.391 223.224 248.708 223.224C248.164 223.224 247.7 223.149 247.316 223C246.943 222.861 246.639 222.68 246.404 222.456C246.17 222.232 245.988 222.003 245.86 221.768H245.636V226.2H244.372ZM248.372 222.104C249.183 222.104 249.839 221.848 250.34 221.336C250.852 220.813 251.108 220.088 251.108 219.16V219.016C251.108 218.088 250.852 217.368 250.34 216.856C249.839 216.333 249.183 216.072 248.372 216.072C247.572 216.072 246.911 216.333 246.388 216.856C245.876 217.368 245.62 218.088 245.62 219.016V219.16C245.62 220.088 245.876 220.813 246.388 221.336C246.911 221.848 247.572 222.104 248.372 222.104ZM258.141 223.224C257.171 223.224 256.349 223 255.677 222.552C255.016 222.104 254.616 221.395 254.477 220.424L255.677 220.152C255.763 220.664 255.923 221.069 256.157 221.368C256.392 221.656 256.68 221.864 257.021 221.992C257.373 222.109 257.747 222.168 258.141 222.168C258.728 222.168 259.192 222.051 259.533 221.816C259.875 221.581 260.045 221.267 260.045 220.872C260.045 220.467 259.88 220.184 259.549 220.024C259.229 219.853 258.787 219.715 258.221 219.608L257.565 219.496C257.064 219.411 256.605 219.277 256.189 219.096C255.773 218.915 255.443 218.669 255.197 218.36C254.952 218.051 254.829 217.661 254.829 217.192C254.829 216.488 255.101 215.939 255.645 215.544C256.189 215.149 256.909 214.952 257.805 214.952C258.691 214.952 259.405 215.155 259.949 215.56C260.504 215.955 260.861 216.515 261.021 217.24L259.837 217.544C259.741 216.979 259.512 216.584 259.149 216.36C258.787 216.125 258.339 216.008 257.805 216.008C257.272 216.008 256.851 216.109 256.541 216.312C256.232 216.504 256.077 216.792 256.077 217.176C256.077 217.549 256.221 217.827 256.509 218.008C256.808 218.179 257.203 218.307 257.693 218.392L258.349 218.504C258.904 218.6 259.4 218.733 259.837 218.904C260.285 219.064 260.637 219.299 260.893 219.608C261.16 219.917 261.293 220.323 261.293 220.824C261.293 221.592 261.005 222.184 260.429 222.6C259.864 223.016 259.101 223.224 258.141 223.224ZM270.576 223.224C270.032 223.224 269.536 223.128 269.088 222.936C268.64 222.744 268.288 222.467 268.032 222.104C267.776 221.741 267.648 221.299 267.648 220.776C267.648 220.243 267.776 219.805 268.032 219.464C268.288 219.112 268.64 218.851 269.088 218.68C269.536 218.499 270.037 218.408 270.592 218.408H273.232V217.832C273.232 217.277 273.067 216.84 272.736 216.52C272.416 216.2 271.936 216.04 271.296 216.04C270.667 216.04 270.176 216.195 269.824 216.504C269.472 216.803 269.232 217.208 269.104 217.72L267.92 217.336C268.048 216.899 268.251 216.504 268.528 216.152C268.805 215.789 269.173 215.501 269.632 215.288C270.101 215.064 270.661 214.952 271.312 214.952C272.315 214.952 273.093 215.213 273.648 215.736C274.203 216.248 274.48 216.973 274.48 217.912V221.448C274.48 221.768 274.629 221.928 274.928 221.928H275.648V223H274.544C274.192 223 273.909 222.904 273.696 222.712C273.483 222.509 273.376 222.243 273.376 221.912V221.832H273.184C273.067 222.035 272.907 222.248 272.704 222.472C272.512 222.685 272.245 222.861 271.904 223C271.563 223.149 271.12 223.224 270.576 223.224ZM270.72 222.136C271.467 222.136 272.069 221.917 272.528 221.48C272.997 221.032 273.232 220.408 273.232 219.608V219.432H270.64C270.139 219.432 269.723 219.544 269.392 219.768C269.072 219.981 268.912 220.307 268.912 220.744C268.912 221.181 269.077 221.523 269.408 221.768C269.749 222.013 270.187 222.136 270.72 222.136ZM281.08 223.224C280.323 223.224 279.64 223.064 279.032 222.744C278.435 222.413 277.96 221.944 277.608 221.336C277.267 220.728 277.096 220.008 277.096 219.176V219C277.096 218.157 277.267 217.437 277.608 216.84C277.96 216.232 278.435 215.768 279.032 215.448C279.64 215.117 280.323 214.952 281.08 214.952C281.827 214.952 282.462 215.091 282.984 215.368C283.518 215.645 283.934 216.013 284.232 216.472C284.542 216.931 284.739 217.421 284.824 217.944L283.592 218.2C283.539 217.816 283.411 217.464 283.208 217.144C283.016 216.824 282.744 216.568 282.392 216.376C282.04 216.184 281.608 216.088 281.096 216.088C280.574 216.088 280.104 216.205 279.688 216.44C279.283 216.675 278.958 217.011 278.712 217.448C278.478 217.885 278.36 218.408 278.36 219.016V219.16C278.36 219.768 278.478 220.291 278.712 220.728C278.958 221.165 279.283 221.501 279.688 221.736C280.104 221.971 280.574 222.088 281.096 222.088C281.875 222.088 282.467 221.885 282.872 221.48C283.288 221.075 283.544 220.573 283.64 219.976L284.888 220.248C284.771 220.76 284.558 221.245 284.248 221.704C283.939 222.163 283.518 222.531 282.984 222.808C282.462 223.085 281.827 223.224 281.08 223.224ZM287.363 223V215.176H288.595V216.136H288.819C288.958 215.795 289.171 215.544 289.459 215.384C289.747 215.224 290.126 215.144 290.595 215.144H291.523V216.296H290.515C289.95 216.296 289.491 216.456 289.139 216.776C288.798 217.085 288.627 217.571 288.627 218.232V223H287.363ZM297.049 223.224C296.26 223.224 295.561 223.059 294.953 222.728C294.356 222.397 293.886 221.933 293.545 221.336C293.214 220.728 293.049 220.013 293.049 219.192V218.984C293.049 218.173 293.214 217.464 293.545 216.856C293.886 216.248 294.356 215.779 294.953 215.448C295.561 215.117 296.26 214.952 297.049 214.952C297.838 214.952 298.532 215.117 299.129 215.448C299.737 215.779 300.206 216.248 300.537 216.856C300.878 217.464 301.049 218.173 301.049 218.984V219.192C301.049 220.013 300.878 220.728 300.537 221.336C300.206 221.933 299.737 222.397 299.129 222.728C298.532 223.059 297.838 223.224 297.049 223.224ZM297.049 222.088C297.881 222.088 298.542 221.827 299.033 221.304C299.534 220.771 299.785 220.056 299.785 219.16V219.016C299.785 218.12 299.534 217.411 299.033 216.888C298.542 216.355 297.881 216.088 297.049 216.088C296.228 216.088 295.566 216.355 295.065 216.888C294.564 217.411 294.313 218.12 294.313 219.016V219.16C294.313 220.056 294.564 220.771 295.065 221.304C295.566 221.827 296.228 222.088 297.049 222.088ZM306.796 223.224C305.825 223.224 305.004 223 304.332 222.552C303.67 222.104 303.27 221.395 303.132 220.424L304.332 220.152C304.417 220.664 304.577 221.069 304.812 221.368C305.046 221.656 305.334 221.864 305.676 221.992C306.028 222.109 306.401 222.168 306.796 222.168C307.382 222.168 307.846 222.051 308.188 221.816C308.529 221.581 308.7 221.267 308.7 220.872C308.7 220.467 308.534 220.184 308.204 220.024C307.884 219.853 307.441 219.715 306.876 219.608L306.22 219.496C305.718 219.411 305.26 219.277 304.844 219.096C304.428 218.915 304.097 218.669 303.852 218.36C303.606 218.051 303.484 217.661 303.484 217.192C303.484 216.488 303.756 215.939 304.3 215.544C304.844 215.149 305.564 214.952 306.46 214.952C307.345 214.952 308.06 215.155 308.604 215.56C309.158 215.955 309.516 216.515 309.676 217.24L308.492 217.544C308.396 216.979 308.166 216.584 307.804 216.36C307.441 216.125 306.993 216.008 306.46 216.008C305.926 216.008 305.505 216.109 305.196 216.312C304.886 216.504 304.732 216.792 304.732 217.176C304.732 217.549 304.876 217.827 305.164 218.008C305.462 218.179 305.857 218.307 306.348 218.392L307.004 218.504C307.558 218.6 308.054 218.733 308.492 218.904C308.94 219.064 309.292 219.299 309.548 219.608C309.814 219.917 309.948 220.323 309.948 220.824C309.948 221.592 309.66 222.184 309.084 222.6C308.518 223.016 307.756 223.224 306.796 223.224ZM315.553 223.224C314.582 223.224 313.761 223 313.089 222.552C312.428 222.104 312.028 221.395 311.889 220.424L313.089 220.152C313.174 220.664 313.334 221.069 313.569 221.368C313.804 221.656 314.092 221.864 314.433 221.992C314.785 222.109 315.158 222.168 315.553 222.168C316.14 222.168 316.604 222.051 316.945 221.816C317.286 221.581 317.457 221.267 317.457 220.872C317.457 220.467 317.292 220.184 316.961 220.024C316.641 219.853 316.198 219.715 315.633 219.608L314.977 219.496C314.476 219.411 314.017 219.277 313.601 219.096C313.185 218.915 312.854 218.669 312.609 218.36C312.364 218.051 312.241 217.661 312.241 217.192C312.241 216.488 312.513 215.939 313.057 215.544C313.601 215.149 314.321 214.952 315.217 214.952C316.102 214.952 316.817 215.155 317.361 215.56C317.916 215.955 318.273 216.515 318.433 217.24L317.249 217.544C317.153 216.979 316.924 216.584 316.561 216.36C316.198 216.125 315.75 216.008 315.217 216.008C314.684 216.008 314.262 216.109 313.953 216.312C313.644 216.504 313.489 216.792 313.489 217.176C313.489 217.549 313.633 217.827 313.921 218.008C314.22 218.179 314.614 218.307 315.105 218.392L315.761 218.504C316.316 218.6 316.812 218.733 317.249 218.904C317.697 219.064 318.049 219.299 318.305 219.608C318.572 219.917 318.705 220.323 318.705 220.824C318.705 221.592 318.417 222.184 317.841 222.6C317.276 223.016 316.513 223.224 315.553 223.224ZM50.2467 255V247.176H51.4787V248.152H51.7027C51.8521 247.875 52.0974 247.619 52.4387 247.384C52.7801 247.149 53.2601 247.032 53.8787 247.032C54.4867 247.032 54.9774 247.165 55.3507 247.432C55.7347 247.699 56.0121 248.024 56.1827 248.408H56.4067C56.5881 248.024 56.8601 247.699 57.2227 247.432C57.5961 247.165 58.1134 247.032 58.7747 247.032C59.2974 247.032 59.7561 247.139 60.1507 247.352C60.5454 247.565 60.8547 247.875 61.0787 248.28C61.3134 248.675 61.4307 249.149 61.4307 249.704V255H60.1667V249.816C60.1667 249.293 60.0121 248.883 59.7027 248.584C59.4041 248.275 58.9827 248.12 58.4387 248.12C57.8627 248.12 57.3881 248.307 57.0147 248.68C56.6521 249.053 56.4707 249.592 56.4707 250.296V255H55.2067V249.816C55.2067 249.293 55.0521 248.883 54.7427 248.584C54.4441 248.275 54.0227 248.12 53.4787 248.12C52.9027 248.12 52.4281 248.307 52.0547 248.68C51.6921 249.053 51.5107 249.592 51.5107 250.296V255H50.2467ZM67.1994 255.144C66.634 255.144 66.1114 255.021 65.6314 254.776C65.162 254.531 64.7887 254.168 64.5114 253.688C64.2447 253.197 64.1114 252.605 64.1114 251.912V247.176H65.3754V251.816C65.3754 252.595 65.5674 253.16 65.9514 253.512C66.346 253.864 66.874 254.04 67.5354 254.04C68.282 254.04 68.8954 253.795 69.3754 253.304C69.8554 252.813 70.0954 252.083 70.0954 251.112V247.176H71.3594V255H70.1274V253.672H69.9034C69.7327 254.045 69.4394 254.387 69.0234 254.696C68.6074 254.995 67.9994 255.144 67.1994 255.144ZM74.3242 255V243.8H75.5882V255H74.3242ZM81.4461 255C80.9981 255 80.6515 254.877 80.4061 254.632C80.1715 254.387 80.0541 254.051 80.0541 253.624V248.28H77.7021V247.176H80.0541V244.392H81.3181V247.176H83.8781V248.28H81.3181V253.432C81.3181 253.752 81.4728 253.912 81.7821 253.912H83.5261V255H81.4461ZM86.2455 255V247.176H87.5095V255H86.2455ZM86.8855 245.96C86.6082 245.96 86.3735 245.869 86.1815 245.688C86.0002 245.507 85.9095 245.277 85.9095 245C85.9095 244.712 86.0002 244.477 86.1815 244.296C86.3735 244.115 86.6082 244.024 86.8855 244.024C87.1628 244.024 87.3922 244.115 87.5735 244.296C87.7548 244.477 87.8455 244.712 87.8455 245C87.8455 245.277 87.7548 245.507 87.5735 245.688C87.3922 245.869 87.1628 245.96 86.8855 245.96ZM90.4874 258.2V247.176H91.7194V248.472H91.9434C92.146 248.077 92.4714 247.725 92.9194 247.416C93.378 247.107 94.0127 246.952 94.8234 246.952C95.4954 246.952 96.1087 247.117 96.6634 247.448C97.2287 247.768 97.6767 248.227 98.0074 248.824C98.3487 249.421 98.5194 250.141 98.5194 250.984V251.192C98.5194 252.024 98.354 252.744 98.0234 253.352C97.6927 253.96 97.2447 254.424 96.6794 254.744C96.1247 255.064 95.506 255.224 94.8234 255.224C94.2794 255.224 93.8154 255.149 93.4314 255C93.058 254.861 92.754 254.68 92.5194 254.456C92.2847 254.232 92.1034 254.003 91.9754 253.768H91.7514V258.2H90.4874ZM94.4874 254.104C95.298 254.104 95.954 253.848 96.4554 253.336C96.9674 252.813 97.2234 252.088 97.2234 251.16V251.016C97.2234 250.088 96.9674 249.368 96.4554 248.856C95.954 248.333 95.298 248.072 94.4874 248.072C93.6874 248.072 93.026 248.333 92.5034 248.856C91.9914 249.368 91.7354 250.088 91.7354 251.016V251.16C91.7354 252.088 91.9914 252.813 92.5034 253.336C93.026 253.848 93.6874 254.104 94.4874 254.104ZM101.104 255V243.8H102.368V255H101.104ZM108.93 255.224C108.141 255.224 107.447 255.059 106.85 254.728C106.253 254.387 105.789 253.912 105.458 253.304C105.127 252.696 104.962 251.992 104.962 251.192V251C104.962 250.189 105.127 249.48 105.458 248.872C105.789 248.264 106.247 247.795 106.834 247.464C107.421 247.123 108.093 246.952 108.85 246.952C109.586 246.952 110.237 247.112 110.802 247.432C111.367 247.741 111.81 248.189 112.13 248.776C112.45 249.363 112.61 250.051 112.61 250.84V251.416H106.226C106.258 252.259 106.53 252.92 107.042 253.4C107.554 253.869 108.194 254.104 108.962 254.104C109.634 254.104 110.151 253.949 110.514 253.64C110.877 253.331 111.154 252.963 111.346 252.536L112.434 253.064C112.274 253.395 112.05 253.725 111.762 254.056C111.485 254.387 111.117 254.664 110.658 254.888C110.21 255.112 109.634 255.224 108.93 255.224ZM106.242 250.376H111.33C111.287 249.651 111.037 249.085 110.578 248.68C110.13 248.275 109.554 248.072 108.85 248.072C108.135 248.072 107.549 248.275 107.09 248.68C106.631 249.085 106.349 249.651 106.242 250.376ZM119.516 255V243.8H126.412V245.016H120.86V248.76H125.964V249.976H120.86V253.784H126.492V255H119.516ZM131.348 255L127.972 243.8H129.364L132.42 254.184H132.628L135.684 243.8H137.076L133.7 255H131.348ZM139.078 255V243.8H141.638L144.614 254.152H144.822L147.798 243.8H150.358V255H149.062V244.68H148.838L145.878 255H143.558L140.598 244.68H140.374V255H139.078ZM153.226 251.464V250.296H157.962V251.464H153.226ZM164.491 255.224C163.734 255.224 163.051 255.064 162.443 254.744C161.846 254.413 161.371 253.944 161.019 253.336C160.678 252.728 160.507 252.008 160.507 251.176V251C160.507 250.157 160.678 249.437 161.019 248.84C161.371 248.232 161.846 247.768 162.443 247.448C163.051 247.117 163.734 246.952 164.491 246.952C165.238 246.952 165.872 247.091 166.395 247.368C166.928 247.645 167.344 248.013 167.643 248.472C167.952 248.931 168.15 249.421 168.235 249.944L167.003 250.2C166.95 249.816 166.822 249.464 166.619 249.144C166.427 248.824 166.155 248.568 165.803 248.376C165.451 248.184 165.019 248.088 164.507 248.088C163.984 248.088 163.515 248.205 163.099 248.44C162.694 248.675 162.368 249.011 162.123 249.448C161.888 249.885 161.771 250.408 161.771 251.016V251.16C161.771 251.768 161.888 252.291 162.123 252.728C162.368 253.165 162.694 253.501 163.099 253.736C163.515 253.971 163.984 254.088 164.507 254.088C165.286 254.088 165.878 253.885 166.283 253.48C166.699 253.075 166.955 252.573 167.051 251.976L168.299 252.248C168.182 252.76 167.968 253.245 167.659 253.704C167.35 254.163 166.928 254.531 166.395 254.808C165.872 255.085 165.238 255.224 164.491 255.224ZM174.39 255.224C173.6 255.224 172.902 255.059 172.294 254.728C171.696 254.397 171.227 253.933 170.886 253.336C170.555 252.728 170.39 252.013 170.39 251.192V250.984C170.39 250.173 170.555 249.464 170.886 248.856C171.227 248.248 171.696 247.779 172.294 247.448C172.902 247.117 173.6 246.952 174.39 246.952C175.179 246.952 175.872 247.117 176.47 247.448C177.078 247.779 177.547 248.248 177.878 248.856C178.219 249.464 178.39 250.173 178.39 250.984V251.192C178.39 252.013 178.219 252.728 177.878 253.336C177.547 253.933 177.078 254.397 176.47 254.728C175.872 255.059 175.179 255.224 174.39 255.224ZM174.39 254.088C175.222 254.088 175.883 253.827 176.374 253.304C176.875 252.771 177.126 252.056 177.126 251.16V251.016C177.126 250.12 176.875 249.411 176.374 248.888C175.883 248.355 175.222 248.088 174.39 248.088C173.568 248.088 172.907 248.355 172.406 248.888C171.904 249.411 171.654 250.12 171.654 251.016V251.16C171.654 252.056 171.904 252.771 172.406 253.304C172.907 253.827 173.568 254.088 174.39 254.088ZM180.984 255V247.176H182.216V248.152H182.44C182.59 247.875 182.835 247.619 183.176 247.384C183.518 247.149 183.998 247.032 184.616 247.032C185.224 247.032 185.715 247.165 186.088 247.432C186.472 247.699 186.75 248.024 186.92 248.408H187.144C187.326 248.024 187.598 247.699 187.96 247.432C188.334 247.165 188.851 247.032 189.512 247.032C190.035 247.032 190.494 247.139 190.888 247.352C191.283 247.565 191.592 247.875 191.816 248.28C192.051 248.675 192.168 249.149 192.168 249.704V255H190.904V249.816C190.904 249.293 190.75 248.883 190.44 248.584C190.142 248.275 189.72 248.12 189.176 248.12C188.6 248.12 188.126 248.307 187.752 248.68C187.39 249.053 187.208 249.592 187.208 250.296V255H185.944V249.816C185.944 249.293 185.79 248.883 185.48 248.584C185.182 248.275 184.76 248.12 184.216 248.12C183.64 248.12 183.166 248.307 182.792 248.68C182.43 249.053 182.248 249.592 182.248 250.296V255H180.984ZM195.07 258.2V247.176H196.302V248.472H196.526C196.729 248.077 197.054 247.725 197.502 247.416C197.961 247.107 198.595 246.952 199.406 246.952C200.078 246.952 200.691 247.117 201.246 247.448C201.811 247.768 202.259 248.227 202.59 248.824C202.931 249.421 203.102 250.141 203.102 250.984V251.192C203.102 252.024 202.937 252.744 202.606 253.352C202.275 253.96 201.827 254.424 201.262 254.744C200.707 255.064 200.089 255.224 199.406 255.224C198.862 255.224 198.398 255.149 198.014 255C197.641 254.861 197.337 254.68 197.102 254.456C196.867 254.232 196.686 254.003 196.558 253.768H196.334V258.2H195.07ZM199.07 254.104C199.881 254.104 200.537 253.848 201.038 253.336C201.55 252.813 201.806 252.088 201.806 251.16V251.016C201.806 250.088 201.55 249.368 201.038 248.856C200.537 248.333 199.881 248.072 199.07 248.072C198.27 248.072 197.609 248.333 197.086 248.856C196.574 249.368 196.318 250.088 196.318 251.016V251.16C196.318 252.088 196.574 252.813 197.086 253.336C197.609 253.848 198.27 254.104 199.07 254.104ZM208.087 255.224C207.543 255.224 207.047 255.128 206.599 254.936C206.151 254.744 205.799 254.467 205.543 254.104C205.287 253.741 205.159 253.299 205.159 252.776C205.159 252.243 205.287 251.805 205.543 251.464C205.799 251.112 206.151 250.851 206.599 250.68C207.047 250.499 207.548 250.408 208.103 250.408H210.743V249.832C210.743 249.277 210.577 248.84 210.247 248.52C209.927 248.2 209.447 248.04 208.807 248.04C208.177 248.04 207.687 248.195 207.335 248.504C206.983 248.803 206.743 249.208 206.615 249.72L205.431 249.336C205.559 248.899 205.761 248.504 206.039 248.152C206.316 247.789 206.684 247.501 207.143 247.288C207.612 247.064 208.172 246.952 208.823 246.952C209.825 246.952 210.604 247.213 211.159 247.736C211.713 248.248 211.991 248.973 211.991 249.912V253.448C211.991 253.768 212.14 253.928 212.439 253.928H213.159V255H212.055C211.703 255 211.42 254.904 211.207 254.712C210.993 254.509 210.887 254.243 210.887 253.912V253.832H210.695C210.577 254.035 210.417 254.248 210.215 254.472C210.023 254.685 209.756 254.861 209.415 255C209.073 255.149 208.631 255.224 208.087 255.224ZM208.231 254.136C208.977 254.136 209.58 253.917 210.039 253.48C210.508 253.032 210.743 252.408 210.743 251.608V251.432H208.151C207.649 251.432 207.233 251.544 206.903 251.768C206.583 251.981 206.423 252.307 206.423 252.744C206.423 253.181 206.588 253.523 206.919 253.768C207.26 254.013 207.697 254.136 208.231 254.136ZM217.574 255C217.126 255 216.78 254.877 216.534 254.632C216.3 254.387 216.182 254.051 216.182 253.624V248.28H213.83V247.176H216.182V244.392H217.446V247.176H220.006V248.28H217.446V253.432C217.446 253.752 217.601 253.912 217.91 253.912H219.654V255H217.574ZM222.374 255V247.176H223.638V255H222.374ZM223.014 245.96C222.736 245.96 222.502 245.869 222.31 245.688C222.128 245.507 222.038 245.277 222.038 245C222.038 244.712 222.128 244.477 222.31 244.296C222.502 244.115 222.736 244.024 223.014 244.024C223.291 244.024 223.52 244.115 223.702 244.296C223.883 244.477 223.974 244.712 223.974 245C223.974 245.277 223.883 245.507 223.702 245.688C223.52 245.869 223.291 245.96 223.014 245.96ZM230.951 255.224C230.141 255.224 229.506 255.069 229.047 254.76C228.599 254.451 228.274 254.099 228.071 253.704H227.847V255H226.615V243.8H227.879V248.408H228.103C228.231 248.163 228.413 247.933 228.647 247.72C228.882 247.496 229.186 247.315 229.559 247.176C229.943 247.027 230.407 246.952 230.951 246.952C231.634 246.952 232.253 247.117 232.807 247.448C233.373 247.768 233.821 248.232 234.151 248.84C234.482 249.437 234.647 250.152 234.647 250.984V251.192C234.647 252.024 234.477 252.744 234.135 253.352C233.805 253.96 233.357 254.424 232.791 254.744C232.237 255.064 231.623 255.224 230.951 255.224ZM230.615 254.104C231.426 254.104 232.082 253.848 232.583 253.336C233.095 252.813 233.351 252.088 233.351 251.16V251.016C233.351 250.088 233.095 249.368 232.583 248.856C232.082 248.333 231.426 248.072 230.615 248.072C229.815 248.072 229.154 248.333 228.631 248.856C228.119 249.368 227.863 250.088 227.863 251.016V251.16C227.863 252.088 228.119 252.813 228.631 253.336C229.154 253.848 229.815 254.104 230.615 254.104ZM237.232 255V243.8H238.496V255H237.232ZM245.058 255.224C244.269 255.224 243.576 255.059 242.978 254.728C242.381 254.387 241.917 253.912 241.586 253.304C241.256 252.696 241.09 251.992 241.09 251.192V251C241.09 250.189 241.256 249.48 241.586 248.872C241.917 248.264 242.376 247.795 242.962 247.464C243.549 247.123 244.221 246.952 244.978 246.952C245.714 246.952 246.365 247.112 246.93 247.432C247.496 247.741 247.938 248.189 248.258 248.776C248.578 249.363 248.738 250.051 248.738 250.84V251.416H242.354C242.386 252.259 242.658 252.92 243.17 253.4C243.682 253.869 244.322 254.104 245.09 254.104C245.762 254.104 246.28 253.949 246.642 253.64C247.005 253.331 247.282 252.963 247.474 252.536L248.562 253.064C248.402 253.395 248.178 253.725 247.89 254.056C247.613 254.387 247.245 254.664 246.786 254.888C246.338 255.112 245.762 255.224 245.058 255.224ZM242.37 250.376H247.458C247.416 249.651 247.165 249.085 246.706 248.68C246.258 248.275 245.682 248.072 244.978 248.072C244.264 248.072 243.677 248.275 243.218 248.68C242.76 249.085 242.477 249.651 242.37 250.376ZM259.292 255.224C258.535 255.224 257.852 255.064 257.244 254.744C256.647 254.413 256.172 253.944 255.82 253.336C255.479 252.728 255.308 252.008 255.308 251.176V251C255.308 250.157 255.479 249.437 255.82 248.84C256.172 248.232 256.647 247.768 257.244 247.448C257.852 247.117 258.535 246.952 259.292 246.952C260.039 246.952 260.674 247.091 261.196 247.368C261.73 247.645 262.146 248.013 262.444 248.472C262.754 248.931 262.951 249.421 263.036 249.944L261.804 250.2C261.751 249.816 261.623 249.464 261.42 249.144C261.228 248.824 260.956 248.568 260.604 248.376C260.252 248.184 259.82 248.088 259.308 248.088C258.786 248.088 258.316 248.205 257.9 248.44C257.495 248.675 257.17 249.011 256.924 249.448C256.69 249.885 256.572 250.408 256.572 251.016V251.16C256.572 251.768 256.69 252.291 256.924 252.728C257.17 253.165 257.495 253.501 257.9 253.736C258.316 253.971 258.786 254.088 259.308 254.088C260.087 254.088 260.679 253.885 261.084 253.48C261.5 253.075 261.756 252.573 261.852 251.976L263.1 252.248C262.983 252.76 262.77 253.245 262.46 253.704C262.151 254.163 261.73 254.531 261.196 254.808C260.674 255.085 260.039 255.224 259.292 255.224ZM265.575 255V243.8H266.839V248.424H267.063C267.17 248.189 267.33 247.971 267.543 247.768C267.767 247.555 268.05 247.379 268.391 247.24C268.743 247.101 269.186 247.032 269.719 247.032C270.306 247.032 270.828 247.16 271.287 247.416C271.756 247.661 272.13 248.024 272.407 248.504C272.684 248.973 272.823 249.56 272.823 250.264V255H271.559V250.36C271.559 249.581 271.362 249.016 270.967 248.664C270.583 248.312 270.06 248.136 269.399 248.136C268.642 248.136 268.023 248.381 267.543 248.872C267.074 249.363 266.839 250.093 266.839 251.064V255H265.575ZM278.107 255.224C277.563 255.224 277.067 255.128 276.619 254.936C276.171 254.744 275.819 254.467 275.563 254.104C275.307 253.741 275.179 253.299 275.179 252.776C275.179 252.243 275.307 251.805 275.563 251.464C275.819 251.112 276.171 250.851 276.619 250.68C277.067 250.499 277.569 250.408 278.123 250.408H280.763V249.832C280.763 249.277 280.598 248.84 280.267 248.52C279.947 248.2 279.467 248.04 278.827 248.04C278.198 248.04 277.707 248.195 277.355 248.504C277.003 248.803 276.763 249.208 276.635 249.72L275.451 249.336C275.579 248.899 275.782 248.504 276.059 248.152C276.337 247.789 276.705 247.501 277.163 247.288C277.633 247.064 278.193 246.952 278.843 246.952C279.846 246.952 280.625 247.213 281.179 247.736C281.734 248.248 282.011 248.973 282.011 249.912V253.448C282.011 253.768 282.161 253.928 282.459 253.928H283.179V255H282.075C281.723 255 281.441 254.904 281.227 254.712C281.014 254.509 280.907 254.243 280.907 253.912V253.832H280.715C280.598 254.035 280.438 254.248 280.235 254.472C280.043 254.685 279.777 254.861 279.435 255C279.094 255.149 278.651 255.224 278.107 255.224ZM278.251 254.136C278.998 254.136 279.601 253.917 280.059 253.48C280.529 253.032 280.763 252.408 280.763 251.608V251.432H278.171C277.67 251.432 277.254 251.544 276.923 251.768C276.603 251.981 276.443 252.307 276.443 252.744C276.443 253.181 276.609 253.523 276.939 253.768C277.281 254.013 277.718 254.136 278.251 254.136ZM285.23 255V247.176H286.494V255H285.23ZM285.87 245.96C285.593 245.96 285.358 245.869 285.166 245.688C284.985 245.507 284.894 245.277 284.894 245C284.894 244.712 284.985 244.477 285.166 244.296C285.358 244.115 285.593 244.024 285.87 244.024C286.148 244.024 286.377 244.115 286.558 244.296C286.74 244.477 286.83 244.712 286.83 245C286.83 245.277 286.74 245.507 286.558 245.688C286.377 245.869 286.148 245.96 285.87 245.96ZM289.472 255V247.176H290.704V248.504H290.928C291.099 248.131 291.387 247.795 291.792 247.496C292.208 247.187 292.816 247.032 293.616 247.032C294.203 247.032 294.726 247.155 295.184 247.4C295.654 247.645 296.027 248.008 296.304 248.488C296.582 248.968 296.72 249.56 296.72 250.264V255H295.456V250.36C295.456 249.581 295.259 249.016 294.864 248.664C294.48 248.312 293.958 248.136 293.296 248.136C292.539 248.136 291.92 248.381 291.44 248.872C290.971 249.363 290.736 250.093 290.736 251.064V255H289.472ZM302.757 255.224C301.786 255.224 300.965 255 300.293 254.552C299.632 254.104 299.232 253.395 299.093 252.424L300.293 252.152C300.378 252.664 300.538 253.069 300.773 253.368C301.008 253.656 301.296 253.864 301.637 253.992C301.989 254.109 302.362 254.168 302.757 254.168C303.344 254.168 303.808 254.051 304.149 253.816C304.49 253.581 304.661 253.267 304.661 252.872C304.661 252.467 304.496 252.184 304.165 252.024C303.845 251.853 303.402 251.715 302.837 251.608L302.181 251.496C301.68 251.411 301.221 251.277 300.805 251.096C300.389 250.915 300.058 250.669 299.813 250.36C299.568 250.051 299.445 249.661 299.445 249.192C299.445 248.488 299.717 247.939 300.261 247.544C300.805 247.149 301.525 246.952 302.421 246.952C303.306 246.952 304.021 247.155 304.565 247.56C305.12 247.955 305.477 248.515 305.637 249.24L304.453 249.544C304.357 248.979 304.128 248.584 303.765 248.36C303.402 248.125 302.954 248.008 302.421 248.008C301.888 248.008 301.466 248.109 301.157 248.312C300.848 248.504 300.693 248.792 300.693 249.176C300.693 249.549 300.837 249.827 301.125 250.008C301.424 250.179 301.818 250.307 302.309 250.392L302.965 250.504C303.52 250.6 304.016 250.733 304.453 250.904C304.901 251.064 305.253 251.299 305.509 251.608C305.776 251.917 305.909 252.323 305.909 252.824C305.909 253.592 305.621 254.184 305.045 254.6C304.48 255.016 303.717 255.224 302.757 255.224ZM309.05 255.224C308.741 255.224 308.48 255.123 308.266 254.92C308.064 254.717 307.962 254.456 307.962 254.136C307.962 253.816 308.064 253.555 308.266 253.352C308.48 253.149 308.741 253.048 309.05 253.048C309.37 253.048 309.632 253.149 309.834 253.352C310.037 253.555 310.138 253.816 310.138 254.136C310.138 254.456 310.037 254.717 309.834 254.92C309.632 255.123 309.37 255.224 309.05 255.224Z" fill="white"/>
<rect x="0.5" y="0.5" width="359" height="371" rx="19.5" stroke="white"/>
</svg>
