<svg width="360" height="372" viewBox="0 0 360 372" fill="none" xmlns="http://www.w3.org/2000/svg">
<path d="M126.778 116L131.194 99.2H136.714L141.13 116H137.866L136.954 112.304H130.954L130.042 116H126.778ZM131.698 109.376H136.21L134.17 101.192H133.738L131.698 109.376ZM148.253 116.192C147.325 116.192 146.509 115.984 145.805 115.568C145.117 115.136 144.581 114.544 144.197 113.792C143.813 113.04 143.621 112.176 143.621 111.2V104.096H146.645V110.96C146.645 111.856 146.861 112.528 147.293 112.976C147.741 113.424 148.373 113.648 149.189 113.648C150.117 113.648 150.837 113.344 151.349 112.736C151.861 112.112 152.117 111.248 152.117 110.144V104.096H155.141V116H152.165V114.44H151.733C151.541 114.84 151.181 115.232 150.653 115.616C150.125 116 149.325 116.192 148.253 116.192ZM163.546 116C162.762 116 162.122 115.76 161.626 115.28C161.146 114.784 160.906 114.128 160.906 113.312V106.592H157.93V104.096H160.906V100.4H163.93V104.096H167.194V106.592H163.93V112.784C163.93 113.264 164.154 113.504 164.602 113.504H166.906V116H163.546ZM175.653 116.336C174.469 116.336 173.405 116.096 172.461 115.616C171.517 115.136 170.773 114.44 170.229 113.528C169.685 112.616 169.413 111.52 169.413 110.24V109.856C169.413 108.576 169.685 107.48 170.229 106.568C170.773 105.656 171.517 104.96 172.461 104.48C173.405 104 174.469 103.76 175.653 103.76C176.837 103.76 177.901 104 178.845 104.48C179.789 104.96 180.533 105.656 181.077 106.568C181.621 107.48 181.893 108.576 181.893 109.856V110.24C181.893 111.52 181.621 112.616 181.077 113.528C180.533 114.44 179.789 115.136 178.845 115.616C177.901 116.096 176.837 116.336 175.653 116.336ZM175.653 113.648C176.581 113.648 177.349 113.352 177.957 112.76C178.565 112.152 178.869 111.288 178.869 110.168V109.928C178.869 108.808 178.565 107.952 177.957 107.36C177.365 106.752 176.597 106.448 175.653 106.448C174.725 106.448 173.957 106.752 173.349 107.36C172.741 107.952 172.437 108.808 172.437 109.928V110.168C172.437 111.288 172.741 112.152 173.349 112.76C173.957 113.352 174.725 113.648 175.653 113.648ZM197.474 116.336C196.178 116.336 195.034 116.104 194.042 115.64C193.05 115.176 192.274 114.512 191.714 113.648C191.154 112.784 190.874 111.744 190.874 110.528V109.856H193.994V110.528C193.994 111.536 194.306 112.296 194.93 112.808C195.554 113.304 196.402 113.552 197.474 113.552C198.562 113.552 199.37 113.336 199.898 112.904C200.442 112.472 200.714 111.92 200.714 111.248C200.714 110.784 200.578 110.408 200.306 110.12C200.05 109.832 199.666 109.6 199.154 109.424C198.658 109.232 198.05 109.056 197.33 108.896L196.778 108.776C195.626 108.52 194.634 108.2 193.802 107.816C192.986 107.416 192.354 106.896 191.906 106.256C191.474 105.616 191.258 104.784 191.258 103.76C191.258 102.736 191.498 101.864 191.978 101.144C192.474 100.408 193.162 99.848 194.042 99.464C194.938 99.064 195.986 98.864 197.186 98.864C198.386 98.864 199.45 99.072 200.378 99.488C201.322 99.888 202.058 100.496 202.586 101.312C203.13 102.112 203.402 103.12 203.402 104.336V105.056H200.282V104.336C200.282 103.696 200.154 103.184 199.898 102.8C199.658 102.4 199.306 102.112 198.842 101.936C198.378 101.744 197.826 101.648 197.186 101.648C196.226 101.648 195.514 101.832 195.05 102.2C194.602 102.552 194.378 103.04 194.378 103.664C194.378 104.08 194.482 104.432 194.69 104.72C194.914 105.008 195.242 105.248 195.674 105.44C196.106 105.632 196.658 105.8 197.33 105.944L197.882 106.064C199.082 106.32 200.122 106.648 201.002 107.048C201.898 107.448 202.594 107.976 203.09 108.632C203.586 109.288 203.834 110.128 203.834 111.152C203.834 112.176 203.57 113.08 203.042 113.864C202.53 114.632 201.794 115.24 200.834 115.688C199.89 116.12 198.77 116.336 197.474 116.336ZM212.197 116.336C211.013 116.336 209.965 116.088 209.053 115.592C208.157 115.08 207.453 114.368 206.941 113.456C206.445 112.528 206.197 111.44 206.197 110.192V109.904C206.197 108.656 206.445 107.576 206.941 106.664C207.437 105.736 208.133 105.024 209.029 104.528C209.925 104.016 210.965 103.76 212.149 103.76C213.317 103.76 214.333 104.024 215.197 104.552C216.061 105.064 216.733 105.784 217.213 106.712C217.693 107.624 217.933 108.688 217.933 109.904V110.936H209.269C209.301 111.752 209.605 112.416 210.181 112.928C210.757 113.44 211.461 113.696 212.293 113.696C213.141 113.696 213.765 113.512 214.165 113.144C214.565 112.776 214.869 112.368 215.077 111.92L217.549 113.216C217.325 113.632 216.997 114.088 216.565 114.584C216.149 115.064 215.589 115.48 214.885 115.832C214.181 116.168 213.285 116.336 212.197 116.336ZM209.293 108.68H214.861C214.797 107.992 214.517 107.44 214.021 107.024C213.541 106.608 212.909 106.4 212.125 106.4C211.309 106.4 210.661 106.608 210.181 107.024C209.701 107.44 209.405 107.992 209.293 108.68ZM221.104 116V99.2H224.128V116H221.104ZM227.959 116V99.2H230.983V116H227.959Z" fill="white"/>
<path d="M70.905 175V163.8H73.513L77.417 174.152H77.625V163.8H78.953V175H76.345L72.457 164.632H72.233V175H70.905ZM85.482 175.224C84.6927 175.224 83.9993 175.059 83.402 174.728C82.8047 174.387 82.3407 173.912 82.01 173.304C81.6793 172.696 81.514 171.992 81.514 171.192V171C81.514 170.189 81.6793 169.48 82.01 168.872C82.3407 168.264 82.7993 167.795 83.386 167.464C83.9727 167.123 84.6447 166.952 85.402 166.952C86.138 166.952 86.7887 167.112 87.354 167.432C87.9193 167.741 88.362 168.189 88.682 168.776C89.002 169.363 89.162 170.051 89.162 170.84V171.416H82.778C82.81 172.259 83.082 172.92 83.594 173.4C84.106 173.869 84.746 174.104 85.514 174.104C86.186 174.104 86.7033 173.949 87.066 173.64C87.4287 173.331 87.706 172.963 87.898 172.536L88.986 173.064C88.826 173.395 88.602 173.725 88.314 174.056C88.0367 174.387 87.6687 174.664 87.21 174.888C86.762 175.112 86.186 175.224 85.482 175.224ZM82.794 170.376H87.882C87.8393 169.651 87.5887 169.085 87.13 168.68C86.682 168.275 86.106 168.072 85.402 168.072C84.6873 168.072 84.1007 168.275 83.642 168.68C83.1833 169.085 82.9007 169.651 82.794 170.376ZM93.3426 175L90.5426 167.176H91.8866L94.2386 174.056H94.4626L96.8146 167.176H98.1586L95.3586 175H93.3426ZM103.559 175.224C102.77 175.224 102.077 175.059 101.479 174.728C100.882 174.387 100.418 173.912 100.087 173.304C99.7568 172.696 99.5915 171.992 99.5915 171.192V171C99.5915 170.189 99.7568 169.48 100.087 168.872C100.418 168.264 100.877 167.795 101.463 167.464C102.05 167.123 102.722 166.952 103.479 166.952C104.215 166.952 104.866 167.112 105.431 167.432C105.997 167.741 106.439 168.189 106.759 168.776C107.079 169.363 107.239 170.051 107.239 170.84V171.416H100.855C100.887 172.259 101.159 172.92 101.671 173.4C102.183 173.869 102.823 174.104 103.591 174.104C104.263 174.104 104.781 173.949 105.143 173.64C105.506 173.331 105.783 172.963 105.975 172.536L107.063 173.064C106.903 173.395 106.679 173.725 106.391 174.056C106.114 174.387 105.746 174.664 105.287 174.888C104.839 175.112 104.263 175.224 103.559 175.224ZM100.871 170.376H105.959C105.917 169.651 105.666 169.085 105.207 168.68C104.759 168.275 104.183 168.072 103.479 168.072C102.765 168.072 102.178 168.275 101.719 168.68C101.261 169.085 100.978 169.651 100.871 170.376ZM109.764 175V167.176H110.996V168.136H111.22C111.359 167.795 111.572 167.544 111.86 167.384C112.148 167.224 112.527 167.144 112.996 167.144H113.924V168.296H112.916C112.351 168.296 111.892 168.456 111.54 168.776C111.199 169.085 111.028 169.571 111.028 170.232V175H109.764ZM121.633 175L120.065 167.176H121.345L122.641 174.152H122.865L124.577 167.176H126.673L128.385 174.152H128.609L129.905 167.176H131.185L129.617 175H127.457L125.729 168.024H125.521L123.793 175H121.633ZM137.137 175.224C136.348 175.224 135.649 175.059 135.041 174.728C134.444 174.397 133.974 173.933 133.633 173.336C133.302 172.728 133.137 172.013 133.137 171.192V170.984C133.137 170.173 133.302 169.464 133.633 168.856C133.974 168.248 134.444 167.779 135.041 167.448C135.649 167.117 136.348 166.952 137.137 166.952C137.926 166.952 138.62 167.117 139.217 167.448C139.825 167.779 140.294 168.248 140.625 168.856C140.966 169.464 141.137 170.173 141.137 170.984V171.192C141.137 172.013 140.966 172.728 140.625 173.336C140.294 173.933 139.825 174.397 139.217 174.728C138.62 175.059 137.926 175.224 137.137 175.224ZM137.137 174.088C137.969 174.088 138.63 173.827 139.121 173.304C139.622 172.771 139.873 172.056 139.873 171.16V171.016C139.873 170.12 139.622 169.411 139.121 168.888C138.63 168.355 137.969 168.088 137.137 168.088C136.316 168.088 135.654 168.355 135.153 168.888C134.652 169.411 134.401 170.12 134.401 171.016V171.16C134.401 172.056 134.652 172.771 135.153 173.304C135.654 173.827 136.316 174.088 137.137 174.088ZM143.732 175V167.176H144.964V168.136H145.188C145.326 167.795 145.54 167.544 145.828 167.384C146.116 167.224 146.494 167.144 146.964 167.144H147.892V168.296H146.884C146.318 168.296 145.86 168.456 145.508 168.776C145.166 169.085 144.996 169.571 144.996 170.232V175H143.732ZM150.083 175V167.176H151.315V168.136H151.539C151.678 167.795 151.891 167.544 152.179 167.384C152.467 167.224 152.846 167.144 153.315 167.144H154.243V168.296H153.235C152.67 168.296 152.211 168.456 151.859 168.776C151.518 169.085 151.347 169.571 151.347 170.232V175H150.083ZM157.378 178.2V177.08H161.858C162.168 177.08 162.322 176.92 162.322 176.6V173.752H162.098C161.992 173.976 161.826 174.2 161.602 174.424C161.389 174.637 161.106 174.813 160.754 174.952C160.402 175.08 159.96 175.144 159.426 175.144C158.861 175.144 158.338 175.021 157.858 174.776C157.389 174.531 157.016 174.168 156.738 173.688C156.472 173.208 156.338 172.621 156.338 171.928V167.176H157.602V171.832C157.602 172.6 157.794 173.16 158.178 173.512C158.573 173.864 159.101 174.04 159.762 174.04C160.509 174.04 161.122 173.795 161.602 173.304C162.082 172.813 162.322 172.083 162.322 171.112V167.176H163.586V176.824C163.586 177.251 163.464 177.587 163.218 177.832C162.984 178.077 162.637 178.2 162.178 178.2H157.378ZM173.38 175.224C172.836 175.224 172.34 175.128 171.892 174.936C171.444 174.744 171.092 174.467 170.836 174.104C170.58 173.741 170.452 173.299 170.452 172.776C170.452 172.243 170.58 171.805 170.836 171.464C171.092 171.112 171.444 170.851 171.892 170.68C172.34 170.499 172.842 170.408 173.396 170.408H176.036V169.832C176.036 169.277 175.871 168.84 175.54 168.52C175.22 168.2 174.74 168.04 174.1 168.04C173.471 168.04 172.98 168.195 172.628 168.504C172.276 168.803 172.036 169.208 171.908 169.72L170.724 169.336C170.852 168.899 171.055 168.504 171.332 168.152C171.61 167.789 171.978 167.501 172.436 167.288C172.906 167.064 173.466 166.952 174.116 166.952C175.119 166.952 175.898 167.213 176.452 167.736C177.007 168.248 177.284 168.973 177.284 169.912V173.448C177.284 173.768 177.434 173.928 177.732 173.928H178.452V175H177.348C176.996 175 176.714 174.904 176.5 174.712C176.287 174.509 176.18 174.243 176.18 173.912V173.832H175.988C175.871 174.035 175.711 174.248 175.508 174.472C175.316 174.685 175.05 174.861 174.708 175C174.367 175.149 173.924 175.224 173.38 175.224ZM173.524 174.136C174.271 174.136 174.874 173.917 175.332 173.48C175.802 173.032 176.036 172.408 176.036 171.608V171.432H173.444C172.943 171.432 172.527 171.544 172.196 171.768C171.876 171.981 171.716 172.307 171.716 172.744C171.716 173.181 171.882 173.523 172.212 173.768C172.554 174.013 172.991 174.136 173.524 174.136ZM184.84 175.224C184.029 175.224 183.394 175.069 182.936 174.76C182.488 174.451 182.162 174.099 181.96 173.704H181.736V175H180.504V163.8H181.768V168.408H181.992C182.12 168.163 182.301 167.933 182.536 167.72C182.77 167.496 183.074 167.315 183.448 167.176C183.832 167.027 184.296 166.952 184.84 166.952C185.522 166.952 186.141 167.117 186.696 167.448C187.261 167.768 187.709 168.232 188.04 168.84C188.37 169.437 188.536 170.152 188.536 170.984V171.192C188.536 172.024 188.365 172.744 188.024 173.352C187.693 173.96 187.245 174.424 186.68 174.744C186.125 175.064 185.512 175.224 184.84 175.224ZM184.504 174.104C185.314 174.104 185.97 173.848 186.472 173.336C186.984 172.813 187.24 172.088 187.24 171.16V171.016C187.24 170.088 186.984 169.368 186.472 168.856C185.97 168.333 185.314 168.072 184.504 168.072C183.704 168.072 183.042 168.333 182.52 168.856C182.008 169.368 181.752 170.088 181.752 171.016V171.16C181.752 172.088 182.008 172.813 182.52 173.336C183.042 173.848 183.704 174.104 184.504 174.104ZM194.737 175.224C193.947 175.224 193.249 175.059 192.641 174.728C192.043 174.397 191.574 173.933 191.233 173.336C190.902 172.728 190.737 172.013 190.737 171.192V170.984C190.737 170.173 190.902 169.464 191.233 168.856C191.574 168.248 192.043 167.779 192.641 167.448C193.249 167.117 193.947 166.952 194.737 166.952C195.526 166.952 196.219 167.117 196.817 167.448C197.425 167.779 197.894 168.248 198.225 168.856C198.566 169.464 198.737 170.173 198.737 170.984V171.192C198.737 172.013 198.566 172.728 198.225 173.336C197.894 173.933 197.425 174.397 196.817 174.728C196.219 175.059 195.526 175.224 194.737 175.224ZM194.737 174.088C195.569 174.088 196.23 173.827 196.721 173.304C197.222 172.771 197.473 172.056 197.473 171.16V171.016C197.473 170.12 197.222 169.411 196.721 168.888C196.23 168.355 195.569 168.088 194.737 168.088C193.915 168.088 193.254 168.355 192.753 168.888C192.251 169.411 192.001 170.12 192.001 171.016V171.16C192.001 172.056 192.251 172.771 192.753 173.304C193.254 173.827 193.915 174.088 194.737 174.088ZM204.323 175.144C203.758 175.144 203.235 175.021 202.755 174.776C202.286 174.531 201.912 174.168 201.635 173.688C201.368 173.197 201.235 172.605 201.235 171.912V167.176H202.499V171.816C202.499 172.595 202.691 173.16 203.075 173.512C203.47 173.864 203.998 174.04 204.659 174.04C205.406 174.04 206.019 173.795 206.499 173.304C206.979 172.813 207.219 172.083 207.219 171.112V167.176H208.483V175H207.251V173.672H207.027C206.856 174.045 206.563 174.387 206.147 174.696C205.731 174.995 205.123 175.144 204.323 175.144ZM214.328 175C213.88 175 213.533 174.877 213.288 174.632C213.053 174.387 212.936 174.051 212.936 173.624V168.28H210.584V167.176H212.936V164.392H214.2V167.176H216.76V168.28H214.2V173.432C214.2 173.752 214.355 173.912 214.664 173.912H216.408V175H214.328ZM223.509 175V163.8H227.797C228.469 163.8 229.066 163.933 229.589 164.2C230.122 164.456 230.543 164.824 230.853 165.304C231.162 165.784 231.317 166.365 231.317 167.048V167.256C231.317 167.928 231.157 168.509 230.837 169C230.527 169.48 230.106 169.848 229.573 170.104C229.039 170.36 228.447 170.488 227.797 170.488H224.853V175H223.509ZM224.853 169.272H227.653C228.367 169.272 228.933 169.096 229.349 168.744C229.765 168.381 229.973 167.875 229.973 167.224V167.064C229.973 166.413 229.765 165.912 229.349 165.56C228.943 165.197 228.378 165.016 227.653 165.016H224.853V169.272ZM236.82 175.224C236.031 175.224 235.337 175.059 234.74 174.728C234.143 174.387 233.679 173.912 233.348 173.304C233.017 172.696 232.852 171.992 232.852 171.192V171C232.852 170.189 233.017 169.48 233.348 168.872C233.679 168.264 234.137 167.795 234.724 167.464C235.311 167.123 235.983 166.952 236.74 166.952C237.476 166.952 238.127 167.112 238.692 167.432C239.257 167.741 239.7 168.189 240.02 168.776C240.34 169.363 240.5 170.051 240.5 170.84V171.416H234.116C234.148 172.259 234.42 172.92 234.932 173.4C235.444 173.869 236.084 174.104 236.852 174.104C237.524 174.104 238.041 173.949 238.404 173.64C238.767 173.331 239.044 172.963 239.236 172.536L240.324 173.064C240.164 173.395 239.94 173.725 239.652 174.056C239.375 174.387 239.007 174.664 238.548 174.888C238.1 175.112 237.524 175.224 236.82 175.224ZM234.132 170.376H239.22C239.177 169.651 238.927 169.085 238.468 168.68C238.02 168.275 237.444 168.072 236.74 168.072C236.025 168.072 235.439 168.275 234.98 168.68C234.521 169.085 234.239 169.651 234.132 170.376ZM242.641 171.128V170.904C242.641 170.083 242.806 169.379 243.137 168.792C243.468 168.205 243.916 167.752 244.481 167.432C245.046 167.112 245.665 166.952 246.337 166.952C247.158 166.952 247.788 167.112 248.225 167.432C248.673 167.741 249.004 168.088 249.217 168.472H249.441V167.176H250.641V176.824C250.641 177.251 250.524 177.587 250.289 177.832C250.054 178.077 249.713 178.2 249.265 178.2H243.953V177.08H248.929C249.249 177.08 249.409 176.92 249.409 176.6V173.624H249.185C249.057 173.859 248.876 174.088 248.641 174.312C248.406 174.536 248.102 174.723 247.729 174.872C247.356 175.011 246.892 175.08 246.337 175.08C245.665 175.08 245.046 174.92 244.481 174.6C243.916 174.28 243.468 173.827 243.137 173.24C242.806 172.643 242.641 171.939 242.641 171.128ZM246.673 173.96C247.484 173.96 248.14 173.704 248.641 173.192C249.153 172.68 249.409 171.976 249.409 171.08V170.952C249.409 170.045 249.153 169.341 248.641 168.84C248.14 168.328 247.484 168.072 246.673 168.072C245.873 168.072 245.212 168.328 244.689 168.84C244.177 169.341 243.921 170.045 243.921 170.952V171.08C243.921 171.976 244.177 172.68 244.689 173.192C245.212 173.704 245.873 173.96 246.673 173.96ZM256.011 175.224C255.467 175.224 254.971 175.128 254.523 174.936C254.075 174.744 253.723 174.467 253.467 174.104C253.211 173.741 253.083 173.299 253.083 172.776C253.083 172.243 253.211 171.805 253.467 171.464C253.723 171.112 254.075 170.851 254.523 170.68C254.971 170.499 255.472 170.408 256.027 170.408H258.667V169.832C258.667 169.277 258.501 168.84 258.171 168.52C257.851 168.2 257.371 168.04 256.731 168.04C256.101 168.04 255.611 168.195 255.259 168.504C254.907 168.803 254.667 169.208 254.539 169.72L253.355 169.336C253.483 168.899 253.685 168.504 253.963 168.152C254.24 167.789 254.608 167.501 255.067 167.288C255.536 167.064 256.096 166.952 256.747 166.952C257.749 166.952 258.528 167.213 259.083 167.736C259.637 168.248 259.915 168.973 259.915 169.912V173.448C259.915 173.768 260.064 173.928 260.363 173.928H261.083V175H259.979C259.627 175 259.344 174.904 259.131 174.712C258.917 174.509 258.811 174.243 258.811 173.912V173.832H258.619C258.501 174.035 258.341 174.248 258.139 174.472C257.947 174.685 257.68 174.861 257.339 175C256.997 175.149 256.555 175.224 256.011 175.224ZM256.155 174.136C256.901 174.136 257.504 173.917 257.963 173.48C258.432 173.032 258.667 172.408 258.667 171.608V171.432H256.075C255.573 171.432 255.157 171.544 254.827 171.768C254.507 171.981 254.347 172.307 254.347 172.744C254.347 173.181 254.512 173.523 254.843 173.768C255.184 174.013 255.621 174.136 256.155 174.136ZM266.223 175.224C265.252 175.224 264.431 175 263.759 174.552C263.098 174.104 262.698 173.395 262.559 172.424L263.759 172.152C263.844 172.664 264.004 173.069 264.239 173.368C264.474 173.656 264.762 173.864 265.103 173.992C265.455 174.109 265.828 174.168 266.223 174.168C266.81 174.168 267.274 174.051 267.615 173.816C267.956 173.581 268.127 173.267 268.127 172.872C268.127 172.467 267.962 172.184 267.631 172.024C267.311 171.853 266.868 171.715 266.303 171.608L265.647 171.496C265.146 171.411 264.687 171.277 264.271 171.096C263.855 170.915 263.524 170.669 263.279 170.36C263.034 170.051 262.911 169.661 262.911 169.192C262.911 168.488 263.183 167.939 263.727 167.544C264.271 167.149 264.991 166.952 265.887 166.952C266.772 166.952 267.487 167.155 268.031 167.56C268.586 167.955 268.943 168.515 269.103 169.24L267.919 169.544C267.823 168.979 267.594 168.584 267.231 168.36C266.868 168.125 266.42 168.008 265.887 168.008C265.354 168.008 264.932 168.109 264.623 168.312C264.314 168.504 264.159 168.792 264.159 169.176C264.159 169.549 264.303 169.827 264.591 170.008C264.89 170.179 265.284 170.307 265.775 170.392L266.431 170.504C266.986 170.6 267.482 170.733 267.919 170.904C268.367 171.064 268.719 171.299 268.975 171.608C269.242 171.917 269.375 172.323 269.375 172.824C269.375 173.592 269.087 174.184 268.511 174.6C267.946 175.016 267.183 175.224 266.223 175.224ZM274.821 175.144C274.255 175.144 273.733 175.021 273.253 174.776C272.783 174.531 272.41 174.168 272.133 173.688C271.866 173.197 271.733 172.605 271.733 171.912V167.176H272.997V171.816C272.997 172.595 273.189 173.16 273.573 173.512C273.967 173.864 274.495 174.04 275.157 174.04C275.903 174.04 276.517 173.795 276.997 173.304C277.477 172.813 277.717 172.083 277.717 171.112V167.176H278.981V175H277.749V173.672H277.525C277.354 174.045 277.061 174.387 276.645 174.696C276.229 174.995 275.621 175.144 274.821 175.144ZM285.097 175.224C284.127 175.224 283.305 175 282.633 174.552C281.972 174.104 281.572 173.395 281.433 172.424L282.633 172.152C282.719 172.664 282.879 173.069 283.113 173.368C283.348 173.656 283.636 173.864 283.977 173.992C284.329 174.109 284.703 174.168 285.097 174.168C285.684 174.168 286.148 174.051 286.489 173.816C286.831 173.581 287.001 173.267 287.001 172.872C287.001 172.467 286.836 172.184 286.505 172.024C286.185 171.853 285.743 171.715 285.177 171.608L284.521 171.496C284.02 171.411 283.561 171.277 283.145 171.096C282.729 170.915 282.399 170.669 282.153 170.36C281.908 170.051 281.785 169.661 281.785 169.192C281.785 168.488 282.057 167.939 282.601 167.544C283.145 167.149 283.865 166.952 284.761 166.952C285.647 166.952 286.361 167.155 286.905 167.56C287.46 167.955 287.817 168.515 287.977 169.24L286.793 169.544C286.697 168.979 286.468 168.584 286.105 168.36C285.743 168.125 285.295 168.008 284.761 168.008C284.228 168.008 283.807 168.109 283.497 168.312C283.188 168.504 283.033 168.792 283.033 169.176C283.033 169.549 283.177 169.827 283.465 170.008C283.764 170.179 284.159 170.307 284.649 170.392L285.305 170.504C285.86 170.6 286.356 170.733 286.793 170.904C287.241 171.064 287.593 171.299 287.849 171.608C288.116 171.917 288.249 172.323 288.249 172.824C288.249 173.592 287.961 174.184 287.385 174.6C286.82 175.016 286.057 175.224 285.097 175.224ZM55.5255 207.224C54.9815 207.224 54.4855 207.128 54.0375 206.936C53.5895 206.744 53.2375 206.467 52.9815 206.104C52.7255 205.741 52.5975 205.299 52.5975 204.776C52.5975 204.243 52.7255 203.805 52.9815 203.464C53.2375 203.112 53.5895 202.851 54.0375 202.68C54.4855 202.499 54.9868 202.408 55.5415 202.408H58.1815V201.832C58.1815 201.277 58.0162 200.84 57.6855 200.52C57.3655 200.2 56.8855 200.04 56.2455 200.04C55.6162 200.04 55.1255 200.195 54.7735 200.504C54.4215 200.803 54.1815 201.208 54.0535 201.72L52.8695 201.336C52.9975 200.899 53.2002 200.504 53.4775 200.152C53.7548 199.789 54.1228 199.501 54.5815 199.288C55.0508 199.064 55.6108 198.952 56.2615 198.952C57.2642 198.952 58.0428 199.213 58.5975 199.736C59.1522 200.248 59.4295 200.973 59.4295 201.912V205.448C59.4295 205.768 59.5788 205.928 59.8775 205.928H60.5975V207H59.4935C59.1415 207 58.8588 206.904 58.6455 206.712C58.4322 206.509 58.3255 206.243 58.3255 205.912V205.832H58.1335C58.0162 206.035 57.8562 206.248 57.6535 206.472C57.4615 206.685 57.1948 206.861 56.8535 207C56.5122 207.149 56.0695 207.224 55.5255 207.224ZM55.6695 206.136C56.4162 206.136 57.0188 205.917 57.4775 205.48C57.9468 205.032 58.1815 204.408 58.1815 203.608V203.432H55.5895C55.0882 203.432 54.6722 203.544 54.3415 203.768C54.0215 203.981 53.8615 204.307 53.8615 204.744C53.8615 205.181 54.0268 205.523 54.3575 205.768C54.6988 206.013 55.1362 206.136 55.6695 206.136ZM65.4375 207.144C64.8722 207.144 64.3495 207.021 63.8695 206.776C63.4002 206.531 63.0268 206.168 62.7495 205.688C62.4828 205.197 62.3495 204.605 62.3495 203.912V199.176H63.6135V203.816C63.6135 204.595 63.8055 205.16 64.1895 205.512C64.5842 205.864 65.1122 206.04 65.7735 206.04C66.5202 206.04 67.1335 205.795 67.6135 205.304C68.0935 204.813 68.3335 204.083 68.3335 203.112V199.176H69.5975V207H68.3655V205.672H68.1415C67.9708 206.045 67.6775 206.387 67.2615 206.696C66.8455 206.995 66.2375 207.144 65.4375 207.144ZM75.4424 207C74.9944 207 74.6477 206.877 74.4024 206.632C74.1677 206.387 74.0504 206.051 74.0504 205.624V200.28H71.6984V199.176H74.0504V196.392H75.3144V199.176H77.8744V200.28H75.3144V205.432C75.3144 205.752 75.469 205.912 75.7784 205.912H77.5224V207H75.4424ZM83.5765 207.224C82.7872 207.224 82.0885 207.059 81.4805 206.728C80.8832 206.397 80.4138 205.933 80.0725 205.336C79.7418 204.728 79.5765 204.013 79.5765 203.192V202.984C79.5765 202.173 79.7418 201.464 80.0725 200.856C80.4138 200.248 80.8832 199.779 81.4805 199.448C82.0885 199.117 82.7872 198.952 83.5765 198.952C84.3658 198.952 85.0592 199.117 85.6565 199.448C86.2645 199.779 86.7338 200.248 87.0645 200.856C87.4058 201.464 87.5765 202.173 87.5765 202.984V203.192C87.5765 204.013 87.4058 204.728 87.0645 205.336C86.7338 205.933 86.2645 206.397 85.6565 206.728C85.0592 207.059 84.3658 207.224 83.5765 207.224ZM83.5765 206.088C84.4085 206.088 85.0698 205.827 85.5605 205.304C86.0618 204.771 86.3125 204.056 86.3125 203.16V203.016C86.3125 202.12 86.0618 201.411 85.5605 200.888C85.0698 200.355 84.4085 200.088 83.5765 200.088C82.7552 200.088 82.0938 200.355 81.5925 200.888C81.0912 201.411 80.8405 202.12 80.8405 203.016V203.16C80.8405 204.056 81.0912 204.771 81.5925 205.304C82.0938 205.827 82.7552 206.088 83.5765 206.088ZM93.3231 207.224C92.3525 207.224 91.5311 207 90.8591 206.552C90.1978 206.104 89.7978 205.395 89.6591 204.424L90.8591 204.152C90.9445 204.664 91.1045 205.069 91.3391 205.368C91.5738 205.656 91.8618 205.864 92.2031 205.992C92.5551 206.109 92.9285 206.168 93.3231 206.168C93.9098 206.168 94.3738 206.051 94.7151 205.816C95.0565 205.581 95.2271 205.267 95.2271 204.872C95.2271 204.467 95.0618 204.184 94.7311 204.024C94.4111 203.853 93.9685 203.715 93.4031 203.608L92.7471 203.496C92.2458 203.411 91.7871 203.277 91.3711 203.096C90.9551 202.915 90.6245 202.669 90.3791 202.36C90.1338 202.051 90.0111 201.661 90.0111 201.192C90.0111 200.488 90.2831 199.939 90.8271 199.544C91.3711 199.149 92.0911 198.952 92.9871 198.952C93.8725 198.952 94.5871 199.155 95.1311 199.56C95.6858 199.955 96.0431 200.515 96.2031 201.24L95.0191 201.544C94.9231 200.979 94.6938 200.584 94.3311 200.36C93.9685 200.125 93.5205 200.008 92.9871 200.008C92.4538 200.008 92.0325 200.109 91.7231 200.312C91.4138 200.504 91.2591 200.792 91.2591 201.176C91.2591 201.549 91.4031 201.827 91.6911 202.008C91.9898 202.179 92.3845 202.307 92.8751 202.392L93.5311 202.504C94.0858 202.6 94.5818 202.733 95.0191 202.904C95.4671 203.064 95.8191 203.299 96.0751 203.608C96.3418 203.917 96.4751 204.323 96.4751 204.824C96.4751 205.592 96.1871 206.184 95.6111 206.6C95.0458 207.016 94.2831 207.224 93.3231 207.224ZM98.9286 207V199.176H100.161V200.504H100.385C100.555 200.131 100.843 199.795 101.249 199.496C101.665 199.187 102.273 199.032 103.073 199.032C103.659 199.032 104.182 199.155 104.641 199.4C105.11 199.645 105.483 200.008 105.761 200.488C106.038 200.968 106.177 201.56 106.177 202.264V207H104.913V202.36C104.913 201.581 104.715 201.016 104.321 200.664C103.937 200.312 103.414 200.136 102.753 200.136C101.995 200.136 101.377 200.381 100.897 200.872C100.427 201.363 100.193 202.093 100.193 203.064V207H98.9286ZM109.061 207V199.176H110.325V207H109.061ZM109.701 197.96C109.424 197.96 109.189 197.869 108.997 197.688C108.816 197.507 108.725 197.277 108.725 197C108.725 196.712 108.816 196.477 108.997 196.296C109.189 196.115 109.424 196.024 109.701 196.024C109.978 196.024 110.208 196.115 110.389 196.296C110.57 196.477 110.661 196.712 110.661 197C110.661 197.277 110.57 197.507 110.389 197.688C110.208 197.869 109.978 197.96 109.701 197.96ZM113.303 210.2V199.176H114.535V200.472H114.759C114.962 200.077 115.287 199.725 115.735 199.416C116.194 199.107 116.828 198.952 117.639 198.952C118.311 198.952 118.924 199.117 119.479 199.448C120.044 199.768 120.492 200.227 120.823 200.824C121.164 201.421 121.335 202.141 121.335 202.984V203.192C121.335 204.024 121.17 204.744 120.839 205.352C120.508 205.96 120.06 206.424 119.495 206.744C118.94 207.064 118.322 207.224 117.639 207.224C117.095 207.224 116.631 207.149 116.247 207C115.874 206.861 115.57 206.68 115.335 206.456C115.1 206.232 114.919 206.003 114.791 205.768H114.567V210.2H113.303ZM117.303 206.104C118.114 206.104 118.77 205.848 119.271 205.336C119.783 204.813 120.039 204.088 120.039 203.16V203.016C120.039 202.088 119.783 201.368 119.271 200.856C118.77 200.333 118.114 200.072 117.303 200.072C116.503 200.072 115.842 200.333 115.319 200.856C114.807 201.368 114.551 202.088 114.551 203.016V203.16C114.551 204.088 114.807 204.813 115.319 205.336C115.842 205.848 116.503 206.104 117.303 206.104ZM123.92 210.2V199.176H125.152V200.472H125.376C125.579 200.077 125.904 199.725 126.352 199.416C126.811 199.107 127.445 198.952 128.256 198.952C128.928 198.952 129.541 199.117 130.096 199.448C130.661 199.768 131.109 200.227 131.44 200.824C131.781 201.421 131.952 202.141 131.952 202.984V203.192C131.952 204.024 131.787 204.744 131.456 205.352C131.125 205.96 130.677 206.424 130.112 206.744C129.557 207.064 128.939 207.224 128.256 207.224C127.712 207.224 127.248 207.149 126.864 207C126.491 206.861 126.187 206.68 125.952 206.456C125.717 206.232 125.536 206.003 125.408 205.768H125.184V210.2H123.92ZM127.92 206.104C128.731 206.104 129.387 205.848 129.888 205.336C130.4 204.813 130.656 204.088 130.656 203.16V203.016C130.656 202.088 130.4 201.368 129.888 200.856C129.387 200.333 128.731 200.072 127.92 200.072C127.12 200.072 126.459 200.333 125.936 200.856C125.424 201.368 125.168 202.088 125.168 203.016V203.16C125.168 204.088 125.424 204.813 125.936 205.336C126.459 205.848 127.12 206.104 127.92 206.104ZM134.537 207V199.176H135.801V207H134.537ZM135.177 197.96C134.899 197.96 134.665 197.869 134.473 197.688C134.291 197.507 134.201 197.277 134.201 197C134.201 196.712 134.291 196.477 134.473 196.296C134.665 196.115 134.899 196.024 135.177 196.024C135.454 196.024 135.683 196.115 135.865 196.296C136.046 196.477 136.137 196.712 136.137 197C136.137 197.277 136.046 197.507 135.865 197.688C135.683 197.869 135.454 197.96 135.177 197.96ZM138.779 207V199.176H140.011V200.504H140.235C140.405 200.131 140.693 199.795 141.099 199.496C141.515 199.187 142.123 199.032 142.923 199.032C143.509 199.032 144.032 199.155 144.491 199.4C144.96 199.645 145.333 200.008 145.611 200.488C145.888 200.968 146.027 201.56 146.027 202.264V207H144.763V202.36C144.763 201.581 144.565 201.016 144.171 200.664C143.787 200.312 143.264 200.136 142.603 200.136C141.845 200.136 141.227 200.381 140.747 200.872C140.277 201.363 140.043 202.093 140.043 203.064V207H138.779ZM148.527 203.128V202.904C148.527 202.083 148.692 201.379 149.023 200.792C149.354 200.205 149.802 199.752 150.367 199.432C150.932 199.112 151.551 198.952 152.223 198.952C153.044 198.952 153.674 199.112 154.111 199.432C154.559 199.741 154.89 200.088 155.103 200.472H155.327V199.176H156.527V208.824C156.527 209.251 156.41 209.587 156.175 209.832C155.94 210.077 155.599 210.2 155.151 210.2H149.839V209.08H154.815C155.135 209.08 155.295 208.92 155.295 208.6V205.624H155.071C154.943 205.859 154.762 206.088 154.527 206.312C154.292 206.536 153.988 206.723 153.615 206.872C153.242 207.011 152.778 207.08 152.223 207.08C151.551 207.08 150.932 206.92 150.367 206.6C149.802 206.28 149.354 205.827 149.023 205.24C148.692 204.643 148.527 203.939 148.527 203.128ZM152.559 205.96C153.37 205.96 154.026 205.704 154.527 205.192C155.039 204.68 155.295 203.976 155.295 203.08V202.952C155.295 202.045 155.039 201.341 154.527 200.84C154.026 200.328 153.37 200.072 152.559 200.072C151.759 200.072 151.098 200.328 150.575 200.84C150.063 201.341 149.807 202.045 149.807 202.952V203.08C149.807 203.976 150.063 204.68 150.575 205.192C151.098 205.704 151.759 205.96 152.559 205.96ZM166.326 207.224C165.782 207.224 165.286 207.128 164.838 206.936C164.39 206.744 164.038 206.467 163.782 206.104C163.526 205.741 163.398 205.299 163.398 204.776C163.398 204.243 163.526 203.805 163.782 203.464C164.038 203.112 164.39 202.851 164.838 202.68C165.286 202.499 165.787 202.408 166.342 202.408H168.982V201.832C168.982 201.277 168.817 200.84 168.486 200.52C168.166 200.2 167.686 200.04 167.046 200.04C166.417 200.04 165.926 200.195 165.574 200.504C165.222 200.803 164.982 201.208 164.854 201.72L163.67 201.336C163.798 200.899 164.001 200.504 164.278 200.152C164.555 199.789 164.923 199.501 165.382 199.288C165.851 199.064 166.411 198.952 167.062 198.952C168.065 198.952 168.843 199.213 169.398 199.736C169.953 200.248 170.23 200.973 170.23 201.912V205.448C170.23 205.768 170.379 205.928 170.678 205.928H171.398V207H170.294C169.942 207 169.659 206.904 169.446 206.712C169.233 206.509 169.126 206.243 169.126 205.912V205.832H168.934C168.817 206.035 168.657 206.248 168.454 206.472C168.262 206.685 167.995 206.861 167.654 207C167.313 207.149 166.87 207.224 166.326 207.224ZM166.47 206.136C167.217 206.136 167.819 205.917 168.278 205.48C168.747 205.032 168.982 204.408 168.982 203.608V203.432H166.39C165.889 203.432 165.473 203.544 165.142 203.768C164.822 203.981 164.662 204.307 164.662 204.744C164.662 205.181 164.827 205.523 165.158 205.768C165.499 206.013 165.937 206.136 166.47 206.136ZM181.031 207.224C180.06 207.224 179.239 207 178.567 206.552C177.905 206.104 177.505 205.395 177.367 204.424L178.567 204.152C178.652 204.664 178.812 205.069 179.047 205.368C179.281 205.656 179.569 205.864 179.911 205.992C180.263 206.109 180.636 206.168 181.031 206.168C181.617 206.168 182.081 206.051 182.423 205.816C182.764 205.581 182.935 205.267 182.935 204.872C182.935 204.467 182.769 204.184 182.439 204.024C182.119 203.853 181.676 203.715 181.111 203.608L180.455 203.496C179.953 203.411 179.495 203.277 179.079 203.096C178.663 202.915 178.332 202.669 178.087 202.36C177.841 202.051 177.719 201.661 177.719 201.192C177.719 200.488 177.991 199.939 178.535 199.544C179.079 199.149 179.799 198.952 180.695 198.952C181.58 198.952 182.295 199.155 182.839 199.56C183.393 199.955 183.751 200.515 183.911 201.24L182.727 201.544C182.631 200.979 182.401 200.584 182.039 200.36C181.676 200.125 181.228 200.008 180.695 200.008C180.161 200.008 179.74 200.109 179.431 200.312C179.121 200.504 178.967 200.792 178.967 201.176C178.967 201.549 179.111 201.827 179.399 202.008C179.697 202.179 180.092 202.307 180.583 202.392L181.239 202.504C181.793 202.6 182.289 202.733 182.727 202.904C183.175 203.064 183.527 203.299 183.783 203.608C184.049 203.917 184.183 204.323 184.183 204.824C184.183 205.592 183.895 206.184 183.319 206.6C182.753 207.016 181.991 207.224 181.031 207.224ZM186.636 207V195.8H187.9V200.424H188.124C188.231 200.189 188.391 199.971 188.604 199.768C188.828 199.555 189.111 199.379 189.452 199.24C189.804 199.101 190.247 199.032 190.78 199.032C191.367 199.032 191.889 199.16 192.348 199.416C192.817 199.661 193.191 200.024 193.468 200.504C193.745 200.973 193.884 201.56 193.884 202.264V207H192.62V202.36C192.62 201.581 192.423 201.016 192.028 200.664C191.644 200.312 191.121 200.136 190.46 200.136C189.703 200.136 189.084 200.381 188.604 200.872C188.135 201.363 187.9 202.093 187.9 203.064V207H186.636ZM196.769 207V199.176H198.033V207H196.769ZM197.409 197.96C197.131 197.96 196.897 197.869 196.705 197.688C196.523 197.507 196.433 197.277 196.433 197C196.433 196.712 196.523 196.477 196.705 196.296C196.897 196.115 197.131 196.024 197.409 196.024C197.686 196.024 197.915 196.115 198.097 196.296C198.278 196.477 198.369 196.712 198.369 197C198.369 197.277 198.278 197.507 198.097 197.688C197.915 197.869 197.686 197.96 197.409 197.96ZM203.89 207C203.442 207 203.096 206.877 202.85 206.632C202.616 206.387 202.498 206.051 202.498 205.624V200.28H200.146V199.176H202.498V196.392H203.762V199.176H205.81V200.28H203.762V205.432C203.762 205.752 203.917 205.912 204.226 205.912H205.97V207H203.89ZM209.042 207C208.594 207 208.248 206.877 208.002 206.632C207.757 206.387 207.634 206.051 207.634 205.624V200.28H205.81V199.176H207.634V196.392H208.898V199.176H211.474V200.28H208.898V205.432C208.898 205.752 209.058 205.912 209.378 205.912H211.122V207H209.042ZM214.79 210.2V209.08H219.27C219.579 209.08 219.734 208.92 219.734 208.6V205.752H219.51C219.403 205.976 219.238 206.2 219.014 206.424C218.801 206.637 218.518 206.813 218.166 206.952C217.814 207.08 217.371 207.144 216.838 207.144C216.273 207.144 215.75 207.021 215.27 206.776C214.801 206.531 214.427 206.168 214.15 205.688C213.883 205.208 213.75 204.621 213.75 203.928V199.176H215.014V203.832C215.014 204.6 215.206 205.16 215.59 205.512C215.985 205.864 216.513 206.04 217.174 206.04C217.921 206.04 218.534 205.795 219.014 205.304C219.494 204.813 219.734 204.083 219.734 203.112V199.176H220.998V208.824C220.998 209.251 220.875 209.587 220.63 209.832C220.395 210.077 220.049 210.2 219.59 210.2H214.79ZM228.392 210.2V199.176H229.624V200.472H229.848C230.051 200.077 230.376 199.725 230.824 199.416C231.283 199.107 231.918 198.952 232.728 198.952C233.4 198.952 234.014 199.117 234.568 199.448C235.134 199.768 235.582 200.227 235.912 200.824C236.254 201.421 236.424 202.141 236.424 202.984V203.192C236.424 204.024 236.259 204.744 235.928 205.352C235.598 205.96 235.15 206.424 234.584 206.744C234.03 207.064 233.411 207.224 232.728 207.224C232.184 207.224 231.72 207.149 231.336 207C230.963 206.861 230.659 206.68 230.424 206.456C230.19 206.232 230.008 206.003 229.88 205.768H229.656V210.2H228.392ZM232.392 206.104C233.203 206.104 233.859 205.848 234.36 205.336C234.872 204.813 235.128 204.088 235.128 203.16V203.016C235.128 202.088 234.872 201.368 234.36 200.856C233.859 200.333 233.203 200.072 232.392 200.072C231.592 200.072 230.931 200.333 230.408 200.856C229.896 201.368 229.64 202.088 229.64 203.016V203.16C229.64 204.088 229.896 204.813 230.408 205.336C230.931 205.848 231.592 206.104 232.392 206.104ZM242.001 207.144C241.436 207.144 240.913 207.021 240.433 206.776C239.964 206.531 239.591 206.168 239.313 205.688C239.047 205.197 238.913 204.605 238.913 203.912V199.176H240.177V203.816C240.177 204.595 240.369 205.16 240.753 205.512C241.148 205.864 241.676 206.04 242.337 206.04C243.084 206.04 243.697 205.795 244.177 205.304C244.657 204.813 244.897 204.083 244.897 203.112V199.176H246.161V207H244.929V205.672H244.705C244.535 206.045 244.241 206.387 243.825 206.696C243.409 206.995 242.801 207.144 242.001 207.144ZM249.126 207V199.176H250.358V200.152H250.582C250.731 199.875 250.977 199.619 251.318 199.384C251.659 199.149 252.139 199.032 252.758 199.032C253.366 199.032 253.857 199.165 254.23 199.432C254.614 199.699 254.891 200.024 255.062 200.408H255.286C255.467 200.024 255.739 199.699 256.102 199.432C256.475 199.165 256.993 199.032 257.654 199.032C258.177 199.032 258.635 199.139 259.03 199.352C259.425 199.565 259.734 199.875 259.958 200.28C260.193 200.675 260.31 201.149 260.31 201.704V207H259.046V201.816C259.046 201.293 258.891 200.883 258.582 200.584C258.283 200.275 257.862 200.12 257.318 200.12C256.742 200.12 256.267 200.307 255.894 200.68C255.531 201.053 255.35 201.592 255.35 202.296V207H254.086V201.816C254.086 201.293 253.931 200.883 253.622 200.584C253.323 200.275 252.902 200.12 252.358 200.12C251.782 200.12 251.307 200.307 250.934 200.68C250.571 201.053 250.39 201.592 250.39 202.296V207H249.126ZM263.212 210.2V199.176H264.444V200.472H264.668C264.87 200.077 265.196 199.725 265.644 199.416C266.102 199.107 266.737 198.952 267.548 198.952C268.22 198.952 268.833 199.117 269.388 199.448C269.953 199.768 270.401 200.227 270.732 200.824C271.073 201.421 271.244 202.141 271.244 202.984V203.192C271.244 204.024 271.078 204.744 270.748 205.352C270.417 205.96 269.969 206.424 269.404 206.744C268.849 207.064 268.23 207.224 267.548 207.224C267.004 207.224 266.54 207.149 266.156 207C265.782 206.861 265.478 206.68 265.244 206.456C265.009 206.232 264.828 206.003 264.7 205.768H264.476V210.2H263.212ZM267.212 206.104C268.022 206.104 268.678 205.848 269.18 205.336C269.692 204.813 269.948 204.088 269.948 203.16V203.016C269.948 202.088 269.692 201.368 269.18 200.856C268.678 200.333 268.022 200.072 267.212 200.072C266.412 200.072 265.75 200.333 265.228 200.856C264.716 201.368 264.46 202.088 264.46 203.016V203.16C264.46 204.088 264.716 204.813 265.228 205.336C265.75 205.848 266.412 206.104 267.212 206.104ZM280.658 207.224C280.114 207.224 279.618 207.128 279.17 206.936C278.722 206.744 278.37 206.467 278.114 206.104C277.858 205.741 277.73 205.299 277.73 204.776C277.73 204.243 277.858 203.805 278.114 203.464C278.37 203.112 278.722 202.851 279.17 202.68C279.618 202.499 280.119 202.408 280.674 202.408H283.314V201.832C283.314 201.277 283.149 200.84 282.818 200.52C282.498 200.2 282.018 200.04 281.378 200.04C280.749 200.04 280.258 200.195 279.906 200.504C279.554 200.803 279.314 201.208 279.186 201.72L278.002 201.336C278.13 200.899 278.333 200.504 278.61 200.152C278.887 199.789 279.255 199.501 279.714 199.288C280.183 199.064 280.743 198.952 281.394 198.952C282.397 198.952 283.175 199.213 283.73 199.736C284.285 200.248 284.562 200.973 284.562 201.912V205.448C284.562 205.768 284.711 205.928 285.01 205.928H285.73V207H284.626C284.274 207 283.991 206.904 283.778 206.712C283.565 206.509 283.458 206.243 283.458 205.912V205.832H283.266C283.149 206.035 282.989 206.248 282.786 206.472C282.594 206.685 282.327 206.861 281.986 207C281.645 207.149 281.202 207.224 280.658 207.224ZM280.802 206.136C281.549 206.136 282.151 205.917 282.61 205.48C283.079 205.032 283.314 204.408 283.314 203.608V203.432H280.722C280.221 203.432 279.805 203.544 279.474 203.768C279.154 203.981 278.994 204.307 278.994 204.744C278.994 205.181 279.159 205.523 279.49 205.768C279.831 206.013 280.269 206.136 280.802 206.136ZM287.781 207V199.176H289.013V200.504H289.237C289.408 200.131 289.696 199.795 290.101 199.496C290.517 199.187 291.125 199.032 291.925 199.032C292.512 199.032 293.034 199.155 293.493 199.4C293.962 199.645 294.336 200.008 294.613 200.488C294.89 200.968 295.029 201.56 295.029 202.264V207H293.765V202.36C293.765 201.581 293.568 201.016 293.173 200.664C292.789 200.312 292.266 200.136 291.605 200.136C290.848 200.136 290.229 200.381 289.749 200.872C289.28 201.363 289.045 202.093 289.045 203.064V207H287.781ZM301.226 207.224C300.554 207.224 299.935 207.064 299.37 206.744C298.804 206.424 298.356 205.96 298.026 205.352C297.695 204.744 297.53 204.024 297.53 203.192V202.984C297.53 202.152 297.695 201.437 298.026 200.84C298.356 200.232 298.799 199.768 299.354 199.448C299.919 199.117 300.543 198.952 301.226 198.952C301.77 198.952 302.228 199.027 302.602 199.176C302.986 199.315 303.295 199.496 303.53 199.72C303.764 199.933 303.946 200.163 304.074 200.408H304.298V195.8H305.562V207H304.33V205.704H304.106C303.892 206.099 303.562 206.451 303.114 206.76C302.666 207.069 302.036 207.224 301.226 207.224ZM301.562 206.104C302.372 206.104 303.028 205.848 303.53 205.336C304.042 204.813 304.298 204.088 304.298 203.16V203.016C304.298 202.088 304.042 201.368 303.53 200.856C303.028 200.333 302.372 200.072 301.562 200.072C300.762 200.072 300.1 200.333 299.578 200.856C299.066 201.368 298.81 202.088 298.81 203.016V203.16C298.81 204.088 299.066 204.813 299.578 205.336C300.1 205.848 300.762 206.104 301.562 206.104ZM48.3288 239.224C47.6568 239.224 47.0381 239.064 46.4728 238.744C45.9074 238.424 45.4594 237.96 45.1288 237.352C44.7981 236.744 44.6328 236.024 44.6328 235.192V234.984C44.6328 234.152 44.7981 233.437 45.1288 232.84C45.4594 232.232 45.9021 231.768 46.4568 231.448C47.0221 231.117 47.6461 230.952 48.3288 230.952C48.8728 230.952 49.3314 231.027 49.7048 231.176C50.0888 231.315 50.3981 231.496 50.6328 231.72C50.8674 231.933 51.0488 232.163 51.1768 232.408H51.4008V227.8H52.6648V239H51.4328V237.704H51.2088C50.9954 238.099 50.6648 238.451 50.2168 238.76C49.7688 239.069 49.1394 239.224 48.3288 239.224ZM48.6648 238.104C49.4754 238.104 50.1314 237.848 50.6328 237.336C51.1448 236.813 51.4008 236.088 51.4008 235.16V235.016C51.4008 234.088 51.1448 233.368 50.6328 232.856C50.1314 232.333 49.4754 232.072 48.6648 232.072C47.8648 232.072 47.2034 232.333 46.6808 232.856C46.1688 233.368 45.9128 234.088 45.9128 235.016V235.16C45.9128 236.088 46.1688 236.813 46.6808 237.336C47.2034 237.848 47.8648 238.104 48.6648 238.104ZM58.6256 239.144C58.0603 239.144 57.5376 239.021 57.0576 238.776C56.5883 238.531 56.215 238.168 55.9376 237.688C55.671 237.197 55.5376 236.605 55.5376 235.912V231.176H56.8016V235.816C56.8016 236.595 56.9936 237.16 57.3776 237.512C57.7723 237.864 58.3003 238.04 58.9616 238.04C59.7083 238.04 60.3216 237.795 60.8016 237.304C61.2816 236.813 61.5216 236.083 61.5216 235.112V231.176H62.7856V239H61.5536V237.672H61.3296C61.159 238.045 60.8656 238.387 60.4496 238.696C60.0336 238.995 59.4256 239.144 58.6256 239.144ZM65.7505 239V231.176H66.9825V232.152H67.2065C67.3558 231.875 67.6012 231.619 67.9425 231.384C68.2838 231.149 68.7638 231.032 69.3825 231.032C69.9905 231.032 70.4812 231.165 70.8545 231.432C71.2385 231.699 71.5158 232.024 71.6865 232.408H71.9105C72.0918 232.024 72.3638 231.699 72.7265 231.432C73.0998 231.165 73.6172 231.032 74.2785 231.032C74.8012 231.032 75.2598 231.139 75.6545 231.352C76.0492 231.565 76.3585 231.875 76.5825 232.28C76.8172 232.675 76.9345 233.149 76.9345 233.704V239H75.6705V233.816C75.6705 233.293 75.5158 232.883 75.2065 232.584C74.9078 232.275 74.4865 232.12 73.9425 232.12C73.3665 232.12 72.8918 232.307 72.5185 232.68C72.1558 233.053 71.9745 233.592 71.9745 234.296V239H70.7105V233.816C70.7105 233.293 70.5558 232.883 70.2465 232.584C69.9478 232.275 69.5265 232.12 68.9825 232.12C68.4065 232.12 67.9318 232.307 67.5585 232.68C67.1958 233.053 67.0145 233.592 67.0145 234.296V239H65.7505ZM79.8361 242.2V231.176H81.0681V232.472H81.2921C81.4948 232.077 81.8201 231.725 82.2681 231.416C82.7268 231.107 83.3615 230.952 84.1721 230.952C84.8441 230.952 85.4575 231.117 86.0121 231.448C86.5775 231.768 87.0255 232.227 87.3561 232.824C87.6975 233.421 87.8681 234.141 87.8681 234.984V235.192C87.8681 236.024 87.7028 236.744 87.3721 237.352C87.0415 237.96 86.5935 238.424 86.0281 238.744C85.4735 239.064 84.8548 239.224 84.1721 239.224C83.6281 239.224 83.1641 239.149 82.7801 239C82.4068 238.861 82.1028 238.68 81.8681 238.456C81.6335 238.232 81.4521 238.003 81.3241 237.768H81.1001V242.2H79.8361ZM83.8361 238.104C84.6468 238.104 85.3028 237.848 85.8041 237.336C86.3161 236.813 86.5721 236.088 86.5721 235.16V235.016C86.5721 234.088 86.3161 233.368 85.8041 232.856C85.3028 232.333 84.6468 232.072 83.8361 232.072C83.0361 232.072 82.3748 232.333 81.8521 232.856C81.3401 233.368 81.0841 234.088 81.0841 235.016V235.16C81.0841 236.088 81.3401 236.813 81.8521 237.336C82.3748 237.848 83.0361 238.104 83.8361 238.104ZM95.9704 239L94.4024 231.176H95.6824L96.9784 238.152H97.2024L98.9144 231.176H101.01L102.722 238.152H102.946L104.242 231.176H105.522L103.954 239H101.794L100.066 232.024H99.8584L98.1304 239H95.9704ZM108.015 239V231.176H109.279V239H108.015ZM108.655 229.96C108.378 229.96 108.143 229.869 107.951 229.688C107.77 229.507 107.679 229.277 107.679 229C107.679 228.712 107.77 228.477 107.951 228.296C108.143 228.115 108.378 228.024 108.655 228.024C108.932 228.024 109.162 228.115 109.343 228.296C109.524 228.477 109.615 228.712 109.615 229C109.615 229.277 109.524 229.507 109.343 229.688C109.162 229.869 108.932 229.96 108.655 229.96ZM115.137 239C114.689 239 114.342 238.877 114.097 238.632C113.862 238.387 113.745 238.051 113.745 237.624V232.28H111.393V231.176H113.745V228.392H115.009V231.176H117.569V232.28H115.009V237.432C115.009 237.752 115.163 237.912 115.473 237.912H117.217V239H115.137ZM119.936 239V227.8H121.2V232.424H121.424C121.531 232.189 121.691 231.971 121.904 231.768C122.128 231.555 122.411 231.379 122.752 231.24C123.104 231.101 123.547 231.032 124.08 231.032C124.667 231.032 125.189 231.16 125.648 231.416C126.117 231.661 126.491 232.024 126.768 232.504C127.045 232.973 127.184 233.56 127.184 234.264V239H125.92V234.36C125.92 233.581 125.723 233.016 125.328 232.664C124.944 232.312 124.421 232.136 123.76 232.136C123.003 232.136 122.384 232.381 121.904 232.872C121.435 233.363 121.2 234.093 121.2 235.064V239H119.936ZM133.685 239.224C132.895 239.224 132.197 239.059 131.589 238.728C130.991 238.397 130.522 237.933 130.181 237.336C129.85 236.728 129.685 236.013 129.685 235.192V234.984C129.685 234.173 129.85 233.464 130.181 232.856C130.522 232.248 130.991 231.779 131.589 231.448C132.197 231.117 132.895 230.952 133.685 230.952C134.474 230.952 135.167 231.117 135.765 231.448C136.373 231.779 136.842 232.248 137.173 232.856C137.514 233.464 137.685 234.173 137.685 234.984V235.192C137.685 236.013 137.514 236.728 137.173 237.336C136.842 237.933 136.373 238.397 135.765 238.728C135.167 239.059 134.474 239.224 133.685 239.224ZM133.685 238.088C134.517 238.088 135.178 237.827 135.669 237.304C136.17 236.771 136.421 236.056 136.421 235.16V235.016C136.421 234.12 136.17 233.411 135.669 232.888C135.178 232.355 134.517 232.088 133.685 232.088C132.863 232.088 132.202 232.355 131.701 232.888C131.199 233.411 130.949 234.12 130.949 235.016V235.16C130.949 236.056 131.199 236.771 131.701 237.304C132.202 237.827 132.863 238.088 133.685 238.088ZM143.271 239.144C142.706 239.144 142.183 239.021 141.703 238.776C141.234 238.531 140.861 238.168 140.583 237.688C140.317 237.197 140.183 236.605 140.183 235.912V231.176H141.447V235.816C141.447 236.595 141.639 237.16 142.023 237.512C142.418 237.864 142.946 238.04 143.607 238.04C144.354 238.04 144.967 237.795 145.447 237.304C145.927 236.813 146.167 236.083 146.167 235.112V231.176H147.431V239H146.199V237.672H145.975C145.805 238.045 145.511 238.387 145.095 238.696C144.679 238.995 144.071 239.144 143.271 239.144ZM153.276 239C152.828 239 152.481 238.877 152.236 238.632C152.001 238.387 151.884 238.051 151.884 237.624V232.28H149.532V231.176H151.884V228.392H153.148V231.176H155.708V232.28H153.148V237.432C153.148 237.752 153.303 237.912 153.612 237.912H155.356V239H153.276ZM165.657 239.224C164.686 239.224 163.865 239 163.193 238.552C162.532 238.104 162.132 237.395 161.993 236.424L163.193 236.152C163.278 236.664 163.438 237.069 163.673 237.368C163.908 237.656 164.196 237.864 164.537 237.992C164.889 238.109 165.262 238.168 165.657 238.168C166.244 238.168 166.708 238.051 167.049 237.816C167.39 237.581 167.561 237.267 167.561 236.872C167.561 236.467 167.396 236.184 167.065 236.024C166.745 235.853 166.302 235.715 165.737 235.608L165.081 235.496C164.58 235.411 164.121 235.277 163.705 235.096C163.289 234.915 162.958 234.669 162.713 234.36C162.468 234.051 162.345 233.661 162.345 233.192C162.345 232.488 162.617 231.939 163.161 231.544C163.705 231.149 164.425 230.952 165.321 230.952C166.206 230.952 166.921 231.155 167.465 231.56C168.02 231.955 168.377 232.515 168.537 233.24L167.353 233.544C167.257 232.979 167.028 232.584 166.665 232.36C166.302 232.125 165.854 232.008 165.321 232.008C164.788 232.008 164.366 232.109 164.057 232.312C163.748 232.504 163.593 232.792 163.593 233.176C163.593 233.549 163.737 233.827 164.025 234.008C164.324 234.179 164.718 234.307 165.209 234.392L165.865 234.504C166.42 234.6 166.916 234.733 167.353 234.904C167.801 235.064 168.153 235.299 168.409 235.608C168.676 235.917 168.809 236.323 168.809 236.824C168.809 237.592 168.521 238.184 167.945 238.6C167.38 239.016 166.617 239.224 165.657 239.224ZM174.846 239.224C174.057 239.224 173.364 239.059 172.766 238.728C172.169 238.387 171.705 237.912 171.374 237.304C171.044 236.696 170.878 235.992 170.878 235.192V235C170.878 234.189 171.044 233.48 171.374 232.872C171.705 232.264 172.164 231.795 172.75 231.464C173.337 231.123 174.009 230.952 174.766 230.952C175.502 230.952 176.153 231.112 176.718 231.432C177.284 231.741 177.726 232.189 178.046 232.776C178.366 233.363 178.526 234.051 178.526 234.84V235.416H172.142C172.174 236.259 172.446 236.92 172.958 237.4C173.47 237.869 174.11 238.104 174.878 238.104C175.55 238.104 176.068 237.949 176.43 237.64C176.793 237.331 177.07 236.963 177.262 236.536L178.35 237.064C178.19 237.395 177.966 237.725 177.678 238.056C177.401 238.387 177.033 238.664 176.574 238.888C176.126 239.112 175.55 239.224 174.846 239.224ZM172.158 234.376H177.246C177.204 233.651 176.953 233.085 176.494 232.68C176.046 232.275 175.47 232.072 174.766 232.072C174.052 232.072 173.465 232.275 173.006 232.68C172.548 233.085 172.265 233.651 172.158 234.376ZM181.051 239V227.8H182.315V239H181.051ZM185.293 239V227.8H186.557V239H185.293ZM189.535 239V231.176H190.799V239H189.535ZM190.175 229.96C189.898 229.96 189.663 229.869 189.471 229.688C189.29 229.507 189.199 229.277 189.199 229C189.199 228.712 189.29 228.477 189.471 228.296C189.663 228.115 189.898 228.024 190.175 228.024C190.452 228.024 190.682 228.115 190.863 228.296C191.044 228.477 191.135 228.712 191.135 229C191.135 229.277 191.044 229.507 190.863 229.688C190.682 229.869 190.452 229.96 190.175 229.96ZM193.777 239V231.176H195.009V232.504H195.233C195.403 232.131 195.691 231.795 196.097 231.496C196.513 231.187 197.121 231.032 197.921 231.032C198.507 231.032 199.03 231.155 199.489 231.4C199.958 231.645 200.331 232.008 200.609 232.488C200.886 232.968 201.025 233.56 201.025 234.264V239H199.761V234.36C199.761 233.581 199.563 233.016 199.169 232.664C198.785 232.312 198.262 232.136 197.601 232.136C196.843 232.136 196.225 232.381 195.745 232.872C195.275 233.363 195.041 234.093 195.041 235.064V239H193.777ZM203.525 235.128V234.904C203.525 234.083 203.691 233.379 204.021 232.792C204.352 232.205 204.8 231.752 205.365 231.432C205.931 231.112 206.549 230.952 207.221 230.952C208.043 230.952 208.672 231.112 209.109 231.432C209.557 231.741 209.888 232.088 210.101 232.472H210.325V231.176H211.525V240.824C211.525 241.251 211.408 241.587 211.173 241.832C210.939 242.077 210.597 242.2 210.149 242.2H204.837V241.08H209.813C210.133 241.08 210.293 240.92 210.293 240.6V237.624H210.069C209.941 237.859 209.76 238.088 209.525 238.312C209.291 238.536 208.987 238.723 208.613 238.872C208.24 239.011 207.776 239.08 207.221 239.08C206.549 239.08 205.931 238.92 205.365 238.6C204.8 238.28 204.352 237.827 204.021 237.24C203.691 236.643 203.525 235.939 203.525 235.128ZM207.557 237.96C208.368 237.96 209.024 237.704 209.525 237.192C210.037 236.68 210.293 235.976 210.293 235.08V234.952C210.293 234.045 210.037 233.341 209.525 232.84C209.024 232.328 208.368 232.072 207.557 232.072C206.757 232.072 206.096 232.328 205.573 232.84C205.061 233.341 204.805 234.045 204.805 234.952V235.08C204.805 235.976 205.061 236.68 205.573 237.192C206.096 237.704 206.757 237.96 207.557 237.96ZM223.26 239.224C222.45 239.224 221.815 239.069 221.356 238.76C220.908 238.451 220.583 238.099 220.38 237.704H220.156V239H218.924V227.8H220.188V232.408H220.412C220.54 232.163 220.722 231.933 220.956 231.72C221.191 231.496 221.495 231.315 221.868 231.176C222.252 231.027 222.716 230.952 223.26 230.952C223.943 230.952 224.562 231.117 225.116 231.448C225.682 231.768 226.13 232.232 226.46 232.84C226.791 233.437 226.956 234.152 226.956 234.984V235.192C226.956 236.024 226.786 236.744 226.444 237.352C226.114 237.96 225.666 238.424 225.1 238.744C224.546 239.064 223.932 239.224 223.26 239.224ZM222.924 238.104C223.735 238.104 224.391 237.848 224.892 237.336C225.404 236.813 225.66 236.088 225.66 235.16V235.016C225.66 234.088 225.404 233.368 224.892 232.856C224.391 232.333 223.735 232.072 222.924 232.072C222.124 232.072 221.463 232.333 220.94 232.856C220.428 233.368 220.172 234.088 220.172 235.016V235.16C220.172 236.088 220.428 236.813 220.94 237.336C221.463 237.848 222.124 238.104 222.924 238.104ZM233.125 239.224C232.336 239.224 231.642 239.059 231.045 238.728C230.448 238.387 229.984 237.912 229.653 237.304C229.322 236.696 229.157 235.992 229.157 235.192V235C229.157 234.189 229.322 233.48 229.653 232.872C229.984 232.264 230.442 231.795 231.029 231.464C231.616 231.123 232.288 230.952 233.045 230.952C233.781 230.952 234.432 231.112 234.997 231.432C235.562 231.741 236.005 232.189 236.325 232.776C236.645 233.363 236.805 234.051 236.805 234.84V235.416H230.421C230.453 236.259 230.725 236.92 231.237 237.4C231.749 237.869 232.389 238.104 233.157 238.104C233.829 238.104 234.346 237.949 234.709 237.64C235.072 237.331 235.349 236.963 235.541 236.536L236.629 237.064C236.469 237.395 236.245 237.725 235.957 238.056C235.68 238.387 235.312 238.664 234.853 238.888C234.405 239.112 233.829 239.224 233.125 239.224ZM230.437 234.376H235.525C235.482 233.651 235.232 233.085 234.773 232.68C234.325 232.275 233.749 232.072 233.045 232.072C232.33 232.072 231.744 232.275 231.285 232.68C230.826 233.085 230.544 233.651 230.437 234.376ZM242.93 239.224C242.173 239.224 241.49 239.064 240.882 238.744C240.285 238.413 239.81 237.944 239.458 237.336C239.117 236.728 238.946 236.008 238.946 235.176V235C238.946 234.157 239.117 233.437 239.458 232.84C239.81 232.232 240.285 231.768 240.882 231.448C241.49 231.117 242.173 230.952 242.93 230.952C243.677 230.952 244.311 231.091 244.834 231.368C245.367 231.645 245.783 232.013 246.082 232.472C246.391 232.931 246.589 233.421 246.674 233.944L245.442 234.2C245.389 233.816 245.261 233.464 245.058 233.144C244.866 232.824 244.594 232.568 244.242 232.376C243.89 232.184 243.458 232.088 242.946 232.088C242.423 232.088 241.954 232.205 241.538 232.44C241.133 232.675 240.807 233.011 240.562 233.448C240.327 233.885 240.21 234.408 240.21 235.016V235.16C240.21 235.768 240.327 236.291 240.562 236.728C240.807 237.165 241.133 237.501 241.538 237.736C241.954 237.971 242.423 238.088 242.946 238.088C243.725 238.088 244.317 237.885 244.722 237.48C245.138 237.075 245.394 236.573 245.49 235.976L246.738 236.248C246.621 236.76 246.407 237.245 246.098 237.704C245.789 238.163 245.367 238.531 244.834 238.808C244.311 239.085 243.677 239.224 242.93 239.224ZM251.612 239.224C251.068 239.224 250.572 239.128 250.124 238.936C249.676 238.744 249.324 238.467 249.068 238.104C248.812 237.741 248.684 237.299 248.684 236.776C248.684 236.243 248.812 235.805 249.068 235.464C249.324 235.112 249.676 234.851 250.124 234.68C250.572 234.499 251.074 234.408 251.628 234.408H254.268V233.832C254.268 233.277 254.103 232.84 253.772 232.52C253.452 232.2 252.972 232.04 252.332 232.04C251.703 232.04 251.212 232.195 250.86 232.504C250.508 232.803 250.268 233.208 250.14 233.72L248.956 233.336C249.084 232.899 249.287 232.504 249.564 232.152C249.842 231.789 250.21 231.501 250.668 231.288C251.138 231.064 251.698 230.952 252.348 230.952C253.351 230.952 254.13 231.213 254.684 231.736C255.239 232.248 255.516 232.973 255.516 233.912V237.448C255.516 237.768 255.666 237.928 255.964 237.928H256.684V239H255.58C255.228 239 254.946 238.904 254.732 238.712C254.519 238.509 254.412 238.243 254.412 237.912V237.832H254.22C254.103 238.035 253.943 238.248 253.74 238.472C253.548 238.685 253.282 238.861 252.94 239C252.599 239.149 252.156 239.224 251.612 239.224ZM251.756 238.136C252.503 238.136 253.106 237.917 253.564 237.48C254.034 237.032 254.268 236.408 254.268 235.608V235.432H251.676C251.175 235.432 250.759 235.544 250.428 235.768C250.108 235.981 249.948 236.307 249.948 236.744C249.948 237.181 250.114 237.523 250.444 237.768C250.786 238.013 251.223 238.136 251.756 238.136ZM261.524 239.144C260.959 239.144 260.436 239.021 259.956 238.776C259.487 238.531 259.114 238.168 258.836 237.688C258.57 237.197 258.436 236.605 258.436 235.912V231.176H259.7V235.816C259.7 236.595 259.892 237.16 260.276 237.512C260.671 237.864 261.199 238.04 261.86 238.04C262.607 238.04 263.22 237.795 263.7 237.304C264.18 236.813 264.42 236.083 264.42 235.112V231.176H265.684V239H264.452V237.672H264.228C264.058 238.045 263.764 238.387 263.348 238.696C262.932 238.995 262.324 239.144 261.524 239.144ZM271.801 239.224C270.831 239.224 270.009 239 269.337 238.552C268.676 238.104 268.276 237.395 268.137 236.424L269.337 236.152C269.423 236.664 269.583 237.069 269.817 237.368C270.052 237.656 270.34 237.864 270.681 237.992C271.033 238.109 271.407 238.168 271.801 238.168C272.388 238.168 272.852 238.051 273.193 237.816C273.535 237.581 273.705 237.267 273.705 236.872C273.705 236.467 273.54 236.184 273.209 236.024C272.889 235.853 272.447 235.715 271.881 235.608L271.225 235.496C270.724 235.411 270.265 235.277 269.849 235.096C269.433 234.915 269.103 234.669 268.857 234.36C268.612 234.051 268.489 233.661 268.489 233.192C268.489 232.488 268.761 231.939 269.305 231.544C269.849 231.149 270.569 230.952 271.465 230.952C272.351 230.952 273.065 231.155 273.609 231.56C274.164 231.955 274.521 232.515 274.681 233.24L273.497 233.544C273.401 232.979 273.172 232.584 272.809 232.36C272.447 232.125 271.999 232.008 271.465 232.008C270.932 232.008 270.511 232.109 270.201 232.312C269.892 232.504 269.737 232.792 269.737 233.176C269.737 233.549 269.881 233.827 270.169 234.008C270.468 234.179 270.863 234.307 271.353 234.392L272.009 234.504C272.564 234.6 273.06 234.733 273.497 234.904C273.945 235.064 274.297 235.299 274.553 235.608C274.82 235.917 274.953 236.323 274.953 236.824C274.953 237.592 274.665 238.184 274.089 238.6C273.524 239.016 272.761 239.224 271.801 239.224ZM280.991 239.224C280.201 239.224 279.508 239.059 278.911 238.728C278.313 238.387 277.849 237.912 277.519 237.304C277.188 236.696 277.023 235.992 277.023 235.192V235C277.023 234.189 277.188 233.48 277.519 232.872C277.849 232.264 278.308 231.795 278.895 231.464C279.481 231.123 280.153 230.952 280.911 230.952C281.647 230.952 282.297 231.112 282.863 231.432C283.428 231.741 283.871 232.189 284.191 232.776C284.511 233.363 284.671 234.051 284.671 234.84V235.416H278.287C278.319 236.259 278.591 236.92 279.103 237.4C279.615 237.869 280.255 238.104 281.023 238.104C281.695 238.104 282.212 237.949 282.575 237.64C282.937 237.331 283.215 236.963 283.407 236.536L284.495 237.064C284.335 237.395 284.111 237.725 283.823 238.056C283.545 238.387 283.177 238.664 282.719 238.888C282.271 239.112 281.695 239.224 280.991 239.224ZM278.303 234.376H283.391C283.348 233.651 283.097 233.085 282.639 232.68C282.191 232.275 281.615 232.072 280.911 232.072C280.196 232.072 279.609 232.275 279.151 232.68C278.692 233.085 278.409 233.651 278.303 234.376ZM291.625 239V231.176H292.889V239H291.625ZM292.265 229.96C291.988 229.96 291.753 229.869 291.561 229.688C291.38 229.507 291.289 229.277 291.289 229C291.289 228.712 291.38 228.477 291.561 228.296C291.753 228.115 291.988 228.024 292.265 228.024C292.542 228.024 292.772 228.115 292.953 228.296C293.134 228.477 293.225 228.712 293.225 229C293.225 229.277 293.134 229.507 292.953 229.688C292.772 229.869 292.542 229.96 292.265 229.96ZM298.747 239C298.299 239 297.952 238.877 297.707 238.632C297.472 238.387 297.355 238.051 297.355 237.624V232.28H295.003V231.176H297.355V228.392H298.619V231.176H301.179V232.28H298.619V237.432C298.619 237.752 298.773 237.912 299.083 237.912H300.827V239H298.747ZM303.481 231.512V230.712H303.945C304.329 230.712 304.521 230.52 304.521 230.136V229.624H304.297C303.987 229.624 303.726 229.528 303.513 229.336C303.31 229.144 303.209 228.904 303.209 228.616C303.209 228.307 303.31 228.056 303.513 227.864C303.726 227.672 303.987 227.576 304.297 227.576C304.606 227.576 304.862 227.677 305.065 227.88C305.267 228.083 305.369 228.339 305.369 228.648V230.136C305.369 231.053 304.91 231.512 303.993 231.512H303.481ZM311.034 239.224C310.063 239.224 309.242 239 308.57 238.552C307.908 238.104 307.508 237.395 307.37 236.424L308.57 236.152C308.655 236.664 308.815 237.069 309.05 237.368C309.284 237.656 309.572 237.864 309.914 237.992C310.266 238.109 310.639 238.168 311.034 238.168C311.62 238.168 312.084 238.051 312.426 237.816C312.767 237.581 312.938 237.267 312.938 236.872C312.938 236.467 312.772 236.184 312.442 236.024C312.122 235.853 311.679 235.715 311.114 235.608L310.458 235.496C309.956 235.411 309.498 235.277 309.082 235.096C308.666 234.915 308.335 234.669 308.09 234.36C307.844 234.051 307.722 233.661 307.722 233.192C307.722 232.488 307.994 231.939 308.538 231.544C309.082 231.149 309.802 230.952 310.698 230.952C311.583 230.952 312.298 231.155 312.842 231.56C313.396 231.955 313.754 232.515 313.914 233.24L312.73 233.544C312.634 232.979 312.404 232.584 312.042 232.36C311.679 232.125 311.231 232.008 310.698 232.008C310.164 232.008 309.743 232.109 309.434 232.312C309.124 232.504 308.97 232.792 308.97 233.176C308.97 233.549 309.114 233.827 309.402 234.008C309.7 234.179 310.095 234.307 310.586 234.392L311.242 234.504C311.796 234.6 312.292 234.733 312.73 234.904C313.178 235.064 313.53 235.299 313.786 235.608C314.052 235.917 314.186 236.323 314.186 236.824C314.186 237.592 313.898 238.184 313.322 238.6C312.756 239.016 311.994 239.224 311.034 239.224ZM137.233 271.224C136.689 271.224 136.193 271.128 135.745 270.936C135.297 270.744 134.945 270.467 134.689 270.104C134.433 269.741 134.305 269.299 134.305 268.776C134.305 268.243 134.433 267.805 134.689 267.464C134.945 267.112 135.297 266.851 135.745 266.68C136.193 266.499 136.695 266.408 137.249 266.408H139.889V265.832C139.889 265.277 139.724 264.84 139.393 264.52C139.073 264.2 138.593 264.04 137.953 264.04C137.324 264.04 136.833 264.195 136.481 264.504C136.129 264.803 135.889 265.208 135.761 265.72L134.577 265.336C134.705 264.899 134.908 264.504 135.185 264.152C135.463 263.789 135.831 263.501 136.289 263.288C136.759 263.064 137.319 262.952 137.969 262.952C138.972 262.952 139.751 263.213 140.305 263.736C140.86 264.248 141.137 264.973 141.137 265.912V269.448C141.137 269.768 141.287 269.928 141.585 269.928H142.305V271H141.201C140.849 271 140.567 270.904 140.353 270.712C140.14 270.509 140.033 270.243 140.033 269.912V269.832H139.841C139.724 270.035 139.564 270.248 139.361 270.472C139.169 270.685 138.903 270.861 138.561 271C138.22 271.149 137.777 271.224 137.233 271.224ZM137.377 270.136C138.124 270.136 138.727 269.917 139.185 269.48C139.655 269.032 139.889 268.408 139.889 267.608V267.432H137.297C136.796 267.432 136.38 267.544 136.049 267.768C135.729 267.981 135.569 268.307 135.569 268.744C135.569 269.181 135.735 269.523 136.065 269.768C136.407 270.013 136.844 270.136 137.377 270.136ZM147.145 271.144C146.58 271.144 146.057 271.021 145.577 270.776C145.108 270.531 144.735 270.168 144.457 269.688C144.191 269.197 144.057 268.605 144.057 267.912V263.176H145.321V267.816C145.321 268.595 145.513 269.16 145.897 269.512C146.292 269.864 146.82 270.04 147.481 270.04C148.228 270.04 148.841 269.795 149.321 269.304C149.801 268.813 150.041 268.083 150.041 267.112V263.176H151.305V271H150.073V269.672H149.849C149.679 270.045 149.385 270.387 148.969 270.696C148.553 270.995 147.945 271.144 147.145 271.144ZM157.15 271C156.702 271 156.356 270.877 156.11 270.632C155.876 270.387 155.758 270.051 155.758 269.624V264.28H153.406V263.176H155.758V260.392H157.022V263.176H159.582V264.28H157.022V269.432C157.022 269.752 157.177 269.912 157.486 269.912H159.23V271H157.15ZM165.284 271.224C164.495 271.224 163.796 271.059 163.188 270.728C162.591 270.397 162.122 269.933 161.78 269.336C161.45 268.728 161.284 268.013 161.284 267.192V266.984C161.284 266.173 161.45 265.464 161.78 264.856C162.122 264.248 162.591 263.779 163.188 263.448C163.796 263.117 164.495 262.952 165.284 262.952C166.074 262.952 166.767 263.117 167.364 263.448C167.972 263.779 168.442 264.248 168.772 264.856C169.114 265.464 169.284 266.173 169.284 266.984V267.192C169.284 268.013 169.114 268.728 168.772 269.336C168.442 269.933 167.972 270.397 167.364 270.728C166.767 271.059 166.074 271.224 165.284 271.224ZM165.284 270.088C166.116 270.088 166.778 269.827 167.268 269.304C167.77 268.771 168.02 268.056 168.02 267.16V267.016C168.02 266.12 167.77 265.411 167.268 264.888C166.778 264.355 166.116 264.088 165.284 264.088C164.463 264.088 163.802 264.355 163.3 264.888C162.799 265.411 162.548 266.12 162.548 267.016V267.16C162.548 268.056 162.799 268.771 163.3 269.304C163.802 269.827 164.463 270.088 165.284 270.088ZM171.879 271V263.176H173.111V264.152H173.335C173.484 263.875 173.73 263.619 174.071 263.384C174.412 263.149 174.892 263.032 175.511 263.032C176.119 263.032 176.61 263.165 176.983 263.432C177.367 263.699 177.644 264.024 177.815 264.408H178.039C178.22 264.024 178.492 263.699 178.855 263.432C179.228 263.165 179.746 263.032 180.407 263.032C180.93 263.032 181.388 263.139 181.783 263.352C182.178 263.565 182.487 263.875 182.711 264.28C182.946 264.675 183.063 265.149 183.063 265.704V271H181.799V265.816C181.799 265.293 181.644 264.883 181.335 264.584C181.036 264.275 180.615 264.12 180.071 264.12C179.495 264.12 179.02 264.307 178.647 264.68C178.284 265.053 178.103 265.592 178.103 266.296V271H176.839V265.816C176.839 265.293 176.684 264.883 176.375 264.584C176.076 264.275 175.655 264.12 175.111 264.12C174.535 264.12 174.06 264.307 173.687 264.68C173.324 265.053 173.143 265.592 173.143 266.296V271H171.879ZM188.365 271.224C187.821 271.224 187.325 271.128 186.877 270.936C186.429 270.744 186.077 270.467 185.821 270.104C185.565 269.741 185.437 269.299 185.437 268.776C185.437 268.243 185.565 267.805 185.821 267.464C186.077 267.112 186.429 266.851 186.877 266.68C187.325 266.499 187.826 266.408 188.381 266.408H191.021V265.832C191.021 265.277 190.855 264.84 190.525 264.52C190.205 264.2 189.725 264.04 189.085 264.04C188.455 264.04 187.965 264.195 187.613 264.504C187.261 264.803 187.021 265.208 186.893 265.72L185.709 265.336C185.837 264.899 186.039 264.504 186.317 264.152C186.594 263.789 186.962 263.501 187.421 263.288C187.89 263.064 188.45 262.952 189.101 262.952C190.103 262.952 190.882 263.213 191.437 263.736C191.991 264.248 192.269 264.973 192.269 265.912V269.448C192.269 269.768 192.418 269.928 192.717 269.928H193.437V271H192.333C191.981 271 191.698 270.904 191.485 270.712C191.271 270.509 191.165 270.243 191.165 269.912V269.832H190.973C190.855 270.035 190.695 270.248 190.493 270.472C190.301 270.685 190.034 270.861 189.693 271C189.351 271.149 188.909 271.224 188.365 271.224ZM188.509 270.136C189.255 270.136 189.858 269.917 190.317 269.48C190.786 269.032 191.021 268.408 191.021 267.608V267.432H188.429C187.927 267.432 187.511 267.544 187.181 267.768C186.861 267.981 186.701 268.307 186.701 268.744C186.701 269.181 186.866 269.523 187.197 269.768C187.538 270.013 187.975 270.136 188.509 270.136ZM197.852 271C197.404 271 197.057 270.877 196.812 270.632C196.577 270.387 196.46 270.051 196.46 269.624V264.28H194.108V263.176H196.46V260.392H197.724V263.176H200.284V264.28H197.724V269.432C197.724 269.752 197.879 269.912 198.188 269.912H199.932V271H197.852ZM205.954 271.224C205.165 271.224 204.472 271.059 203.874 270.728C203.277 270.387 202.813 269.912 202.482 269.304C202.152 268.696 201.986 267.992 201.986 267.192V267C201.986 266.189 202.152 265.48 202.482 264.872C202.813 264.264 203.272 263.795 203.858 263.464C204.445 263.123 205.117 262.952 205.874 262.952C206.61 262.952 207.261 263.112 207.826 263.432C208.392 263.741 208.834 264.189 209.154 264.776C209.474 265.363 209.634 266.051 209.634 266.84V267.416H203.25C203.282 268.259 203.554 268.92 204.066 269.4C204.578 269.869 205.218 270.104 205.986 270.104C206.658 270.104 207.176 269.949 207.538 269.64C207.901 269.331 208.178 268.963 208.37 268.536L209.458 269.064C209.298 269.395 209.074 269.725 208.786 270.056C208.509 270.387 208.141 270.664 207.682 270.888C207.234 271.112 206.658 271.224 205.954 271.224ZM203.266 266.376H208.354C208.312 265.651 208.061 265.085 207.602 264.68C207.154 264.275 206.578 264.072 205.874 264.072C205.16 264.072 204.573 264.275 204.114 264.68C203.656 265.085 203.373 265.651 203.266 266.376ZM215.471 271.224C214.799 271.224 214.18 271.064 213.615 270.744C213.05 270.424 212.602 269.96 212.271 269.352C211.94 268.744 211.775 268.024 211.775 267.192V266.984C211.775 266.152 211.94 265.437 212.271 264.84C212.602 264.232 213.044 263.768 213.599 263.448C214.164 263.117 214.788 262.952 215.471 262.952C216.015 262.952 216.474 263.027 216.847 263.176C217.231 263.315 217.54 263.496 217.775 263.72C218.01 263.933 218.191 264.163 218.319 264.408H218.543V259.8H219.807V271H218.575V269.704H218.351C218.138 270.099 217.807 270.451 217.359 270.76C216.911 271.069 216.282 271.224 215.471 271.224ZM215.807 270.104C216.618 270.104 217.274 269.848 217.775 269.336C218.287 268.813 218.543 268.088 218.543 267.16V267.016C218.543 266.088 218.287 265.368 217.775 264.856C217.274 264.333 216.618 264.072 215.807 264.072C215.007 264.072 214.346 264.333 213.823 264.856C213.311 265.368 213.055 266.088 213.055 267.016V267.16C213.055 268.088 213.311 268.813 213.823 269.336C214.346 269.848 215.007 270.104 215.807 270.104ZM223.464 271.224C223.154 271.224 222.893 271.123 222.68 270.92C222.477 270.717 222.376 270.456 222.376 270.136C222.376 269.816 222.477 269.555 222.68 269.352C222.893 269.149 223.154 269.048 223.464 269.048C223.784 269.048 224.045 269.149 224.248 269.352C224.45 269.555 224.552 269.816 224.552 270.136C224.552 270.456 224.45 270.717 224.248 270.92C224.045 271.123 223.784 271.224 223.464 271.224Z" fill="white"/>
<rect x="0.5" y="0.5" width="359" height="371" rx="19.5" stroke="white"/>
</svg>
