<svg width="622" height="192" viewBox="0 0 622 192" fill="none" xmlns="http://www.w3.org/2000/svg">
<path d="M84.3539 41.336C82.2419 41.336 80.5619 40.76 79.3139 39.608C78.0659 38.44 77.4419 36.776 77.4419 34.616V30.584C77.4419 28.424 78.0659 26.768 79.3139 25.616C80.5619 24.448 82.2419 23.864 84.3539 23.864C86.4659 23.864 88.1459 24.448 89.3939 25.616C90.6419 26.768 91.2659 28.424 91.2659 30.584V34.616C91.2659 36.776 90.6419 38.44 89.3939 39.608C88.1459 40.76 86.4659 41.336 84.3539 41.336ZM84.3539 38.504C85.5379 38.504 86.4579 38.16 87.1139 37.472C87.7699 36.784 88.0979 35.864 88.0979 34.712V30.488C88.0979 29.336 87.7699 28.416 87.1139 27.728C86.4579 27.04 85.5379 26.696 84.3539 26.696C83.1859 26.696 82.2659 27.04 81.5939 27.728C80.9379 28.416 80.6099 29.336 80.6099 30.488V34.712C80.6099 35.864 80.9379 36.784 81.5939 37.472C82.2659 38.16 83.1859 38.504 84.3539 38.504ZM85.4579 45.32C84.6739 45.32 84.0339 45.072 83.5379 44.576C83.0579 44.096 82.8179 43.448 82.8179 42.632V41H85.8899V42.152C85.8899 42.632 86.1139 42.872 86.5619 42.872H87.9779V45.32H85.4579ZM99.1326 41V26.456H98.7006L96.4446 31.784H93.2286L96.6606 24.2H102.205V41H99.1326ZM106.168 44.528V42.896H107.104C107.84 42.896 108.208 42.528 108.208 41.792V41.024H107.8C107.16 41.024 106.624 40.832 106.192 40.448C105.776 40.064 105.568 39.576 105.568 38.984C105.568 38.344 105.776 37.824 106.192 37.424C106.624 37.024 107.16 36.824 107.8 36.824C108.456 36.824 108.992 37.032 109.408 37.448C109.824 37.848 110.032 38.392 110.032 39.08V41.84C110.032 43.632 109.136 44.528 107.344 44.528H106.168ZM118.662 41V38.984C118.662 37.816 118.854 36.848 119.238 36.08C119.622 35.296 120.174 34.656 120.894 34.16C121.63 33.648 122.526 33.232 123.582 32.912L125.19 32.408C125.782 32.216 126.278 31.984 126.678 31.712C127.078 31.424 127.382 31.08 127.59 30.68C127.814 30.28 127.926 29.824 127.926 29.312V29.216C127.926 28.416 127.654 27.784 127.11 27.32C126.566 26.84 125.822 26.6 124.878 26.6C123.95 26.6 123.198 26.856 122.622 27.368C122.062 27.864 121.782 28.584 121.782 29.528V29.96H118.71V29.576C118.71 28.36 118.982 27.328 119.526 26.48C120.07 25.632 120.806 24.984 121.734 24.536C122.678 24.088 123.726 23.864 124.878 23.864C126.03 23.864 127.07 24.088 127.998 24.536C128.926 24.968 129.654 25.584 130.182 26.384C130.726 27.168 130.998 28.096 130.998 29.168V29.408C130.998 30.48 130.774 31.392 130.326 32.144C129.894 32.88 129.302 33.488 128.55 33.968C127.798 34.432 126.942 34.816 125.982 35.12L124.446 35.6C123.758 35.808 123.222 36.04 122.838 36.296C122.454 36.536 122.182 36.808 122.022 37.112C121.878 37.4 121.806 37.752 121.806 38.168V38.264H130.854V41H118.662ZM140.16 41.336C138.176 41.336 136.584 40.792 135.384 39.704C134.184 38.6 133.584 36.936 133.584 34.712V30.488C133.584 28.328 134.184 26.688 135.384 25.568C136.584 24.432 138.176 23.864 140.16 23.864C142.16 23.864 143.752 24.432 144.936 25.568C146.136 26.688 146.736 28.328 146.736 30.488V34.712C146.736 36.936 146.136 38.6 144.936 39.704C143.752 40.792 142.16 41.336 140.16 41.336ZM140.16 38.6C141.36 38.6 142.24 38.272 142.8 37.616C143.376 36.96 143.664 36.024 143.664 34.808V30.344C143.664 29.112 143.344 28.184 142.704 27.56C142.08 26.92 141.232 26.6 140.16 26.6C139.056 26.6 138.192 26.928 137.568 27.584C136.96 28.24 136.656 29.16 136.656 30.344V34.808C136.656 36.072 136.944 37.024 137.52 37.664C138.112 38.288 138.992 38.6 140.16 38.6ZM149.435 41V38.984C149.435 37.816 149.627 36.848 150.011 36.08C150.395 35.296 150.947 34.656 151.667 34.16C152.403 33.648 153.299 33.232 154.355 32.912L155.963 32.408C156.555 32.216 157.051 31.984 157.451 31.712C157.851 31.424 158.155 31.08 158.363 30.68C158.587 30.28 158.699 29.824 158.699 29.312V29.216C158.699 28.416 158.427 27.784 157.883 27.32C157.339 26.84 156.595 26.6 155.651 26.6C154.723 26.6 153.971 26.856 153.395 27.368C152.835 27.864 152.555 28.584 152.555 29.528V29.96H149.483V29.576C149.483 28.36 149.755 27.328 150.299 26.48C150.843 25.632 151.579 24.984 152.507 24.536C153.451 24.088 154.499 23.864 155.651 23.864C156.803 23.864 157.843 24.088 158.771 24.536C159.699 24.968 160.427 25.584 160.955 26.384C161.499 27.168 161.771 28.096 161.771 29.168V29.408C161.771 30.48 161.547 31.392 161.099 32.144C160.667 32.88 160.075 33.488 159.323 33.968C158.571 34.432 157.715 34.816 156.755 35.12L155.219 35.6C154.531 35.808 153.995 36.04 153.611 36.296C153.227 36.536 152.955 36.808 152.795 37.112C152.651 37.4 152.579 37.752 152.579 38.168V38.264H161.627V41H149.435ZM170.453 41.336C169.189 41.336 168.069 41.112 167.093 40.664C166.117 40.216 165.349 39.576 164.789 38.744C164.245 37.896 163.973 36.896 163.973 35.744V35.312H167.045V35.648C167.045 36.544 167.357 37.264 167.981 37.808C168.605 38.336 169.429 38.6 170.453 38.6C171.493 38.6 172.293 38.352 172.853 37.856C173.429 37.36 173.717 36.736 173.717 35.984V35.744C173.717 35.232 173.589 34.816 173.333 34.496C173.077 34.176 172.733 33.944 172.301 33.8C171.869 33.64 171.381 33.56 170.837 33.56H167.477V30.2L172.901 27.32V26.936H164.405V24.2H176.309V28.28L171.245 30.968V31.352H172.133C172.885 31.352 173.613 31.504 174.317 31.808C175.037 32.112 175.629 32.584 176.093 33.224C176.557 33.848 176.789 34.664 176.789 35.672V35.96C176.789 37.048 176.525 38 175.997 38.816C175.469 39.616 174.725 40.24 173.765 40.688C172.821 41.12 171.717 41.336 170.453 41.336Z" fill="white"/>
<line opacity="0.64" x1="76" y1="57.5" x2="524.571" y2="57.5" stroke="white"/>
<path d="M93.9414 84.4395L83.502 94.8887L78.0625 89.4395L78.9414 88.5605L83.502 93.1113L93.0625 83.5605L93.9414 84.4395Z" fill="#24FF00"/>
<path d="M121.358 95.224C120.515 95.224 119.768 95.0747 119.118 94.776C118.467 94.4773 117.955 94.04 117.582 93.464C117.219 92.8773 117.038 92.168 117.038 91.336V90.936H118.75V91.336C118.75 92.1253 118.984 92.7173 119.454 93.112C119.934 93.5067 120.568 93.704 121.358 93.704C122.158 93.704 122.76 93.5387 123.166 93.208C123.571 92.8667 123.774 92.4293 123.774 91.896C123.774 91.544 123.678 91.256 123.486 91.032C123.294 90.808 123.022 90.632 122.67 90.504C122.318 90.3653 121.896 90.2373 121.406 90.12L120.814 89.976C120.099 89.8053 119.475 89.5973 118.942 89.352C118.419 89.096 118.014 88.76 117.726 88.344C117.438 87.928 117.294 87.3947 117.294 86.744C117.294 86.0827 117.454 85.5173 117.774 85.048C118.104 84.5787 118.558 84.216 119.134 83.96C119.71 83.704 120.387 83.576 121.166 83.576C121.944 83.576 122.638 83.7093 123.246 83.976C123.864 84.2427 124.35 84.6373 124.702 85.16C125.054 85.6827 125.23 86.3387 125.23 87.128V87.704H123.518V87.128C123.518 86.648 123.416 86.2587 123.214 85.96C123.022 85.6613 122.75 85.4427 122.398 85.304C122.046 85.1653 121.635 85.096 121.166 85.096C120.483 85.096 119.95 85.24 119.566 85.528C119.192 85.8053 119.006 86.1947 119.006 86.696C119.006 87.0373 119.086 87.32 119.246 87.544C119.416 87.7573 119.662 87.9333 119.982 88.072C120.302 88.2107 120.702 88.3333 121.182 88.44L121.774 88.584C122.499 88.744 123.139 88.952 123.694 89.208C124.248 89.4533 124.686 89.7893 125.006 90.216C125.326 90.6427 125.486 91.192 125.486 91.864C125.486 92.536 125.315 93.1227 124.974 93.624C124.643 94.1253 124.168 94.52 123.55 94.808C122.931 95.0853 122.2 95.224 121.358 95.224ZM127.668 95V87.112H129.284V88.04H129.54C129.689 87.7627 129.929 87.5173 130.26 87.304C130.59 87.0907 131.038 86.984 131.604 86.984C132.19 86.984 132.66 87.1067 133.012 87.352C133.374 87.5867 133.646 87.8907 133.828 88.264H134.084C134.265 87.9013 134.526 87.5973 134.868 87.352C135.22 87.1067 135.716 86.984 136.356 86.984C136.868 86.984 137.321 87.0907 137.716 87.304C138.11 87.5067 138.425 87.816 138.66 88.232C138.894 88.6373 139.012 89.144 139.012 89.752V95H137.364V89.88C137.364 89.4 137.23 89.032 136.964 88.776C136.708 88.5093 136.34 88.376 135.86 88.376C135.348 88.376 134.937 88.5413 134.628 88.872C134.318 89.2027 134.164 89.6773 134.164 90.296V95H132.516V89.88C132.516 89.4 132.382 89.032 132.116 88.776C131.86 88.5093 131.492 88.376 131.012 88.376C130.5 88.376 130.089 88.5413 129.78 88.872C129.47 89.2027 129.316 89.6773 129.316 90.296V95H127.668ZM144.154 95.224C143.589 95.224 143.082 95.128 142.634 94.936C142.197 94.744 141.845 94.4613 141.578 94.088C141.322 93.7147 141.194 93.2613 141.194 92.728C141.194 92.184 141.322 91.736 141.578 91.384C141.845 91.0213 142.202 90.7493 142.65 90.568C143.109 90.3867 143.626 90.296 144.202 90.296H146.602V89.784C146.602 89.3253 146.464 88.9573 146.186 88.68C145.909 88.4027 145.482 88.264 144.906 88.264C144.341 88.264 143.909 88.3973 143.61 88.664C143.312 88.9307 143.114 89.2773 143.018 89.704L141.482 89.208C141.61 88.7813 141.813 88.3973 142.09 88.056C142.378 87.704 142.757 87.4213 143.226 87.208C143.696 86.9947 144.261 86.888 144.922 86.888C145.946 86.888 146.752 87.1493 147.338 87.672C147.925 88.1947 148.218 88.936 148.218 89.896V93.144C148.218 93.464 148.368 93.624 148.666 93.624H149.338V95H148.106C147.733 95 147.429 94.904 147.194 94.712C146.96 94.52 146.842 94.2587 146.842 93.928V93.88H146.602C146.517 94.04 146.389 94.2267 146.218 94.44C146.048 94.6533 145.797 94.84 145.466 95C145.136 95.1493 144.698 95.224 144.154 95.224ZM144.394 93.864C145.056 93.864 145.589 93.6773 145.994 93.304C146.4 92.92 146.602 92.3973 146.602 91.736V91.576H144.298C143.861 91.576 143.509 91.672 143.242 91.864C142.976 92.0453 142.842 92.3173 142.842 92.68C142.842 93.0427 142.981 93.3307 143.258 93.544C143.536 93.7573 143.914 93.864 144.394 93.864ZM151.261 95V87.112H152.877V88.04H153.133C153.261 87.7093 153.463 87.4693 153.741 87.32C154.029 87.16 154.381 87.08 154.797 87.08H155.741V88.568H154.733C154.199 88.568 153.762 88.7173 153.421 89.016C153.079 89.304 152.909 89.752 152.909 90.36V95H151.261ZM160.728 95C160.248 95 159.864 94.856 159.576 94.568C159.299 94.28 159.16 93.896 159.16 93.416V88.504H156.984V87.112H159.16V84.504H160.808V87.112H163.16V88.504H160.808V93.128C160.808 93.448 160.958 93.608 161.256 93.608H162.904V95H160.728ZM173.926 95.224C172.561 95.224 171.478 94.84 170.678 94.072C169.878 93.2933 169.478 92.1733 169.478 90.712V88.088C169.478 86.6267 169.878 85.512 170.678 84.744C171.478 83.9653 172.561 83.576 173.926 83.576C175.27 83.576 176.305 83.9493 177.03 84.696C177.766 85.4427 178.134 86.4613 178.134 87.752V87.848H176.422V87.704C176.422 86.9467 176.214 86.328 175.798 85.848C175.393 85.368 174.769 85.128 173.926 85.128C173.073 85.128 172.406 85.3893 171.926 85.912C171.446 86.424 171.206 87.1387 171.206 88.056V90.744C171.206 91.6507 171.446 92.3653 171.926 92.888C172.406 93.4107 173.073 93.672 173.926 93.672C174.769 93.672 175.393 93.432 175.798 92.952C176.214 92.4613 176.422 91.8427 176.422 91.096V90.824H178.134V91.048C178.134 92.3387 177.766 93.3573 177.03 94.104C176.305 94.8507 175.27 95.224 173.926 95.224ZM184.112 95.224C183.322 95.224 182.618 95.064 182 94.744C181.392 94.4133 180.912 93.944 180.56 93.336C180.208 92.728 180.032 92.008 180.032 91.176V90.936C180.032 90.104 180.208 89.3893 180.56 88.792C180.912 88.184 181.392 87.7147 182 87.384C182.618 87.0533 183.322 86.888 184.112 86.888C184.901 86.888 185.605 87.0533 186.224 87.384C186.842 87.7147 187.328 88.184 187.68 88.792C188.032 89.3893 188.208 90.104 188.208 90.936V91.176C188.208 92.008 188.032 92.728 187.68 93.336C187.328 93.944 186.842 94.4133 186.224 94.744C185.605 95.064 184.901 95.224 184.112 95.224ZM184.112 93.752C184.837 93.752 185.424 93.5227 185.872 93.064C186.33 92.5947 186.56 91.9493 186.56 91.128V90.984C186.56 90.1627 186.336 89.5227 185.888 89.064C185.44 88.5947 184.848 88.36 184.112 88.36C183.397 88.36 182.81 88.5947 182.352 89.064C181.904 89.5227 181.68 90.1627 181.68 90.984V91.128C181.68 91.9493 181.904 92.5947 182.352 93.064C182.81 93.5227 183.397 93.752 184.112 93.752ZM190.579 95V87.112H192.195V88.296H192.451C192.601 87.976 192.867 87.6773 193.251 87.4C193.635 87.1227 194.206 86.984 194.963 86.984C195.561 86.984 196.089 87.1173 196.547 87.384C197.017 87.6507 197.385 88.0293 197.651 88.52C197.918 89 198.051 89.5813 198.051 90.264V95H196.403V90.392C196.403 89.7093 196.233 89.208 195.891 88.888C195.55 88.5573 195.081 88.392 194.483 88.392C193.801 88.392 193.251 88.616 192.835 89.064C192.43 89.512 192.227 90.1627 192.227 91.016V95H190.579ZM203.484 95C203.004 95 202.62 94.856 202.332 94.568C202.055 94.28 201.916 93.896 201.916 93.416V88.504H199.74V87.112H201.916V84.504H203.564V87.112H205.916V88.504H203.564V93.128C203.564 93.448 203.714 93.608 204.012 93.608H205.66V95H203.484ZM208.173 95V87.112H209.789V88.04H210.045C210.173 87.7093 210.375 87.4693 210.653 87.32C210.941 87.16 211.293 87.08 211.709 87.08H212.653V88.568H211.645C211.111 88.568 210.674 88.7173 210.333 89.016C209.991 89.304 209.821 89.752 209.821 90.36V95H208.173ZM216.909 95.224C216.344 95.224 215.837 95.128 215.389 94.936C214.952 94.744 214.6 94.4613 214.333 94.088C214.077 93.7147 213.949 93.2613 213.949 92.728C213.949 92.184 214.077 91.736 214.333 91.384C214.6 91.0213 214.957 90.7493 215.405 90.568C215.864 90.3867 216.381 90.296 216.957 90.296H219.357V89.784C219.357 89.3253 219.219 88.9573 218.941 88.68C218.664 88.4027 218.237 88.264 217.661 88.264C217.096 88.264 216.664 88.3973 216.365 88.664C216.067 88.9307 215.869 89.2773 215.773 89.704L214.237 89.208C214.365 88.7813 214.568 88.3973 214.845 88.056C215.133 87.704 215.512 87.4213 215.981 87.208C216.451 86.9947 217.016 86.888 217.677 86.888C218.701 86.888 219.507 87.1493 220.093 87.672C220.68 88.1947 220.973 88.936 220.973 89.896V93.144C220.973 93.464 221.123 93.624 221.421 93.624H222.093V95H220.861C220.488 95 220.184 94.904 219.949 94.712C219.715 94.52 219.597 94.2587 219.597 93.928V93.88H219.357C219.272 94.04 219.144 94.2267 218.973 94.44C218.803 94.6533 218.552 94.84 218.221 95C217.891 95.1493 217.453 95.224 216.909 95.224ZM217.149 93.864C217.811 93.864 218.344 93.6773 218.749 93.304C219.155 92.92 219.357 92.3973 219.357 91.736V91.576H217.053C216.616 91.576 216.264 91.672 215.997 91.864C215.731 92.0453 215.597 92.3173 215.597 92.68C215.597 93.0427 215.736 93.3307 216.013 93.544C216.291 93.7573 216.669 93.864 217.149 93.864ZM227.492 95.224C226.735 95.224 226.047 95.064 225.428 94.744C224.82 94.424 224.335 93.96 223.972 93.352C223.62 92.744 223.444 92.0133 223.444 91.16V90.952C223.444 90.0987 223.62 89.3733 223.972 88.776C224.335 88.168 224.82 87.704 225.428 87.384C226.047 87.0533 226.735 86.888 227.492 86.888C228.25 86.888 228.895 87.0267 229.428 87.304C229.962 87.5813 230.388 87.9493 230.708 88.408C231.039 88.8667 231.252 89.3733 231.348 89.928L229.748 90.264C229.695 89.912 229.583 89.592 229.412 89.304C229.242 89.016 229.002 88.7867 228.692 88.616C228.383 88.4453 227.994 88.36 227.524 88.36C227.066 88.36 226.65 88.4667 226.276 88.68C225.914 88.8827 225.626 89.1813 225.412 89.576C225.199 89.96 225.092 90.4293 225.092 90.984V91.128C225.092 91.6827 225.199 92.1573 225.412 92.552C225.626 92.9467 225.914 93.2453 226.276 93.448C226.65 93.6507 227.066 93.752 227.524 93.752C228.218 93.752 228.746 93.576 229.108 93.224C229.471 92.8613 229.7 92.4027 229.796 91.848L231.396 92.216C231.268 92.76 231.039 93.2613 230.708 93.72C230.388 94.1787 229.962 94.5467 229.428 94.824C228.895 95.0907 228.25 95.224 227.492 95.224ZM236.28 95C235.8 95 235.416 94.856 235.128 94.568C234.851 94.28 234.712 93.896 234.712 93.416V88.504H232.536V87.112H234.712V84.504H236.36V87.112H238.712V88.504H236.36V93.128C236.36 93.448 236.509 93.608 236.808 93.608H238.456V95H236.28ZM247.814 95.224C247.249 95.224 246.742 95.128 246.294 94.936C245.857 94.744 245.505 94.4613 245.238 94.088C244.982 93.7147 244.854 93.2613 244.854 92.728C244.854 92.184 244.982 91.736 245.238 91.384C245.505 91.0213 245.862 90.7493 246.31 90.568C246.769 90.3867 247.286 90.296 247.862 90.296H250.262V89.784C250.262 89.3253 250.124 88.9573 249.846 88.68C249.569 88.4027 249.142 88.264 248.566 88.264C248.001 88.264 247.569 88.3973 247.27 88.664C246.972 88.9307 246.774 89.2773 246.678 89.704L245.142 89.208C245.27 88.7813 245.473 88.3973 245.75 88.056C246.038 87.704 246.417 87.4213 246.886 87.208C247.356 86.9947 247.921 86.888 248.582 86.888C249.606 86.888 250.412 87.1493 250.998 87.672C251.585 88.1947 251.878 88.936 251.878 89.896V93.144C251.878 93.464 252.028 93.624 252.326 93.624H252.998V95H251.766C251.393 95 251.089 94.904 250.854 94.712C250.62 94.52 250.502 94.2587 250.502 93.928V93.88H250.262C250.177 94.04 250.049 94.2267 249.878 94.44C249.708 94.6533 249.457 94.84 249.126 95C248.796 95.1493 248.358 95.224 247.814 95.224ZM248.054 93.864C248.716 93.864 249.249 93.6773 249.654 93.304C250.06 92.92 250.262 92.3973 250.262 91.736V91.576H247.958C247.521 91.576 247.169 91.672 246.902 91.864C246.636 92.0453 246.502 92.3173 246.502 92.68C246.502 93.0427 246.641 93.3307 246.918 93.544C247.196 93.7573 247.574 93.864 248.054 93.864ZM254.921 95V87.112H256.537V88.296H256.793C256.942 87.976 257.209 87.6773 257.593 87.4C257.977 87.1227 258.547 86.984 259.305 86.984C259.902 86.984 260.43 87.1173 260.889 87.384C261.358 87.6507 261.726 88.0293 261.993 88.52C262.259 89 262.393 89.5813 262.393 90.264V95H260.745V90.392C260.745 89.7093 260.574 89.208 260.233 88.888C259.891 88.5573 259.422 88.392 258.825 88.392C258.142 88.392 257.593 88.616 257.177 89.064C256.771 89.512 256.569 90.1627 256.569 91.016V95H254.921ZM268.348 95.224C267.698 95.224 267.095 95.064 266.54 94.744C265.986 94.424 265.538 93.9653 265.196 93.368C264.866 92.76 264.7 92.0293 264.7 91.176V90.936C264.7 90.0933 264.866 89.368 265.196 88.76C265.527 88.152 265.97 87.688 266.524 87.368C267.079 87.048 267.687 86.888 268.348 86.888C268.86 86.888 269.287 86.952 269.628 87.08C269.98 87.208 270.268 87.3733 270.492 87.576C270.716 87.768 270.887 87.9707 271.004 88.184H271.26V83.8H272.908V95H271.292V93.88H271.036C270.834 94.2213 270.524 94.5307 270.108 94.808C269.703 95.0853 269.116 95.224 268.348 95.224ZM268.812 93.784C269.527 93.784 270.114 93.5547 270.572 93.096C271.042 92.6373 271.276 91.9813 271.276 91.128V90.984C271.276 90.1413 271.047 89.4907 270.588 89.032C270.13 88.5733 269.538 88.344 268.812 88.344C268.108 88.344 267.522 88.5733 267.052 89.032C266.594 89.4907 266.364 90.1413 266.364 90.984V91.128C266.364 91.9813 266.594 92.6373 267.052 93.096C267.522 93.5547 268.108 93.784 268.812 93.784ZM284.613 95.224C283.845 95.224 283.253 95.0853 282.837 94.808C282.431 94.5307 282.127 94.2213 281.925 93.88H281.669V95H280.053V83.8H281.701V88.184H281.957C282.085 87.9707 282.255 87.768 282.469 87.576C282.682 87.3733 282.965 87.208 283.317 87.08C283.669 86.952 284.101 86.888 284.613 86.888C285.274 86.888 285.882 87.048 286.437 87.368C286.991 87.688 287.434 88.152 287.765 88.76C288.095 89.368 288.261 90.0933 288.261 90.936V91.176C288.261 92.0293 288.09 92.76 287.749 93.368C287.418 93.9653 286.975 94.424 286.421 94.744C285.877 95.064 285.274 95.224 284.613 95.224ZM284.133 93.784C284.847 93.784 285.434 93.5547 285.893 93.096C286.362 92.6373 286.597 91.9813 286.597 91.128V90.984C286.597 90.1413 286.367 89.4907 285.909 89.032C285.45 88.5733 284.858 88.344 284.133 88.344C283.429 88.344 282.842 88.5733 282.373 89.032C281.914 89.4907 281.685 90.1413 281.685 90.984V91.128C281.685 91.9813 281.914 92.6373 282.373 93.096C282.842 93.5547 283.429 93.784 284.133 93.784ZM294.319 95.224C293.529 95.224 292.825 95.064 292.207 94.744C291.599 94.4133 291.119 93.944 290.767 93.336C290.415 92.728 290.239 92.008 290.239 91.176V90.936C290.239 90.104 290.415 89.3893 290.767 88.792C291.119 88.184 291.599 87.7147 292.207 87.384C292.825 87.0533 293.529 86.888 294.319 86.888C295.108 86.888 295.812 87.0533 296.431 87.384C297.049 87.7147 297.535 88.184 297.887 88.792C298.239 89.3893 298.415 90.104 298.415 90.936V91.176C298.415 92.008 298.239 92.728 297.887 93.336C297.535 93.944 297.049 94.4133 296.431 94.744C295.812 95.064 295.108 95.224 294.319 95.224ZM294.319 93.752C295.044 93.752 295.631 93.5227 296.079 93.064C296.537 92.5947 296.767 91.9493 296.767 91.128V90.984C296.767 90.1627 296.543 89.5227 296.095 89.064C295.647 88.5947 295.055 88.36 294.319 88.36C293.604 88.36 293.017 88.5947 292.559 89.064C292.111 89.5227 291.887 90.1627 291.887 90.984V91.128C291.887 91.9493 292.111 92.5947 292.559 93.064C293.017 93.5227 293.604 93.752 294.319 93.752ZM303.449 95C302.969 95 302.585 94.856 302.297 94.568C302.02 94.28 301.881 93.896 301.881 93.416V88.504H299.705V87.112H301.881V84.504H303.529V87.112H305.881V88.504H303.529V93.128C303.529 93.448 303.679 93.608 303.977 93.608H305.625V95H303.449ZM312.536 95V87.112H314.184V95H312.536ZM313.368 86.04C313.048 86.04 312.776 85.9387 312.552 85.736C312.338 85.5227 312.232 85.2507 312.232 84.92C312.232 84.5893 312.338 84.3227 312.552 84.12C312.776 83.9067 313.048 83.8 313.368 83.8C313.698 83.8 313.97 83.9067 314.184 84.12C314.397 84.3227 314.504 84.5893 314.504 84.92C314.504 85.2507 314.397 85.5227 314.184 85.736C313.97 85.9387 313.698 86.04 313.368 86.04ZM316.949 95V87.112H318.565V88.296H318.821C318.971 87.976 319.237 87.6773 319.621 87.4C320.005 87.1227 320.576 86.984 321.333 86.984C321.931 86.984 322.459 87.1173 322.917 87.384C323.387 87.6507 323.755 88.0293 324.021 88.52C324.288 89 324.421 89.5813 324.421 90.264V95H322.773V90.392C322.773 89.7093 322.603 89.208 322.261 88.888C321.92 88.5573 321.451 88.392 320.853 88.392C320.171 88.392 319.621 88.616 319.205 89.064C318.8 89.512 318.597 90.1627 318.597 91.016V95H316.949ZM329.854 95C329.374 95 328.99 94.856 328.702 94.568C328.425 94.28 328.286 93.896 328.286 93.416V88.504H326.11V87.112H328.286V84.504H329.934V87.112H332.286V88.504H329.934V93.128C329.934 93.448 330.084 93.608 330.382 93.608H332.03V95H329.854ZM337.877 95.224C337.077 95.224 336.379 95.0587 335.781 94.728C335.184 94.3867 334.715 93.912 334.373 93.304C334.043 92.6853 333.877 91.9707 333.877 91.16V90.968C333.877 90.1467 334.043 89.432 334.373 88.824C334.704 88.2053 335.163 87.7307 335.749 87.4C336.347 87.0587 337.035 86.888 337.813 86.888C338.571 86.888 339.232 87.0587 339.797 87.4C340.373 87.7307 340.821 88.1947 341.141 88.792C341.461 89.3893 341.621 90.088 341.621 90.888V91.512H335.557C335.579 92.2053 335.808 92.76 336.245 93.176C336.693 93.5813 337.248 93.784 337.909 93.784C338.528 93.784 338.992 93.6453 339.301 93.368C339.621 93.0907 339.867 92.7707 340.037 92.408L341.397 93.112C341.248 93.4107 341.029 93.7253 340.741 94.056C340.464 94.3867 340.096 94.664 339.637 94.888C339.179 95.112 338.592 95.224 337.877 95.224ZM335.573 90.248H339.941C339.899 89.6507 339.685 89.1867 339.301 88.856C338.917 88.5147 338.416 88.344 337.797 88.344C337.179 88.344 336.672 88.5147 336.277 88.856C335.893 89.1867 335.659 89.6507 335.573 90.248ZM343.925 95V87.112H345.541V88.04H345.797C345.925 87.7093 346.128 87.4693 346.405 87.32C346.693 87.16 347.045 87.08 347.461 87.08H348.405V88.568H347.397C346.864 88.568 346.426 88.7173 346.085 89.016C345.744 89.304 345.573 89.752 345.573 90.36V95H343.925ZM349.767 91.096V90.856C349.767 90.024 349.933 89.3147 350.263 88.728C350.605 88.1413 351.053 87.688 351.607 87.368C352.162 87.048 352.77 86.888 353.431 86.888C354.199 86.888 354.786 87.032 355.191 87.32C355.607 87.608 355.911 87.9173 356.103 88.248H356.359V87.112H357.959V96.616C357.959 97.096 357.815 97.48 357.527 97.768C357.25 98.056 356.866 98.2 356.375 98.2H351.063V96.76H355.863C356.173 96.76 356.327 96.6 356.327 96.28V93.768H356.071C355.954 93.96 355.789 94.1573 355.575 94.36C355.362 94.5627 355.079 94.728 354.727 94.856C354.386 94.984 353.954 95.048 353.431 95.048C352.77 95.048 352.157 94.8933 351.591 94.584C351.037 94.264 350.594 93.8107 350.263 93.224C349.933 92.6267 349.767 91.9173 349.767 91.096ZM353.879 93.608C354.594 93.608 355.181 93.384 355.639 92.936C356.109 92.4773 356.343 91.848 356.343 91.048V90.904C356.343 90.0827 356.114 89.4533 355.655 89.016C355.197 88.568 354.605 88.344 353.879 88.344C353.175 88.344 352.589 88.568 352.119 89.016C351.661 89.4533 351.431 90.0827 351.431 90.904V91.048C351.431 91.848 351.661 92.4773 352.119 92.936C352.589 93.384 353.175 93.608 353.879 93.608ZM360.706 95V87.112H362.322V88.04H362.578C362.706 87.7093 362.908 87.4693 363.186 87.32C363.474 87.16 363.826 87.08 364.242 87.08H365.186V88.568H364.178C363.644 88.568 363.207 88.7173 362.866 89.016C362.524 89.304 362.354 89.752 362.354 90.36V95H360.706ZM369.442 95.224C368.877 95.224 368.37 95.128 367.922 94.936C367.485 94.744 367.133 94.4613 366.866 94.088C366.61 93.7147 366.482 93.2613 366.482 92.728C366.482 92.184 366.61 91.736 366.866 91.384C367.133 91.0213 367.49 90.7493 367.938 90.568C368.397 90.3867 368.914 90.296 369.49 90.296H371.89V89.784C371.89 89.3253 371.752 88.9573 371.474 88.68C371.197 88.4027 370.77 88.264 370.194 88.264C369.629 88.264 369.197 88.3973 368.898 88.664C368.6 88.9307 368.402 89.2773 368.306 89.704L366.77 89.208C366.898 88.7813 367.101 88.3973 367.378 88.056C367.666 87.704 368.045 87.4213 368.514 87.208C368.984 86.9947 369.549 86.888 370.21 86.888C371.234 86.888 372.04 87.1493 372.626 87.672C373.213 88.1947 373.506 88.936 373.506 89.896V93.144C373.506 93.464 373.656 93.624 373.954 93.624H374.626V95H373.394C373.021 95 372.717 94.904 372.482 94.712C372.248 94.52 372.13 94.2587 372.13 93.928V93.88H371.89C371.805 94.04 371.677 94.2267 371.506 94.44C371.336 94.6533 371.085 94.84 370.754 95C370.424 95.1493 369.986 95.224 369.442 95.224ZM369.682 93.864C370.344 93.864 370.877 93.6773 371.282 93.304C371.688 92.92 371.89 92.3973 371.89 91.736V91.576H369.586C369.149 91.576 368.797 91.672 368.53 91.864C368.264 92.0453 368.13 92.3173 368.13 92.68C368.13 93.0427 368.269 93.3307 368.546 93.544C368.824 93.7573 369.202 93.864 369.682 93.864ZM378.962 95C378.482 95 378.098 94.856 377.81 94.568C377.533 94.28 377.394 93.896 377.394 93.416V88.504H375.218V87.112H377.394V84.504H379.042V87.112H381.394V88.504H379.042V93.128C379.042 93.448 379.191 93.608 379.49 93.608H381.138V95H378.962ZM383.65 95V87.112H385.298V95H383.65ZM384.482 86.04C384.162 86.04 383.89 85.9387 383.666 85.736C383.453 85.5227 383.346 85.2507 383.346 84.92C383.346 84.5893 383.453 84.3227 383.666 84.12C383.89 83.9067 384.162 83.8 384.482 83.8C384.813 83.8 385.085 83.9067 385.298 84.12C385.511 84.3227 385.618 84.5893 385.618 84.92C385.618 85.2507 385.511 85.5227 385.298 85.736C385.085 85.9387 384.813 86.04 384.482 86.04ZM391.76 95.224C390.97 95.224 390.266 95.064 389.648 94.744C389.04 94.4133 388.56 93.944 388.208 93.336C387.856 92.728 387.68 92.008 387.68 91.176V90.936C387.68 90.104 387.856 89.3893 388.208 88.792C388.56 88.184 389.04 87.7147 389.648 87.384C390.266 87.0533 390.97 86.888 391.76 86.888C392.549 86.888 393.253 87.0533 393.872 87.384C394.49 87.7147 394.976 88.184 395.328 88.792C395.68 89.3893 395.856 90.104 395.856 90.936V91.176C395.856 92.008 395.68 92.728 395.328 93.336C394.976 93.944 394.49 94.4133 393.872 94.744C393.253 95.064 392.549 95.224 391.76 95.224ZM391.76 93.752C392.485 93.752 393.072 93.5227 393.52 93.064C393.978 92.5947 394.208 91.9493 394.208 91.128V90.984C394.208 90.1627 393.984 89.5227 393.536 89.064C393.088 88.5947 392.496 88.36 391.76 88.36C391.045 88.36 390.458 88.5947 390 89.064C389.552 89.5227 389.328 90.1627 389.328 90.984V91.128C389.328 91.9493 389.552 92.5947 390 93.064C390.458 93.5227 391.045 93.752 391.76 93.752ZM398.228 95V87.112H399.844V88.296H400.1C400.249 87.976 400.516 87.6773 400.9 87.4C401.284 87.1227 401.854 86.984 402.612 86.984C403.209 86.984 403.737 87.1173 404.196 87.384C404.665 87.6507 405.033 88.0293 405.3 88.52C405.566 89 405.7 89.5813 405.7 90.264V95H404.052V90.392C404.052 89.7093 403.881 89.208 403.54 88.888C403.198 88.5573 402.729 88.392 402.132 88.392C401.449 88.392 400.9 88.616 400.484 89.064C400.078 89.512 399.876 90.1627 399.876 91.016V95H398.228ZM415.749 95C415.269 95 414.885 94.856 414.597 94.568C414.32 94.28 414.181 93.896 414.181 93.416V88.504H412.005V87.112H414.181V84.504H415.829V87.112H418.181V88.504H415.829V93.128C415.829 93.448 415.979 93.608 416.277 93.608H417.925V95H415.749ZM423.772 95.224C422.972 95.224 422.274 95.0587 421.676 94.728C421.079 94.3867 420.61 93.912 420.268 93.304C419.938 92.6853 419.772 91.9707 419.772 91.16V90.968C419.772 90.1467 419.938 89.432 420.268 88.824C420.599 88.2053 421.058 87.7307 421.644 87.4C422.242 87.0587 422.93 86.888 423.708 86.888C424.466 86.888 425.127 87.0587 425.692 87.4C426.268 87.7307 426.716 88.1947 427.036 88.792C427.356 89.3893 427.516 90.088 427.516 90.888V91.512H421.452C421.474 92.2053 421.703 92.76 422.14 93.176C422.588 93.5813 423.143 93.784 423.804 93.784C424.423 93.784 424.887 93.6453 425.196 93.368C425.516 93.0907 425.762 92.7707 425.932 92.408L427.292 93.112C427.143 93.4107 426.924 93.7253 426.636 94.056C426.359 94.3867 425.991 94.664 425.532 94.888C425.074 95.112 424.487 95.224 423.772 95.224ZM421.468 90.248H425.836C425.794 89.6507 425.58 89.1867 425.196 88.856C424.812 88.5147 424.311 88.344 423.692 88.344C423.074 88.344 422.567 88.5147 422.172 88.856C421.788 89.1867 421.554 89.6507 421.468 90.248ZM433.052 95.224C432.049 95.224 431.217 95 430.556 94.552C429.895 94.104 429.489 93.4267 429.34 92.52L430.876 92.152C430.961 92.5893 431.105 92.936 431.308 93.192C431.511 93.448 431.761 93.6293 432.06 93.736C432.369 93.8427 432.7 93.896 433.052 93.896C433.575 93.896 433.975 93.7947 434.252 93.592C434.54 93.3893 434.684 93.128 434.684 92.808C434.684 92.488 434.551 92.2533 434.284 92.104C434.017 91.9547 433.623 91.832 433.1 91.736L432.556 91.64C432.023 91.544 431.537 91.4053 431.1 91.224C430.663 91.0427 430.316 90.792 430.06 90.472C429.804 90.152 429.676 89.7413 429.676 89.24C429.676 88.4933 429.953 87.9173 430.508 87.512C431.063 87.096 431.799 86.888 432.716 86.888C433.601 86.888 434.327 87.0907 434.892 87.496C435.468 87.8907 435.841 88.4293 436.012 89.112L434.476 89.544C434.38 89.064 434.177 88.728 433.868 88.536C433.559 88.3333 433.175 88.232 432.716 88.232C432.268 88.232 431.916 88.3173 431.66 88.488C431.404 88.648 431.276 88.8773 431.276 89.176C431.276 89.496 431.399 89.7307 431.644 89.88C431.9 90.0293 432.241 90.1413 432.668 90.216L433.228 90.312C433.793 90.408 434.311 90.5413 434.78 90.712C435.249 90.8827 435.617 91.128 435.884 91.448C436.161 91.768 436.3 92.1947 436.3 92.728C436.3 93.5173 436.007 94.1307 435.42 94.568C434.833 95.0053 434.044 95.224 433.052 95.224ZM441.334 95C440.854 95 440.47 94.856 440.182 94.568C439.905 94.28 439.766 93.896 439.766 93.416V88.504H437.59V87.112H439.766V84.504H441.414V87.112H443.766V88.504H441.414V93.128C441.414 93.448 441.564 93.608 441.862 93.608H443.51V95H441.334ZM446.023 95V87.112H447.671V95H446.023ZM446.855 86.04C446.535 86.04 446.263 85.9387 446.039 85.736C445.825 85.5227 445.719 85.2507 445.719 84.92C445.719 84.5893 445.825 84.3227 446.039 84.12C446.263 83.9067 446.535 83.8 446.855 83.8C447.185 83.8 447.457 83.9067 447.671 84.12C447.884 84.3227 447.991 84.5893 447.991 84.92C447.991 85.2507 447.884 85.5227 447.671 85.736C447.457 85.9387 447.185 86.04 446.855 86.04ZM450.436 95V87.112H452.052V88.296H452.308C452.458 87.976 452.724 87.6773 453.108 87.4C453.492 87.1227 454.063 86.984 454.82 86.984C455.418 86.984 455.946 87.1173 456.404 87.384C456.874 87.6507 457.242 88.0293 457.508 88.52C457.775 89 457.908 89.5813 457.908 90.264V95H456.26V90.392C456.26 89.7093 456.09 89.208 455.748 88.888C455.407 88.5573 454.938 88.392 454.34 88.392C453.658 88.392 453.108 88.616 452.692 89.064C452.287 89.512 452.084 90.1627 452.084 91.016V95H450.436ZM460.216 91.096V90.856C460.216 90.024 460.381 89.3147 460.712 88.728C461.053 88.1413 461.501 87.688 462.056 87.368C462.611 87.048 463.219 86.888 463.88 86.888C464.648 86.888 465.235 87.032 465.64 87.32C466.056 87.608 466.36 87.9173 466.552 88.248H466.808V87.112H468.408V96.616C468.408 97.096 468.264 97.48 467.976 97.768C467.699 98.056 467.315 98.2 466.824 98.2H461.512V96.76H466.312C466.621 96.76 466.776 96.6 466.776 96.28V93.768H466.52C466.403 93.96 466.237 94.1573 466.024 94.36C465.811 94.5627 465.528 94.728 465.176 94.856C464.835 94.984 464.403 95.048 463.88 95.048C463.219 95.048 462.605 94.8933 462.04 94.584C461.485 94.264 461.043 93.8107 460.712 93.224C460.381 92.6267 460.216 91.9173 460.216 91.096ZM464.328 93.608C465.043 93.608 465.629 93.384 466.088 92.936C466.557 92.4773 466.792 91.848 466.792 91.048V90.904C466.792 90.0827 466.563 89.4533 466.104 89.016C465.645 88.568 465.053 88.344 464.328 88.344C463.624 88.344 463.037 88.568 462.568 89.016C462.109 89.4533 461.88 90.0827 461.88 90.904V91.048C461.88 91.848 462.109 92.4773 462.568 92.936C463.037 93.384 463.624 93.608 464.328 93.608Z" fill="white"/>
<path d="M93.9414 122.439L83.502 132.889L78.0625 127.439L78.9414 126.561L83.502 131.111L93.0625 121.561L93.9414 122.439Z" fill="#24FF00"/>
<path d="M116.85 133V131.464H118.354V123.336H116.85V121.8H122.53C123.202 121.8 123.788 121.917 124.29 122.152C124.791 122.376 125.18 122.701 125.458 123.128C125.746 123.544 125.89 124.04 125.89 124.616V124.776C125.89 125.288 125.794 125.709 125.602 126.04C125.41 126.371 125.175 126.627 124.898 126.808C124.631 126.989 124.375 127.117 124.13 127.192V127.448C124.375 127.512 124.636 127.64 124.914 127.832C125.202 128.013 125.442 128.269 125.634 128.6C125.836 128.931 125.938 129.363 125.938 129.896V130.056C125.938 130.675 125.794 131.203 125.506 131.64C125.218 132.077 124.818 132.413 124.306 132.648C123.804 132.883 123.223 133 122.562 133H116.85ZM120.098 131.432H122.354C122.93 131.432 123.383 131.293 123.714 131.016C124.044 130.739 124.21 130.355 124.21 129.864V129.72C124.21 129.229 124.044 128.845 123.714 128.568C123.394 128.291 122.94 128.152 122.354 128.152H120.098V131.432ZM120.098 126.568H122.354C122.898 126.568 123.335 126.435 123.666 126.168C123.996 125.891 124.162 125.517 124.162 125.048V124.888C124.162 124.419 123.996 124.051 123.666 123.784C123.346 123.507 122.908 123.368 122.354 123.368H120.098V126.568ZM131.939 133.224C131.15 133.224 130.446 133.064 129.827 132.744C129.219 132.413 128.739 131.944 128.387 131.336C128.035 130.728 127.859 130.008 127.859 129.176V128.936C127.859 128.104 128.035 127.389 128.387 126.792C128.739 126.184 129.219 125.715 129.827 125.384C130.446 125.053 131.15 124.888 131.939 124.888C132.729 124.888 133.433 125.053 134.051 125.384C134.67 125.715 135.155 126.184 135.507 126.792C135.859 127.389 136.035 128.104 136.035 128.936V129.176C136.035 130.008 135.859 130.728 135.507 131.336C135.155 131.944 134.67 132.413 134.051 132.744C133.433 133.064 132.729 133.224 131.939 133.224ZM131.939 131.752C132.665 131.752 133.251 131.523 133.699 131.064C134.158 130.595 134.387 129.949 134.387 129.128V128.984C134.387 128.163 134.163 127.523 133.715 127.064C133.267 126.595 132.675 126.36 131.939 126.36C131.225 126.36 130.638 126.595 130.179 127.064C129.731 127.523 129.507 128.163 129.507 128.984V129.128C129.507 129.949 129.731 130.595 130.179 131.064C130.638 131.523 131.225 131.752 131.939 131.752ZM141.07 133C140.59 133 140.206 132.856 139.918 132.568C139.641 132.28 139.502 131.896 139.502 131.416V126.504H137.326V125.112H139.502V122.504H141.15V125.112H143.502V126.504H141.15V131.128C141.15 131.448 141.299 131.608 141.598 131.608H143.246V133H141.07ZM151.58 133V126.504H149.372V125.112H151.58V123.384C151.58 122.904 151.724 122.52 152.012 122.232C152.3 121.944 152.684 121.8 153.164 121.8H155.196V123.192H153.692C153.383 123.192 153.228 123.352 153.228 123.672V125.112H155.5V126.504H153.228V133H151.58ZM160.795 133.224C159.995 133.224 159.297 133.059 158.699 132.728C158.102 132.387 157.633 131.912 157.291 131.304C156.961 130.685 156.795 129.971 156.795 129.16V128.968C156.795 128.147 156.961 127.432 157.291 126.824C157.622 126.205 158.081 125.731 158.667 125.4C159.265 125.059 159.953 124.888 160.731 124.888C161.489 124.888 162.15 125.059 162.715 125.4C163.291 125.731 163.739 126.195 164.059 126.792C164.379 127.389 164.539 128.088 164.539 128.888V129.512H158.475C158.497 130.205 158.726 130.76 159.163 131.176C159.611 131.581 160.166 131.784 160.827 131.784C161.446 131.784 161.91 131.645 162.219 131.368C162.539 131.091 162.785 130.771 162.955 130.408L164.315 131.112C164.166 131.411 163.947 131.725 163.659 132.056C163.382 132.387 163.014 132.664 162.555 132.888C162.097 133.112 161.51 133.224 160.795 133.224ZM158.491 128.248H162.859C162.817 127.651 162.603 127.187 162.219 126.856C161.835 126.515 161.334 126.344 160.715 126.344C160.097 126.344 159.59 126.515 159.195 126.856C158.811 127.187 158.577 127.651 158.491 128.248ZM169.291 133.224C168.726 133.224 168.219 133.128 167.771 132.936C167.334 132.744 166.982 132.461 166.715 132.088C166.459 131.715 166.331 131.261 166.331 130.728C166.331 130.184 166.459 129.736 166.715 129.384C166.982 129.021 167.339 128.749 167.787 128.568C168.246 128.387 168.763 128.296 169.339 128.296H171.739V127.784C171.739 127.325 171.601 126.957 171.323 126.68C171.046 126.403 170.619 126.264 170.043 126.264C169.478 126.264 169.046 126.397 168.747 126.664C168.449 126.931 168.251 127.277 168.155 127.704L166.619 127.208C166.747 126.781 166.95 126.397 167.227 126.056C167.515 125.704 167.894 125.421 168.363 125.208C168.833 124.995 169.398 124.888 170.059 124.888C171.083 124.888 171.889 125.149 172.475 125.672C173.062 126.195 173.355 126.936 173.355 127.896V131.144C173.355 131.464 173.505 131.624 173.803 131.624H174.475V133H173.243C172.87 133 172.566 132.904 172.331 132.712C172.097 132.52 171.979 132.259 171.979 131.928V131.88H171.739C171.654 132.04 171.526 132.227 171.355 132.44C171.185 132.653 170.934 132.84 170.603 133C170.273 133.149 169.835 133.224 169.291 133.224ZM169.531 131.864C170.193 131.864 170.726 131.677 171.131 131.304C171.537 130.92 171.739 130.397 171.739 129.736V129.576H169.435C168.998 129.576 168.646 129.672 168.379 129.864C168.113 130.045 167.979 130.317 167.979 130.68C167.979 131.043 168.118 131.331 168.395 131.544C168.673 131.757 169.051 131.864 169.531 131.864ZM178.811 133C178.331 133 177.947 132.856 177.659 132.568C177.381 132.28 177.243 131.896 177.243 131.416V126.504H175.067V125.112H177.243V122.504H178.891V125.112H181.243V126.504H178.891V131.128C178.891 131.448 179.04 131.608 179.339 131.608H180.987V133H178.811ZM186.523 133.144C185.925 133.144 185.392 133.011 184.923 132.744C184.453 132.477 184.085 132.099 183.819 131.608C183.552 131.117 183.419 130.531 183.419 129.848V125.112H185.067V129.736C185.067 130.419 185.237 130.925 185.579 131.256C185.92 131.576 186.395 131.736 187.003 131.736C187.675 131.736 188.213 131.512 188.619 131.064C189.035 130.605 189.243 129.949 189.243 129.096V125.112H190.891V133H189.275V131.816H189.019C188.869 132.136 188.603 132.44 188.219 132.728C187.835 133.005 187.269 133.144 186.523 133.144ZM193.647 133V125.112H195.263V126.04H195.519C195.647 125.709 195.85 125.469 196.127 125.32C196.415 125.16 196.767 125.08 197.183 125.08H198.127V126.568H197.119C196.586 126.568 196.148 126.717 195.807 127.016C195.466 127.304 195.295 127.752 195.295 128.36V133H193.647ZM203.489 133.224C202.689 133.224 201.991 133.059 201.393 132.728C200.796 132.387 200.327 131.912 199.985 131.304C199.655 130.685 199.489 129.971 199.489 129.16V128.968C199.489 128.147 199.655 127.432 199.985 126.824C200.316 126.205 200.775 125.731 201.361 125.4C201.959 125.059 202.647 124.888 203.425 124.888C204.183 124.888 204.844 125.059 205.409 125.4C205.985 125.731 206.433 126.195 206.753 126.792C207.073 127.389 207.233 128.088 207.233 128.888V129.512H201.169C201.191 130.205 201.42 130.76 201.857 131.176C202.305 131.581 202.86 131.784 203.521 131.784C204.14 131.784 204.604 131.645 204.913 131.368C205.233 131.091 205.479 130.771 205.649 130.408L207.009 131.112C206.86 131.411 206.641 131.725 206.353 132.056C206.076 132.387 205.708 132.664 205.249 132.888C204.791 133.112 204.204 133.224 203.489 133.224ZM201.185 128.248H205.553C205.511 127.651 205.297 127.187 204.913 126.856C204.529 126.515 204.028 126.344 203.409 126.344C202.791 126.344 202.284 126.515 201.889 126.856C201.505 127.187 201.271 127.651 201.185 128.248ZM212.769 133.224C211.766 133.224 210.934 133 210.273 132.552C209.612 132.104 209.206 131.427 209.057 130.52L210.593 130.152C210.678 130.589 210.822 130.936 211.025 131.192C211.228 131.448 211.478 131.629 211.777 131.736C212.086 131.843 212.417 131.896 212.769 131.896C213.292 131.896 213.692 131.795 213.969 131.592C214.257 131.389 214.401 131.128 214.401 130.808C214.401 130.488 214.268 130.253 214.001 130.104C213.734 129.955 213.34 129.832 212.817 129.736L212.273 129.64C211.74 129.544 211.254 129.405 210.817 129.224C210.38 129.043 210.033 128.792 209.777 128.472C209.521 128.152 209.393 127.741 209.393 127.24C209.393 126.493 209.67 125.917 210.225 125.512C210.78 125.096 211.516 124.888 212.433 124.888C213.318 124.888 214.044 125.091 214.609 125.496C215.185 125.891 215.558 126.429 215.729 127.112L214.193 127.544C214.097 127.064 213.894 126.728 213.585 126.536C213.276 126.333 212.892 126.232 212.433 126.232C211.985 126.232 211.633 126.317 211.377 126.488C211.121 126.648 210.993 126.877 210.993 127.176C210.993 127.496 211.116 127.731 211.361 127.88C211.617 128.029 211.958 128.141 212.385 128.216L212.945 128.312C213.51 128.408 214.028 128.541 214.497 128.712C214.966 128.883 215.334 129.128 215.601 129.448C215.878 129.768 216.017 130.195 216.017 130.728C216.017 131.517 215.724 132.131 215.137 132.568C214.55 133.005 213.761 133.224 212.769 133.224ZM222.661 133V125.112H224.309V133H222.661ZM223.493 124.04C223.173 124.04 222.901 123.939 222.677 123.736C222.464 123.523 222.357 123.251 222.357 122.92C222.357 122.589 222.464 122.323 222.677 122.12C222.901 121.907 223.173 121.8 223.493 121.8C223.824 121.8 224.096 121.907 224.309 122.12C224.523 122.323 224.629 122.589 224.629 122.92C224.629 123.251 224.523 123.523 224.309 123.736C224.096 123.939 223.824 124.04 223.493 124.04ZM227.075 133V125.112H228.691V126.04H228.947C229.096 125.763 229.336 125.517 229.667 125.304C229.998 125.091 230.446 124.984 231.011 124.984C231.598 124.984 232.067 125.107 232.419 125.352C232.782 125.587 233.054 125.891 233.235 126.264H233.491C233.672 125.901 233.934 125.597 234.275 125.352C234.627 125.107 235.123 124.984 235.763 124.984C236.275 124.984 236.728 125.091 237.123 125.304C237.518 125.507 237.832 125.816 238.067 126.232C238.302 126.637 238.419 127.144 238.419 127.752V133H236.771V127.88C236.771 127.4 236.638 127.032 236.371 126.776C236.115 126.509 235.747 126.376 235.267 126.376C234.755 126.376 234.344 126.541 234.035 126.872C233.726 127.203 233.571 127.677 233.571 128.296V133H231.923V127.88C231.923 127.4 231.79 127.032 231.523 126.776C231.267 126.509 230.899 126.376 230.419 126.376C229.907 126.376 229.496 126.541 229.187 126.872C228.878 127.203 228.723 127.677 228.723 128.296V133H227.075ZM241.114 136.2V125.112H242.73V126.248H242.986C243.188 125.896 243.492 125.581 243.898 125.304C244.314 125.027 244.906 124.888 245.674 124.888C246.335 124.888 246.938 125.048 247.482 125.368C248.036 125.688 248.479 126.152 248.81 126.76C249.151 127.357 249.322 128.083 249.322 128.936V129.176C249.322 130.029 249.156 130.76 248.826 131.368C248.495 131.965 248.052 132.424 247.498 132.744C246.943 133.064 246.335 133.224 245.674 133.224C245.162 133.224 244.73 133.16 244.378 133.032C244.026 132.904 243.743 132.744 243.53 132.552C243.316 132.349 243.146 132.141 243.018 131.928H242.762V136.2H241.114ZM245.194 131.784C245.919 131.784 246.511 131.555 246.97 131.096C247.428 130.637 247.658 129.981 247.658 129.128V128.984C247.658 128.141 247.423 127.491 246.954 127.032C246.495 126.573 245.908 126.344 245.194 126.344C244.49 126.344 243.903 126.573 243.434 127.032C242.975 127.491 242.746 128.141 242.746 128.984V129.128C242.746 129.981 242.975 130.637 243.434 131.096C243.903 131.555 244.49 131.784 245.194 131.784ZM251.684 133V121.8H253.332V133H251.684ZM259.714 133.224C258.914 133.224 258.215 133.059 257.618 132.728C257.02 132.387 256.551 131.912 256.21 131.304C255.879 130.685 255.714 129.971 255.714 129.16V128.968C255.714 128.147 255.879 127.432 256.21 126.824C256.54 126.205 256.999 125.731 257.586 125.4C258.183 125.059 258.871 124.888 259.65 124.888C260.407 124.888 261.068 125.059 261.634 125.4C262.21 125.731 262.658 126.195 262.978 126.792C263.298 127.389 263.458 128.088 263.458 128.888V129.512H257.394C257.415 130.205 257.644 130.76 258.082 131.176C258.53 131.581 259.084 131.784 259.746 131.784C260.364 131.784 260.828 131.645 261.138 131.368C261.458 131.091 261.703 130.771 261.874 130.408L263.234 131.112C263.084 131.411 262.866 131.725 262.578 132.056C262.3 132.387 261.932 132.664 261.474 132.888C261.015 133.112 260.428 133.224 259.714 133.224ZM257.41 128.248H261.778C261.735 127.651 261.522 127.187 261.138 126.856C260.754 126.515 260.252 126.344 259.634 126.344C259.015 126.344 258.508 126.515 258.114 126.856C257.73 127.187 257.495 127.651 257.41 128.248ZM265.761 133V125.112H267.377V126.04H267.633C267.783 125.763 268.023 125.517 268.353 125.304C268.684 125.091 269.132 124.984 269.697 124.984C270.284 124.984 270.753 125.107 271.105 125.352C271.468 125.587 271.74 125.891 271.921 126.264H272.177C272.359 125.901 272.62 125.597 272.961 125.352C273.313 125.107 273.809 124.984 274.449 124.984C274.961 124.984 275.415 125.091 275.809 125.304C276.204 125.507 276.519 125.816 276.753 126.232C276.988 126.637 277.105 127.144 277.105 127.752V133H275.457V127.88C275.457 127.4 275.324 127.032 275.057 126.776C274.801 126.509 274.433 126.376 273.953 126.376C273.441 126.376 273.031 126.541 272.721 126.872C272.412 127.203 272.257 127.677 272.257 128.296V133H270.609V127.88C270.609 127.4 270.476 127.032 270.209 126.776C269.953 126.509 269.585 126.376 269.105 126.376C268.593 126.376 268.183 126.541 267.873 126.872C267.564 127.203 267.409 127.677 267.409 128.296V133H265.761ZM283.416 133.224C282.616 133.224 281.917 133.059 281.32 132.728C280.723 132.387 280.253 131.912 279.912 131.304C279.581 130.685 279.416 129.971 279.416 129.16V128.968C279.416 128.147 279.581 127.432 279.912 126.824C280.243 126.205 280.701 125.731 281.288 125.4C281.885 125.059 282.573 124.888 283.352 124.888C284.109 124.888 284.771 125.059 285.336 125.4C285.912 125.731 286.36 126.195 286.68 126.792C287 127.389 287.16 128.088 287.16 128.888V129.512H281.096C281.117 130.205 281.347 130.76 281.784 131.176C282.232 131.581 282.787 131.784 283.448 131.784C284.067 131.784 284.531 131.645 284.84 131.368C285.16 131.091 285.405 130.771 285.576 130.408L286.936 131.112C286.787 131.411 286.568 131.725 286.28 132.056C286.003 132.387 285.635 132.664 285.176 132.888C284.717 133.112 284.131 133.224 283.416 133.224ZM281.112 128.248H285.48C285.437 127.651 285.224 127.187 284.84 126.856C284.456 126.515 283.955 126.344 283.336 126.344C282.717 126.344 282.211 126.515 281.816 126.856C281.432 127.187 281.197 127.651 281.112 128.248ZM289.464 133V125.112H291.08V126.296H291.336C291.485 125.976 291.752 125.677 292.136 125.4C292.52 125.123 293.09 124.984 293.848 124.984C294.445 124.984 294.973 125.117 295.432 125.384C295.901 125.651 296.269 126.029 296.536 126.52C296.802 127 296.936 127.581 296.936 128.264V133H295.288V128.392C295.288 127.709 295.117 127.208 294.776 126.888C294.434 126.557 293.965 126.392 293.368 126.392C292.685 126.392 292.136 126.616 291.72 127.064C291.314 127.512 291.112 128.163 291.112 129.016V133H289.464ZM302.369 133C301.889 133 301.505 132.856 301.217 132.568C300.939 132.28 300.801 131.896 300.801 131.416V126.504H298.625V125.112H300.801V122.504H302.449V125.112H304.801V126.504H302.449V131.128C302.449 131.448 302.598 131.608 302.897 131.608H304.545V133H302.369ZM309.489 133.224C308.924 133.224 308.417 133.128 307.969 132.936C307.532 132.744 307.18 132.461 306.913 132.088C306.657 131.715 306.529 131.261 306.529 130.728C306.529 130.184 306.657 129.736 306.913 129.384C307.18 129.021 307.537 128.749 307.985 128.568C308.444 128.387 308.961 128.296 309.537 128.296H311.937V127.784C311.937 127.325 311.799 126.957 311.521 126.68C311.244 126.403 310.817 126.264 310.241 126.264C309.676 126.264 309.244 126.397 308.945 126.664C308.647 126.931 308.449 127.277 308.353 127.704L306.817 127.208C306.945 126.781 307.148 126.397 307.425 126.056C307.713 125.704 308.092 125.421 308.561 125.208C309.031 124.995 309.596 124.888 310.257 124.888C311.281 124.888 312.087 125.149 312.673 125.672C313.26 126.195 313.553 126.936 313.553 127.896V131.144C313.553 131.464 313.703 131.624 314.001 131.624H314.673V133H313.441C313.068 133 312.764 132.904 312.529 132.712C312.295 132.52 312.177 132.259 312.177 131.928V131.88H311.937C311.852 132.04 311.724 132.227 311.553 132.44C311.383 132.653 311.132 132.84 310.801 133C310.471 133.149 310.033 133.224 309.489 133.224ZM309.729 131.864C310.391 131.864 310.924 131.677 311.329 131.304C311.735 130.92 311.937 130.397 311.937 129.736V129.576H309.633C309.196 129.576 308.844 129.672 308.577 129.864C308.311 130.045 308.177 130.317 308.177 130.68C308.177 131.043 308.316 131.331 308.593 131.544C308.871 131.757 309.249 131.864 309.729 131.864ZM319.009 133C318.529 133 318.145 132.856 317.857 132.568C317.579 132.28 317.441 131.896 317.441 131.416V126.504H315.265V125.112H317.441V122.504H319.089V125.112H321.441V126.504H319.089V131.128C319.089 131.448 319.238 131.608 319.537 131.608H321.185V133H319.009ZM323.697 133V125.112H325.345V133H323.697ZM324.529 124.04C324.209 124.04 323.937 123.939 323.713 123.736C323.5 123.523 323.393 123.251 323.393 122.92C323.393 122.589 323.5 122.323 323.713 122.12C323.937 121.907 324.209 121.8 324.529 121.8C324.86 121.8 325.132 121.907 325.345 122.12C325.558 122.323 325.665 122.589 325.665 122.92C325.665 123.251 325.558 123.523 325.345 123.736C325.132 123.939 324.86 124.04 324.529 124.04ZM331.807 133.224C331.017 133.224 330.313 133.064 329.695 132.744C329.087 132.413 328.607 131.944 328.255 131.336C327.903 130.728 327.727 130.008 327.727 129.176V128.936C327.727 128.104 327.903 127.389 328.255 126.792C328.607 126.184 329.087 125.715 329.695 125.384C330.313 125.053 331.017 124.888 331.807 124.888C332.596 124.888 333.3 125.053 333.919 125.384C334.537 125.715 335.023 126.184 335.375 126.792C335.727 127.389 335.903 128.104 335.903 128.936V129.176C335.903 130.008 335.727 130.728 335.375 131.336C335.023 131.944 334.537 132.413 333.919 132.744C333.3 133.064 332.596 133.224 331.807 133.224ZM331.807 131.752C332.532 131.752 333.119 131.523 333.567 131.064C334.025 130.595 334.255 129.949 334.255 129.128V128.984C334.255 128.163 334.031 127.523 333.583 127.064C333.135 126.595 332.543 126.36 331.807 126.36C331.092 126.36 330.505 126.595 330.047 127.064C329.599 127.523 329.375 128.163 329.375 128.984V129.128C329.375 129.949 329.599 130.595 330.047 131.064C330.505 131.523 331.092 131.752 331.807 131.752ZM338.274 133V125.112H339.89V126.296H340.146C340.296 125.976 340.562 125.677 340.946 125.4C341.33 125.123 341.901 124.984 342.658 124.984C343.256 124.984 343.784 125.117 344.242 125.384C344.712 125.651 345.08 126.029 345.346 126.52C345.613 127 345.746 127.581 345.746 128.264V133H344.098V128.392C344.098 127.709 343.928 127.208 343.586 126.888C343.245 126.557 342.776 126.392 342.178 126.392C341.496 126.392 340.946 126.616 340.53 127.064C340.125 127.512 339.922 128.163 339.922 129.016V133H338.274Z" fill="white"/>
<path d="M93.9414 160.439L83.502 170.889L78.0625 165.439L78.9414 164.561L83.502 169.111L93.0625 159.561L93.9414 160.439Z" fill="#24FF00"/>
<path d="M121.644 171.224C120.268 171.224 119.174 170.84 118.364 170.072C117.553 169.293 117.148 168.173 117.148 166.712V164.088C117.148 162.627 117.553 161.512 118.364 160.744C119.174 159.965 120.268 159.576 121.644 159.576C123.02 159.576 124.113 159.965 124.924 160.744C125.745 161.512 126.156 162.627 126.156 164.088V166.712C126.156 168.173 125.745 169.293 124.924 170.072C124.113 170.84 123.02 171.224 121.644 171.224ZM121.644 169.672C122.529 169.672 123.212 169.416 123.692 168.904C124.172 168.381 124.412 167.672 124.412 166.776V164.024C124.412 163.128 124.172 162.424 123.692 161.912C123.212 161.389 122.529 161.128 121.644 161.128C120.78 161.128 120.102 161.389 119.612 161.912C119.121 162.424 118.876 163.128 118.876 164.024V166.776C118.876 167.672 119.121 168.381 119.612 168.904C120.102 169.416 120.78 169.672 121.644 169.672ZM133.129 171.224C132.361 171.224 131.769 171.085 131.353 170.808C130.948 170.531 130.644 170.221 130.441 169.88H130.185V171H128.569V159.8H130.217V164.184H130.473C130.601 163.971 130.772 163.768 130.985 163.576C131.199 163.373 131.481 163.208 131.833 163.08C132.185 162.952 132.617 162.888 133.129 162.888C133.791 162.888 134.399 163.048 134.953 163.368C135.508 163.688 135.951 164.152 136.281 164.76C136.612 165.368 136.777 166.093 136.777 166.936V167.176C136.777 168.029 136.607 168.76 136.265 169.368C135.935 169.965 135.492 170.424 134.937 170.744C134.393 171.064 133.791 171.224 133.129 171.224ZM132.649 169.784C133.364 169.784 133.951 169.555 134.409 169.096C134.879 168.637 135.113 167.981 135.113 167.128V166.984C135.113 166.141 134.884 165.491 134.425 165.032C133.967 164.573 133.375 164.344 132.649 164.344C131.945 164.344 131.359 164.573 130.889 165.032C130.431 165.491 130.201 166.141 130.201 166.984V167.128C130.201 167.981 130.431 168.637 130.889 169.096C131.359 169.555 131.945 169.784 132.649 169.784ZM141.803 171C141.323 171 140.939 170.856 140.651 170.568C140.373 170.28 140.235 169.896 140.235 169.416V164.504H138.059V163.112H140.235V160.504H141.883V163.112H144.235V164.504H141.883V169.128C141.883 169.448 142.032 169.608 142.331 169.608H143.979V171H141.803ZM148.923 171.224C148.358 171.224 147.851 171.128 147.403 170.936C146.966 170.744 146.614 170.461 146.347 170.088C146.091 169.715 145.963 169.261 145.963 168.728C145.963 168.184 146.091 167.736 146.347 167.384C146.614 167.021 146.971 166.749 147.419 166.568C147.878 166.387 148.395 166.296 148.971 166.296H151.371V165.784C151.371 165.325 151.232 164.957 150.955 164.68C150.678 164.403 150.251 164.264 149.675 164.264C149.11 164.264 148.678 164.397 148.379 164.664C148.08 164.931 147.883 165.277 147.787 165.704L146.251 165.208C146.379 164.781 146.582 164.397 146.859 164.056C147.147 163.704 147.526 163.421 147.995 163.208C148.464 162.995 149.03 162.888 149.691 162.888C150.715 162.888 151.52 163.149 152.107 163.672C152.694 164.195 152.987 164.936 152.987 165.896V169.144C152.987 169.464 153.136 169.624 153.435 169.624H154.107V171H152.875C152.502 171 152.198 170.904 151.963 170.712C151.728 170.52 151.611 170.259 151.611 169.928V169.88H151.371C151.286 170.04 151.158 170.227 150.987 170.44C150.816 170.653 150.566 170.84 150.235 171C149.904 171.149 149.467 171.224 148.923 171.224ZM149.163 169.864C149.824 169.864 150.358 169.677 150.763 169.304C151.168 168.92 151.371 168.397 151.371 167.736V167.576H149.067C148.63 167.576 148.278 167.672 148.011 167.864C147.744 168.045 147.611 168.317 147.611 168.68C147.611 169.043 147.75 169.331 148.027 169.544C148.304 169.757 148.683 169.864 149.163 169.864ZM158.477 171.224C157.912 171.224 157.405 171.128 156.957 170.936C156.52 170.744 156.168 170.461 155.901 170.088C155.645 169.715 155.517 169.261 155.517 168.728C155.517 168.184 155.645 167.736 155.901 167.384C156.168 167.021 156.525 166.749 156.973 166.568C157.432 166.387 157.949 166.296 158.525 166.296H160.925V165.784C160.925 165.325 160.787 164.957 160.509 164.68C160.232 164.403 159.805 164.264 159.229 164.264C158.664 164.264 158.232 164.397 157.933 164.664C157.635 164.931 157.437 165.277 157.341 165.704L155.805 165.208C155.933 164.781 156.136 164.397 156.413 164.056C156.701 163.704 157.08 163.421 157.549 163.208C158.019 162.995 158.584 162.888 159.245 162.888C160.269 162.888 161.075 163.149 161.661 163.672C162.248 164.195 162.541 164.936 162.541 165.896V169.144C162.541 169.464 162.691 169.624 162.989 169.624H163.661V171H162.429C162.056 171 161.752 170.904 161.517 170.712C161.283 170.52 161.165 170.259 161.165 169.928V169.88H160.925C160.84 170.04 160.712 170.227 160.541 170.44C160.371 170.653 160.12 170.84 159.789 171C159.459 171.149 159.021 171.224 158.477 171.224ZM158.717 169.864C159.379 169.864 159.912 169.677 160.317 169.304C160.723 168.92 160.925 168.397 160.925 167.736V167.576H158.621C158.184 167.576 157.832 167.672 157.565 167.864C157.299 168.045 157.165 168.317 157.165 168.68C157.165 169.043 157.304 169.331 157.581 169.544C157.859 169.757 158.237 169.864 158.717 169.864ZM165.584 171V163.112H167.232V171H165.584ZM166.416 162.04C166.096 162.04 165.824 161.939 165.6 161.736C165.386 161.523 165.28 161.251 165.28 160.92C165.28 160.589 165.386 160.323 165.6 160.12C165.824 159.907 166.096 159.8 166.416 159.8C166.746 159.8 167.018 159.907 167.232 160.12C167.445 160.323 167.552 160.589 167.552 160.92C167.552 161.251 167.445 161.523 167.232 161.736C167.018 161.939 166.746 162.04 166.416 162.04ZM169.998 171V163.112H171.614V164.296H171.87C172.019 163.976 172.286 163.677 172.67 163.4C173.054 163.123 173.624 162.984 174.382 162.984C174.979 162.984 175.507 163.117 175.966 163.384C176.435 163.651 176.803 164.029 177.07 164.52C177.336 165 177.47 165.581 177.47 166.264V171H175.822V166.392C175.822 165.709 175.651 165.208 175.31 164.888C174.968 164.557 174.499 164.392 173.902 164.392C173.219 164.392 172.67 164.616 172.254 165.064C171.848 165.512 171.646 166.163 171.646 167.016V171H169.998ZM188.319 171.224C187.477 171.224 186.73 171.075 186.079 170.776C185.429 170.477 184.917 170.04 184.543 169.464C184.181 168.877 183.999 168.168 183.999 167.336V166.936H185.711V167.336C185.711 168.125 185.946 168.717 186.415 169.112C186.895 169.507 187.53 169.704 188.319 169.704C189.119 169.704 189.722 169.539 190.127 169.208C190.533 168.867 190.735 168.429 190.735 167.896C190.735 167.544 190.639 167.256 190.447 167.032C190.255 166.808 189.983 166.632 189.631 166.504C189.279 166.365 188.858 166.237 188.367 166.12L187.775 165.976C187.061 165.805 186.437 165.597 185.903 165.352C185.381 165.096 184.975 164.76 184.687 164.344C184.399 163.928 184.255 163.395 184.255 162.744C184.255 162.083 184.415 161.517 184.735 161.048C185.066 160.579 185.519 160.216 186.095 159.96C186.671 159.704 187.349 159.576 188.127 159.576C188.906 159.576 189.599 159.709 190.207 159.976C190.826 160.243 191.311 160.637 191.663 161.16C192.015 161.683 192.191 162.339 192.191 163.128V163.704H190.479V163.128C190.479 162.648 190.378 162.259 190.175 161.96C189.983 161.661 189.711 161.443 189.359 161.304C189.007 161.165 188.597 161.096 188.127 161.096C187.445 161.096 186.911 161.24 186.527 161.528C186.154 161.805 185.967 162.195 185.967 162.696C185.967 163.037 186.047 163.32 186.207 163.544C186.378 163.757 186.623 163.933 186.943 164.072C187.263 164.211 187.663 164.333 188.143 164.44L188.735 164.584C189.461 164.744 190.101 164.952 190.655 165.208C191.21 165.453 191.647 165.789 191.967 166.216C192.287 166.643 192.447 167.192 192.447 167.864C192.447 168.536 192.277 169.123 191.935 169.624C191.605 170.125 191.13 170.52 190.511 170.808C189.893 171.085 189.162 171.224 188.319 171.224ZM198.245 171.224C197.445 171.224 196.747 171.059 196.149 170.728C195.552 170.387 195.083 169.912 194.741 169.304C194.411 168.685 194.245 167.971 194.245 167.16V166.968C194.245 166.147 194.411 165.432 194.741 164.824C195.072 164.205 195.531 163.731 196.117 163.4C196.715 163.059 197.403 162.888 198.181 162.888C198.939 162.888 199.6 163.059 200.165 163.4C200.741 163.731 201.189 164.195 201.509 164.792C201.829 165.389 201.989 166.088 201.989 166.888V167.512H195.925C195.947 168.205 196.176 168.76 196.613 169.176C197.061 169.581 197.616 169.784 198.277 169.784C198.896 169.784 199.36 169.645 199.669 169.368C199.989 169.091 200.235 168.771 200.405 168.408L201.765 169.112C201.616 169.411 201.397 169.725 201.109 170.056C200.832 170.387 200.464 170.664 200.005 170.888C199.547 171.112 198.96 171.224 198.245 171.224ZM195.941 166.248H200.309C200.267 165.651 200.053 165.187 199.669 164.856C199.285 164.515 198.784 164.344 198.165 164.344C197.547 164.344 197.04 164.515 196.645 164.856C196.261 165.187 196.027 165.651 195.941 166.248ZM204.293 171V163.112H205.909V164.04H206.165C206.293 163.709 206.496 163.469 206.773 163.32C207.061 163.16 207.413 163.08 207.829 163.08H208.773V164.568H207.765C207.232 164.568 206.795 164.717 206.453 165.016C206.112 165.304 205.941 165.752 205.941 166.36V171H204.293ZM212.625 171L209.969 163.112H211.713L213.809 169.784H214.065L216.161 163.112H217.905L215.249 171H212.625ZM223.159 171.224C222.359 171.224 221.66 171.059 221.063 170.728C220.465 170.387 219.996 169.912 219.655 169.304C219.324 168.685 219.159 167.971 219.159 167.16V166.968C219.159 166.147 219.324 165.432 219.655 164.824C219.985 164.205 220.444 163.731 221.031 163.4C221.628 163.059 222.316 162.888 223.095 162.888C223.852 162.888 224.513 163.059 225.079 163.4C225.655 163.731 226.103 164.195 226.423 164.792C226.743 165.389 226.903 166.088 226.903 166.888V167.512H220.839C220.86 168.205 221.089 168.76 221.527 169.176C221.975 169.581 222.529 169.784 223.191 169.784C223.809 169.784 224.273 169.645 224.583 169.368C224.903 169.091 225.148 168.771 225.319 168.408L226.679 169.112C226.529 169.411 226.311 169.725 226.023 170.056C225.745 170.387 225.377 170.664 224.919 170.888C224.46 171.112 223.873 171.224 223.159 171.224ZM220.855 166.248H225.223C225.18 165.651 224.967 165.187 224.583 164.856C224.199 164.515 223.697 164.344 223.079 164.344C222.46 164.344 221.953 164.515 221.559 164.856C221.175 165.187 220.94 165.651 220.855 166.248ZM229.206 171V163.112H230.822V164.04H231.078C231.206 163.709 231.409 163.469 231.686 163.32C231.974 163.16 232.326 163.08 232.742 163.08H233.686V164.568H232.678C232.145 164.568 231.708 164.717 231.366 165.016C231.025 165.304 230.854 165.752 230.854 166.36V171H229.206ZM238.774 171.224C237.771 171.224 236.939 171 236.278 170.552C235.617 170.104 235.211 169.427 235.062 168.52L236.598 168.152C236.683 168.589 236.827 168.936 237.03 169.192C237.233 169.448 237.483 169.629 237.782 169.736C238.091 169.843 238.422 169.896 238.774 169.896C239.297 169.896 239.697 169.795 239.974 169.592C240.262 169.389 240.406 169.128 240.406 168.808C240.406 168.488 240.273 168.253 240.006 168.104C239.739 167.955 239.345 167.832 238.822 167.736L238.278 167.64C237.745 167.544 237.259 167.405 236.822 167.224C236.385 167.043 236.038 166.792 235.782 166.472C235.526 166.152 235.398 165.741 235.398 165.24C235.398 164.493 235.675 163.917 236.23 163.512C236.785 163.096 237.521 162.888 238.438 162.888C239.323 162.888 240.049 163.091 240.614 163.496C241.19 163.891 241.563 164.429 241.734 165.112L240.198 165.544C240.102 165.064 239.899 164.728 239.59 164.536C239.281 164.333 238.897 164.232 238.438 164.232C237.99 164.232 237.638 164.317 237.382 164.488C237.126 164.648 236.998 164.877 236.998 165.176C236.998 165.496 237.121 165.731 237.366 165.88C237.622 166.029 237.963 166.141 238.39 166.216L238.95 166.312C239.515 166.408 240.033 166.541 240.502 166.712C240.971 166.883 241.339 167.128 241.606 167.448C241.883 167.768 242.022 168.195 242.022 168.728C242.022 169.517 241.729 170.131 241.142 170.568C240.555 171.005 239.766 171.224 238.774 171.224Z" fill="white"/>
<rect x="44.5" y="0.5" width="577" height="191" rx="19.5" stroke="white"/>
<line x1="11" y1="49.25" x2="44.048" y2="49.25" stroke="white"/>
<rect x="1.58333" y="41.5833" width="15.8333" height="15.8333" rx="7.91667" fill="#24FF00"/>
<rect x="1.58333" y="41.5833" width="15.8333" height="15.8333" rx="7.91667" stroke="#FA9E14" stroke-width="3.16667"/>
</svg>
