<svg width="622" height="116" viewBox="0 0 622 116" fill="none" xmlns="http://www.w3.org/2000/svg">
<path d="M84.1508 41.336C82.0388 41.336 80.3587 40.76 79.1107 39.608C77.8627 38.44 77.2387 36.776 77.2387 34.616V30.584C77.2387 28.424 77.8627 26.768 79.1107 25.616C80.3587 24.448 82.0388 23.864 84.1508 23.864C86.2628 23.864 87.9428 24.448 89.1908 25.616C90.4388 26.768 91.0628 28.424 91.0628 30.584V34.616C91.0628 36.776 90.4388 38.44 89.1908 39.608C87.9428 40.76 86.2628 41.336 84.1508 41.336ZM84.1508 38.504C85.3348 38.504 86.2548 38.16 86.9107 37.472C87.5668 36.784 87.8948 35.864 87.8948 34.712V30.488C87.8948 29.336 87.5668 28.416 86.9107 27.728C86.2548 27.04 85.3348 26.696 84.1508 26.696C82.9828 26.696 82.0627 27.04 81.3907 27.728C80.7347 28.416 80.4067 29.336 80.4067 30.488V34.712C80.4067 35.864 80.7347 36.784 81.3907 37.472C82.0627 38.16 82.9828 38.504 84.1508 38.504ZM85.2547 45.32C84.4707 45.32 83.8307 45.072 83.3348 44.576C82.8548 44.096 82.6148 43.448 82.6148 42.632V41H85.6867V42.152C85.6867 42.632 85.9107 42.872 86.3587 42.872H87.7748V45.32H85.2547ZM101.617 41V37.592H93.3615V34.04L99.1695 24.2H104.689V34.856H107.473V37.592H104.689V41H101.617ZM96.2895 34.856H101.617V26.168H101.185L96.2895 34.472V34.856ZM110.371 44.528V42.896H111.307C112.043 42.896 112.411 42.528 112.411 41.792V41.024H112.003C111.363 41.024 110.827 40.832 110.395 40.448C109.979 40.064 109.771 39.576 109.771 38.984C109.771 38.344 109.979 37.824 110.395 37.424C110.827 37.024 111.363 36.824 112.003 36.824C112.659 36.824 113.195 37.032 113.611 37.448C114.027 37.848 114.235 38.392 114.235 39.08V41.84C114.235 43.632 113.339 44.528 111.547 44.528H110.371ZM122.865 41V38.984C122.865 37.816 123.057 36.848 123.441 36.08C123.825 35.296 124.377 34.656 125.097 34.16C125.833 33.648 126.729 33.232 127.785 32.912L129.393 32.408C129.985 32.216 130.481 31.984 130.881 31.712C131.281 31.424 131.585 31.08 131.793 30.68C132.017 30.28 132.129 29.824 132.129 29.312V29.216C132.129 28.416 131.857 27.784 131.313 27.32C130.769 26.84 130.025 26.6 129.081 26.6C128.153 26.6 127.401 26.856 126.825 27.368C126.265 27.864 125.985 28.584 125.985 29.528V29.96H122.913V29.576C122.913 28.36 123.185 27.328 123.729 26.48C124.273 25.632 125.009 24.984 125.937 24.536C126.881 24.088 127.929 23.864 129.081 23.864C130.233 23.864 131.273 24.088 132.201 24.536C133.129 24.968 133.857 25.584 134.385 26.384C134.929 27.168 135.201 28.096 135.201 29.168V29.408C135.201 30.48 134.977 31.392 134.529 32.144C134.097 32.88 133.505 33.488 132.753 33.968C132.001 34.432 131.145 34.816 130.185 35.12L128.649 35.6C127.961 35.808 127.425 36.04 127.041 36.296C126.657 36.536 126.385 36.808 126.225 37.112C126.081 37.4 126.009 37.752 126.009 38.168V38.264H135.057V41H122.865ZM144.363 41.336C142.379 41.336 140.787 40.792 139.587 39.704C138.387 38.6 137.787 36.936 137.787 34.712V30.488C137.787 28.328 138.387 26.688 139.587 25.568C140.787 24.432 142.379 23.864 144.363 23.864C146.363 23.864 147.955 24.432 149.139 25.568C150.339 26.688 150.939 28.328 150.939 30.488V34.712C150.939 36.936 150.339 38.6 149.139 39.704C147.955 40.792 146.363 41.336 144.363 41.336ZM144.363 38.6C145.563 38.6 146.443 38.272 147.003 37.616C147.579 36.96 147.867 36.024 147.867 34.808V30.344C147.867 29.112 147.547 28.184 146.907 27.56C146.283 26.92 145.435 26.6 144.363 26.6C143.259 26.6 142.395 26.928 141.771 27.584C141.163 28.24 140.859 29.16 140.859 30.344V34.808C140.859 36.072 141.147 37.024 141.723 37.664C142.315 38.288 143.195 38.6 144.363 38.6ZM153.638 41V38.984C153.638 37.816 153.83 36.848 154.214 36.08C154.598 35.296 155.15 34.656 155.87 34.16C156.606 33.648 157.502 33.232 158.558 32.912L160.166 32.408C160.758 32.216 161.254 31.984 161.654 31.712C162.054 31.424 162.358 31.08 162.566 30.68C162.79 30.28 162.902 29.824 162.902 29.312V29.216C162.902 28.416 162.63 27.784 162.086 27.32C161.542 26.84 160.798 26.6 159.854 26.6C158.926 26.6 158.174 26.856 157.598 27.368C157.038 27.864 156.758 28.584 156.758 29.528V29.96H153.686V29.576C153.686 28.36 153.958 27.328 154.502 26.48C155.046 25.632 155.782 24.984 156.71 24.536C157.654 24.088 158.702 23.864 159.854 23.864C161.006 23.864 162.046 24.088 162.974 24.536C163.902 24.968 164.63 25.584 165.158 26.384C165.702 27.168 165.974 28.096 165.974 29.168V29.408C165.974 30.48 165.75 31.392 165.302 32.144C164.87 32.88 164.278 33.488 163.526 33.968C162.774 34.432 161.918 34.816 160.958 35.12L159.422 35.6C158.734 35.808 158.198 36.04 157.814 36.296C157.43 36.536 157.158 36.808 156.998 37.112C156.854 37.4 156.782 37.752 156.782 38.168V38.264H165.83V41H153.638ZM174.656 41.336C173.392 41.336 172.272 41.112 171.296 40.664C170.32 40.216 169.552 39.576 168.992 38.744C168.448 37.896 168.176 36.896 168.176 35.744V35.312H171.248V35.648C171.248 36.544 171.56 37.264 172.184 37.808C172.808 38.336 173.632 38.6 174.656 38.6C175.696 38.6 176.496 38.352 177.056 37.856C177.632 37.36 177.92 36.736 177.92 35.984V35.744C177.92 35.232 177.792 34.816 177.536 34.496C177.28 34.176 176.936 33.944 176.504 33.8C176.072 33.64 175.584 33.56 175.04 33.56H171.68V30.2L177.104 27.32V26.936H168.608V24.2H180.512V28.28L175.448 30.968V31.352H176.336C177.088 31.352 177.816 31.504 178.52 31.808C179.24 32.112 179.832 32.584 180.296 33.224C180.76 33.848 180.992 34.664 180.992 35.672V35.96C180.992 37.048 180.728 38 180.2 38.816C179.672 39.616 178.928 40.24 177.968 40.688C177.024 41.12 175.92 41.336 174.656 41.336Z" fill="white"/>
<line opacity="0.64" x1="76" y1="57.5" x2="524.571" y2="57.5" stroke="white"/>
<path d="M93.9414 84.4395L83.502 94.8887L78.0625 89.4395L78.9414 88.5605L83.502 93.1113L93.0625 83.5605L93.9414 84.4395Z" fill="#24FF00"/>
<path d="M120.123 95V85.368H116.683V83.8H125.291V85.368H121.851V95H120.123ZM129.375 95.224C128.585 95.224 127.881 95.064 127.263 94.744C126.655 94.4133 126.175 93.944 125.823 93.336C125.471 92.728 125.295 92.008 125.295 91.176V90.936C125.295 90.104 125.471 89.3893 125.823 88.792C126.175 88.184 126.655 87.7147 127.263 87.384C127.881 87.0533 128.585 86.888 129.375 86.888C130.164 86.888 130.868 87.0533 131.487 87.384C132.105 87.7147 132.591 88.184 132.943 88.792C133.295 89.3893 133.471 90.104 133.471 90.936V91.176C133.471 92.008 133.295 92.728 132.943 93.336C132.591 93.944 132.105 94.4133 131.487 94.744C130.868 95.064 130.164 95.224 129.375 95.224ZM129.375 93.752C130.1 93.752 130.687 93.5227 131.135 93.064C131.593 92.5947 131.823 91.9493 131.823 91.128V90.984C131.823 90.1627 131.599 89.5227 131.151 89.064C130.703 88.5947 130.111 88.36 129.375 88.36C128.66 88.36 128.073 88.5947 127.615 89.064C127.167 89.5227 126.943 90.1627 126.943 90.984V91.128C126.943 91.9493 127.167 92.5947 127.615 93.064C128.073 93.5227 128.66 93.752 129.375 93.752ZM144.801 95.224C144.033 95.224 143.441 95.0853 143.025 94.808C142.619 94.5307 142.315 94.2213 142.113 93.88H141.857V95H140.241V83.8H141.889V88.184H142.145C142.273 87.9707 142.443 87.768 142.657 87.576C142.87 87.3733 143.153 87.208 143.505 87.08C143.857 86.952 144.289 86.888 144.801 86.888C145.462 86.888 146.07 87.048 146.625 87.368C147.179 87.688 147.622 88.152 147.953 88.76C148.283 89.368 148.449 90.0933 148.449 90.936V91.176C148.449 92.0293 148.278 92.76 147.937 93.368C147.606 93.9653 147.163 94.424 146.609 94.744C146.065 95.064 145.462 95.224 144.801 95.224ZM144.321 93.784C145.035 93.784 145.622 93.5547 146.081 93.096C146.55 92.6373 146.785 91.9813 146.785 91.128V90.984C146.785 90.1413 146.555 89.4907 146.097 89.032C145.638 88.5733 145.046 88.344 144.321 88.344C143.617 88.344 143.03 88.5733 142.561 89.032C142.102 89.4907 141.873 90.1413 141.873 90.984V91.128C141.873 91.9813 142.102 92.6373 142.561 93.096C143.03 93.5547 143.617 93.784 144.321 93.784ZM154.427 95.224C153.627 95.224 152.928 95.0587 152.331 94.728C151.733 94.3867 151.264 93.912 150.923 93.304C150.592 92.6853 150.427 91.9707 150.427 91.16V90.968C150.427 90.1467 150.592 89.432 150.923 88.824C151.253 88.2053 151.712 87.7307 152.299 87.4C152.896 87.0587 153.584 86.888 154.363 86.888C155.12 86.888 155.781 87.0587 156.347 87.4C156.923 87.7307 157.371 88.1947 157.691 88.792C158.011 89.3893 158.171 90.088 158.171 90.888V91.512H152.107C152.128 92.2053 152.357 92.76 152.795 93.176C153.243 93.5813 153.797 93.784 154.459 93.784C155.077 93.784 155.541 93.6453 155.851 93.368C156.171 93.0907 156.416 92.7707 156.587 92.408L157.947 93.112C157.797 93.4107 157.579 93.7253 157.291 94.056C157.013 94.3867 156.645 94.664 156.187 94.888C155.728 95.112 155.141 95.224 154.427 95.224ZM152.123 90.248H156.491C156.448 89.6507 156.235 89.1867 155.851 88.856C155.467 88.5147 154.965 88.344 154.347 88.344C153.728 88.344 153.221 88.5147 152.827 88.856C152.443 89.1867 152.208 89.6507 152.123 90.248ZM168.537 95.224C167.779 95.224 167.091 95.064 166.473 94.744C165.865 94.424 165.379 93.96 165.017 93.352C164.665 92.744 164.489 92.0133 164.489 91.16V90.952C164.489 90.0987 164.665 89.3733 165.017 88.776C165.379 88.168 165.865 87.704 166.473 87.384C167.091 87.0533 167.779 86.888 168.537 86.888C169.294 86.888 169.939 87.0267 170.473 87.304C171.006 87.5813 171.433 87.9493 171.753 88.408C172.083 88.8667 172.297 89.3733 172.393 89.928L170.793 90.264C170.739 89.912 170.627 89.592 170.457 89.304C170.286 89.016 170.046 88.7867 169.737 88.616C169.427 88.4453 169.038 88.36 168.569 88.36C168.11 88.36 167.694 88.4667 167.321 88.68C166.958 88.8827 166.67 89.1813 166.457 89.576C166.243 89.96 166.137 90.4293 166.137 90.984V91.128C166.137 91.6827 166.243 92.1573 166.457 92.552C166.67 92.9467 166.958 93.2453 167.321 93.448C167.694 93.6507 168.11 93.752 168.569 93.752C169.262 93.752 169.79 93.576 170.153 93.224C170.515 92.8613 170.745 92.4027 170.841 91.848L172.441 92.216C172.313 92.76 172.083 93.2613 171.753 93.72C171.433 94.1787 171.006 94.5467 170.473 94.824C169.939 95.0907 169.294 95.224 168.537 95.224ZM178.357 95.224C177.568 95.224 176.864 95.064 176.245 94.744C175.637 94.4133 175.157 93.944 174.805 93.336C174.453 92.728 174.277 92.008 174.277 91.176V90.936C174.277 90.104 174.453 89.3893 174.805 88.792C175.157 88.184 175.637 87.7147 176.245 87.384C176.864 87.0533 177.568 86.888 178.357 86.888C179.147 86.888 179.851 87.0533 180.469 87.384C181.088 87.7147 181.573 88.184 181.925 88.792C182.277 89.3893 182.453 90.104 182.453 90.936V91.176C182.453 92.008 182.277 92.728 181.925 93.336C181.573 93.944 181.088 94.4133 180.469 94.744C179.851 95.064 179.147 95.224 178.357 95.224ZM178.357 93.752C179.083 93.752 179.669 93.5227 180.117 93.064C180.576 92.5947 180.805 91.9493 180.805 91.128V90.984C180.805 90.1627 180.581 89.5227 180.133 89.064C179.685 88.5947 179.093 88.36 178.357 88.36C177.643 88.36 177.056 88.5947 176.597 89.064C176.149 89.5227 175.925 90.1627 175.925 90.984V91.128C175.925 91.9493 176.149 92.5947 176.597 93.064C177.056 93.5227 177.643 93.752 178.357 93.752ZM184.825 95V87.112H186.441V88.296H186.697C186.846 87.976 187.113 87.6773 187.497 87.4C187.881 87.1227 188.452 86.984 189.209 86.984C189.806 86.984 190.334 87.1173 190.793 87.384C191.262 87.6507 191.63 88.0293 191.897 88.52C192.164 89 192.297 89.5813 192.297 90.264V95H190.649V90.392C190.649 89.7093 190.478 89.208 190.137 88.888C189.796 88.5573 189.326 88.392 188.729 88.392C188.046 88.392 187.497 88.616 187.081 89.064C186.676 89.512 186.473 90.1627 186.473 91.016V95H184.825ZM197.73 95C197.25 95 196.866 94.856 196.578 94.568C196.301 94.28 196.162 93.896 196.162 93.416V88.504H193.986V87.112H196.162V84.504H197.81V87.112H200.162V88.504H197.81V93.128C197.81 93.448 197.959 93.608 198.258 93.608H199.906V95H197.73ZM202.418 95V87.112H204.066V95H202.418ZM203.25 86.04C202.93 86.04 202.658 85.9387 202.434 85.736C202.221 85.5227 202.114 85.2507 202.114 84.92C202.114 84.5893 202.221 84.3227 202.434 84.12C202.658 83.9067 202.93 83.8 203.25 83.8C203.581 83.8 203.853 83.9067 204.066 84.12C204.28 84.3227 204.386 84.5893 204.386 84.92C204.386 85.2507 204.28 85.5227 204.066 85.736C203.853 85.9387 203.581 86.04 203.25 86.04ZM206.832 95V87.112H208.448V88.296H208.704C208.853 87.976 209.12 87.6773 209.504 87.4C209.888 87.1227 210.459 86.984 211.216 86.984C211.813 86.984 212.341 87.1173 212.8 87.384C213.269 87.6507 213.637 88.0293 213.904 88.52C214.171 89 214.304 89.5813 214.304 90.264V95H212.656V90.392C212.656 89.7093 212.485 89.208 212.144 88.888C211.803 88.5573 211.333 88.392 210.736 88.392C210.053 88.392 209.504 88.616 209.088 89.064C208.683 89.512 208.48 90.1627 208.48 91.016V95H206.832ZM219.895 95.144C219.297 95.144 218.764 95.0107 218.295 94.744C217.825 94.4773 217.457 94.0987 217.191 93.608C216.924 93.1173 216.791 92.5307 216.791 91.848V87.112H218.439V91.736C218.439 92.4187 218.609 92.9253 218.951 93.256C219.292 93.576 219.767 93.736 220.375 93.736C221.047 93.736 221.585 93.512 221.991 93.064C222.407 92.6053 222.615 91.9493 222.615 91.096V87.112H224.263V95H222.647V93.816H222.391C222.241 94.136 221.975 94.44 221.591 94.728C221.207 95.0053 220.641 95.144 219.895 95.144ZM230.635 95.224C229.835 95.224 229.136 95.0587 228.539 94.728C227.941 94.3867 227.472 93.912 227.131 93.304C226.8 92.6853 226.635 91.9707 226.635 91.16V90.968C226.635 90.1467 226.8 89.432 227.131 88.824C227.461 88.2053 227.92 87.7307 228.507 87.4C229.104 87.0587 229.792 86.888 230.571 86.888C231.328 86.888 231.989 87.0587 232.555 87.4C233.131 87.7307 233.579 88.1947 233.899 88.792C234.219 89.3893 234.379 90.088 234.379 90.888V91.512H228.315C228.336 92.2053 228.565 92.76 229.003 93.176C229.451 93.5813 230.005 93.784 230.667 93.784C231.285 93.784 231.749 93.6453 232.059 93.368C232.379 93.0907 232.624 92.7707 232.795 92.408L234.155 93.112C234.005 93.4107 233.787 93.7253 233.499 94.056C233.221 94.3867 232.853 94.664 232.395 94.888C231.936 95.112 231.349 95.224 230.635 95.224ZM228.331 90.248H232.699C232.656 89.6507 232.443 89.1867 232.059 88.856C231.675 88.5147 231.173 88.344 230.555 88.344C229.936 88.344 229.429 88.5147 229.035 88.856C228.651 89.1867 228.416 89.6507 228.331 90.248ZM239.947 95.224C239.296 95.224 238.693 95.064 238.139 94.744C237.584 94.424 237.136 93.9653 236.795 93.368C236.464 92.76 236.299 92.0293 236.299 91.176V90.936C236.299 90.0933 236.464 89.368 236.795 88.76C237.125 88.152 237.568 87.688 238.123 87.368C238.677 87.048 239.285 86.888 239.947 86.888C240.459 86.888 240.885 86.952 241.227 87.08C241.579 87.208 241.867 87.3733 242.091 87.576C242.315 87.768 242.485 87.9707 242.603 88.184H242.859V83.8H244.507V95H242.891V93.88H242.635C242.432 94.2213 242.123 94.5307 241.707 94.808C241.301 95.0853 240.715 95.224 239.947 95.224ZM240.411 93.784C241.125 93.784 241.712 93.5547 242.171 93.096C242.64 92.6373 242.875 91.9813 242.875 91.128V90.984C242.875 90.1413 242.645 89.4907 242.187 89.032C241.728 88.5733 241.136 88.344 240.411 88.344C239.707 88.344 239.12 88.5733 238.651 89.032C238.192 89.4907 237.963 90.1413 237.963 90.984V91.128C237.963 91.9813 238.192 92.6373 238.651 93.096C239.12 93.5547 239.707 93.784 240.411 93.784Z" fill="white"/>
<rect x="44.5" y="0.5" width="577" height="115" rx="19.5" stroke="white"/>
<line x1="11" y1="46.25" x2="44.048" y2="46.25" stroke="white"/>
<rect x="1.58333" y="38.5833" width="15.8333" height="15.8333" rx="7.91667" fill="#24FF00"/>
<rect x="1.58333" y="38.5833" width="15.8333" height="15.8333" rx="7.91667" stroke="#FA9E14" stroke-width="3.16667"/>
</svg>
