<svg width="622" height="230" viewBox="0 0 622 230" fill="none" xmlns="http://www.w3.org/2000/svg">
<path d="M84.4789 41.336C82.3669 41.336 80.6869 40.76 79.4389 39.608C78.1909 38.44 77.5669 36.776 77.5669 34.616V30.584C77.5669 28.424 78.1909 26.768 79.4389 25.616C80.6869 24.448 82.3669 23.864 84.4789 23.864C86.5909 23.864 88.2709 24.448 89.5189 25.616C90.7669 26.768 91.3909 28.424 91.3909 30.584V34.616C91.3909 36.776 90.7669 38.44 89.5189 39.608C88.2709 40.76 86.5909 41.336 84.4789 41.336ZM84.4789 38.504C85.6629 38.504 86.5829 38.16 87.2389 37.472C87.8949 36.784 88.2229 35.864 88.2229 34.712V30.488C88.2229 29.336 87.8949 28.416 87.2389 27.728C86.5829 27.04 85.6629 26.696 84.4789 26.696C83.3109 26.696 82.3909 27.04 81.7189 27.728C81.0629 28.416 80.7349 29.336 80.7349 30.488V34.712C80.7349 35.864 81.0629 36.784 81.7189 37.472C82.3909 38.16 83.3109 38.504 84.4789 38.504ZM85.5829 45.32C84.7989 45.32 84.1589 45.072 83.6629 44.576C83.1829 44.096 82.9429 43.448 82.9429 42.632V41H86.0149V42.152C86.0149 42.632 86.2389 42.872 86.6869 42.872H88.1029V45.32H85.5829ZM100.362 41.336C99.0976 41.336 97.9776 41.112 97.0016 40.664C96.0256 40.216 95.2576 39.576 94.6976 38.744C94.1536 37.896 93.8816 36.896 93.8816 35.744V35.312H96.9536V35.648C96.9536 36.544 97.2656 37.264 97.8896 37.808C98.5136 38.336 99.3376 38.6 100.362 38.6C101.402 38.6 102.202 38.352 102.762 37.856C103.338 37.36 103.626 36.736 103.626 35.984V35.744C103.626 35.232 103.498 34.816 103.242 34.496C102.986 34.176 102.642 33.944 102.21 33.8C101.778 33.64 101.29 33.56 100.746 33.56H97.3856V30.2L102.81 27.32V26.936H94.3136V24.2H106.218V28.28L101.154 30.968V31.352H102.042C102.794 31.352 103.522 31.504 104.226 31.808C104.946 32.112 105.538 32.584 106.002 33.224C106.466 33.848 106.698 34.664 106.698 35.672V35.96C106.698 37.048 106.434 38 105.906 38.816C105.378 39.616 104.634 40.24 103.674 40.688C102.73 41.12 101.626 41.336 100.362 41.336ZM110.043 44.528V42.896H110.979C111.715 42.896 112.083 42.528 112.083 41.792V41.024H111.675C111.035 41.024 110.499 40.832 110.067 40.448C109.651 40.064 109.443 39.576 109.443 38.984C109.443 38.344 109.651 37.824 110.067 37.424C110.499 37.024 111.035 36.824 111.675 36.824C112.331 36.824 112.867 37.032 113.283 37.448C113.699 37.848 113.907 38.392 113.907 39.08V41.84C113.907 43.632 113.011 44.528 111.219 44.528H110.043ZM122.537 41V38.984C122.537 37.816 122.729 36.848 123.113 36.08C123.497 35.296 124.049 34.656 124.769 34.16C125.505 33.648 126.401 33.232 127.457 32.912L129.065 32.408C129.657 32.216 130.153 31.984 130.553 31.712C130.953 31.424 131.257 31.08 131.465 30.68C131.689 30.28 131.801 29.824 131.801 29.312V29.216C131.801 28.416 131.529 27.784 130.985 27.32C130.441 26.84 129.697 26.6 128.753 26.6C127.825 26.6 127.073 26.856 126.497 27.368C125.937 27.864 125.657 28.584 125.657 29.528V29.96H122.585V29.576C122.585 28.36 122.857 27.328 123.401 26.48C123.945 25.632 124.681 24.984 125.609 24.536C126.553 24.088 127.601 23.864 128.753 23.864C129.905 23.864 130.945 24.088 131.873 24.536C132.801 24.968 133.529 25.584 134.057 26.384C134.601 27.168 134.873 28.096 134.873 29.168V29.408C134.873 30.48 134.649 31.392 134.201 32.144C133.769 32.88 133.177 33.488 132.425 33.968C131.673 34.432 130.817 34.816 129.857 35.12L128.321 35.6C127.633 35.808 127.097 36.04 126.713 36.296C126.329 36.536 126.057 36.808 125.897 37.112C125.753 37.4 125.681 37.752 125.681 38.168V38.264H134.729V41H122.537ZM144.035 41.336C142.051 41.336 140.459 40.792 139.259 39.704C138.059 38.6 137.459 36.936 137.459 34.712V30.488C137.459 28.328 138.059 26.688 139.259 25.568C140.459 24.432 142.051 23.864 144.035 23.864C146.035 23.864 147.627 24.432 148.811 25.568C150.011 26.688 150.611 28.328 150.611 30.488V34.712C150.611 36.936 150.011 38.6 148.811 39.704C147.627 40.792 146.035 41.336 144.035 41.336ZM144.035 38.6C145.235 38.6 146.115 38.272 146.675 37.616C147.251 36.96 147.539 36.024 147.539 34.808V30.344C147.539 29.112 147.219 28.184 146.579 27.56C145.955 26.92 145.107 26.6 144.035 26.6C142.931 26.6 142.067 26.928 141.443 27.584C140.835 28.24 140.531 29.16 140.531 30.344V34.808C140.531 36.072 140.819 37.024 141.395 37.664C141.987 38.288 142.867 38.6 144.035 38.6ZM153.31 41V38.984C153.31 37.816 153.502 36.848 153.886 36.08C154.27 35.296 154.822 34.656 155.542 34.16C156.278 33.648 157.174 33.232 158.23 32.912L159.838 32.408C160.43 32.216 160.926 31.984 161.326 31.712C161.726 31.424 162.03 31.08 162.238 30.68C162.462 30.28 162.574 29.824 162.574 29.312V29.216C162.574 28.416 162.302 27.784 161.758 27.32C161.214 26.84 160.47 26.6 159.526 26.6C158.598 26.6 157.846 26.856 157.27 27.368C156.71 27.864 156.43 28.584 156.43 29.528V29.96H153.358V29.576C153.358 28.36 153.63 27.328 154.174 26.48C154.718 25.632 155.454 24.984 156.382 24.536C157.326 24.088 158.374 23.864 159.526 23.864C160.678 23.864 161.718 24.088 162.646 24.536C163.574 24.968 164.302 25.584 164.83 26.384C165.374 27.168 165.646 28.096 165.646 29.168V29.408C165.646 30.48 165.422 31.392 164.974 32.144C164.542 32.88 163.95 33.488 163.198 33.968C162.446 34.432 161.59 34.816 160.63 35.12L159.094 35.6C158.406 35.808 157.87 36.04 157.486 36.296C157.102 36.536 156.83 36.808 156.67 37.112C156.526 37.4 156.454 37.752 156.454 38.168V38.264H165.502V41H153.31ZM174.328 41.336C173.064 41.336 171.944 41.112 170.968 40.664C169.992 40.216 169.224 39.576 168.664 38.744C168.12 37.896 167.848 36.896 167.848 35.744V35.312H170.92V35.648C170.92 36.544 171.232 37.264 171.856 37.808C172.48 38.336 173.304 38.6 174.328 38.6C175.368 38.6 176.168 38.352 176.728 37.856C177.304 37.36 177.592 36.736 177.592 35.984V35.744C177.592 35.232 177.464 34.816 177.208 34.496C176.952 34.176 176.608 33.944 176.176 33.8C175.744 33.64 175.256 33.56 174.712 33.56H171.352V30.2L176.776 27.32V26.936H168.28V24.2H180.184V28.28L175.12 30.968V31.352H176.008C176.76 31.352 177.488 31.504 178.192 31.808C178.912 32.112 179.504 32.584 179.968 33.224C180.432 33.848 180.664 34.664 180.664 35.672V35.96C180.664 37.048 180.4 38 179.872 38.816C179.344 39.616 178.6 40.24 177.64 40.688C176.696 41.12 175.592 41.336 174.328 41.336Z" fill="white"/>
<line opacity="0.64" x1="76" y1="57.5" x2="524.571" y2="57.5" stroke="white"/>

<path d="M121.586 95.224C120.701 95.224 119.938 95.064 119.298 94.744C118.669 94.424 118.178 93.9653 117.826 93.368C117.485 92.76 117.314 92.024 117.314 91.16V83.8H119.058V91.208C119.058 91.9973 119.277 92.6053 119.714 93.032C120.152 93.4587 120.776 93.672 121.586 93.672C122.397 93.672 123.021 93.4587 123.458 93.032C123.896 92.6053 124.114 91.9973 124.114 91.208V83.8H125.842V91.16C125.842 92.024 125.672 92.76 125.33 93.368C124.989 93.9653 124.498 94.424 123.858 94.744C123.218 95.064 122.461 95.224 121.586 95.224ZM128.465 98.2V87.112H130.081V88.248H130.337C130.54 87.896 130.844 87.5813 131.249 87.304C131.665 87.0267 132.257 86.888 133.025 86.888C133.687 86.888 134.289 87.048 134.833 87.368C135.388 87.688 135.831 88.152 136.161 88.76C136.503 89.3573 136.673 90.0827 136.673 90.936V91.176C136.673 92.0293 136.508 92.76 136.177 93.368C135.847 93.9653 135.404 94.424 134.849 94.744C134.295 95.064 133.687 95.224 133.025 95.224C132.513 95.224 132.081 95.16 131.729 95.032C131.377 94.904 131.095 94.744 130.881 94.552C130.668 94.3493 130.497 94.1413 130.369 93.928H130.113V98.2H128.465ZM132.545 93.784C133.271 93.784 133.863 93.5547 134.321 93.096C134.78 92.6373 135.009 91.9813 135.009 91.128V90.984C135.009 90.1413 134.775 89.4907 134.305 89.032C133.847 88.5733 133.26 88.344 132.545 88.344C131.841 88.344 131.255 88.5733 130.785 89.032C130.327 89.4907 130.097 90.1413 130.097 90.984V91.128C130.097 91.9813 130.327 92.6373 130.785 93.096C131.255 93.5547 131.841 93.784 132.545 93.784ZM138.651 91.096V90.856C138.651 90.024 138.817 89.3147 139.147 88.728C139.489 88.1413 139.937 87.688 140.491 87.368C141.046 87.048 141.654 86.888 142.315 86.888C143.083 86.888 143.67 87.032 144.075 87.32C144.491 87.608 144.795 87.9173 144.987 88.248H145.243V87.112H146.843V96.616C146.843 97.096 146.699 97.48 146.411 97.768C146.134 98.056 145.75 98.2 145.259 98.2H139.947V96.76H144.747C145.057 96.76 145.211 96.6 145.211 96.28V93.768H144.955C144.838 93.96 144.673 94.1573 144.459 94.36C144.246 94.5627 143.963 94.728 143.611 94.856C143.27 94.984 142.838 95.048 142.315 95.048C141.654 95.048 141.041 94.8933 140.475 94.584C139.921 94.264 139.478 93.8107 139.147 93.224C138.817 92.6267 138.651 91.9173 138.651 91.096ZM142.763 93.608C143.478 93.608 144.065 93.384 144.523 92.936C144.993 92.4773 145.227 91.848 145.227 91.048V90.904C145.227 90.0827 144.998 89.4533 144.539 89.016C144.081 88.568 143.489 88.344 142.763 88.344C142.059 88.344 141.473 88.568 141.003 89.016C140.545 89.4533 140.315 90.0827 140.315 90.904V91.048C140.315 91.848 140.545 92.4773 141.003 92.936C141.473 93.384 142.059 93.608 142.763 93.608ZM149.59 95V87.112H151.206V88.04H151.462C151.59 87.7093 151.792 87.4693 152.07 87.32C152.358 87.16 152.71 87.08 153.126 87.08H154.07V88.568H153.062C152.528 88.568 152.091 88.7173 151.75 89.016C151.408 89.304 151.238 89.752 151.238 90.36V95H149.59ZM158.326 95.224C157.761 95.224 157.254 95.128 156.806 94.936C156.369 94.744 156.017 94.4613 155.75 94.088C155.494 93.7147 155.366 93.2613 155.366 92.728C155.366 92.184 155.494 91.736 155.75 91.384C156.017 91.0213 156.374 90.7493 156.822 90.568C157.281 90.3867 157.798 90.296 158.374 90.296H160.774V89.784C160.774 89.3253 160.636 88.9573 160.358 88.68C160.081 88.4027 159.654 88.264 159.078 88.264C158.513 88.264 158.081 88.3973 157.782 88.664C157.484 88.9307 157.286 89.2773 157.19 89.704L155.654 89.208C155.782 88.7813 155.985 88.3973 156.262 88.056C156.55 87.704 156.929 87.4213 157.398 87.208C157.868 86.9947 158.433 86.888 159.094 86.888C160.118 86.888 160.924 87.1493 161.51 87.672C162.097 88.1947 162.39 88.936 162.39 89.896V93.144C162.39 93.464 162.54 93.624 162.838 93.624H163.51V95H162.278C161.905 95 161.601 94.904 161.366 94.712C161.132 94.52 161.014 94.2587 161.014 93.928V93.88H160.774C160.689 94.04 160.561 94.2267 160.39 94.44C160.22 94.6533 159.969 94.84 159.638 95C159.308 95.1493 158.87 95.224 158.326 95.224ZM158.566 93.864C159.228 93.864 159.761 93.6773 160.166 93.304C160.572 92.92 160.774 92.3973 160.774 91.736V91.576H158.47C158.033 91.576 157.681 91.672 157.414 91.864C157.148 92.0453 157.014 92.3173 157.014 92.68C157.014 93.0427 157.153 93.3307 157.43 93.544C157.708 93.7573 158.086 93.864 158.566 93.864ZM168.509 95.224C167.859 95.224 167.256 95.064 166.701 94.744C166.147 94.424 165.699 93.9653 165.357 93.368C165.027 92.76 164.861 92.0293 164.861 91.176V90.936C164.861 90.0933 165.027 89.368 165.357 88.76C165.688 88.152 166.131 87.688 166.685 87.368C167.24 87.048 167.848 86.888 168.509 86.888C169.021 86.888 169.448 86.952 169.789 87.08C170.141 87.208 170.429 87.3733 170.653 87.576C170.877 87.768 171.048 87.9707 171.165 88.184H171.421V83.8H173.069V95H171.453V93.88H171.197C170.995 94.2213 170.685 94.5307 170.269 94.808C169.864 95.0853 169.277 95.224 168.509 95.224ZM168.973 93.784C169.688 93.784 170.275 93.5547 170.733 93.096C171.203 92.6373 171.437 91.9813 171.437 91.128V90.984C171.437 90.1413 171.208 89.4907 170.749 89.032C170.291 88.5733 169.699 88.344 168.973 88.344C168.269 88.344 167.683 88.5733 167.213 89.032C166.755 89.4907 166.525 90.1413 166.525 90.984V91.128C166.525 91.9813 166.755 92.6373 167.213 93.096C167.683 93.5547 168.269 93.784 168.973 93.784ZM179.431 95.224C178.631 95.224 177.933 95.0587 177.335 94.728C176.738 94.3867 176.269 93.912 175.927 93.304C175.597 92.6853 175.431 91.9707 175.431 91.16V90.968C175.431 90.1467 175.597 89.432 175.927 88.824C176.258 88.2053 176.717 87.7307 177.303 87.4C177.901 87.0587 178.589 86.888 179.367 86.888C180.125 86.888 180.786 87.0587 181.351 87.4C181.927 87.7307 182.375 88.1947 182.695 88.792C183.015 89.3893 183.175 90.088 183.175 90.888V91.512H177.111C177.133 92.2053 177.362 92.76 177.799 93.176C178.247 93.5813 178.802 93.784 179.463 93.784C180.082 93.784 180.546 93.6453 180.855 93.368C181.175 93.0907 181.421 92.7707 181.591 92.408L182.951 93.112C182.802 93.4107 182.583 93.7253 182.295 94.056C182.018 94.3867 181.65 94.664 181.191 94.888C180.733 95.112 180.146 95.224 179.431 95.224ZM177.127 90.248H181.495C181.453 89.6507 181.239 89.1867 180.855 88.856C180.471 88.5147 179.97 88.344 179.351 88.344C178.733 88.344 178.226 88.5147 177.831 88.856C177.447 89.1867 177.213 89.6507 177.127 90.248ZM194.437 95.224C193.669 95.224 193.077 95.0853 192.661 94.808C192.256 94.5307 191.952 94.2213 191.749 93.88H191.493V95H189.877V83.8H191.525V88.184H191.781C191.909 87.9707 192.08 87.768 192.293 87.576C192.507 87.3733 192.789 87.208 193.141 87.08C193.493 86.952 193.925 86.888 194.437 86.888C195.099 86.888 195.707 87.048 196.261 87.368C196.816 87.688 197.259 88.152 197.589 88.76C197.92 89.368 198.085 90.0933 198.085 90.936V91.176C198.085 92.0293 197.915 92.76 197.573 93.368C197.243 93.9653 196.8 94.424 196.245 94.744C195.701 95.064 195.099 95.224 194.437 95.224ZM193.957 93.784C194.672 93.784 195.259 93.5547 195.717 93.096C196.187 92.6373 196.421 91.9813 196.421 91.128V90.984C196.421 90.1413 196.192 89.4907 195.733 89.032C195.275 88.5733 194.683 88.344 193.957 88.344C193.253 88.344 192.667 88.5733 192.197 89.032C191.739 89.4907 191.509 90.1413 191.509 90.984V91.128C191.509 91.9813 191.739 92.6373 192.197 93.096C192.667 93.5547 193.253 93.784 193.957 93.784ZM204.143 95.224C203.354 95.224 202.65 95.064 202.031 94.744C201.423 94.4133 200.943 93.944 200.591 93.336C200.239 92.728 200.063 92.008 200.063 91.176V90.936C200.063 90.104 200.239 89.3893 200.591 88.792C200.943 88.184 201.423 87.7147 202.031 87.384C202.65 87.0533 203.354 86.888 204.143 86.888C204.933 86.888 205.637 87.0533 206.255 87.384C206.874 87.7147 207.359 88.184 207.711 88.792C208.063 89.3893 208.239 90.104 208.239 90.936V91.176C208.239 92.008 208.063 92.728 207.711 93.336C207.359 93.944 206.874 94.4133 206.255 94.744C205.637 95.064 204.933 95.224 204.143 95.224ZM204.143 93.752C204.869 93.752 205.455 93.5227 205.903 93.064C206.362 92.5947 206.591 91.9493 206.591 91.128V90.984C206.591 90.1627 206.367 89.5227 205.919 89.064C205.471 88.5947 204.879 88.36 204.143 88.36C203.429 88.36 202.842 88.5947 202.383 89.064C201.935 89.5227 201.711 90.1627 201.711 90.984V91.128C201.711 91.9493 201.935 92.5947 202.383 93.064C202.842 93.5227 203.429 93.752 204.143 93.752ZM213.274 95C212.794 95 212.41 94.856 212.122 94.568C211.845 94.28 211.706 93.896 211.706 93.416V88.504H209.53V87.112H211.706V84.504H213.354V87.112H215.706V88.504H213.354V93.128C213.354 93.448 213.503 93.608 213.802 93.608H215.45V95H213.274ZM225.32 95C224.84 95 224.456 94.856 224.168 94.568C223.891 94.28 223.752 93.896 223.752 93.416V88.504H221.576V87.112H223.752V84.504H225.4V87.112H227.752V88.504H225.4V93.128C225.4 93.448 225.55 93.608 225.848 93.608H227.496V95H225.32ZM233.423 95.224C232.634 95.224 231.93 95.064 231.311 94.744C230.703 94.4133 230.223 93.944 229.871 93.336C229.519 92.728 229.343 92.008 229.343 91.176V90.936C229.343 90.104 229.519 89.3893 229.871 88.792C230.223 88.184 230.703 87.7147 231.311 87.384C231.93 87.0533 232.634 86.888 233.423 86.888C234.213 86.888 234.917 87.0533 235.535 87.384C236.154 87.7147 236.639 88.184 236.991 88.792C237.343 89.3893 237.519 90.104 237.519 90.936V91.176C237.519 92.008 237.343 92.728 236.991 93.336C236.639 93.944 236.154 94.4133 235.535 94.744C234.917 95.064 234.213 95.224 233.423 95.224ZM233.423 93.752C234.149 93.752 234.735 93.5227 235.183 93.064C235.642 92.5947 235.871 91.9493 235.871 91.128V90.984C235.871 90.1627 235.647 89.5227 235.199 89.064C234.751 88.5947 234.159 88.36 233.423 88.36C232.709 88.36 232.122 88.5947 231.663 89.064C231.215 89.5227 230.991 90.1627 230.991 90.984V91.128C230.991 91.9493 231.215 92.5947 231.663 93.064C232.122 93.5227 232.709 93.752 233.423 93.752ZM244.241 95V83.8H248.689C249.372 83.8 249.98 83.9387 250.513 84.216C251.057 84.4827 251.478 84.8667 251.777 85.368C252.086 85.8587 252.241 86.4507 252.241 87.144V87.352C252.241 88.0453 252.081 88.6427 251.761 89.144C251.452 89.6453 251.03 90.0293 250.497 90.296C249.964 90.5627 249.361 90.696 248.689 90.696H245.969V95H244.241ZM245.969 89.128H248.513C249.121 89.128 249.606 88.968 249.969 88.648C250.332 88.328 250.513 87.8907 250.513 87.336V87.176C250.513 86.6107 250.332 86.168 249.969 85.848C249.606 85.528 249.121 85.368 248.513 85.368H245.969V89.128ZM257.647 95.224C256.847 95.224 256.148 95.0587 255.551 94.728C254.954 94.3867 254.484 93.912 254.143 93.304C253.812 92.6853 253.647 91.9707 253.647 91.16V90.968C253.647 90.1467 253.812 89.432 254.143 88.824C254.474 88.2053 254.932 87.7307 255.519 87.4C256.116 87.0587 256.804 86.888 257.583 86.888C258.34 86.888 259.002 87.0587 259.567 87.4C260.143 87.7307 260.591 88.1947 260.911 88.792C261.231 89.3893 261.391 90.088 261.391 90.888V91.512H255.327C255.348 92.2053 255.578 92.76 256.015 93.176C256.463 93.5813 257.018 93.784 257.679 93.784C258.298 93.784 258.762 93.6453 259.071 93.368C259.391 93.0907 259.636 92.7707 259.807 92.408L261.167 93.112C261.018 93.4107 260.799 93.7253 260.511 94.056C260.234 94.3867 259.866 94.664 259.407 94.888C258.948 95.112 258.362 95.224 257.647 95.224ZM255.343 90.248H259.711C259.668 89.6507 259.455 89.1867 259.071 88.856C258.687 88.5147 258.186 88.344 257.567 88.344C256.948 88.344 256.442 88.5147 256.047 88.856C255.663 89.1867 255.428 89.6507 255.343 90.248ZM263.311 91.096V90.856C263.311 90.024 263.476 89.3147 263.807 88.728C264.148 88.1413 264.596 87.688 265.151 87.368C265.705 87.048 266.313 86.888 266.975 86.888C267.743 86.888 268.329 87.032 268.735 87.32C269.151 87.608 269.455 87.9173 269.647 88.248H269.903V87.112H271.503V96.616C271.503 97.096 271.359 97.48 271.071 97.768C270.793 98.056 270.409 98.2 269.919 98.2H264.607V96.76H269.407C269.716 96.76 269.871 96.6 269.871 96.28V93.768H269.615C269.497 93.96 269.332 94.1573 269.119 94.36C268.905 94.5627 268.623 94.728 268.271 94.856C267.929 94.984 267.497 95.048 266.975 95.048C266.313 95.048 265.7 94.8933 265.135 94.584C264.58 94.264 264.137 93.8107 263.807 93.224C263.476 92.6267 263.311 91.9173 263.311 91.096ZM267.423 93.608C268.137 93.608 268.724 93.384 269.183 92.936C269.652 92.4773 269.887 91.848 269.887 91.048V90.904C269.887 90.0827 269.657 89.4533 269.199 89.016C268.74 88.568 268.148 88.344 267.423 88.344C266.719 88.344 266.132 88.568 265.663 89.016C265.204 89.4533 264.975 90.0827 264.975 90.904V91.048C264.975 91.848 265.204 92.4773 265.663 92.936C266.132 93.384 266.719 93.608 267.423 93.608ZM276.697 95.224C276.132 95.224 275.625 95.128 275.177 94.936C274.74 94.744 274.388 94.4613 274.121 94.088C273.865 93.7147 273.737 93.2613 273.737 92.728C273.737 92.184 273.865 91.736 274.121 91.384C274.388 91.0213 274.745 90.7493 275.193 90.568C275.652 90.3867 276.169 90.296 276.745 90.296H279.145V89.784C279.145 89.3253 279.006 88.9573 278.729 88.68C278.452 88.4027 278.025 88.264 277.449 88.264C276.884 88.264 276.452 88.3973 276.153 88.664C275.854 88.9307 275.657 89.2773 275.561 89.704L274.025 89.208C274.153 88.7813 274.356 88.3973 274.633 88.056C274.921 87.704 275.3 87.4213 275.769 87.208C276.238 86.9947 276.804 86.888 277.465 86.888C278.489 86.888 279.294 87.1493 279.881 87.672C280.468 88.1947 280.761 88.936 280.761 89.896V93.144C280.761 93.464 280.91 93.624 281.209 93.624H281.881V95H280.649C280.276 95 279.972 94.904 279.737 94.712C279.502 94.52 279.385 94.2587 279.385 93.928V93.88H279.145C279.06 94.04 278.932 94.2267 278.761 94.44C278.59 94.6533 278.34 94.84 278.009 95C277.678 95.1493 277.241 95.224 276.697 95.224ZM276.937 93.864C277.598 93.864 278.132 93.6773 278.537 93.304C278.942 92.92 279.145 92.3973 279.145 91.736V91.576H276.841C276.404 91.576 276.052 91.672 275.785 91.864C275.518 92.0453 275.385 92.3173 275.385 92.68C275.385 93.0427 275.524 93.3307 275.801 93.544C276.078 93.7573 276.457 93.864 276.937 93.864ZM286.973 95.224C285.97 95.224 285.138 95 284.477 94.552C283.816 94.104 283.41 93.4267 283.261 92.52L284.797 92.152C284.882 92.5893 285.026 92.936 285.229 93.192C285.432 93.448 285.682 93.6293 285.981 93.736C286.29 93.8427 286.621 93.896 286.973 93.896C287.496 93.896 287.896 93.7947 288.173 93.592C288.461 93.3893 288.605 93.128 288.605 92.808C288.605 92.488 288.472 92.2533 288.205 92.104C287.938 91.9547 287.544 91.832 287.021 91.736L286.477 91.64C285.944 91.544 285.458 91.4053 285.021 91.224C284.584 91.0427 284.237 90.792 283.981 90.472C283.725 90.152 283.597 89.7413 283.597 89.24C283.597 88.4933 283.874 87.9173 284.429 87.512C284.984 87.096 285.72 86.888 286.637 86.888C287.522 86.888 288.248 87.0907 288.813 87.496C289.389 87.8907 289.762 88.4293 289.933 89.112L288.397 89.544C288.301 89.064 288.098 88.728 287.789 88.536C287.48 88.3333 287.096 88.232 286.637 88.232C286.189 88.232 285.837 88.3173 285.581 88.488C285.325 88.648 285.197 88.8773 285.197 89.176C285.197 89.496 285.32 89.7307 285.565 89.88C285.821 90.0293 286.162 90.1413 286.589 90.216L287.149 90.312C287.714 90.408 288.232 90.5413 288.701 90.712C289.17 90.8827 289.538 91.128 289.805 91.448C290.082 91.768 290.221 92.1947 290.221 92.728C290.221 93.5173 289.928 94.1307 289.341 94.568C288.754 95.0053 287.965 95.224 286.973 95.224ZM295.491 95.144C294.894 95.144 294.361 95.0107 293.891 94.744C293.422 94.4773 293.054 94.0987 292.787 93.608C292.521 93.1173 292.387 92.5307 292.387 91.848V87.112H294.035V91.736C294.035 92.4187 294.206 92.9253 294.547 93.256C294.889 93.576 295.363 93.736 295.971 93.736C296.643 93.736 297.182 93.512 297.587 93.064C298.003 92.6053 298.211 91.9493 298.211 91.096V87.112H299.859V95H298.243V93.816H297.987C297.838 94.136 297.571 94.44 297.187 94.728C296.803 95.0053 296.238 95.144 295.491 95.144ZM305.847 95.224C304.845 95.224 304.013 95 303.351 94.552C302.69 94.104 302.285 93.4267 302.135 92.52L303.671 92.152C303.757 92.5893 303.901 92.936 304.103 93.192C304.306 93.448 304.557 93.6293 304.855 93.736C305.165 93.8427 305.495 93.896 305.847 93.896C306.37 93.896 306.77 93.7947 307.047 93.592C307.335 93.3893 307.479 93.128 307.479 92.808C307.479 92.488 307.346 92.2533 307.079 92.104C306.813 91.9547 306.418 91.832 305.895 91.736L305.351 91.64C304.818 91.544 304.333 91.4053 303.895 91.224C303.458 91.0427 303.111 90.792 302.855 90.472C302.599 90.152 302.471 89.7413 302.471 89.24C302.471 88.4933 302.749 87.9173 303.303 87.512C303.858 87.096 304.594 86.888 305.511 86.888C306.397 86.888 307.122 87.0907 307.687 87.496C308.263 87.8907 308.637 88.4293 308.807 89.112L307.271 89.544C307.175 89.064 306.973 88.728 306.663 88.536C306.354 88.3333 305.97 88.232 305.511 88.232C305.063 88.232 304.711 88.3173 304.455 88.488C304.199 88.648 304.071 88.8773 304.071 89.176C304.071 89.496 304.194 89.7307 304.439 89.88C304.695 90.0293 305.037 90.1413 305.463 90.216L306.023 90.312C306.589 90.408 307.106 90.5413 307.575 90.712C308.045 90.8827 308.413 91.128 308.679 91.448C308.957 91.768 309.095 92.1947 309.095 92.728C309.095 93.5173 308.802 94.1307 308.215 94.568C307.629 95.0053 306.839 95.224 305.847 95.224ZM314.956 95L318.396 89.352L315.004 83.8H316.988L319.516 88.12H319.772L322.316 83.8H324.3L320.908 89.352L324.348 95H322.348L319.772 90.584H319.516L316.94 95H314.956Z" fill="white"/>
<path d="M93.9414 122.439L83.502 132.889L78.0625 127.439L78.9414 126.561L83.502 131.111L93.0625 121.561L93.9414 122.439Z" fill="#24FF00"/>
<path d="M117.492 133V121.8H119.22V133H117.492ZM121.922 133V125.112H123.538V126.04H123.794C123.944 125.763 124.184 125.517 124.514 125.304C124.845 125.091 125.293 124.984 125.858 124.984C126.445 124.984 126.914 125.107 127.266 125.352C127.629 125.587 127.901 125.891 128.082 126.264H128.338C128.52 125.901 128.781 125.597 129.122 125.352C129.474 125.107 129.97 124.984 130.61 124.984C131.122 124.984 131.576 125.091 131.97 125.304C132.365 125.507 132.68 125.816 132.914 126.232C133.149 126.637 133.266 127.144 133.266 127.752V133H131.618V127.88C131.618 127.4 131.485 127.032 131.218 126.776C130.962 126.509 130.594 126.376 130.114 126.376C129.602 126.376 129.192 126.541 128.882 126.872C128.573 127.203 128.418 127.677 128.418 128.296V133H126.77V127.88C126.77 127.4 126.637 127.032 126.37 126.776C126.114 126.509 125.746 126.376 125.266 126.376C124.754 126.376 124.344 126.541 124.034 126.872C123.725 127.203 123.57 127.677 123.57 128.296V133H121.922ZM135.961 136.2V125.112H137.577V126.248H137.833C138.036 125.896 138.34 125.581 138.745 125.304C139.161 125.027 139.753 124.888 140.521 124.888C141.182 124.888 141.785 125.048 142.329 125.368C142.884 125.688 143.326 126.152 143.657 126.76C143.998 127.357 144.169 128.083 144.169 128.936V129.176C144.169 130.029 144.004 130.76 143.673 131.368C143.342 131.965 142.9 132.424 142.345 132.744C141.79 133.064 141.182 133.224 140.521 133.224C140.009 133.224 139.577 133.16 139.225 133.032C138.873 132.904 138.59 132.744 138.377 132.552C138.164 132.349 137.993 132.141 137.865 131.928H137.609V136.2H135.961ZM140.041 131.784C140.766 131.784 141.358 131.555 141.817 131.096C142.276 130.637 142.505 129.981 142.505 129.128V128.984C142.505 128.141 142.27 127.491 141.801 127.032C141.342 126.573 140.756 126.344 140.041 126.344C139.337 126.344 138.75 126.573 138.281 127.032C137.822 127.491 137.593 128.141 137.593 128.984V129.128C137.593 129.981 137.822 130.637 138.281 131.096C138.75 131.555 139.337 131.784 140.041 131.784ZM146.531 133V121.8H148.179V133H146.531ZM154.561 133.224C153.761 133.224 153.062 133.059 152.465 132.728C151.867 132.387 151.398 131.912 151.057 131.304C150.726 130.685 150.561 129.971 150.561 129.16V128.968C150.561 128.147 150.726 127.432 151.057 126.824C151.387 126.205 151.846 125.731 152.433 125.4C153.03 125.059 153.718 124.888 154.497 124.888C155.254 124.888 155.915 125.059 156.481 125.4C157.057 125.731 157.505 126.195 157.825 126.792C158.145 127.389 158.305 128.088 158.305 128.888V129.512H152.241C152.262 130.205 152.491 130.76 152.929 131.176C153.377 131.581 153.931 131.784 154.593 131.784C155.211 131.784 155.675 131.645 155.985 131.368C156.305 131.091 156.55 130.771 156.721 130.408L158.081 131.112C157.931 131.411 157.713 131.725 157.425 132.056C157.147 132.387 156.779 132.664 156.321 132.888C155.862 133.112 155.275 133.224 154.561 133.224ZM152.257 128.248H156.625C156.582 127.651 156.369 127.187 155.985 126.856C155.601 126.515 155.099 126.344 154.481 126.344C153.862 126.344 153.355 126.515 152.961 126.856C152.577 127.187 152.342 127.651 152.257 128.248ZM160.609 133V125.112H162.225V126.04H162.481C162.63 125.763 162.87 125.517 163.201 125.304C163.531 125.091 163.979 124.984 164.545 124.984C165.131 124.984 165.601 125.107 165.953 125.352C166.315 125.587 166.587 125.891 166.769 126.264H167.025C167.206 125.901 167.467 125.597 167.809 125.352C168.161 125.107 168.657 124.984 169.297 124.984C169.809 124.984 170.262 125.091 170.657 125.304C171.051 125.507 171.366 125.816 171.601 126.232C171.835 126.637 171.953 127.144 171.953 127.752V133H170.305V127.88C170.305 127.4 170.171 127.032 169.905 126.776C169.649 126.509 169.281 126.376 168.801 126.376C168.289 126.376 167.878 126.541 167.569 126.872C167.259 127.203 167.105 127.677 167.105 128.296V133H165.457V127.88C165.457 127.4 165.323 127.032 165.057 126.776C164.801 126.509 164.433 126.376 163.953 126.376C163.441 126.376 163.03 126.541 162.721 126.872C162.411 127.203 162.257 127.677 162.257 128.296V133H160.609ZM178.263 133.224C177.463 133.224 176.765 133.059 176.167 132.728C175.57 132.387 175.101 131.912 174.759 131.304C174.429 130.685 174.263 129.971 174.263 129.16V128.968C174.263 128.147 174.429 127.432 174.759 126.824C175.09 126.205 175.549 125.731 176.135 125.4C176.733 125.059 177.421 124.888 178.199 124.888C178.957 124.888 179.618 125.059 180.183 125.4C180.759 125.731 181.207 126.195 181.527 126.792C181.847 127.389 182.007 128.088 182.007 128.888V129.512H175.943C175.965 130.205 176.194 130.76 176.631 131.176C177.079 131.581 177.634 131.784 178.295 131.784C178.914 131.784 179.378 131.645 179.687 131.368C180.007 131.091 180.253 130.771 180.423 130.408L181.783 131.112C181.634 131.411 181.415 131.725 181.127 132.056C180.85 132.387 180.482 132.664 180.023 132.888C179.565 133.112 178.978 133.224 178.263 133.224ZM175.959 128.248H180.327C180.285 127.651 180.071 127.187 179.687 126.856C179.303 126.515 178.802 126.344 178.183 126.344C177.565 126.344 177.058 126.515 176.663 126.856C176.279 127.187 176.045 127.651 175.959 128.248ZM184.311 133V125.112H185.927V126.296H186.183C186.332 125.976 186.599 125.677 186.983 125.4C187.367 125.123 187.938 124.984 188.695 124.984C189.292 124.984 189.82 125.117 190.279 125.384C190.748 125.651 191.116 126.029 191.383 126.52C191.65 127 191.783 127.581 191.783 128.264V133H190.135V128.392C190.135 127.709 189.964 127.208 189.623 126.888C189.282 126.557 188.812 126.392 188.215 126.392C187.532 126.392 186.983 126.616 186.567 127.064C186.162 127.512 185.959 128.163 185.959 129.016V133H184.311ZM197.216 133C196.736 133 196.352 132.856 196.064 132.568C195.787 132.28 195.648 131.896 195.648 131.416V126.504H193.472V125.112H195.648V122.504H197.296V125.112H199.648V126.504H197.296V131.128C197.296 131.448 197.445 131.608 197.744 131.608H199.392V133H197.216ZM206.302 136.2V125.112H207.918V126.248H208.174C208.377 125.896 208.681 125.581 209.086 125.304C209.502 125.027 210.094 124.888 210.862 124.888C211.524 124.888 212.126 125.048 212.67 125.368C213.225 125.688 213.668 126.152 213.998 126.76C214.34 127.357 214.51 128.083 214.51 128.936V129.176C214.51 130.029 214.345 130.76 214.014 131.368C213.684 131.965 213.241 132.424 212.686 132.744C212.132 133.064 211.524 133.224 210.862 133.224C210.35 133.224 209.918 133.16 209.566 133.032C209.214 132.904 208.932 132.744 208.718 132.552C208.505 132.349 208.334 132.141 208.206 131.928H207.95V136.2H206.302ZM210.382 131.784C211.108 131.784 211.7 131.555 212.158 131.096C212.617 130.637 212.846 129.981 212.846 129.128V128.984C212.846 128.141 212.612 127.491 212.142 127.032C211.684 126.573 211.097 126.344 210.382 126.344C209.678 126.344 209.092 126.573 208.622 127.032C208.164 127.491 207.934 128.141 207.934 128.984V129.128C207.934 129.981 208.164 130.637 208.622 131.096C209.092 131.555 209.678 131.784 210.382 131.784ZM216.872 133V125.112H218.488V126.04H218.744C218.872 125.709 219.075 125.469 219.352 125.32C219.64 125.16 219.992 125.08 220.408 125.08H221.352V126.568H220.344C219.811 126.568 219.374 126.717 219.032 127.016C218.691 127.304 218.52 127.752 218.52 128.36V133H216.872ZM223.38 133V125.112H225.028V133H223.38ZM224.212 124.04C223.892 124.04 223.62 123.939 223.396 123.736C223.182 123.523 223.076 123.251 223.076 122.92C223.076 122.589 223.182 122.323 223.396 122.12C223.62 121.907 223.892 121.8 224.212 121.8C224.542 121.8 224.814 121.907 225.028 122.12C225.241 122.323 225.348 122.589 225.348 122.92C225.348 123.251 225.241 123.523 225.028 123.736C224.814 123.939 224.542 124.04 224.212 124.04ZM229.618 133L226.962 125.112H228.706L230.802 131.784H231.058L233.154 125.112H234.898L232.242 133H229.618ZM239.046 133.224C238.481 133.224 237.974 133.128 237.526 132.936C237.089 132.744 236.737 132.461 236.47 132.088C236.214 131.715 236.086 131.261 236.086 130.728C236.086 130.184 236.214 129.736 236.47 129.384C236.737 129.021 237.094 128.749 237.542 128.568C238.001 128.387 238.518 128.296 239.094 128.296H241.494V127.784C241.494 127.325 241.355 126.957 241.078 126.68C240.801 126.403 240.374 126.264 239.798 126.264C239.233 126.264 238.801 126.397 238.502 126.664C238.203 126.931 238.006 127.277 237.91 127.704L236.374 127.208C236.502 126.781 236.705 126.397 236.982 126.056C237.27 125.704 237.649 125.421 238.118 125.208C238.587 124.995 239.153 124.888 239.814 124.888C240.838 124.888 241.643 125.149 242.23 125.672C242.817 126.195 243.11 126.936 243.11 127.896V131.144C243.11 131.464 243.259 131.624 243.558 131.624H244.23V133H242.998C242.625 133 242.321 132.904 242.086 132.712C241.851 132.52 241.734 132.259 241.734 131.928V131.88H241.494C241.409 132.04 241.281 132.227 241.11 132.44C240.939 132.653 240.689 132.84 240.358 133C240.027 133.149 239.59 133.224 239.046 133.224ZM239.286 131.864C239.947 131.864 240.481 131.677 240.886 131.304C241.291 130.92 241.494 130.397 241.494 129.736V129.576H239.19C238.753 129.576 238.401 129.672 238.134 129.864C237.867 130.045 237.734 130.317 237.734 130.68C237.734 131.043 237.873 131.331 238.15 131.544C238.427 131.757 238.806 131.864 239.286 131.864ZM249.629 133.224C248.871 133.224 248.183 133.064 247.565 132.744C246.957 132.424 246.471 131.96 246.109 131.352C245.757 130.744 245.581 130.013 245.581 129.16V128.952C245.581 128.099 245.757 127.373 246.109 126.776C246.471 126.168 246.957 125.704 247.565 125.384C248.183 125.053 248.871 124.888 249.629 124.888C250.386 124.888 251.031 125.027 251.565 125.304C252.098 125.581 252.525 125.949 252.845 126.408C253.175 126.867 253.389 127.373 253.485 127.928L251.885 128.264C251.831 127.912 251.719 127.592 251.549 127.304C251.378 127.016 251.138 126.787 250.829 126.616C250.519 126.445 250.13 126.36 249.661 126.36C249.202 126.36 248.786 126.467 248.413 126.68C248.05 126.883 247.762 127.181 247.549 127.576C247.335 127.96 247.229 128.429 247.229 128.984V129.128C247.229 129.683 247.335 130.157 247.549 130.552C247.762 130.947 248.05 131.245 248.413 131.448C248.786 131.651 249.202 131.752 249.661 131.752C250.354 131.752 250.882 131.576 251.245 131.224C251.607 130.861 251.837 130.403 251.933 129.848L253.533 130.216C253.405 130.76 253.175 131.261 252.845 131.72C252.525 132.179 252.098 132.547 251.565 132.824C251.031 133.091 250.386 133.224 249.629 133.224ZM256.666 136.2V134.76H261.066C261.364 134.76 261.514 134.6 261.514 134.28V131.848H261.258C261.162 132.061 261.012 132.269 260.81 132.472C260.618 132.664 260.356 132.824 260.026 132.952C259.695 133.08 259.279 133.144 258.778 133.144C258.18 133.144 257.647 133.011 257.178 132.744C256.708 132.477 256.34 132.099 256.074 131.608C255.807 131.117 255.674 130.536 255.674 129.864V125.112H257.322V129.736C257.322 130.419 257.492 130.925 257.834 131.256C258.175 131.576 258.65 131.736 259.258 131.736C259.93 131.736 260.468 131.512 260.874 131.064C261.29 130.616 261.498 129.965 261.498 129.112V125.112H263.146V134.616C263.146 135.096 263.002 135.48 262.714 135.768C262.436 136.056 262.052 136.2 261.562 136.2H256.666ZM270.3 133V125.112H271.916V126.04H272.172C272.321 125.763 272.561 125.517 272.892 125.304C273.222 125.091 273.67 124.984 274.236 124.984C274.822 124.984 275.292 125.107 275.644 125.352C276.006 125.587 276.278 125.891 276.46 126.264H276.716C276.897 125.901 277.158 125.597 277.5 125.352C277.852 125.107 278.348 124.984 278.988 124.984C279.5 124.984 279.953 125.091 280.348 125.304C280.742 125.507 281.057 125.816 281.292 126.232C281.526 126.637 281.644 127.144 281.644 127.752V133H279.996V127.88C279.996 127.4 279.862 127.032 279.596 126.776C279.34 126.509 278.972 126.376 278.492 126.376C277.98 126.376 277.569 126.541 277.26 126.872C276.95 127.203 276.796 127.677 276.796 128.296V133H275.148V127.88C275.148 127.4 275.014 127.032 274.748 126.776C274.492 126.509 274.124 126.376 273.644 126.376C273.132 126.376 272.721 126.541 272.412 126.872C272.102 127.203 271.948 127.677 271.948 128.296V133H270.3ZM284.338 133V125.112H285.986V133H284.338ZM285.17 124.04C284.85 124.04 284.578 123.939 284.354 123.736C284.141 123.523 284.034 123.251 284.034 122.92C284.034 122.589 284.141 122.323 284.354 122.12C284.578 121.907 284.85 121.8 285.17 121.8C285.501 121.8 285.773 121.907 285.986 122.12C286.2 122.323 286.306 122.589 286.306 122.92C286.306 123.251 286.2 123.523 285.986 123.736C285.773 123.939 285.501 124.04 285.17 124.04ZM288.08 133L291.088 129.016L288.144 125.112H290.08L292.144 127.944H292.4L294.464 125.112H296.416L293.456 129.016L296.464 133H294.496L292.4 130.104H292.144L290.048 133H288.08ZM301.657 133.224C300.857 133.224 300.158 133.059 299.561 132.728C298.964 132.387 298.494 131.912 298.153 131.304C297.822 130.685 297.657 129.971 297.657 129.16V128.968C297.657 128.147 297.822 127.432 298.153 126.824C298.484 126.205 298.942 125.731 299.529 125.4C300.126 125.059 300.814 124.888 301.593 124.888C302.35 124.888 303.012 125.059 303.577 125.4C304.153 125.731 304.601 126.195 304.921 126.792C305.241 127.389 305.401 128.088 305.401 128.888V129.512H299.337C299.358 130.205 299.588 130.76 300.025 131.176C300.473 131.581 301.028 131.784 301.689 131.784C302.308 131.784 302.772 131.645 303.081 131.368C303.401 131.091 303.646 130.771 303.817 130.408L305.177 131.112C305.028 131.411 304.809 131.725 304.521 132.056C304.244 132.387 303.876 132.664 303.417 132.888C302.958 133.112 302.372 133.224 301.657 133.224ZM299.353 128.248H303.721C303.678 127.651 303.465 127.187 303.081 126.856C302.697 126.515 302.196 126.344 301.577 126.344C300.958 126.344 300.452 126.515 300.057 126.856C299.673 127.187 299.438 127.651 299.353 128.248ZM307.705 133V125.112H309.321V126.04H309.577C309.705 125.709 309.907 125.469 310.185 125.32C310.473 125.16 310.825 125.08 311.241 125.08H312.185V126.568H311.177C310.643 126.568 310.206 126.717 309.865 127.016C309.523 127.304 309.353 127.752 309.353 128.36V133H307.705Z" fill="white"/>
<path d="M93.9414 160.439L83.502 170.889L78.0625 165.439L78.9414 164.561L83.502 169.111L93.0625 159.561L93.9414 160.439Z" fill="#24FF00"/>
<path d="M117.497 171V159.8H119.225V164.6H123.929V159.8H125.657V171H123.929V166.168H119.225V171H117.497ZM132.061 171.224C131.272 171.224 130.568 171.064 129.949 170.744C129.341 170.413 128.861 169.944 128.509 169.336C128.157 168.728 127.981 168.008 127.981 167.176V166.936C127.981 166.104 128.157 165.389 128.509 164.792C128.861 164.184 129.341 163.715 129.949 163.384C130.568 163.053 131.272 162.888 132.061 162.888C132.85 162.888 133.554 163.053 134.173 163.384C134.792 163.715 135.277 164.184 135.629 164.792C135.981 165.389 136.157 166.104 136.157 166.936V167.176C136.157 168.008 135.981 168.728 135.629 169.336C135.277 169.944 134.792 170.413 134.173 170.744C133.554 171.064 132.85 171.224 132.061 171.224ZM132.061 169.752C132.786 169.752 133.373 169.523 133.821 169.064C134.28 168.595 134.509 167.949 134.509 167.128V166.984C134.509 166.163 134.285 165.523 133.837 165.064C133.389 164.595 132.797 164.36 132.061 164.36C131.346 164.36 130.76 164.595 130.301 165.064C129.853 165.523 129.629 166.163 129.629 166.984V167.128C129.629 167.949 129.853 168.595 130.301 169.064C130.76 169.523 131.346 169.752 132.061 169.752ZM141.761 171.224C140.758 171.224 139.926 171 139.265 170.552C138.603 170.104 138.198 169.427 138.049 168.52L139.585 168.152C139.67 168.589 139.814 168.936 140.017 169.192C140.219 169.448 140.47 169.629 140.769 169.736C141.078 169.843 141.409 169.896 141.761 169.896C142.283 169.896 142.683 169.795 142.961 169.592C143.249 169.389 143.393 169.128 143.393 168.808C143.393 168.488 143.259 168.253 142.993 168.104C142.726 167.955 142.331 167.832 141.809 167.736L141.265 167.64C140.731 167.544 140.246 167.405 139.809 167.224C139.371 167.043 139.025 166.792 138.769 166.472C138.513 166.152 138.385 165.741 138.385 165.24C138.385 164.493 138.662 163.917 139.217 163.512C139.771 163.096 140.507 162.888 141.425 162.888C142.31 162.888 143.035 163.091 143.601 163.496C144.177 163.891 144.55 164.429 144.721 165.112L143.185 165.544C143.089 165.064 142.886 164.728 142.577 164.536C142.267 164.333 141.883 164.232 141.425 164.232C140.977 164.232 140.625 164.317 140.369 164.488C140.113 164.648 139.985 164.877 139.985 165.176C139.985 165.496 140.107 165.731 140.353 165.88C140.609 166.029 140.95 166.141 141.377 166.216L141.937 166.312C142.502 166.408 143.019 166.541 143.489 166.712C143.958 166.883 144.326 167.128 144.593 167.448C144.87 167.768 145.009 168.195 145.009 168.728C145.009 169.517 144.715 170.131 144.129 170.568C143.542 171.005 142.753 171.224 141.761 171.224ZM150.043 171C149.563 171 149.179 170.856 148.891 170.568C148.614 170.28 148.475 169.896 148.475 169.416V164.504H146.299V163.112H148.475V160.504H150.123V163.112H152.475V164.504H150.123V169.128C150.123 169.448 150.273 169.608 150.571 169.608H152.219V171H150.043ZM158.745 167.096V166.856C158.745 166.024 158.911 165.315 159.241 164.728C159.583 164.141 160.031 163.688 160.585 163.368C161.14 163.048 161.748 162.888 162.409 162.888C163.177 162.888 163.764 163.032 164.169 163.32C164.585 163.608 164.889 163.917 165.081 164.248H165.337V163.112H166.937V172.616C166.937 173.096 166.793 173.48 166.505 173.768C166.228 174.056 165.844 174.2 165.353 174.2H160.041V172.76H164.841C165.151 172.76 165.305 172.6 165.305 172.28V169.768H165.049C164.932 169.96 164.767 170.157 164.553 170.36C164.34 170.563 164.057 170.728 163.705 170.856C163.364 170.984 162.932 171.048 162.409 171.048C161.748 171.048 161.135 170.893 160.569 170.584C160.015 170.264 159.572 169.811 159.241 169.224C158.911 168.627 158.745 167.917 158.745 167.096ZM162.857 169.608C163.572 169.608 164.159 169.384 164.617 168.936C165.087 168.477 165.321 167.848 165.321 167.048V166.904C165.321 166.083 165.092 165.453 164.633 165.016C164.175 164.568 163.583 164.344 162.857 164.344C162.153 164.344 161.567 164.568 161.097 165.016C160.639 165.453 160.409 166.083 160.409 166.904V167.048C160.409 167.848 160.639 168.477 161.097 168.936C161.567 169.384 162.153 169.608 162.857 169.608ZM169.684 171V163.112H171.332V171H169.684ZM170.516 162.04C170.196 162.04 169.924 161.939 169.7 161.736C169.486 161.523 169.38 161.251 169.38 160.92C169.38 160.589 169.486 160.323 169.7 160.12C169.924 159.907 170.196 159.8 170.516 159.8C170.846 159.8 171.118 159.907 171.332 160.12C171.545 160.323 171.652 160.589 171.652 160.92C171.652 161.251 171.545 161.523 171.332 161.736C171.118 161.939 170.846 162.04 170.516 162.04ZM175.922 171L173.266 163.112H175.01L177.106 169.784H177.362L179.458 163.112H181.202L178.546 171H175.922ZM186.455 171.224C185.655 171.224 184.957 171.059 184.359 170.728C183.762 170.387 183.293 169.912 182.951 169.304C182.621 168.685 182.455 167.971 182.455 167.16V166.968C182.455 166.147 182.621 165.432 182.951 164.824C183.282 164.205 183.741 163.731 184.327 163.4C184.925 163.059 185.613 162.888 186.391 162.888C187.149 162.888 187.81 163.059 188.375 163.4C188.951 163.731 189.399 164.195 189.719 164.792C190.039 165.389 190.199 166.088 190.199 166.888V167.512H184.135C184.157 168.205 184.386 168.76 184.823 169.176C185.271 169.581 185.826 169.784 186.487 169.784C187.106 169.784 187.57 169.645 187.879 169.368C188.199 169.091 188.445 168.771 188.615 168.408L189.975 169.112C189.826 169.411 189.607 169.725 189.319 170.056C189.042 170.387 188.674 170.664 188.215 170.888C187.757 171.112 187.17 171.224 186.455 171.224ZM184.151 166.248H188.519C188.477 165.651 188.263 165.187 187.879 164.856C187.495 164.515 186.994 164.344 186.375 164.344C185.757 164.344 185.25 164.515 184.855 164.856C184.471 165.187 184.237 165.651 184.151 166.248ZM194.951 171.224C194.386 171.224 193.879 171.128 193.431 170.936C192.994 170.744 192.642 170.461 192.375 170.088C192.119 169.715 191.991 169.261 191.991 168.728C191.991 168.184 192.119 167.736 192.375 167.384C192.642 167.021 192.999 166.749 193.447 166.568C193.906 166.387 194.423 166.296 194.999 166.296H197.399V165.784C197.399 165.325 197.261 164.957 196.983 164.68C196.706 164.403 196.279 164.264 195.703 164.264C195.138 164.264 194.706 164.397 194.407 164.664C194.109 164.931 193.911 165.277 193.815 165.704L192.279 165.208C192.407 164.781 192.61 164.397 192.887 164.056C193.175 163.704 193.554 163.421 194.023 163.208C194.493 162.995 195.058 162.888 195.719 162.888C196.743 162.888 197.549 163.149 198.135 163.672C198.722 164.195 199.015 164.936 199.015 165.896V169.144C199.015 169.464 199.165 169.624 199.463 169.624H200.135V171H198.903C198.53 171 198.226 170.904 197.991 170.712C197.757 170.52 197.639 170.259 197.639 169.928V169.88H197.399C197.314 170.04 197.186 170.227 197.015 170.44C196.845 170.653 196.594 170.84 196.263 171C195.933 171.149 195.495 171.224 194.951 171.224ZM195.191 169.864C195.853 169.864 196.386 169.677 196.791 169.304C197.197 168.92 197.399 168.397 197.399 167.736V167.576H195.095C194.658 167.576 194.306 167.672 194.039 167.864C193.773 168.045 193.639 168.317 193.639 168.68C193.639 169.043 193.778 169.331 194.055 169.544C194.333 169.757 194.711 169.864 195.191 169.864ZM202.828 171L201.484 163.112H203.132L204.124 169.896H204.38L205.756 163.112H208.428L209.788 169.896H210.044L211.036 163.112H212.684L211.34 171H208.572L207.212 164.232H206.956L205.596 171H202.828ZM217.341 171.224C216.776 171.224 216.269 171.128 215.821 170.936C215.384 170.744 215.032 170.461 214.765 170.088C214.509 169.715 214.381 169.261 214.381 168.728C214.381 168.184 214.509 167.736 214.765 167.384C215.032 167.021 215.389 166.749 215.837 166.568C216.296 166.387 216.813 166.296 217.389 166.296H219.789V165.784C219.789 165.325 219.651 164.957 219.373 164.68C219.096 164.403 218.669 164.264 218.093 164.264C217.528 164.264 217.096 164.397 216.797 164.664C216.499 164.931 216.301 165.277 216.205 165.704L214.669 165.208C214.797 164.781 215 164.397 215.277 164.056C215.565 163.704 215.944 163.421 216.413 163.208C216.883 162.995 217.448 162.888 218.109 162.888C219.133 162.888 219.939 163.149 220.525 163.672C221.112 164.195 221.405 164.936 221.405 165.896V169.144C221.405 169.464 221.555 169.624 221.853 169.624H222.525V171H221.293C220.92 171 220.616 170.904 220.381 170.712C220.147 170.52 220.029 170.259 220.029 169.928V169.88H219.789C219.704 170.04 219.576 170.227 219.405 170.44C219.235 170.653 218.984 170.84 218.653 171C218.323 171.149 217.885 171.224 217.341 171.224ZM217.581 169.864C218.243 169.864 218.776 169.677 219.181 169.304C219.587 168.92 219.789 168.397 219.789 167.736V167.576H217.485C217.048 167.576 216.696 167.672 216.429 167.864C216.163 168.045 216.029 168.317 216.029 168.68C216.029 169.043 216.168 169.331 216.445 169.544C216.723 169.757 217.101 169.864 217.581 169.864ZM225.156 174.2V172.76H229.556C229.855 172.76 230.004 172.6 230.004 172.28V169.848H229.748C229.652 170.061 229.503 170.269 229.3 170.472C229.108 170.664 228.847 170.824 228.516 170.952C228.186 171.08 227.77 171.144 227.268 171.144C226.671 171.144 226.138 171.011 225.668 170.744C225.199 170.477 224.831 170.099 224.564 169.608C224.298 169.117 224.164 168.536 224.164 167.864V163.112H225.812V167.736C225.812 168.419 225.983 168.925 226.324 169.256C226.666 169.576 227.14 169.736 227.748 169.736C228.42 169.736 228.959 169.512 229.364 169.064C229.78 168.616 229.988 167.965 229.988 167.112V163.112H231.636V172.616C231.636 173.096 231.492 173.48 231.204 173.768C230.927 174.056 230.543 174.2 230.052 174.2H225.156ZM241.239 171.224C240.673 171.224 240.167 171.128 239.719 170.936C239.281 170.744 238.929 170.461 238.663 170.088C238.407 169.715 238.279 169.261 238.279 168.728C238.279 168.184 238.407 167.736 238.663 167.384C238.929 167.021 239.287 166.749 239.735 166.568C240.193 166.387 240.711 166.296 241.287 166.296H243.687V165.784C243.687 165.325 243.548 164.957 243.271 164.68C242.993 164.403 242.567 164.264 241.991 164.264C241.425 164.264 240.993 164.397 240.695 164.664C240.396 164.931 240.199 165.277 240.103 165.704L238.567 165.208C238.695 164.781 238.897 164.397 239.175 164.056C239.463 163.704 239.841 163.421 240.311 163.208C240.78 162.995 241.345 162.888 242.007 162.888C243.031 162.888 243.836 163.149 244.423 163.672C245.009 164.195 245.303 164.936 245.303 165.896V169.144C245.303 169.464 245.452 169.624 245.751 169.624H246.423V171H245.191C244.817 171 244.513 170.904 244.279 170.712C244.044 170.52 243.927 170.259 243.927 169.928V169.88H243.687C243.601 170.04 243.473 170.227 243.303 170.44C243.132 170.653 242.881 170.84 242.551 171C242.22 171.149 241.783 171.224 241.239 171.224ZM241.479 169.864C242.14 169.864 242.673 169.677 243.079 169.304C243.484 168.92 243.687 168.397 243.687 167.736V167.576H241.383C240.945 167.576 240.593 167.672 240.327 167.864C240.06 168.045 239.927 168.317 239.927 168.68C239.927 169.043 240.065 169.331 240.343 169.544C240.62 169.757 240.999 169.864 241.479 169.864ZM248.345 171V163.112H249.961V164.296H250.217C250.366 163.976 250.633 163.677 251.017 163.4C251.401 163.123 251.972 162.984 252.729 162.984C253.326 162.984 253.854 163.117 254.313 163.384C254.782 163.651 255.15 164.029 255.417 164.52C255.684 165 255.817 165.581 255.817 166.264V171H254.169V166.392C254.169 165.709 253.998 165.208 253.657 164.888C253.316 164.557 252.846 164.392 252.249 164.392C251.566 164.392 251.017 164.616 250.601 165.064C250.196 165.512 249.993 166.163 249.993 167.016V171H248.345ZM261.773 171.224C261.122 171.224 260.519 171.064 259.965 170.744C259.41 170.424 258.962 169.965 258.621 169.368C258.29 168.76 258.125 168.029 258.125 167.176V166.936C258.125 166.093 258.29 165.368 258.621 164.76C258.951 164.152 259.394 163.688 259.949 163.368C260.503 163.048 261.111 162.888 261.773 162.888C262.285 162.888 262.711 162.952 263.053 163.08C263.405 163.208 263.693 163.373 263.917 163.576C264.141 163.768 264.311 163.971 264.429 164.184H264.685V159.8H266.333V171H264.717V169.88H264.461C264.258 170.221 263.949 170.531 263.533 170.808C263.127 171.085 262.541 171.224 261.773 171.224ZM262.237 169.784C262.951 169.784 263.538 169.555 263.997 169.096C264.466 168.637 264.701 167.981 264.701 167.128V166.984C264.701 166.141 264.471 165.491 264.013 165.032C263.554 164.573 262.962 164.344 262.237 164.344C261.533 164.344 260.946 164.573 260.477 165.032C260.018 165.491 259.789 166.141 259.789 166.984V167.128C259.789 167.981 260.018 168.637 260.477 169.096C260.946 169.555 261.533 169.784 262.237 169.784ZM277.141 171.224C276.384 171.224 275.696 171.064 275.077 170.744C274.469 170.424 273.984 169.96 273.621 169.352C273.269 168.744 273.093 168.013 273.093 167.16V166.952C273.093 166.099 273.269 165.373 273.621 164.776C273.984 164.168 274.469 163.704 275.077 163.384C275.696 163.053 276.384 162.888 277.141 162.888C277.898 162.888 278.544 163.027 279.077 163.304C279.61 163.581 280.037 163.949 280.357 164.408C280.688 164.867 280.901 165.373 280.997 165.928L279.397 166.264C279.344 165.912 279.232 165.592 279.061 165.304C278.89 165.016 278.65 164.787 278.341 164.616C278.032 164.445 277.642 164.36 277.173 164.36C276.714 164.36 276.298 164.467 275.925 164.68C275.562 164.883 275.274 165.181 275.061 165.576C274.848 165.96 274.741 166.429 274.741 166.984V167.128C274.741 167.683 274.848 168.157 275.061 168.552C275.274 168.947 275.562 169.245 275.925 169.448C276.298 169.651 276.714 169.752 277.173 169.752C277.866 169.752 278.394 169.576 278.757 169.224C279.12 168.861 279.349 168.403 279.445 167.848L281.045 168.216C280.917 168.76 280.688 169.261 280.357 169.72C280.037 170.179 279.61 170.547 279.077 170.824C278.544 171.091 277.898 171.224 277.141 171.224ZM283.266 171V159.8H284.914V164.232H285.17C285.276 164.029 285.426 163.832 285.618 163.64C285.82 163.448 286.082 163.293 286.402 163.176C286.732 163.048 287.148 162.984 287.65 162.984C288.247 162.984 288.775 163.117 289.234 163.384C289.703 163.651 290.071 164.029 290.338 164.52C290.604 165 290.738 165.581 290.738 166.264V171H289.09V166.392C289.09 165.709 288.919 165.208 288.578 164.888C288.236 164.557 287.767 164.392 287.17 164.392C286.487 164.392 285.938 164.616 285.522 165.064C285.116 165.512 284.914 166.163 284.914 167.016V171H283.266ZM295.877 171.224C295.312 171.224 294.805 171.128 294.357 170.936C293.92 170.744 293.568 170.461 293.301 170.088C293.045 169.715 292.917 169.261 292.917 168.728C292.917 168.184 293.045 167.736 293.301 167.384C293.568 167.021 293.925 166.749 294.373 166.568C294.832 166.387 295.349 166.296 295.925 166.296H298.325V165.784C298.325 165.325 298.187 164.957 297.909 164.68C297.632 164.403 297.205 164.264 296.629 164.264C296.064 164.264 295.632 164.397 295.333 164.664C295.035 164.931 294.837 165.277 294.741 165.704L293.205 165.208C293.333 164.781 293.536 164.397 293.813 164.056C294.101 163.704 294.48 163.421 294.949 163.208C295.419 162.995 295.984 162.888 296.645 162.888C297.669 162.888 298.475 163.149 299.061 163.672C299.648 164.195 299.941 164.936 299.941 165.896V169.144C299.941 169.464 300.091 169.624 300.389 169.624H301.061V171H299.829C299.456 171 299.152 170.904 298.917 170.712C298.683 170.52 298.565 170.259 298.565 169.928V169.88H298.325C298.24 170.04 298.112 170.227 297.941 170.44C297.771 170.653 297.52 170.84 297.189 171C296.859 171.149 296.421 171.224 295.877 171.224ZM296.117 169.864C296.779 169.864 297.312 169.677 297.717 169.304C298.123 168.92 298.325 168.397 298.325 167.736V167.576H296.021C295.584 167.576 295.232 167.672 294.965 167.864C294.699 168.045 294.565 168.317 294.565 168.68C294.565 169.043 294.704 169.331 294.981 169.544C295.259 169.757 295.637 169.864 296.117 169.864ZM302.984 171V163.112H304.6V164.04H304.856C304.984 163.709 305.186 163.469 305.464 163.32C305.752 163.16 306.104 163.08 306.52 163.08H307.464V164.568H306.456C305.922 164.568 305.485 164.717 305.144 165.016C304.802 165.304 304.632 165.752 304.632 166.36V171H302.984ZM309.491 171V163.112H311.139V171H309.491ZM310.323 162.04C310.003 162.04 309.731 161.939 309.507 161.736C309.294 161.523 309.187 161.251 309.187 160.92C309.187 160.589 309.294 160.323 309.507 160.12C309.731 159.907 310.003 159.8 310.323 159.8C310.654 159.8 310.926 159.907 311.139 160.12C311.353 160.323 311.459 160.589 311.459 160.92C311.459 161.251 311.353 161.523 311.139 161.736C310.926 161.939 310.654 162.04 310.323 162.04ZM316.865 171C316.385 171 316.001 170.856 315.713 170.568C315.436 170.28 315.297 169.896 315.297 169.416V164.504H313.121V163.112H315.297V160.504H316.945V163.112H319.297V164.504H316.945V169.128C316.945 169.448 317.094 169.608 317.393 169.608H319.041V171H316.865ZM322.465 174.2V172.76H326.865C327.164 172.76 327.313 172.6 327.313 172.28V169.848H327.057C326.961 170.061 326.812 170.269 326.609 170.472C326.417 170.664 326.156 170.824 325.825 170.952C325.495 171.08 325.079 171.144 324.577 171.144C323.98 171.144 323.447 171.011 322.977 170.744C322.508 170.477 322.14 170.099 321.873 169.608C321.607 169.117 321.473 168.536 321.473 167.864V163.112H323.121V167.736C323.121 168.419 323.292 168.925 323.633 169.256C323.975 169.576 324.449 169.736 325.057 169.736C325.729 169.736 326.268 169.512 326.673 169.064C327.089 168.616 327.297 167.965 327.297 167.112V163.112H328.945V172.616C328.945 173.096 328.801 173.48 328.513 173.768C328.236 174.056 327.852 174.2 327.361 174.2H322.465ZM339.715 171.224C338.915 171.224 338.217 171.059 337.619 170.728C337.022 170.387 336.553 169.912 336.211 169.304C335.881 168.685 335.715 167.971 335.715 167.16V166.968C335.715 166.147 335.881 165.432 336.211 164.824C336.542 164.205 337.001 163.731 337.587 163.4C338.185 163.059 338.873 162.888 339.651 162.888C340.409 162.888 341.07 163.059 341.635 163.4C342.211 163.731 342.659 164.195 342.979 164.792C343.299 165.389 343.459 166.088 343.459 166.888V167.512H337.395C337.417 168.205 337.646 168.76 338.083 169.176C338.531 169.581 339.086 169.784 339.747 169.784C340.366 169.784 340.83 169.645 341.139 169.368C341.459 169.091 341.705 168.771 341.875 168.408L343.235 169.112C343.086 169.411 342.867 169.725 342.579 170.056C342.302 170.387 341.934 170.664 341.475 170.888C341.017 171.112 340.43 171.224 339.715 171.224ZM337.411 166.248H341.779C341.737 165.651 341.523 165.187 341.139 164.856C340.755 164.515 340.254 164.344 339.635 164.344C339.017 164.344 338.51 164.515 338.115 164.856C337.731 165.187 337.497 165.651 337.411 166.248ZM347.306 171L344.65 163.112H346.394L348.49 169.784H348.746L350.842 163.112H352.586L349.93 171H347.306ZM357.84 171.224C357.04 171.224 356.341 171.059 355.744 170.728C355.146 170.387 354.677 169.912 354.336 169.304C354.005 168.685 353.84 167.971 353.84 167.16V166.968C353.84 166.147 354.005 165.432 354.336 164.824C354.666 164.205 355.125 163.731 355.712 163.4C356.309 163.059 356.997 162.888 357.776 162.888C358.533 162.888 359.194 163.059 359.76 163.4C360.336 163.731 360.784 164.195 361.104 164.792C361.424 165.389 361.584 166.088 361.584 166.888V167.512H355.52C355.541 168.205 355.77 168.76 356.208 169.176C356.656 169.581 357.21 169.784 357.872 169.784C358.49 169.784 358.954 169.645 359.264 169.368C359.584 169.091 359.829 168.771 360 168.408L361.36 169.112C361.21 169.411 360.992 169.725 360.704 170.056C360.426 170.387 360.058 170.664 359.6 170.888C359.141 171.112 358.554 171.224 357.84 171.224ZM355.536 166.248H359.904C359.861 165.651 359.648 165.187 359.264 164.856C358.88 164.515 358.378 164.344 357.76 164.344C357.141 164.344 356.634 164.515 356.24 164.856C355.856 165.187 355.621 165.651 355.536 166.248ZM363.888 171V163.112H365.504V164.296H365.76C365.909 163.976 366.176 163.677 366.56 163.4C366.944 163.123 367.514 162.984 368.272 162.984C368.869 162.984 369.397 163.117 369.856 163.384C370.325 163.651 370.693 164.029 370.96 164.52C371.226 165 371.36 165.581 371.36 166.264V171H369.712V166.392C369.712 165.709 369.541 165.208 369.2 164.888C368.858 164.557 368.389 164.392 367.792 164.392C367.109 164.392 366.56 164.616 366.144 165.064C365.738 165.512 365.536 166.163 365.536 167.016V171H363.888ZM376.793 171C376.313 171 375.929 170.856 375.641 170.568C375.363 170.28 375.225 169.896 375.225 169.416V164.504H373.049V163.112H375.225V160.504H376.873V163.112H379.225V164.504H376.873V169.128C376.873 169.448 377.022 169.608 377.321 169.608H378.969V171H376.793ZM384.713 171.224C383.71 171.224 382.878 171 382.217 170.552C381.555 170.104 381.15 169.427 381.001 168.52L382.537 168.152C382.622 168.589 382.766 168.936 382.969 169.192C383.171 169.448 383.422 169.629 383.721 169.736C384.03 169.843 384.361 169.896 384.713 169.896C385.235 169.896 385.635 169.795 385.913 169.592C386.201 169.389 386.345 169.128 386.345 168.808C386.345 168.488 386.211 168.253 385.945 168.104C385.678 167.955 385.283 167.832 384.761 167.736L384.217 167.64C383.683 167.544 383.198 167.405 382.761 167.224C382.323 167.043 381.977 166.792 381.721 166.472C381.465 166.152 381.337 165.741 381.337 165.24C381.337 164.493 381.614 163.917 382.169 163.512C382.723 163.096 383.459 162.888 384.377 162.888C385.262 162.888 385.987 163.091 386.553 163.496C387.129 163.891 387.502 164.429 387.673 165.112L386.137 165.544C386.041 165.064 385.838 164.728 385.529 164.536C385.219 164.333 384.835 164.232 384.377 164.232C383.929 164.232 383.577 164.317 383.321 164.488C383.065 164.648 382.937 164.877 382.937 165.176C382.937 165.496 383.059 165.731 383.305 165.88C383.561 166.029 383.902 166.141 384.329 166.216L384.889 166.312C385.454 166.408 385.971 166.541 386.441 166.712C386.91 166.883 387.278 167.128 387.545 167.448C387.822 167.768 387.961 168.195 387.961 168.728C387.961 169.517 387.667 170.131 387.081 170.568C386.494 171.005 385.705 171.224 384.713 171.224Z" fill="white"/>
<path d="M93.9414 198.439L83.502 208.889L78.0625 203.439L78.9414 202.561L83.502 207.111L93.0625 197.561L93.9414 198.439Z" fill="#24FF00"/>
<path d="M117.195 209V197.8H121.643C122.326 197.8 122.934 197.939 123.467 198.216C124.011 198.483 124.433 198.867 124.731 199.368C125.041 199.859 125.195 200.451 125.195 201.144V201.352C125.195 202.045 125.035 202.643 124.715 203.144C124.406 203.645 123.985 204.029 123.451 204.296C122.918 204.563 122.315 204.696 121.643 204.696H118.923V209H117.195ZM118.923 203.128H121.467C122.075 203.128 122.561 202.968 122.923 202.648C123.286 202.328 123.467 201.891 123.467 201.336V201.176C123.467 200.611 123.286 200.168 122.923 199.848C122.561 199.528 122.075 199.368 121.467 199.368H118.923V203.128ZM129.48 209.224C128.915 209.224 128.408 209.128 127.96 208.936C127.523 208.744 127.171 208.461 126.904 208.088C126.648 207.715 126.52 207.261 126.52 206.728C126.52 206.184 126.648 205.736 126.904 205.384C127.171 205.021 127.528 204.749 127.976 204.568C128.435 204.387 128.952 204.296 129.528 204.296H131.928V203.784C131.928 203.325 131.79 202.957 131.512 202.68C131.235 202.403 130.808 202.264 130.232 202.264C129.667 202.264 129.235 202.397 128.936 202.664C128.638 202.931 128.44 203.277 128.344 203.704L126.808 203.208C126.936 202.781 127.139 202.397 127.416 202.056C127.704 201.704 128.083 201.421 128.552 201.208C129.022 200.995 129.587 200.888 130.248 200.888C131.272 200.888 132.078 201.149 132.664 201.672C133.251 202.195 133.544 202.936 133.544 203.896V207.144C133.544 207.464 133.694 207.624 133.992 207.624H134.664V209H133.432C133.059 209 132.755 208.904 132.52 208.712C132.286 208.52 132.168 208.259 132.168 207.928V207.88H131.928C131.843 208.04 131.715 208.227 131.544 208.44C131.374 208.653 131.123 208.84 130.792 209C130.462 209.149 130.024 209.224 129.48 209.224ZM129.72 207.864C130.382 207.864 130.915 207.677 131.32 207.304C131.726 206.92 131.928 206.397 131.928 205.736V205.576H129.624C129.187 205.576 128.835 205.672 128.568 205.864C128.302 206.045 128.168 206.317 128.168 206.68C128.168 207.043 128.307 207.331 128.584 207.544C128.862 207.757 129.24 207.864 129.72 207.864ZM139 209C138.52 209 138.136 208.856 137.848 208.568C137.57 208.28 137.432 207.896 137.432 207.416V202.504H135.256V201.112H137.432V198.504H139.08V201.112H141.432V202.504H139.08V207.128C139.08 207.448 139.229 207.608 139.528 207.608H141.176V209H139ZM143.688 209V201.112H145.304V202.296H145.56C145.709 201.976 145.976 201.677 146.36 201.4C146.744 201.123 147.315 200.984 148.072 200.984C148.669 200.984 149.197 201.117 149.656 201.384C150.125 201.651 150.493 202.029 150.76 202.52C151.027 203 151.16 203.581 151.16 204.264V209H149.512V204.392C149.512 203.709 149.341 203.208 149 202.888C148.659 202.557 148.189 202.392 147.592 202.392C146.909 202.392 146.36 202.616 145.944 203.064C145.539 203.512 145.336 204.163 145.336 205.016V209H143.688ZM157.468 209.224C156.668 209.224 155.969 209.059 155.372 208.728C154.774 208.387 154.305 207.912 153.964 207.304C153.633 206.685 153.468 205.971 153.468 205.16V204.968C153.468 204.147 153.633 203.432 153.964 202.824C154.294 202.205 154.753 201.731 155.34 201.4C155.937 201.059 156.625 200.888 157.404 200.888C158.161 200.888 158.822 201.059 159.388 201.4C159.964 201.731 160.412 202.195 160.732 202.792C161.052 203.389 161.212 204.088 161.212 204.888V205.512H155.148C155.169 206.205 155.398 206.76 155.836 207.176C156.284 207.581 156.838 207.784 157.5 207.784C158.118 207.784 158.582 207.645 158.892 207.368C159.212 207.091 159.457 206.771 159.628 206.408L160.988 207.112C160.838 207.411 160.62 207.725 160.332 208.056C160.054 208.387 159.686 208.664 159.228 208.888C158.769 209.112 158.182 209.224 157.468 209.224ZM155.164 204.248H159.532C159.489 203.651 159.276 203.187 158.892 202.856C158.508 202.515 158.006 202.344 157.388 202.344C156.769 202.344 156.262 202.515 155.868 202.856C155.484 203.187 155.249 203.651 155.164 204.248ZM163.515 209V201.112H165.131V202.04H165.387C165.515 201.709 165.718 201.469 165.995 201.32C166.283 201.16 166.635 201.08 167.051 201.08H167.995V202.568H166.987C166.454 202.568 166.017 202.717 165.675 203.016C165.334 203.304 165.163 203.752 165.163 204.36V209H163.515ZM173.083 209.224C172.08 209.224 171.248 209 170.587 208.552C169.926 208.104 169.52 207.427 169.371 206.52L170.907 206.152C170.992 206.589 171.136 206.936 171.339 207.192C171.542 207.448 171.792 207.629 172.091 207.736C172.4 207.843 172.731 207.896 173.083 207.896C173.606 207.896 174.006 207.795 174.283 207.592C174.571 207.389 174.715 207.128 174.715 206.808C174.715 206.488 174.582 206.253 174.315 206.104C174.048 205.955 173.654 205.832 173.131 205.736L172.587 205.64C172.054 205.544 171.568 205.405 171.131 205.224C170.694 205.043 170.347 204.792 170.091 204.472C169.835 204.152 169.707 203.741 169.707 203.24C169.707 202.493 169.984 201.917 170.539 201.512C171.094 201.096 171.83 200.888 172.747 200.888C173.632 200.888 174.358 201.091 174.923 201.496C175.499 201.891 175.872 202.429 176.043 203.112L174.507 203.544C174.411 203.064 174.208 202.728 173.899 202.536C173.59 202.333 173.206 202.232 172.747 202.232C172.299 202.232 171.947 202.317 171.691 202.488C171.435 202.648 171.307 202.877 171.307 203.176C171.307 203.496 171.43 203.731 171.675 203.88C171.931 204.029 172.272 204.141 172.699 204.216L173.259 204.312C173.824 204.408 174.342 204.541 174.811 204.712C175.28 204.883 175.648 205.128 175.915 205.448C176.192 205.768 176.331 206.195 176.331 206.728C176.331 207.517 176.038 208.131 175.451 208.568C174.864 209.005 174.075 209.224 173.083 209.224ZM178.577 209V197.8H180.225V202.232H180.481C180.588 202.029 180.737 201.832 180.929 201.64C181.132 201.448 181.393 201.293 181.713 201.176C182.044 201.048 182.46 200.984 182.961 200.984C183.559 200.984 184.087 201.117 184.545 201.384C185.015 201.651 185.383 202.029 185.649 202.52C185.916 203 186.049 203.581 186.049 204.264V209H184.401V204.392C184.401 203.709 184.231 203.208 183.889 202.888C183.548 202.557 183.079 202.392 182.481 202.392C181.799 202.392 181.249 202.616 180.833 203.064C180.428 203.512 180.225 204.163 180.225 205.016V209H178.577ZM188.741 209V201.112H190.389V209H188.741ZM189.573 200.04C189.253 200.04 188.981 199.939 188.757 199.736C188.544 199.523 188.437 199.251 188.437 198.92C188.437 198.589 188.544 198.323 188.757 198.12C188.981 197.907 189.253 197.8 189.573 197.8C189.904 197.8 190.176 197.907 190.389 198.12C190.602 198.323 190.709 198.589 190.709 198.92C190.709 199.251 190.602 199.523 190.389 199.736C190.176 199.939 189.904 200.04 189.573 200.04ZM193.155 212.2V201.112H194.771V202.248H195.027C195.229 201.896 195.533 201.581 195.939 201.304C196.355 201.027 196.947 200.888 197.715 200.888C198.376 200.888 198.979 201.048 199.523 201.368C200.077 201.688 200.52 202.152 200.851 202.76C201.192 203.357 201.363 204.083 201.363 204.936V205.176C201.363 206.029 201.197 206.76 200.867 207.368C200.536 207.965 200.093 208.424 199.539 208.744C198.984 209.064 198.376 209.224 197.715 209.224C197.203 209.224 196.771 209.16 196.419 209.032C196.067 208.904 195.784 208.744 195.571 208.552C195.357 208.349 195.187 208.141 195.059 207.928H194.803V212.2H193.155ZM197.235 207.784C197.96 207.784 198.552 207.555 199.011 207.096C199.469 206.637 199.699 205.981 199.699 205.128V204.984C199.699 204.141 199.464 203.491 198.995 203.032C198.536 202.573 197.949 202.344 197.235 202.344C196.531 202.344 195.944 202.573 195.475 203.032C195.016 203.491 194.787 204.141 194.787 204.984V205.128C194.787 205.981 195.016 206.637 195.475 207.096C195.944 207.555 196.531 207.784 197.235 207.784ZM210.571 209.224C210.006 209.224 209.499 209.128 209.051 208.936C208.614 208.744 208.262 208.461 207.995 208.088C207.739 207.715 207.611 207.261 207.611 206.728C207.611 206.184 207.739 205.736 207.995 205.384C208.262 205.021 208.619 204.749 209.067 204.568C209.526 204.387 210.043 204.296 210.619 204.296H213.019V203.784C213.019 203.325 212.88 202.957 212.603 202.68C212.326 202.403 211.899 202.264 211.323 202.264C210.758 202.264 210.326 202.397 210.027 202.664C209.728 202.931 209.531 203.277 209.435 203.704L207.899 203.208C208.027 202.781 208.23 202.397 208.507 202.056C208.795 201.704 209.174 201.421 209.643 201.208C210.112 200.995 210.678 200.888 211.339 200.888C212.363 200.888 213.168 201.149 213.755 201.672C214.342 202.195 214.635 202.936 214.635 203.896V207.144C214.635 207.464 214.784 207.624 215.083 207.624H215.755V209H214.523C214.15 209 213.846 208.904 213.611 208.712C213.376 208.52 213.259 208.259 213.259 207.928V207.88H213.019C212.934 208.04 212.806 208.227 212.635 208.44C212.464 208.653 212.214 208.84 211.883 209C211.552 209.149 211.115 209.224 210.571 209.224ZM210.811 207.864C211.472 207.864 212.006 207.677 212.411 207.304C212.816 206.92 213.019 206.397 213.019 205.736V205.576H210.715C210.278 205.576 209.926 205.672 209.659 205.864C209.392 206.045 209.259 206.317 209.259 206.68C209.259 207.043 209.398 207.331 209.675 207.544C209.952 207.757 210.331 207.864 210.811 207.864ZM217.677 209V201.112H219.293V202.296H219.549C219.699 201.976 219.965 201.677 220.349 201.4C220.733 201.123 221.304 200.984 222.061 200.984C222.659 200.984 223.187 201.117 223.645 201.384C224.115 201.651 224.483 202.029 224.749 202.52C225.016 203 225.149 203.581 225.149 204.264V209H223.501V204.392C223.501 203.709 223.331 203.208 222.989 202.888C222.648 202.557 222.179 202.392 221.581 202.392C220.899 202.392 220.349 202.616 219.933 203.064C219.528 203.512 219.325 204.163 219.325 205.016V209H217.677ZM231.105 209.224C230.454 209.224 229.852 209.064 229.297 208.744C228.742 208.424 228.294 207.965 227.953 207.368C227.622 206.76 227.457 206.029 227.457 205.176V204.936C227.457 204.093 227.622 203.368 227.953 202.76C228.284 202.152 228.726 201.688 229.281 201.368C229.836 201.048 230.444 200.888 231.105 200.888C231.617 200.888 232.044 200.952 232.385 201.08C232.737 201.208 233.025 201.373 233.249 201.576C233.473 201.768 233.644 201.971 233.761 202.184H234.017V197.8H235.665V209H234.049V207.88H233.793C233.59 208.221 233.281 208.531 232.865 208.808C232.46 209.085 231.873 209.224 231.105 209.224ZM231.569 207.784C232.284 207.784 232.87 207.555 233.329 207.096C233.798 206.637 234.033 205.981 234.033 205.128V204.984C234.033 204.141 233.804 203.491 233.345 203.032C232.886 202.573 232.294 202.344 231.569 202.344C230.865 202.344 230.278 202.573 229.809 203.032C229.35 203.491 229.121 204.141 229.121 204.984V205.128C229.121 205.981 229.35 206.637 229.809 207.096C230.278 207.555 230.865 207.784 231.569 207.784ZM242.809 209V201.112H244.425V202.296H244.681C244.83 201.976 245.097 201.677 245.481 201.4C245.865 201.123 246.436 200.984 247.193 200.984C247.79 200.984 248.318 201.117 248.777 201.384C249.246 201.651 249.614 202.029 249.881 202.52C250.148 203 250.281 203.581 250.281 204.264V209H248.633V204.392C248.633 203.709 248.462 203.208 248.121 202.888C247.78 202.557 247.31 202.392 246.713 202.392C246.03 202.392 245.481 202.616 245.065 203.064C244.66 203.512 244.457 204.163 244.457 205.016V209H242.809ZM256.589 209.224C255.789 209.224 255.09 209.059 254.493 208.728C253.896 208.387 253.426 207.912 253.085 207.304C252.754 206.685 252.589 205.971 252.589 205.16V204.968C252.589 204.147 252.754 203.432 253.085 202.824C253.416 202.205 253.874 201.731 254.461 201.4C255.058 201.059 255.746 200.888 256.525 200.888C257.282 200.888 257.944 201.059 258.509 201.4C259.085 201.731 259.533 202.195 259.853 202.792C260.173 203.389 260.333 204.088 260.333 204.888V205.512H254.269C254.29 206.205 254.52 206.76 254.957 207.176C255.405 207.581 255.96 207.784 256.621 207.784C257.24 207.784 257.704 207.645 258.013 207.368C258.333 207.091 258.578 206.771 258.749 206.408L260.109 207.112C259.96 207.411 259.741 207.725 259.453 208.056C259.176 208.387 258.808 208.664 258.349 208.888C257.89 209.112 257.304 209.224 256.589 209.224ZM254.285 204.248H258.653C258.61 203.651 258.397 203.187 258.013 202.856C257.629 202.515 257.128 202.344 256.509 202.344C255.89 202.344 255.384 202.515 254.989 202.856C254.605 203.187 254.37 203.651 254.285 204.248ZM263.407 209L262.063 201.112H263.711L264.703 207.896H264.959L266.335 201.112H269.007L270.367 207.896H270.623L271.615 201.112H273.263L271.919 209H269.151L267.791 202.232H267.535L266.175 209H263.407ZM283.165 209.224C282.162 209.224 281.33 209 280.669 208.552C280.008 208.104 279.602 207.427 279.453 206.52L280.989 206.152C281.074 206.589 281.218 206.936 281.421 207.192C281.624 207.448 281.874 207.629 282.173 207.736C282.482 207.843 282.813 207.896 283.165 207.896C283.688 207.896 284.088 207.795 284.365 207.592C284.653 207.389 284.797 207.128 284.797 206.808C284.797 206.488 284.664 206.253 284.397 206.104C284.13 205.955 283.736 205.832 283.213 205.736L282.669 205.64C282.136 205.544 281.65 205.405 281.213 205.224C280.776 205.043 280.429 204.792 280.173 204.472C279.917 204.152 279.789 203.741 279.789 203.24C279.789 202.493 280.066 201.917 280.621 201.512C281.176 201.096 281.912 200.888 282.829 200.888C283.714 200.888 284.44 201.091 285.005 201.496C285.581 201.891 285.954 202.429 286.125 203.112L284.589 203.544C284.493 203.064 284.29 202.728 283.981 202.536C283.672 202.333 283.288 202.232 282.829 202.232C282.381 202.232 282.029 202.317 281.773 202.488C281.517 202.648 281.389 202.877 281.389 203.176C281.389 203.496 281.512 203.731 281.757 203.88C282.013 204.029 282.354 204.141 282.781 204.216L283.341 204.312C283.906 204.408 284.424 204.541 284.893 204.712C285.362 204.883 285.73 205.128 285.997 205.448C286.274 205.768 286.413 206.195 286.413 206.728C286.413 207.517 286.12 208.131 285.533 208.568C284.946 209.005 284.157 209.224 283.165 209.224ZM288.659 212.2V201.112H290.275V202.248H290.531C290.734 201.896 291.038 201.581 291.443 201.304C291.859 201.027 292.451 200.888 293.219 200.888C293.88 200.888 294.483 201.048 295.027 201.368C295.582 201.688 296.024 202.152 296.355 202.76C296.696 203.357 296.867 204.083 296.867 204.936V205.176C296.867 206.029 296.702 206.76 296.371 207.368C296.04 207.965 295.598 208.424 295.043 208.744C294.488 209.064 293.88 209.224 293.219 209.224C292.707 209.224 292.275 209.16 291.923 209.032C291.571 208.904 291.288 208.744 291.075 208.552C290.862 208.349 290.691 208.141 290.563 207.928H290.307V212.2H288.659ZM292.739 207.784C293.464 207.784 294.056 207.555 294.515 207.096C294.974 206.637 295.203 205.981 295.203 205.128V204.984C295.203 204.141 294.968 203.491 294.499 203.032C294.04 202.573 293.454 202.344 292.739 202.344C292.035 202.344 291.448 202.573 290.979 203.032C290.52 203.491 290.291 204.141 290.291 204.984V205.128C290.291 205.981 290.52 206.637 290.979 207.096C291.448 207.555 292.035 207.784 292.739 207.784ZM302.925 209.224C302.136 209.224 301.432 209.064 300.813 208.744C300.205 208.413 299.725 207.944 299.373 207.336C299.021 206.728 298.845 206.008 298.845 205.176V204.936C298.845 204.104 299.021 203.389 299.373 202.792C299.725 202.184 300.205 201.715 300.813 201.384C301.432 201.053 302.136 200.888 302.925 200.888C303.714 200.888 304.418 201.053 305.037 201.384C305.656 201.715 306.141 202.184 306.493 202.792C306.845 203.389 307.021 204.104 307.021 204.936V205.176C307.021 206.008 306.845 206.728 306.493 207.336C306.141 207.944 305.656 208.413 305.037 208.744C304.418 209.064 303.714 209.224 302.925 209.224ZM302.925 207.752C303.65 207.752 304.237 207.523 304.685 207.064C305.144 206.595 305.373 205.949 305.373 205.128V204.984C305.373 204.163 305.149 203.523 304.701 203.064C304.253 202.595 303.661 202.36 302.925 202.36C302.21 202.36 301.624 202.595 301.165 203.064C300.717 203.523 300.493 204.163 300.493 204.984V205.128C300.493 205.949 300.717 206.595 301.165 207.064C301.624 207.523 302.21 207.752 302.925 207.752ZM309.393 209V201.112H311.009V202.296H311.265C311.414 201.976 311.681 201.677 312.065 201.4C312.449 201.123 313.02 200.984 313.777 200.984C314.374 200.984 314.902 201.117 315.361 201.384C315.83 201.651 316.198 202.029 316.465 202.52C316.732 203 316.865 203.581 316.865 204.264V209H315.217V204.392C315.217 203.709 315.046 203.208 314.705 202.888C314.364 202.557 313.894 202.392 313.297 202.392C312.614 202.392 312.065 202.616 311.649 203.064C311.244 203.512 311.041 204.163 311.041 205.016V209H309.393ZM322.789 209.224C321.786 209.224 320.954 209 320.293 208.552C319.631 208.104 319.226 207.427 319.077 206.52L320.613 206.152C320.698 206.589 320.842 206.936 321.045 207.192C321.247 207.448 321.498 207.629 321.797 207.736C322.106 207.843 322.437 207.896 322.789 207.896C323.311 207.896 323.711 207.795 323.989 207.592C324.277 207.389 324.421 207.128 324.421 206.808C324.421 206.488 324.287 206.253 324.021 206.104C323.754 205.955 323.359 205.832 322.837 205.736L322.293 205.64C321.759 205.544 321.274 205.405 320.837 205.224C320.399 205.043 320.053 204.792 319.797 204.472C319.541 204.152 319.413 203.741 319.413 203.24C319.413 202.493 319.69 201.917 320.245 201.512C320.799 201.096 321.535 200.888 322.453 200.888C323.338 200.888 324.063 201.091 324.629 201.496C325.205 201.891 325.578 202.429 325.749 203.112L324.213 203.544C324.117 203.064 323.914 202.728 323.605 202.536C323.295 202.333 322.911 202.232 322.453 202.232C322.005 202.232 321.653 202.317 321.397 202.488C321.141 202.648 321.013 202.877 321.013 203.176C321.013 203.496 321.135 203.731 321.381 203.88C321.637 204.029 321.978 204.141 322.405 204.216L322.965 204.312C323.53 204.408 324.047 204.541 324.517 204.712C324.986 204.883 325.354 205.128 325.621 205.448C325.898 205.768 326.037 206.195 326.037 206.728C326.037 207.517 325.743 208.131 325.157 208.568C324.57 209.005 323.781 209.224 322.789 209.224ZM331.979 209.224C331.19 209.224 330.486 209.064 329.867 208.744C329.259 208.413 328.779 207.944 328.427 207.336C328.075 206.728 327.899 206.008 327.899 205.176V204.936C327.899 204.104 328.075 203.389 328.427 202.792C328.779 202.184 329.259 201.715 329.867 201.384C330.486 201.053 331.19 200.888 331.979 200.888C332.768 200.888 333.472 201.053 334.091 201.384C334.71 201.715 335.195 202.184 335.547 202.792C335.899 203.389 336.075 204.104 336.075 204.936V205.176C336.075 206.008 335.899 206.728 335.547 207.336C335.195 207.944 334.71 208.413 334.091 208.744C333.472 209.064 332.768 209.224 331.979 209.224ZM331.979 207.752C332.704 207.752 333.291 207.523 333.739 207.064C334.198 206.595 334.427 205.949 334.427 205.128V204.984C334.427 204.163 334.203 203.523 333.755 203.064C333.307 202.595 332.715 202.36 331.979 202.36C331.264 202.36 330.678 202.595 330.219 203.064C329.771 203.523 329.547 204.163 329.547 204.984V205.128C329.547 205.949 329.771 206.595 330.219 207.064C330.678 207.523 331.264 207.752 331.979 207.752ZM338.447 209V201.112H340.063V202.04H340.319C340.447 201.709 340.649 201.469 340.927 201.32C341.215 201.16 341.567 201.08 341.983 201.08H342.927V202.568H341.919C341.385 202.568 340.948 202.717 340.607 203.016C340.265 203.304 340.095 203.752 340.095 204.36V209H338.447ZM348.014 209.224C347.012 209.224 346.18 209 345.518 208.552C344.857 208.104 344.452 207.427 344.302 206.52L345.838 206.152C345.924 206.589 346.068 206.936 346.27 207.192C346.473 207.448 346.724 207.629 347.022 207.736C347.332 207.843 347.662 207.896 348.014 207.896C348.537 207.896 348.937 207.795 349.214 207.592C349.502 207.389 349.646 207.128 349.646 206.808C349.646 206.488 349.513 206.253 349.246 206.104C348.98 205.955 348.585 205.832 348.062 205.736L347.518 205.64C346.985 205.544 346.5 205.405 346.062 205.224C345.625 205.043 345.278 204.792 345.022 204.472C344.766 204.152 344.638 203.741 344.638 203.24C344.638 202.493 344.916 201.917 345.47 201.512C346.025 201.096 346.761 200.888 347.678 200.888C348.564 200.888 349.289 201.091 349.854 201.496C350.43 201.891 350.804 202.429 350.974 203.112L349.438 203.544C349.342 203.064 349.14 202.728 348.83 202.536C348.521 202.333 348.137 202.232 347.678 202.232C347.23 202.232 346.878 202.317 346.622 202.488C346.366 202.648 346.238 202.877 346.238 203.176C346.238 203.496 346.361 203.731 346.606 203.88C346.862 204.029 347.204 204.141 347.63 204.216L348.19 204.312C348.756 204.408 349.273 204.541 349.742 204.712C350.212 204.883 350.58 205.128 350.846 205.448C351.124 205.768 351.262 206.195 351.262 206.728C351.262 207.517 350.969 208.131 350.382 208.568C349.796 209.005 349.006 209.224 348.014 209.224Z" fill="white"/>
<rect x="44.5" y="0.5" width="577" height="229" rx="19.5" stroke="white"/>
<line x1="11" y1="46.25" x2="44.048" y2="46.25" stroke="white"/>
<rect x="1.58333" y="38.5833" width="15.8333" height="15.8333" rx="7.91667" fill="#24FF00"/>
<rect x="1.58333" y="38.5833" width="15.8333" height="15.8333" rx="7.91667" stroke="#FA9E14" stroke-width="3.16667"/>
</svg>
